<svg width="117" height="234" viewBox="0 0 117 234" fill="none" xmlns="http://www.w3.org/2000/svg">
<path d="M72.226 225.094C86.4211 230.974 101.635 234 117 234V123.5H45.6924L75.9619 153.77C78.5004 156.308 78.5004 160.424 75.9619 162.962C73.4235 165.5 69.308 165.5 66.7696 162.962L25.4038 121.596C22.8654 119.058 22.8654 114.942 25.4038 112.404L66.7696 71.0381C69.308 68.4996 73.4235 68.4996 75.9619 71.0381C78.5004 73.5765 78.5004 77.692 75.9619 80.2304L45.6924 110.5H117L117 0C101.635 0 86.4211 3.02629 72.226 8.90609C58.0309 14.7859 45.133 23.404 34.2685 34.2685C23.4041 45.133 14.7859 58.0309 8.9061 72.226C3.02629 86.4211 0 101.635 0 117C0 132.365 3.02629 147.579 8.9061 161.774C14.7859 175.969 23.4041 188.867 34.2685 199.731C45.133 210.596 58.0309 219.214 72.226 225.094Z" fill="url(#paint0_linear_219_179)"/>
<defs>
<linearGradient id="paint0_linear_219_179" x1="0" y1="117" x2="117" y2="117" gradientUnits="userSpaceOnUse">
<stop stop-color="#10A9FF"/>
<stop offset="1" stop-color="white"/>
</linearGradient>
</defs>
</svg>
