<svg width="150" height="81" viewBox="0 0 150 81" fill="none" xmlns="http://www.w3.org/2000/svg">
<path d="M28.5364 73.7189L27.4114 70.8039C27.3781 70.7172 27.3431 70.6172 27.3064 70.5039C27.2697 70.3872 27.2347 70.2639 27.2014 70.1339C27.1314 70.4039 27.0597 70.6289 26.9864 70.8089L25.8614 73.7189H28.5364ZM30.5564 76.3789H29.8064C29.7197 76.3789 29.6497 76.3572 29.5964 76.3139C29.5431 76.2706 29.5031 76.2156 29.4764 76.1489L28.8064 74.4189H25.5914L24.9214 76.1489C24.9014 76.2089 24.8631 76.2622 24.8064 76.3089C24.7497 76.3556 24.6797 76.3789 24.5964 76.3789H23.8464L26.7114 69.2139H27.6914L30.5564 76.3789ZM35.164 70.3339C35.134 70.3839 35.1007 70.4222 35.064 70.4489C35.0307 70.4722 34.989 70.4839 34.939 70.4839C34.8823 70.4839 34.8157 70.4556 34.739 70.3989C34.6623 70.3422 34.5657 70.2806 34.449 70.2139C34.3357 70.1439 34.1973 70.0806 34.034 70.0239C33.874 69.9672 33.679 69.9389 33.449 69.9389C33.2323 69.9389 33.0407 69.9689 32.874 70.0289C32.7107 70.0856 32.5723 70.1639 32.459 70.2639C32.349 70.3639 32.2657 70.4822 32.209 70.6189C32.1523 70.7522 32.124 70.8972 32.124 71.0539C32.124 71.2539 32.1723 71.4206 32.269 71.5539C32.369 71.6839 32.499 71.7956 32.659 71.8889C32.8223 71.9822 33.0057 72.0639 33.209 72.1339C33.4157 72.2006 33.6257 72.2706 33.839 72.3439C34.0557 72.4172 34.2657 72.5006 34.469 72.5939C34.6757 72.6839 34.859 72.7989 35.019 72.9389C35.1823 73.0789 35.3123 73.2506 35.409 73.4539C35.509 73.6572 35.559 73.9072 35.559 74.2039C35.559 74.5172 35.5057 74.8122 35.399 75.0889C35.2923 75.3622 35.1357 75.6006 34.929 75.8039C34.7257 76.0072 34.474 76.1672 34.174 76.2839C33.8773 76.4006 33.539 76.4589 33.159 76.4589C32.6923 76.4589 32.269 76.3756 31.889 76.2089C31.509 76.0389 31.184 75.8106 30.914 75.5239L31.194 75.0639C31.2207 75.0272 31.2523 74.9972 31.289 74.9739C31.329 74.9472 31.3723 74.9339 31.419 74.9339C31.4623 74.9339 31.5107 74.9522 31.564 74.9889C31.6207 75.0222 31.684 75.0656 31.754 75.1189C31.824 75.1722 31.904 75.2306 31.994 75.2939C32.084 75.3572 32.1857 75.4156 32.299 75.4689C32.4157 75.5222 32.5473 75.5672 32.694 75.6039C32.8407 75.6372 33.0057 75.6539 33.189 75.6539C33.419 75.6539 33.624 75.6222 33.804 75.5589C33.984 75.4956 34.1357 75.4072 34.259 75.2939C34.3857 75.1772 34.4823 75.0389 34.549 74.8789C34.6157 74.7189 34.649 74.5406 34.649 74.3439C34.649 74.1272 34.599 73.9506 34.499 73.8139C34.4023 73.6739 34.274 73.5572 34.114 73.4639C33.954 73.3706 33.7707 73.2922 33.564 73.2289C33.3573 73.1622 33.1473 73.0956 32.934 73.0289C32.7207 72.9589 32.5107 72.8789 32.304 72.7889C32.0973 72.6989 31.914 72.5822 31.754 72.4389C31.594 72.2956 31.464 72.1172 31.364 71.9039C31.2673 71.6872 31.219 71.4206 31.219 71.1039C31.219 70.8506 31.2673 70.6056 31.364 70.3689C31.464 70.1322 31.6073 69.9222 31.794 69.7389C31.984 69.5556 32.2157 69.4089 32.489 69.2989C32.7657 69.1889 33.0823 69.1339 33.439 69.1339C33.839 69.1339 34.2023 69.1972 34.529 69.3239C34.859 69.4506 35.149 69.6339 35.399 69.8739L35.164 70.3339ZM40.5937 70.3339C40.5637 70.3839 40.5303 70.4222 40.4937 70.4489C40.4603 70.4722 40.4187 70.4839 40.3687 70.4839C40.312 70.4839 40.2453 70.4556 40.1687 70.3989C40.092 70.3422 39.9953 70.2806 39.8787 70.2139C39.7653 70.1439 39.627 70.0806 39.4637 70.0239C39.3037 69.9672 39.1087 69.9389 38.8787 69.9389C38.662 69.9389 38.4703 69.9689 38.3037 70.0289C38.1403 70.0856 38.002 70.1639 37.8887 70.2639C37.7787 70.3639 37.6953 70.4822 37.6387 70.6189C37.582 70.7522 37.5537 70.8972 37.5537 71.0539C37.5537 71.2539 37.602 71.4206 37.6987 71.5539C37.7987 71.6839 37.9287 71.7956 38.0887 71.8889C38.252 71.9822 38.4353 72.0639 38.6387 72.1339C38.8453 72.2006 39.0553 72.2706 39.2687 72.3439C39.4853 72.4172 39.6953 72.5006 39.8987 72.5939C40.1053 72.6839 40.2887 72.7989 40.4487 72.9389C40.612 73.0789 40.742 73.2506 40.8387 73.4539C40.9387 73.6572 40.9887 73.9072 40.9887 74.2039C40.9887 74.5172 40.9353 74.8122 40.8287 75.0889C40.722 75.3622 40.5653 75.6006 40.3587 75.8039C40.1553 76.0072 39.9037 76.1672 39.6037 76.2839C39.307 76.4006 38.9687 76.4589 38.5887 76.4589C38.122 76.4589 37.6987 76.3756 37.3187 76.2089C36.9387 76.0389 36.6137 75.8106 36.3437 75.5239L36.6237 75.0639C36.6503 75.0272 36.682 74.9972 36.7187 74.9739C36.7587 74.9472 36.802 74.9339 36.8487 74.9339C36.892 74.9339 36.9403 74.9522 36.9937 74.9889C37.0503 75.0222 37.1137 75.0656 37.1837 75.1189C37.2537 75.1722 37.3337 75.2306 37.4237 75.2939C37.5137 75.3572 37.6153 75.4156 37.7287 75.4689C37.8453 75.5222 37.977 75.5672 38.1237 75.6039C38.2703 75.6372 38.4353 75.6539 38.6187 75.6539C38.8487 75.6539 39.0537 75.6222 39.2337 75.5589C39.4137 75.4956 39.5653 75.4072 39.6887 75.2939C39.8153 75.1772 39.912 75.0389 39.9787 74.8789C40.0453 74.7189 40.0787 74.5406 40.0787 74.3439C40.0787 74.1272 40.0287 73.9506 39.9287 73.8139C39.832 73.6739 39.7037 73.5572 39.5437 73.4639C39.3837 73.3706 39.2003 73.2922 38.9937 73.2289C38.787 73.1622 38.577 73.0956 38.3637 73.0289C38.1503 72.9589 37.9403 72.8789 37.7337 72.7889C37.527 72.6989 37.3437 72.5822 37.1837 72.4389C37.0237 72.2956 36.8937 72.1172 36.7937 71.9039C36.697 71.6872 36.6487 71.4206 36.6487 71.1039C36.6487 70.8506 36.697 70.6056 36.7937 70.3689C36.8937 70.1322 37.037 69.9222 37.2237 69.7389C37.4137 69.5556 37.6453 69.4089 37.9187 69.2989C38.1953 69.1889 38.512 69.1339 38.8687 69.1339C39.2687 69.1339 39.632 69.1972 39.9587 69.3239C40.2887 69.4506 40.5787 69.6339 40.8287 69.8739L40.5937 70.3339ZM45.1234 75.6089C45.42 75.6089 45.685 75.5589 45.9184 75.4589C46.1517 75.3589 46.3484 75.2189 46.5084 75.0389C46.6717 74.8589 46.795 74.6439 46.8784 74.3939C46.965 74.1439 47.0084 73.8689 47.0084 73.5689V69.2139H47.9734V73.5689C47.9734 73.9822 47.9067 74.3656 47.7734 74.7189C47.6434 75.0722 47.455 75.3789 47.2084 75.6389C46.965 75.8956 46.6667 76.0972 46.3134 76.2439C45.96 76.3906 45.5634 76.4639 45.1234 76.4639C44.6834 76.4639 44.2867 76.3906 43.9334 76.2439C43.58 76.0972 43.28 75.8956 43.0334 75.6389C42.7867 75.3789 42.5967 75.0722 42.4634 74.7189C42.3334 74.3656 42.2684 73.9822 42.2684 73.5689V69.2139H43.2334V73.5639C43.2334 73.8639 43.275 74.1389 43.3584 74.3889C43.445 74.6389 43.5684 74.8539 43.7284 75.0339C43.8917 75.2139 44.09 75.3556 44.3234 75.4589C44.56 75.5589 44.8267 75.6089 45.1234 75.6089ZM51.6969 72.6839C51.9769 72.6839 52.2235 72.6506 52.4369 72.5839C52.6535 72.5139 52.8335 72.4172 52.9769 72.2939C53.1235 72.1672 53.2335 72.0172 53.3069 71.8439C53.3802 71.6706 53.4169 71.4789 53.4169 71.2689C53.4169 70.8422 53.2769 70.5206 52.9969 70.3039C52.7169 70.0872 52.2969 69.9789 51.7369 69.9789H50.6769V72.6839H51.6969ZM55.0069 76.3789H54.1469C53.9702 76.3789 53.8402 76.3106 53.7569 76.1739L51.8969 73.6139C51.8402 73.5339 51.7785 73.4772 51.7119 73.4439C51.6485 73.4072 51.5485 73.3889 51.4119 73.3889H50.6769V76.3789H49.7119V69.2139H51.7369C52.1902 69.2139 52.5819 69.2606 52.9119 69.3539C53.2419 69.4439 53.5135 69.5756 53.7269 69.7489C53.9435 69.9222 54.1035 70.1322 54.2069 70.3789C54.3102 70.6222 54.3619 70.8956 54.3619 71.1989C54.3619 71.4522 54.3219 71.6889 54.2419 71.9089C54.1619 72.1289 54.0452 72.3272 53.8919 72.5039C53.7419 72.6772 53.5569 72.8256 53.3369 72.9489C53.1202 73.0722 52.8735 73.1656 52.5969 73.2289C52.7202 73.2989 52.8269 73.4006 52.9169 73.5339L55.0069 76.3789ZM60.4014 75.5889L60.3964 76.3789H55.9814V69.2139H60.3964V70.0039H56.9514V72.3839H59.7414V73.1439H56.9514V75.5889H60.4014ZM67.9629 72.7989C67.9629 73.3356 67.8779 73.8239 67.7079 74.2639C67.5379 74.7039 67.2979 75.0806 66.9879 75.3939C66.6779 75.7072 66.3046 75.9506 65.8679 76.1239C65.4346 76.2939 64.9546 76.3789 64.4279 76.3789H61.7529V69.2139H64.4279C64.9546 69.2139 65.4346 69.3006 65.8679 69.4739C66.3046 69.6439 66.6779 69.8872 66.9879 70.2039C67.2979 70.5172 67.5379 70.8939 67.7079 71.3339C67.8779 71.7739 67.9629 72.2622 67.9629 72.7989ZM66.9679 72.7989C66.9679 72.3589 66.9079 71.9656 66.7879 71.6189C66.6679 71.2722 66.4979 70.9789 66.2779 70.7389C66.0579 70.4989 65.7912 70.3156 65.4779 70.1889C65.1646 70.0622 64.8146 69.9989 64.4279 69.9989H62.7229V75.5939H64.4279C64.8146 75.5939 65.1646 75.5306 65.4779 75.4039C65.7912 75.2772 66.0579 75.0956 66.2779 74.8589C66.4979 74.6189 66.6679 74.3256 66.7879 73.9789C66.9079 73.6322 66.9679 73.2389 66.9679 72.7989ZM76.3389 75.5889L76.3339 76.3789H71.9189V69.2139H76.3339V70.0039H72.8889V72.3839H75.6789V73.1439H72.8889V75.5889H76.3389ZM83.1554 76.3789H82.1954C82.1221 76.3789 82.0637 76.3606 82.0204 76.3239C81.9804 76.2839 81.9471 76.2406 81.9204 76.1939L80.0004 73.1839C79.9737 73.2639 79.9437 73.3322 79.9104 73.3889L78.0404 76.1939C78.0071 76.2406 77.9704 76.2839 77.9304 76.3239C77.8937 76.3606 77.8421 76.3789 77.7754 76.3789H76.8754L79.3404 72.6989L76.9754 69.2139H77.9404C78.0104 69.2139 78.0621 69.2256 78.0954 69.2489C78.1287 69.2722 78.1587 69.3056 78.1854 69.3489L80.0554 72.2189C80.0787 72.1489 80.1137 72.0722 80.1604 71.9889L81.9254 69.3689C81.9521 69.3222 81.9837 69.2856 82.0204 69.2589C82.0571 69.2289 82.1004 69.2139 82.1504 69.2139H83.0754L80.7004 72.6539L83.1554 76.3789ZM88.9216 74.8989C88.9749 74.8989 89.0216 74.9206 89.0616 74.9639L89.4466 75.3789C89.1532 75.7189 88.7966 75.9839 88.3766 76.1739C87.9599 76.3639 87.4549 76.4589 86.8616 76.4589C86.3482 76.4589 85.8816 76.3706 85.4616 76.1939C85.0416 76.0139 84.6832 75.7639 84.3866 75.4439C84.0899 75.1206 83.8599 74.7339 83.6966 74.2839C83.5332 73.8339 83.4516 73.3389 83.4516 72.7989C83.4516 72.2589 83.5366 71.7639 83.7066 71.3139C83.8766 70.8639 84.1149 70.4772 84.4216 70.1539C84.7316 69.8306 85.1016 69.5806 85.5316 69.4039C85.9616 69.2239 86.4366 69.1339 86.9566 69.1339C87.4666 69.1339 87.9166 69.2156 88.3066 69.3789C88.6966 69.5422 89.0399 69.7639 89.3366 70.0439L89.0166 70.4889C88.9966 70.5222 88.9699 70.5506 88.9366 70.5739C88.9066 70.5939 88.8649 70.6039 88.8116 70.6039C88.7516 70.6039 88.6782 70.5722 88.5916 70.5089C88.5049 70.4422 88.3916 70.3689 88.2516 70.2889C88.1116 70.2089 87.9366 70.1372 87.7266 70.0739C87.5166 70.0072 87.2582 69.9739 86.9516 69.9739C86.5816 69.9739 86.2432 70.0389 85.9366 70.1689C85.6299 70.2956 85.3649 70.4806 85.1416 70.7239C84.9216 70.9672 84.7499 71.2639 84.6266 71.6139C84.5032 71.9639 84.4416 72.3589 84.4416 72.7989C84.4416 73.2456 84.5049 73.6439 84.6316 73.9939C84.7616 74.3439 84.9366 74.6406 85.1566 74.8839C85.3799 75.1239 85.6416 75.3072 85.9416 75.4339C86.2449 75.5606 86.5716 75.6239 86.9216 75.6239C87.1349 75.6239 87.3266 75.6122 87.4966 75.5889C87.6699 75.5622 87.8282 75.5222 87.9716 75.4689C88.1182 75.4156 88.2532 75.3489 88.3766 75.2689C88.5032 75.1856 88.6282 75.0872 88.7516 74.9739C88.8082 74.9239 88.8649 74.8989 88.9216 74.8989ZM96.3763 69.2139V76.3789H95.4063V73.1189H91.5413V76.3789H90.5713V69.2139H91.5413V72.4089H95.4063V69.2139H96.3763ZM102.013 73.7189L100.888 70.8039C100.855 70.7172 100.82 70.6172 100.783 70.5039C100.746 70.3872 100.711 70.2639 100.678 70.1339C100.608 70.4039 100.536 70.6289 100.463 70.8089L99.338 73.7189H102.013ZM104.033 76.3789H103.283C103.196 76.3789 103.126 76.3572 103.073 76.3139C103.02 76.2706 102.98 76.2156 102.953 76.1489L102.283 74.4189H99.068L98.398 76.1489C98.378 76.2089 98.3396 76.2622 98.283 76.3089C98.2263 76.3556 98.1563 76.3789 98.073 76.3789H97.323L100.188 69.2139H101.168L104.033 76.3789ZM110.781 69.2139V76.3789H110.296C110.219 76.3789 110.154 76.3656 110.101 76.3389C110.051 76.3122 110.001 76.2672 109.951 76.2039L105.806 70.8039C105.812 70.8872 105.817 70.9689 105.821 71.0489C105.824 71.1289 105.826 71.2039 105.826 71.2739V76.3789H104.976V69.2139H105.476C105.519 69.2139 105.556 69.2172 105.586 69.2239C105.616 69.2272 105.642 69.2356 105.666 69.2489C105.689 69.2589 105.712 69.2756 105.736 69.2989C105.759 69.3189 105.784 69.3456 105.811 69.3789L109.956 74.7739C109.949 74.6872 109.942 74.6039 109.936 74.5239C109.932 74.4406 109.931 74.3622 109.931 74.2889V69.2139H110.781ZM118.432 72.9339V75.6839C118.072 75.9439 117.687 76.1389 117.277 76.2689C116.871 76.3956 116.424 76.4589 115.937 76.4589C115.361 76.4589 114.841 76.3706 114.377 76.1939C113.914 76.0139 113.517 75.7639 113.187 75.4439C112.861 75.1206 112.609 74.7339 112.432 74.2839C112.256 73.8339 112.167 73.3389 112.167 72.7989C112.167 72.2522 112.252 71.7539 112.422 71.3039C112.596 70.8539 112.841 70.4689 113.157 70.1489C113.474 69.8256 113.859 69.5756 114.312 69.3989C114.766 69.2222 115.272 69.1339 115.832 69.1339C116.116 69.1339 116.379 69.1556 116.622 69.1989C116.866 69.2389 117.091 69.2989 117.297 69.3789C117.504 69.4556 117.696 69.5506 117.872 69.6639C118.049 69.7739 118.214 69.8989 118.367 70.0389L118.092 70.4789C118.049 70.5456 117.992 70.5889 117.922 70.6089C117.856 70.6256 117.781 70.6089 117.697 70.5589C117.617 70.5122 117.526 70.4556 117.422 70.3889C117.319 70.3222 117.192 70.2589 117.042 70.1989C116.896 70.1356 116.721 70.0822 116.517 70.0389C116.317 69.9956 116.079 69.9739 115.802 69.9739C115.399 69.9739 115.034 70.0406 114.707 70.1739C114.381 70.3039 114.102 70.4922 113.872 70.7389C113.642 70.9822 113.466 71.2789 113.342 71.6289C113.219 71.9756 113.157 72.3656 113.157 72.7989C113.157 73.2489 113.221 73.6522 113.347 74.0089C113.477 74.3622 113.661 74.6639 113.897 74.9139C114.137 75.1606 114.427 75.3489 114.767 75.4789C115.107 75.6089 115.489 75.6739 115.912 75.6739C116.246 75.6739 116.541 75.6372 116.797 75.5639C117.057 75.4872 117.311 75.3822 117.557 75.2489V73.6739H116.442C116.379 73.6739 116.327 73.6556 116.287 73.6189C116.251 73.5822 116.232 73.5372 116.232 73.4839V72.9339H118.432ZM124.337 75.5889L124.332 76.3789H119.917V69.2139H124.332V70.0039H120.887V72.3839H123.677V73.1439H120.887V75.5889H124.337Z" fill="#060863"/>
<g filter="url(#filter0_d_48_649)">
<path d="M58.1504 40.0275L59.6975 40.5242L58.801 41.5395L58.0099 40.1904C57.9623 40.1055 57.896 40.007 57.811 39.8949C57.8744 39.9234 57.9356 39.9492 57.9948 39.9723C58.0525 39.9943 58.1044 40.0127 58.1504 40.0275Z" fill="url(#paint0_radial_48_649)"/>
<path fill-rule="evenodd" clip-rule="evenodd" d="M65.3348 37.8052C64.5393 43.0011 60.0763 46.8856 55.3663 46.4815C50.6563 46.0775 47.4829 41.5378 48.2784 36.3419C49.0739 31.1461 53.5369 27.2615 58.2469 27.6656C62.9569 28.0697 66.1302 32.6093 65.3348 37.8052ZM56.2306 34.084C56.042 35.3155 54.9575 36.2339 53.8082 36.1353C52.6588 36.0367 51.8799 34.9585 52.0685 33.727C52.257 32.4955 53.3416 31.5771 54.4909 31.6757C55.6402 31.7743 56.4191 32.8526 56.2306 34.084ZM61.1908 40.8851L61.4422 40.6004L57.606 39.4174L57.2775 39.7893L59.1934 43.1471L59.4448 42.8625C59.4727 42.8309 59.4868 42.7969 59.487 42.7606C59.4873 42.7243 59.4787 42.6929 59.4614 42.6663L58.9915 41.8638L60.0689 40.6435L60.9879 40.9375C61.0236 40.9485 61.0591 40.9507 61.0943 40.9442C61.1296 40.9377 61.1618 40.918 61.1908 40.8851ZM63.2377 38.567L62.9222 38.3148L61.766 39.6242L60.7846 38.8494L61.7196 37.7905L61.4146 37.5497L60.4795 38.6086L59.5242 37.8544L60.6787 36.5469L60.3616 36.2966L58.882 37.9723L61.758 40.2427L63.2377 38.567Z" fill="url(#paint1_radial_48_649)"/>
<path d="M60.8421 45.0062L65.1515 48.8037L66.2046 47.9147L65.9333 49.6869L67.4143 48.9978L67.1923 50.4478L68.6486 49.9198L68.55 50.5643L69.4551 50.6419L76.2853 56.9409L79.2996 56.2201L79.8175 52.8367L69.5366 44.1198L69.6599 43.3143L65.0735 39.3298C64.114 42.1311 63.1581 43.3491 60.8421 45.0062Z" fill="url(#paint2_radial_48_649)"/>
</g>
<g filter="url(#filter1_d_48_649)">
<path d="M64.6714 40.399L79.7395 53.2003L79.2382 56.1148L63.3641 42.518L64.6714 40.399Z" fill="url(#paint3_linear_48_649)"/>
</g>
<g filter="url(#filter2_d_48_649)">
<path fill-rule="evenodd" clip-rule="evenodd" d="M21.7946 28.1874L25.0825 23.9805L27.7997 25.5675L26.1423 27.7469L39.2102 26.2647L42.8006 46.748L39.2453 50.9987L39.2102 46.748L26.1423 60.5305L10.5156 49.0327L19.1201 32.6764L16.0286 32.8993L19.7593 28.5009L21.7946 28.1874ZM36.8108 34.0271C36.5706 35.596 35.1336 36.7613 33.6012 36.6298C32.0687 36.4983 31.0212 35.1199 31.2614 33.551C31.5015 31.9822 32.9385 30.8169 34.471 30.9484C36.0034 31.0798 37.051 32.4582 36.8108 34.0271ZM25.565 37.9446L21.926 35.4705L19.3093 38.9113L22.9484 41.3854L25.565 37.9446Z" fill="url(#paint4_linear_48_649)"/>
</g>
<g filter="url(#filter3_d_48_649)">
<g filter="url(#filter4_d_48_649)">
<path d="M39.6463 28.796C41.288 28.5251 43.1501 28.4497 45.0963 28.6167C47.6067 28.8321 49.859 29.4165 51.5985 30.2227M53.8396 31.6211C54.8403 32.4907 55.3496 33.4716 55.1974 34.4657C54.7816 37.1817 49.585 38.9666 43.5905 38.4523C37.5959 37.938 33.0735 35.3194 33.4893 32.6033C33.877 31.7105 34.1668 31.3795 34.7907 31.0406" stroke="#969696"/>
</g>
<g filter="url(#filter5_d_48_649)">
<path d="M53.6796 37.7883C52.4427 38.7109 50.4539 39.3757 48.0519 39.6451C45.6541 39.914 43.0215 39.7689 40.6257 39.2349C38.2273 38.7003 36.2377 37.8144 35.0008 36.7466C33.764 35.6789 33.3877 34.5291 33.8315 33.4932C34.142 32.7683 34.8527 32.0971 35.9118 31.5457M54.9354 34.8882C54.6748 34.0348 53.9134 33.1869 52.7197 32.4428M40.0204 30.3284C41.4449 30.1222 43.0008 30.0645 44.5829 30.1675C46.7075 30.3058 48.7562 30.7257 50.4786 31.3661" stroke="#969696"/>
</g>
<g filter="url(#filter6_d_48_649)">
<path d="M35.3509 30.9556C34.2976 31.6033 33.6279 32.4051 33.4893 33.3104C33.0735 36.0264 37.5959 38.6451 43.5905 39.1593C49.585 39.6736 54.7816 37.8887 55.1974 35.1727C55.3737 34.0214 54.6627 32.8876 53.3284 31.9242M39.833 29.4732C41.4286 29.2268 43.2235 29.1631 45.0963 29.3237C47.3451 29.5167 49.3868 30.0058 51.0383 30.685" stroke="#969696"/>
</g>
</g>
<defs>
<filter id="filter0_d_48_649" x="42.2563" y="21.7367" width="51.4602" height="49.1047" filterUnits="userSpaceOnUse" color-interpolation-filters="sRGB">
<feFlood flood-opacity="0" result="BackgroundImageFix"/>
<feColorMatrix in="SourceAlpha" type="matrix" values="0 0 0 0 0 0 0 0 0 0 0 0 0 0 0 0 0 0 127 0" result="hardAlpha"/>
<feOffset dx="4" dy="4"/>
<feGaussianBlur stdDeviation="4.95"/>
<feComposite in2="hardAlpha" operator="out"/>
<feColorMatrix type="matrix" values="0 0 0 0 0 0 0 0 0 0 0 0 0 0 0 0 0 0 0.15 0"/>
<feBlend mode="normal" in2="BackgroundImageFix" result="effect1_dropShadow_48_649"/>
<feBlend mode="normal" in="SourceGraphic" in2="effect1_dropShadow_48_649" result="shape"/>
</filter>
<filter id="filter1_d_48_649" x="57.4633" y="34.4984" width="36.175" height="35.5168" filterUnits="userSpaceOnUse" color-interpolation-filters="sRGB">
<feFlood flood-opacity="0" result="BackgroundImageFix"/>
<feColorMatrix in="SourceAlpha" type="matrix" values="0 0 0 0 0 0 0 0 0 0 0 0 0 0 0 0 0 0 127 0" result="hardAlpha"/>
<feOffset dx="4" dy="4"/>
<feGaussianBlur stdDeviation="4.95"/>
<feComposite in2="hardAlpha" operator="out"/>
<feColorMatrix type="matrix" values="0 0 0 0 0 0 0 0 0 0 0 0 0 0 0 0 0 0 0.15 0"/>
<feBlend mode="normal" in2="BackgroundImageFix" result="effect1_dropShadow_48_649"/>
<feBlend mode="normal" in="SourceGraphic" in2="effect1_dropShadow_48_649" result="shape"/>
</filter>
<filter id="filter2_d_48_649" x="4.61563" y="18.0805" width="52.0852" height="56.3508" filterUnits="userSpaceOnUse" color-interpolation-filters="sRGB">
<feFlood flood-opacity="0" result="BackgroundImageFix"/>
<feColorMatrix in="SourceAlpha" type="matrix" values="0 0 0 0 0 0 0 0 0 0 0 0 0 0 0 0 0 0 127 0" result="hardAlpha"/>
<feOffset dx="4" dy="4"/>
<feGaussianBlur stdDeviation="4.95"/>
<feComposite in2="hardAlpha" operator="out"/>
<feColorMatrix type="matrix" values="0 0 0 0 0 0 0 0 0 0 0 0 0 0 0 0 0 0 0.15 0"/>
<feBlend mode="normal" in2="BackgroundImageFix" result="effect1_dropShadow_48_649"/>
<feBlend mode="normal" in="SourceGraphic" in2="effect1_dropShadow_48_649" result="shape"/>
</filter>
<filter id="filter3_d_48_649" x="27.057" y="22.1332" width="42.5695" height="32.0402" filterUnits="userSpaceOnUse" color-interpolation-filters="sRGB">
<feFlood flood-opacity="0" result="BackgroundImageFix"/>
<feColorMatrix in="SourceAlpha" type="matrix" values="0 0 0 0 0 0 0 0 0 0 0 0 0 0 0 0 0 0 127 0" result="hardAlpha"/>
<feOffset dx="4" dy="4"/>
<feGaussianBlur stdDeviation="4.95"/>
<feComposite in2="hardAlpha" operator="out"/>
<feColorMatrix type="matrix" values="0 0 0 0 0 0 0 0 0 0 0 0 0 0 0 0 0 0 0.15 0"/>
<feBlend mode="normal" in2="BackgroundImageFix" result="effect1_dropShadow_48_649"/>
<feBlend mode="normal" in="SourceGraphic" in2="effect1_dropShadow_48_649" result="shape"/>
</filter>
<filter id="filter4_d_48_649" x="28.957" y="28.0332" width="30.7695" height="19.0039" filterUnits="userSpaceOnUse" color-interpolation-filters="sRGB">
<feFlood flood-opacity="0" result="BackgroundImageFix"/>
<feColorMatrix in="SourceAlpha" type="matrix" values="0 0 0 0 0 0 0 0 0 0 0 0 0 0 0 0 0 0 127 0" result="hardAlpha"/>
<feOffset dy="4"/>
<feGaussianBlur stdDeviation="2"/>
<feComposite in2="hardAlpha" operator="out"/>
<feColorMatrix type="matrix" values="0 0 0 0 0 0 0 0 0 0 0 0 0 0 0 0 0 0 0.25 0"/>
<feBlend mode="normal" in2="BackgroundImageFix" result="effect1_dropShadow_48_649"/>
<feBlend mode="normal" in="SourceGraphic" in2="effect1_dropShadow_48_649" result="shape"/>
</filter>
<filter id="filter5_d_48_649" x="29.1484" y="29.6211" width="30.2695" height="18.6523" filterUnits="userSpaceOnUse" color-interpolation-filters="sRGB">
<feFlood flood-opacity="0" result="BackgroundImageFix"/>
<feColorMatrix in="SourceAlpha" type="matrix" values="0 0 0 0 0 0 0 0 0 0 0 0 0 0 0 0 0 0 127 0" result="hardAlpha"/>
<feOffset dy="4"/>
<feGaussianBlur stdDeviation="2"/>
<feComposite in2="hardAlpha" operator="out"/>
<feColorMatrix type="matrix" values="0 0 0 0 0 0 0 0 0 0 0 0 0 0 0 0 0 0 0.25 0"/>
<feBlend mode="normal" in2="BackgroundImageFix" result="effect1_dropShadow_48_649"/>
<feBlend mode="normal" in="SourceGraphic" in2="effect1_dropShadow_48_649" result="shape"/>
</filter>
<filter id="filter6_d_48_649" x="28.957" y="28.7402" width="30.7695" height="19.0039" filterUnits="userSpaceOnUse" color-interpolation-filters="sRGB">
<feFlood flood-opacity="0" result="BackgroundImageFix"/>
<feColorMatrix in="SourceAlpha" type="matrix" values="0 0 0 0 0 0 0 0 0 0 0 0 0 0 0 0 0 0 127 0" result="hardAlpha"/>
<feOffset dy="4"/>
<feGaussianBlur stdDeviation="2"/>
<feComposite in2="hardAlpha" operator="out"/>
<feColorMatrix type="matrix" values="0 0 0 0 0 0 0 0 0 0 0 0 0 0 0 0 0 0 0.25 0"/>
<feBlend mode="normal" in2="BackgroundImageFix" result="effect1_dropShadow_48_649"/>
<feBlend mode="normal" in="SourceGraphic" in2="effect1_dropShadow_48_649" result="shape"/>
</filter>
<radialGradient id="paint0_radial_48_649" cx="0" cy="0" r="1" gradientUnits="userSpaceOnUse" gradientTransform="translate(64.1126 43.4014) rotate(38.7263) scale(18.9113 19.1148)">
<stop stop-color="#A9A9A9"/>
<stop offset="1" stop-color="#646464"/>
</radialGradient>
<radialGradient id="paint1_radial_48_649" cx="0" cy="0" r="1" gradientUnits="userSpaceOnUse" gradientTransform="translate(64.1126 43.4014) rotate(38.7263) scale(18.9113 19.1148)">
<stop stop-color="#A9A9A9"/>
<stop offset="1" stop-color="#646464"/>
</radialGradient>
<radialGradient id="paint2_radial_48_649" cx="0" cy="0" r="1" gradientUnits="userSpaceOnUse" gradientTransform="translate(64.1126 43.4014) rotate(38.7263) scale(18.9113 19.1148)">
<stop stop-color="#A9A9A9"/>
<stop offset="1" stop-color="#646464"/>
</radialGradient>
<linearGradient id="paint3_linear_48_649" x1="70.0872" y1="47.8154" x2="73.9472" y2="43.362" gradientUnits="userSpaceOnUse">
<stop stop-color="#767676"/>
<stop offset="1" stop-color="#B7B5B5"/>
</linearGradient>
<linearGradient id="paint4_linear_48_649" x1="26.6581" y1="23.9805" x2="30.4944" y2="57.5993" gradientUnits="userSpaceOnUse">
<stop stop-color="#1F009D"/>
<stop offset="1" stop-color="#000464"/>
</linearGradient>
</defs>
</svg>
