<svg width="217" height="217" viewBox="0 0 217 217" fill="none" xmlns="http://www.w3.org/2000/svg">
<path d="M57.7953 188.622C57.7953 188.053 57.6089 186.916 56.9444 187.236C56.3763 187.509 57.9387 192.658 58.0276 193.023C59.4309 198.789 60.5842 204.682 61.8872 210.491C61.8902 210.504 61.8933 210.518 61.8963 210.531M61.8963 210.531C62.1109 211.494 62.2819 212.464 62.425 213.448C62.4434 213.575 62.0634 211.344 61.9627 210.854C61.9405 210.747 61.9184 210.639 61.8963 210.531ZM61.8963 210.531C60.3645 203.076 58.8605 195.664 58.1676 187.973C58.0931 187.145 57.6704 183.021 57.7009 183.086C58.4431 184.675 58.6431 186.905 58.9319 188.687C59.6131 192.888 60.1845 197.116 60.8191 201.329C61.4208 205.324 61.9354 209.508 62.9154 213.383C63.2504 214.707 63.4682 213.884 63.5321 212.958M58.0551 184.931C51.9341 184.931 70.2442 183.085 76.3652 183.085C79.7698 183.085 83.1712 183.317 86.5764 183.356C89.2394 183.386 92.0413 183.132 94.6679 183.831C97.9798 184.713 92.6909 185.375 91.9741 185.408C88.4801 185.57 82.1567 185.601 76.4353 185.58M76.4353 185.58C68.0084 185.55 60.8875 185.408 66.037 185.408C69.5098 185.408 72.9743 185.418 76.4353 185.58ZM76.4353 185.58C79.1983 185.71 81.9592 185.937 84.7201 186.336C87.5987 186.751 90.4226 187.464 93.3232 187.581C93.7029 187.596 96.6534 187.535 94.9049 187.682M60.8222 187.383C60.8357 187.019 61.012 186.478 61.11 186.132C61.2673 185.577 60.3581 187.983 60.2484 188.387C58.1163 196.232 63.2261 185.233 63.3561 185.529C63.5015 185.86 62.391 188.074 62.2621 188.477C61.79 189.953 61.3648 191.482 61.0685 193.036C60.3199 196.962 62.9389 191.44 63.3047 190.606C63.6655 189.784 64.6557 186.376 65.3983 186.102C66.3689 185.743 64.6811 188.582 64.2768 189.798C63.9428 190.801 61.5276 199.952 62.4139 199.483C63.8303 198.733 64.9592 194.632 65.6263 193.068C66.5351 190.938 67.4009 188.778 68.3033 186.644C68.602 185.937 69.2532 183.545 69.9091 183.235C70.0411 183.173 69.7034 184.656 69.6846 184.716C69.2215 186.18 68.6896 187.603 68.167 189.032C66.8422 192.652 65.5677 196.305 64.3868 200.011C64.2773 200.355 62.8687 205.109 63.485 205.144C64.7092 205.213 66.2917 200.194 66.7491 199.117C68.2784 195.516 69.6125 191.681 71.4928 188.363C72.7845 186.084 71.5208 189.418 71.2361 190.066C69.677 193.61 68.1457 197.172 66.7863 200.858C65.8015 203.528 64.0573 207.37 64.1932 210.474C64.2378 211.493 67.0063 206.183 67.1836 205.782C69.7237 200.038 72.4144 194.433 75.3955 189.064C75.5004 188.874 78.1416 184.743 77.3854 186.513C75.8266 190.162 73.8331 193.54 72.1961 197.141C70.2148 201.499 68.1834 206.532 67.6303 211.624C67.2382 215.235 70.5868 208.98 70.8849 208.387C73.6081 202.977 76.1068 197.357 79.0589 192.15C80.0897 190.331 82.9756 184.878 82.4869 187.054C82.2434 188.137 81.4295 189.216 80.9461 190.119C79.8356 192.191 78.7415 194.276 77.6962 196.407C75.7408 200.393 73.3655 205.046 72.7607 209.815C72.4265 212.449 75.7835 206.869 75.9767 206.504C78.7203 201.316 81.2331 195.877 84.3515 191.051C84.5368 190.764 87.6187 187.035 87.308 188.035C86.8484 189.513 85.8231 190.878 85.1346 192.177C83.9902 194.336 82.8894 196.536 81.8182 198.759C81.4585 199.505 77.7103 206.89 78.5323 207.568C79.5914 208.443 82.6795 201.852 83.0874 201.092C85.4433 196.702 87.8376 192.368 90.7166 188.538C92.7125 185.882 90.9323 188.938 90.2731 190.07L90.2253 190.152C87.8962 194.152 85.6586 198.309 83.8978 202.795C83.0684 204.908 82.2424 207.133 81.7198 209.417C81.5981 209.949 81.491 210.793 82.0367 210.079C86.5189 204.21 87.9722 194.369 93.0626 189.173C94.2003 188.012 92.1125 191.52 92.0106 191.712C89.8585 195.751 87.709 199.972 85.9986 204.366C85.3876 205.936 84.8419 208.663 86.4616 206.045C88.5683 202.64 90.3101 198.824 92.1129 195.139C92.2625 194.833 94.7269 190.741 94.0723 192.431C92.9848 195.24 91.5599 197.85 90.373 200.589C89.8876 201.71 88.0537 205.053 88.4537 206.481C88.4834 206.587 90.3279 203.027 90.4672 202.71C90.6751 202.237 93.6556 196.195 93.3006 198.073C93.1521 198.859 90.0289 207.129 90.1085 207.132C90.8267 207.161 92.3244 202.845 92.6424 202.132C92.8308 201.71 94.4785 198.028 93.6951 200.138C92.8196 202.495 91.9619 204.868 91.2293 207.31L91.2202 207.34C91.0454 207.922 89.9088 211.707 90.7835 209.726M95.1583 188.264C95.1589 188.263 95.1595 188.261 95.1601 188.26M95.1601 188.26C95.629 187.108 95.797 183.128 95.4592 184.355C95.2964 184.946 95.2095 186.388 95.1601 188.26ZM95.1601 188.26C95.0117 193.884 95.2025 203.389 94.6939 205.361M94.6939 205.361C94.635 205.59 94.5667 205.717 94.4873 205.726C93.6993 205.81 94.6682 191.415 94.8468 187.944M94.6939 205.361C94.7334 201.635 94.807 191.739 94.8468 187.944M94.6939 205.361C94.6777 206.893 94.6672 207.382 94.6672 205.979M94.8468 187.944C94.8643 187.605 94.8742 187.37 94.8742 187.263C94.8742 185.841 94.8634 186.363 94.8468 187.944Z" stroke="#E97777" stroke-opacity="0.66" stroke-linecap="round" stroke-linejoin="round"/>
<path d="M155.524 107.276C157.525 105.58 157.163 105.305 155.738 107.989C154.587 110.161 153.283 112.467 152.544 114.951C152.006 116.757 154.526 112.54 154.72 112.231C156.772 108.966 158.902 105.741 161.503 103.22C163.655 101.135 163.327 102.272 162.052 104.602C159.951 108.442 157.86 112.223 156.051 116.329C155.858 116.767 153.116 122.639 154.415 122.692C156.003 122.757 158.756 117.115 159.631 115.78C162.346 111.632 165.365 106.721 169.023 103.963C169.805 103.374 169.526 103.975 169.118 104.591C167.943 106.369 166.722 108.093 165.541 109.866C162.16 114.941 159.455 120.478 157.201 126.554C157.14 126.719 155.182 132.201 155.769 132.244C156.465 132.295 157.346 130.036 157.663 129.443C159.182 126.599 160.637 123.693 162.212 120.902C165.485 115.101 169.229 109.425 173.627 105.069C176.418 102.305 174.044 105.937 173.088 107.518C169.677 113.154 166.517 119.056 163.334 124.92C160.658 129.849 157.462 134.86 155.607 140.467C154.934 142.504 155.587 142.905 156.766 141.384C159.598 137.732 161.835 132.991 164.292 128.915C168.585 121.795 172.773 114.861 178.122 109.068C178.505 108.653 182.199 104.587 180.434 106.916C177.503 110.785 174.987 115.253 172.321 119.433C167.831 126.473 163.162 133.451 159.468 141.29C159.282 141.685 156.573 147.667 158.71 146.56C160.134 145.821 161.354 143.076 162.261 141.588C164.674 137.629 167.053 133.641 169.424 129.636C174.456 121.134 179.772 113.367 186.5 107.206C188.4 105.467 189.799 104.123 187.324 107.336C182.315 113.839 177.286 120.311 172.575 127.2C169.666 131.454 166.926 135.836 164.468 140.566C163.533 142.364 162.373 144.465 162.179 146.707C162.066 148.005 163.599 146.993 163.938 146.657C166.327 144.289 168.302 141 170.284 138.077C177.404 127.576 184.08 116.875 192.899 108.77C194.437 107.357 196.075 106.119 197.81 105.182C199.306 104.374 197.797 106.045 197.339 106.576C192.026 112.746 186.415 118.597 181.8 125.727C179.373 129.478 176.981 133.367 174.966 137.533C174.533 138.429 172.516 141.953 173.118 143.242C174.122 145.396 183.855 129.028 184.429 128.09C189.075 120.5 194.004 113.074 200.298 107.817C201.42 106.88 200.971 107.574 200.289 108.447C198.066 111.294 195.954 114.291 193.834 117.272C190.668 121.724 187.463 126.211 184.702 131.125C183.322 133.58 181.703 136.408 181.062 139.42C180.747 140.899 182.245 139.261 182.518 138.943C185.208 135.814 187.535 132.048 190.059 128.686C193.26 124.421 196.404 119.922 200.065 116.333C201.674 114.757 203.605 112.586 205.591 111.883C206.266 111.644 203.955 114.941 203.769 115.205C201.038 119.075 198.18 122.778 195.371 126.548C192.352 130.601 189.21 134.708 186.776 139.428C186.721 139.535 185.305 142.563 185.932 142.343C187.598 141.76 189.367 138.158 190.429 136.577C193.416 132.131 196.32 127.589 199.385 123.235C201.251 120.582 203.172 117.589 205.485 115.581C205.805 115.304 203.468 118.687 203.046 119.302C200.295 123.315 197.422 127.191 194.721 131.262C192.92 133.975 190.033 137.814 189.357 141.475C189.083 142.96 190.484 141.711 190.827 141.324C193.14 138.717 195.04 135.4 197.075 132.429C199.193 129.338 201.416 126.376 203.768 123.598C205.12 122.002 205.06 122.082 203.861 123.735C202.022 126.268 200.241 128.879 198.419 131.434C196.62 133.959 194.286 136.828 193.309 140.128C192.066 144.332 197.917 136.67 198.315 136.127C199.856 134.027 201.388 131.89 203.032 129.931C203.287 129.627 205.352 127.642 204.384 129.288C201.965 133.406 198.544 136.82 196.666 141.46C196.211 142.583 197.392 141.76 197.682 141.476C199.041 140.148 200.271 138.522 201.487 136.975C202.793 135.314 204.06 133.603 205.422 132.021C206.328 130.97 207.349 129.962 206.037 131.981C204.689 134.056 203.328 136.125 202.054 138.282C201.31 139.544 199.804 141.564 199.724 143.279C199.656 144.752 203.256 139.936 203.516 139.577C204.351 138.427 205.213 137.324 206.114 136.266C206.438 135.886 207.493 134.648 206.691 135.872C205.717 137.359 204.207 139.656 204.098 141.732C204.054 142.565 206.557 139.077 206.76 138.756C208.005 136.787 207.163 137.405 206.592 139.078C206.207 140.209 206.054 141.441 206.066 142.676C206.076 143.799 207.66 140.838 207.745 140.684C210.417 135.867 207.394 141.278 207.394 143.193" stroke="#E47D7D" stroke-opacity="0.66" stroke-linecap="round" stroke-linejoin="round"/>
<path d="M68.5022 18.3907C71.875 3.95419 56.3182 43.9589 49.6983 56.2634C42.8961 68.9067 36.5782 81.9791 30.2037 94.9992C29.9814 95.4533 29.7576 95.9061 29.5325 96.3579M29.5325 96.3579C24.9165 105.625 19.7667 114.446 15.7405 124.224C14.2774 127.777 12.3228 130.932 10.8608 134.493C9.43109 137.975 13.2191 127.195 14.6391 123.706C20.8562 108.43 27.2545 93.2574 34.5597 78.8457C42.2856 63.6043 48.3736 47.2166 56.4998 32.2478C59.1945 27.2841 61.8425 20.8427 65.6412 17.1683C68.7139 14.1962 65.496 19.7218 64.669 21.6986C53.9335 47.358 41.1539 71.3978 29.5325 96.3579ZM29.5325 96.3579C29.2013 97.0694 28.8709 97.7817 28.5416 98.4948C23.1957 110.07 18.7808 122.35 13.6419 134.081C12.2137 137.341 3.33653 153.64 7.94166 140.881M7.53503 147.392C7.53503 145.754 12.2095 145.883 13.7865 145.672M13.7865 145.672C13.9363 145.652 14.0581 145.629 14.1454 145.601C14.8848 145.365 15.6204 145.116 16.3526 144.856M13.7865 145.672C15.2387 144.843 16.7388 144.017 18.1663 143.261M13.7865 145.672C7.8535 149.061 2.7202 152.518 6.59911 151.631C9.61184 150.942 13.165 147.702 16.3526 144.856M16.3526 144.856C23.9687 142.155 31.2098 138.255 38.4481 134.243M16.3526 144.856C16.9732 144.302 17.5801 143.763 18.1663 143.261M38.4481 134.243C41.0249 132.814 43.6013 131.371 46.1942 129.963C49.7706 128.02 53.4948 126.815 57.2278 125.667M38.4481 134.243C44.7436 131.519 51.0185 128.711 57.2278 125.667M38.4481 134.243C33.5752 136.351 28.6901 138.409 23.8136 140.486C22.3986 141.089 20.3687 142.093 18.1663 143.261M57.2278 125.667C61.526 124.346 65.836 123.1 69.9456 120.893C72.8043 119.357 77.2419 118.364 79.5106 115.419C80.5659 114.049 76.6336 116.325 75.2279 116.925C70.2065 119.071 65.3184 121.601 60.3903 124.093C59.3382 124.625 58.2839 125.15 57.2278 125.667ZM18.1663 143.261C18.9088 142.624 19.6183 142.047 20.2813 141.572C26.26 137.294 32.5807 134.059 38.8319 130.572M79.8882 114.055C79.2356 113.741 78.4109 113.145 77.5577 112.566M77.5577 112.566C76.4118 111.787 75.2147 111.038 74.3146 111.038C74.0713 111.038 76.2861 112 77.5577 112.566ZM77.5577 112.566C77.886 112.711 78.1515 112.831 78.2955 112.9C84.3258 115.812 90.3931 118.544 96.2789 121.959C105.274 127.177 114.302 131.805 122.765 138.433C122.936 138.566 129.434 142.7 128.69 139.71C128.642 139.517 128.567 139.326 128.467 139.135M128.467 139.135C126.717 135.797 117.42 132.765 115.389 131.718C115.044 131.54 114.7 131.363 114.355 131.186M128.467 139.135C125.459 138.874 119.497 134.366 117.938 133.415C116.736 132.682 115.542 131.938 114.355 131.186M128.467 139.135C129.53 139.227 130.225 138.788 130.225 137.474M114.355 131.186C105.039 126.397 95.5427 121.657 86.7494 115.348C83.9895 113.368 81.374 110.955 78.5614 109.173M114.355 131.186C102.381 123.6 91.0994 115.216 78.5614 109.173M78.5614 109.173C76.8914 108.114 75.1519 107.278 73.2714 106.888C70.7989 106.374 73.5154 106.898 74.4824 107.313C75.8581 107.903 77.217 108.525 78.5614 109.173ZM128.816 137.401C128.816 138.702 128.543 137.098 128.409 136.522C126.904 130.027 123.33 124.001 120.507 118.478C113.891 105.537 106.224 94.1325 99.3279 81.5513C89.3831 63.4093 81.1935 42.5615 69.6511 26.1086C67.4742 23.0055 65.2852 20.0282 63.4559 16.5437M63.4559 16.5437C63.3785 16.3962 63.3017 16.2478 63.2255 16.0984C61.8223 13.3447 62.2954 13.3155 63.374 16.3165C63.4012 16.3923 63.4286 16.4681 63.4559 16.5437ZM63.4559 16.5437C69.6386 33.632 79.5721 48.3178 87.6224 63.8425C96.6113 81.1772 106.68 97.688 115.05 115.547C117.42 120.606 120.151 125.428 122.797 130.239C123.2 130.971 126.116 138.004 125.142 134.211M63.7096 23.4296C63.6308 23.4296 63.5621 23.4166 63.5025 23.3922M63.5025 23.3922C62.1313 22.8288 65.6529 16.153 64.3324 20.7281C64.0751 21.6196 63.7977 22.5077 63.5025 23.3922ZM63.5025 23.3922C60.4746 32.4654 55.5844 41.1524 51.4813 49.1737C47.9859 56.0071 45.8653 63.2393 42.8111 70.0203M96.6475 61.4153C96.6475 60.3083 96.4997 54.3937 96.0928 53.0705M96.0928 53.0705C95.9174 52.5001 95.6938 52.7831 95.4131 54.6729C93.1165 70.135 93.4961 87.5773 93.4961 103.368C93.4961 120.314 95.7939 73.9823 96.0928 53.0705ZM96.0928 53.0705C96.1095 51.8986 96.12 50.8065 96.1235 49.8098M96.1235 49.8098C96.1243 49.5694 96.1247 49.3346 96.1247 49.1055C96.1247 45.386 94.9997 48.1448 96.1235 49.8098ZM96.1235 49.8098C96.2953 50.0644 96.5198 50.2935 96.8089 50.4699C98.9347 51.7667 103.349 51.8263 107.104 51.4971M107.104 51.4971C107.295 51.4805 107.483 51.4628 107.669 51.4443M107.104 51.4971C107.264 50.5272 107.451 50.4206 107.669 51.4443M107.104 51.4971C105.853 59.1021 106.276 119.785 106.276 104.989M107.669 51.4443C109.156 51.2963 110.51 51.092 111.539 50.8872M107.669 51.4443C107.747 51.8077 107.828 52.3137 107.914 52.974C108.432 56.9641 108.604 63.6006 108.6 70.344M111.539 50.8872C113.52 50.4927 114.294 50.0961 112.474 50.0961C112.14 50.0961 111.829 50.3751 111.539 50.8872ZM111.539 50.8872C110.085 53.4529 109.164 61.869 108.6 70.344M108.6 70.344C107.995 79.4389 107.801 88.6017 107.801 90.6751C107.801 99.1935 108.592 84.5321 108.6 70.344ZM30.6554 142.281C30.6554 142.072 30.6031 141.358 30.5183 140.437M30.5183 140.437C30.2992 138.055 29.8631 134.289 29.5533 134.295M30.5183 140.437C29.9757 138.385 29.5812 136.311 29.5533 134.295M30.5183 140.437C31.271 143.282 32.3086 146.084 33.0485 148.628C33.3053 149.51 33.5617 150.393 33.8176 151.277M29.5533 134.295C29.544 134.296 29.5349 134.299 29.5259 134.306C26.723 136.495 36.2729 165.759 36.9011 168.091C40.3951 181.065 42.4746 194.615 46.324 207.434C47.7217 212.089 49.2387 216.884 46.9243 208.82C42.1212 192.085 38.9623 174.457 35.0478 157.336C34.6983 155.808 34.274 153.667 33.8176 151.277M29.5533 134.295C29.5522 134.219 29.5517 134.144 29.5517 134.068C29.5517 127.538 31.9518 141.502 33.8176 151.277M33.8176 151.277C37.2511 163.127 40.6046 175.058 43.6825 187.072C43.9955 188.294 49.9243 215.639 50.5082 206.544M115.397 131.655C115.483 126.666 115.487 131.082 114.788 134.118C113.518 139.638 112.597 145.297 111.72 150.97M111.72 150.97C110.374 159.679 109.134 168.423 106.897 176.755C104.483 185.745 103.27 195.297 100.754 204.181C99.5944 208.277 100.844 202.274 101.128 200.91L101.146 200.827C102.569 193.985 104.151 187.209 105.476 180.327C107.341 170.639 109.02 160.41 111.72 150.97ZM111.72 150.97C112.924 146.761 114.331 142.709 116.047 138.932M116.047 138.932C116.052 138.922 116.057 138.912 116.061 138.901C116.821 137.232 117.196 135.09 117.526 133.204L117.533 133.163C117.966 130.691 116.954 134.884 116.047 138.932ZM116.047 138.932C115.628 140.804 115.232 142.645 115.011 143.781C111.233 163.231 105.568 182.32 102.867 202.072C101.781 210.01 101.011 217.016 102.776 204.681M47.8215 216.001C45.7412 216.001 46.9298 214.066 48.8042 214.066C52.2421 214.066 55.7208 214.015 59.2186 213.906M59.2186 213.906C60.4272 213.869 61.638 213.824 62.8503 213.773M59.2186 213.906C65.2566 207.961 76.3602 209.222 83.2751 208.872C88.6302 208.6 94.0038 208.175 99.3625 208.175C103.208 208.175 104.678 207.948 99.8248 208.637C87.6308 210.369 75.1942 212.916 62.8503 213.773M59.2186 213.906C59.1948 213.929 59.1711 213.953 59.1475 213.977M62.8503 213.773C72.3232 213.371 81.882 212.539 91.103 211.164C91.8573 211.052 103.79 209.56 100.228 210.543C87.9029 213.947 74.4317 213.789 61.9216 214.526C60.283 214.623 46.9084 214.066 54.7909 214.066C56.241 214.066 57.6933 214.035 59.1475 213.977M62.8503 213.773C61.615 213.859 60.3806 213.927 59.1475 213.977M59.1475 213.977C59.0895 214.035 59.0321 214.093 58.9751 214.153M61.081 188.482C61.081 187.49 60.7324 183.938 60.7324 187.245C60.7324 191.611 61.3857 195.645 62.0217 199.93C62.6101 203.893 62.6315 215.437 63.9291 211.782C64.2428 210.898 64.2523 207.307 64.0836 203.114M64.0836 203.114C63.7951 195.942 62.9856 187.006 62.2864 186.832C62.1542 186.799 63.2846 196.893 64.0836 203.114ZM64.0836 203.114C64.3928 205.521 64.6523 207.349 64.7698 207.786M78.9586 189.796C78.9425 188.61 77.9386 187.782 77.721 186.511C76.6111 180.028 77.5499 213.098 77.5499 206.451V192.634C77.5499 191.581 77.231 185.017 77.6532 188.923C77.8826 191.046 78.6952 210.154 79.2491 209.879M95.1227 190.662C95.1227 192.472 95.796 185.638 95.4099 185.542C94.3952 185.29 93.1239 192.387 92.9378 193.179C92.7566 193.951 92.5736 195.025 92.3956 196.237M92.3956 196.237C91.6116 201.573 90.9255 209.567 90.9255 206.007C90.9255 198.338 94.8967 175.785 93.8317 183.323C93.2447 187.478 92.7245 191.865 92.3956 196.237ZM92.3956 196.237C92.1656 199.294 92.0293 202.344 92.0293 205.302M83.2139 198.488C82.6523 198.488 82.1747 198.146 81.8283 198.038M81.8283 198.038C81.4466 197.919 81.2242 198.084 81.2242 199.303C81.2242 199.571 81.5689 198.826 81.8283 198.038ZM81.8283 198.038C81.9847 197.562 82.1101 197.071 82.1101 196.778C82.1101 195.762 80.9338 196.432 80.9338 197.405M72.0022 198.17C72.0022 198.027 72.0002 197.896 71.9964 197.775M71.9964 197.775C71.9013 194.808 70.6924 198.686 71.3761 199.554C71.3816 199.561 71.7127 198.725 71.9964 197.775ZM71.9964 197.775C72.5112 196.052 72.8697 193.954 70.8404 195.846M57.1162 188.179C55.0201 188.179 60.8306 187.211 61.2391 187.149C66.8523 186.302 72.5077 185.828 78.1405 185.267C82.4685 184.837 89.6092 183.022 93.7252 185.652C96.0152 187.116 85.9713 187.877 84.7606 187.983C79.7961 188.418 74.6719 188.545 69.706 188.176C67.7053 188.027 64.0261 186.655 67.6889 188.641M47.2988 148.952C49.113 148.952 46.4028 136.22 46.3693 152.394C46.3663 153.828 46.5436 173.443 46.5436 166.234C46.5436 163.299 46.0509 159.874 48.5913 162.436M47.7053 169.872C40.6049 165.692 53.922 167.465 56.215 167.276C58.4452 167.093 68.242 167.478 69.3735 163.447M68.386 149.717C68.386 142.356 67.5932 149.434 67.413 153.252C67.2884 155.89 68.5603 175.602 68.5603 169.41M46.9501 148.244C40.9556 148.244 48.4413 148.828 50.9907 148.526C55.7348 147.966 60.4363 146.686 65.1659 145.927C66.7377 145.675 71.2071 144.043 69.8834 145.195C69.3515 145.657 68.8092 146.085 68.2117 146.382M57.8133 147.003C55.1152 147.003 56.303 148.19 56.303 153.139C56.303 155.074 55.998 174.87 55.998 168.327M44.9025 159.174C41.5439 159.174 48.8171 158.25 49.4441 158.25C55.2242 158.25 60.5189 158.423 66.0995 155.997C67.4358 155.416 67.1293 155.603 68.1537 156.084M81.9359 147.623C81.9359 142.754 82.2545 142.603 82.8072 148.38C83.0711 151.138 83.6981 169.408 85.5521 166.551M83.9691 167.706C79.1332 167.706 88.2494 166.239 89.3587 166.178C93.4327 165.951 97.196 165.09 101.119 163.678C101.861 163.411 100.67 165.084 100.67 164.458M99.8571 150.655C99.6227 148.698 99.0779 146.882 98.0708 145.458C97.9671 145.311 97.7513 153.968 97.7513 155.381C97.7513 159.252 101.198 174.03 99.3924 164.458M81.5146 146.93C81.1564 146.93 88.1663 146.479 89.9912 146.719C92.6784 147.072 104.491 145.248 97.4027 149.572M90.6932 150.497C90.6932 149.733 90.3824 149.062 89.8654 148.653C89.6837 148.51 89.9824 154.711 89.9921 155.433C90.0519 159.883 89.3464 166.278 91.0127 170.348C91.7356 172.113 92.0874 169.567 92.0874 168.717M137.515 109.796C137.515 108.176 138.11 100.645 138.11 106.044C138.11 125.062 136.363 144.314 137.577 163.301C138.112 171.657 138.829 179.892 138.864 188.276M138.864 188.276C138.865 188.49 138.866 188.705 138.866 188.919V190.078C138.866 189.478 138.865 188.877 138.864 188.276ZM138.864 188.276C138.85 178.575 138.725 168.878 138.695 159.178C138.685 156.049 138.678 152.92 138.674 149.791M138.674 149.791C138.656 135.137 138.691 120.483 138.691 105.829C138.691 97.1932 138.066 108.801 138.123 111.713C138.3 120.687 138.492 134.921 138.674 149.791ZM138.674 149.791C139.115 185.671 139.505 225.257 139.505 203.599M142.191 114.676C132.709 115.462 151.451 115.595 146.131 114.33C144.637 113.974 142.481 113.811 140.998 113.743M140.998 113.743C140.938 113.74 140.879 113.737 140.821 113.735M140.998 113.743C140.931 113.742 140.866 113.741 140.803 113.741M140.998 113.743C141.596 113.748 142.374 113.752 143.361 113.752C150.424 113.752 142.904 113.054 140.821 113.735M140.821 113.735C139.184 113.665 138.505 113.716 140.803 113.741M140.821 113.735C140.815 113.737 140.809 113.739 140.803 113.741M140.803 113.741C140.501 113.842 140.318 113.974 140.318 114.142M140.086 140.578C140.086 141.297 140.275 139.891 141.598 139.87C144.589 139.824 147.245 138.003 150.168 137.565C152.641 137.195 148.246 137.341 147.694 137.434C144.994 137.886 142.195 139.467 139.563 140.419M151.355 105.913C151.355 102.802 149.891 98.0143 149.587 103.918C149.559 104.466 149.532 105.014 149.508 105.562M149.508 105.562C148.989 117.109 149.242 128.828 149.09 140.43M149.508 105.562C149.874 117.279 150.29 140.256 149.89 150.437C149.868 151.006 149.844 151.482 149.819 151.875M149.508 105.562C149.29 98.5917 149.09 95.6063 149.09 101.671V140.43M149.09 140.43C149.069 141.999 149.041 143.566 149.003 145.13C148.99 145.655 149.007 146.559 149.046 147.583M149.09 140.43V145.029C149.09 145.891 149.072 146.754 149.046 147.583M149.046 147.583C149.121 149.558 149.275 151.978 149.442 152.973M149.046 147.583C148.915 151.839 148.583 155.204 149.442 152.973M149.442 152.973C149.571 153.74 149.706 153.66 149.819 151.875M149.442 152.973C149.549 152.696 149.673 152.333 149.819 151.875M149.819 151.875C150.005 151.292 150.225 150.555 150.484 149.645M148.727 103.357C147.962 103.357 145.032 102.043 145.633 102.043C147.57 102.043 149.502 101.996 151.431 101.916M151.431 101.916C154.849 101.774 158.259 101.53 161.674 101.27M151.431 101.916C145.949 101.726 137.196 101.194 137.673 100.555C139.266 98.4229 143.828 99.6466 145.817 99.6466C153.945 99.6466 162.074 99.5622 170.201 99.6627C171.274 99.6759 172.347 99.6968 173.42 99.7239M151.431 101.916C153.55 101.989 155.181 102.011 155.599 101.968C157.625 101.76 159.65 101.523 161.674 101.27M161.674 101.27C163.725 101.114 165.777 100.952 167.834 100.802C173.102 100.418 182.345 100.406 191.08 100.534M161.674 101.27C165.589 100.781 169.503 100.233 173.42 99.7239M191.08 100.534C205.569 100.747 218.664 101.345 209.913 101.264C203.641 101.206 197.362 100.879 191.08 100.534ZM191.08 100.534C185.193 100.212 179.305 99.8728 173.42 99.7239M173.42 99.7239C179.237 98.9672 185.058 98.2954 190.893 98.028C191.77 97.9878 202.695 97.0992 201.808 99.4878M209.81 108.093C210.628 104.275 211.415 94.8216 211.501 102.946M211.501 102.946C211.507 103.431 211.509 103.978 211.509 104.593C211.509 106.269 211.492 107.943 211.461 109.617M211.501 102.946C211.536 103.753 211.581 104.732 211.638 105.6C211.992 110.962 212.029 116.462 211.9 121.965M211.501 102.946C211.42 101.048 211.393 100.103 211.393 103.806C211.393 105.744 211.418 107.681 211.461 109.617M211.461 109.617C211.24 121.701 210.333 133.759 210.333 145.853C210.333 150.361 211.071 139.991 211.128 139.008C211.452 133.426 211.766 127.694 211.9 121.965M211.461 109.617C211.552 113.733 211.723 117.848 211.9 121.965M211.9 121.965C212.19 128.715 212.497 135.469 212.497 142.237C212.497 146.577 212.692 157.244 213.964 146.772M147.565 152.908C133.756 152.908 174.967 147.775 188.77 147.245C194.987 147.006 201.21 147.085 207.43 147.089M207.43 147.089C207.568 147.089 207.707 147.089 207.846 147.089C210.087 147.089 209.503 147.076 207.43 147.089ZM207.43 147.089C202.918 147.117 191.355 147.268 186.506 147.945C176.609 149.326 165.653 148.6 155.935 151.329C152.849 152.196 161.052 151.953 161.602 151.881C177.647 149.79 193.81 150.648 209.826 148.419C213.319 147.933 219.871 147.784 212.962 148.721M153.043 112.246C151.975 112.246 152.384 111.916 153.148 111.548M153.148 111.548C153.951 111.162 155.146 110.732 155.431 110.596C156.504 110.085 157.638 109.454 158.794 108.87M153.148 111.548C155.831 110.818 158.568 109.21 161.16 108.232C161.972 107.925 164.405 107.057 163.564 107.163C162.517 107.295 161.446 107.656 160.378 108.119M153.148 111.548C152.763 111.653 152.38 111.74 151.998 111.804C150.578 112.043 154.676 110.465 156.028 109.847C156.636 109.57 157.804 109.198 158.794 108.87M158.794 108.87C159.318 108.605 159.848 108.349 160.378 108.119M158.794 108.87C159.926 108.495 160.824 108.176 160.378 108.119M160.378 108.119C160.332 108.113 160.271 108.11 160.195 108.11M157.656 110.451C157.656 110.05 158.166 108.361 158.166 109.38C158.166 111.056 157.594 112.884 157.222 114.467C157.167 114.7 157.107 115.024 157.044 115.387M157.044 115.387C156.773 116.974 156.468 119.325 156.468 118.261C156.468 117.357 156.707 116.382 157.044 115.387ZM157.044 115.387C157.703 113.447 158.738 111.427 159.118 109.691C159.618 107.401 158.084 114.326 158.084 116.71M165.975 115.023C165.975 114.501 166.462 113.63 165.923 113.484C164.796 113.178 163.67 113.266 162.731 114.046M162.731 114.046C162.465 114.268 162.213 114.545 161.981 114.885C161.417 115.712 161.418 116.444 161.753 117.023M162.731 114.046C162.957 113.715 163.204 113.435 163.452 113.237M162.731 114.046C162.155 114.89 161.717 116.063 161.753 117.023M161.753 117.023C162.875 118.957 167.73 119.172 167.678 115.44C167.666 114.579 167.149 113.955 166.487 113.543M161.753 117.023C161.77 117.471 161.891 117.873 162.149 118.174C163.656 119.93 166.705 118.787 167.721 116.68C168.5 115.064 167.671 114.057 166.487 113.543M166.487 113.543C165.687 113.046 164.675 112.857 164.083 112.932C163.881 112.958 163.666 113.066 163.452 113.237M166.487 113.543C165.473 113.103 164.2 113.025 163.452 113.237M163.452 113.237C163.354 113.265 163.265 113.297 163.187 113.335M170.691 129.851C170.691 129.179 171.442 127.366 171.185 127.945C170.999 128.366 170.828 128.797 170.669 129.238M170.669 129.238C170.632 129.343 170.595 129.449 170.558 129.555M170.669 129.238C170.976 127.561 170.827 128.237 170.558 129.555M170.669 129.238C170.637 129.413 170.6 129.614 170.558 129.843C169.895 133.426 169.63 137.765 167.934 140.831C167.906 140.882 167.879 140.929 167.855 140.973M170.558 129.555C169.608 132.337 169.153 135.459 168.707 138.419C168.233 141.563 169.537 134.692 169.666 134.029C169.791 133.388 170.252 131.056 170.558 129.555ZM167.855 140.973C167.386 141.801 167.478 141.443 167.855 140.973ZM167.855 140.973C167.961 140.841 168.089 140.699 168.234 140.573C170.058 138.984 172.836 139.195 174.921 138.67C175.081 138.63 176.186 138.183 176.186 138.614C176.186 138.788 176.11 138.986 176.145 138.942M181.309 128.3C182.089 128.193 178.958 128.247 178.347 128.395C177.552 128.588 177.837 133.537 177.751 134.561C177.633 135.96 177.618 137.394 177.618 138.802C177.618 139.454 178.604 138.533 179.102 138.22M179.102 138.22C179.147 138.192 179.188 138.169 179.224 138.152C180.21 137.693 181.265 137.336 182.313 137.336C182.473 137.336 182.36 137.853 182.109 137.853C181.767 137.853 180.165 138.112 179.102 138.22ZM179.102 138.22C178.543 138.277 178.133 138.292 178.133 138.205C178.133 137.167 178.404 136.137 178.398 135.05C178.398 134.914 178.366 134.693 178.326 134.457M178.326 134.457C178.314 134.385 178.301 134.312 178.288 134.239M178.326 134.457C177.996 134.522 177.962 134.438 178.288 134.239M178.326 134.457C178.546 134.415 178.897 134.306 179.362 134.123M178.288 134.239C178.21 133.805 178.129 133.393 178.184 133.431C178.464 133.624 178.923 133.697 179.431 133.699M178.288 134.239C178.472 134.127 178.772 133.977 179.197 133.796C179.274 133.764 179.352 133.731 179.431 133.699M179.431 133.699C180.9 133.705 182.772 133.115 181.86 133.115C181.058 133.115 180.205 133.385 179.431 133.699ZM185.652 131.265C185.2 131.265 184.755 131.214 184.301 131.214C183.649 131.214 185.611 131.104 186.244 130.896L186.255 130.893C186.743 130.733 187.23 130.573 187.718 130.416M187.718 130.416C188.438 130.184 189.159 129.957 189.883 129.743M187.718 130.416C188.312 130.124 189.117 129.908 189.883 129.743M187.718 130.416C187.224 130.659 186.876 130.956 186.82 131.321M189.883 129.743C190.727 129.494 191.574 129.263 192.427 129.062C194.568 128.556 193.532 128.88 192.084 129.309C191.746 129.409 190.845 129.536 189.883 129.743ZM189.221 130.586C189.221 128.911 189.22 130.03 189.062 131.213C188.699 133.936 188.777 137.126 188.097 139.832M188.097 139.832C187.949 140.419 187.765 140.984 187.534 141.516C187.298 142.058 187.852 140.602 188.097 139.832ZM188.097 139.832C188.123 139.747 188.146 139.671 188.164 139.607C188.676 137.768 188.782 135.787 189.017 133.868C189.067 133.46 189.176 132.655 189.275 132.043M189.275 132.043C189.376 131.413 189.465 130.988 189.465 131.415C189.465 131.644 189.422 131.903 189.275 132.043ZM189.275 132.043C189.27 132.047 189.266 132.051 189.261 132.055" stroke="black" stroke-linecap="round" stroke-linejoin="round"/>
<path d="M1 151.204C3.22739 142.323 15.0202 120.729 20.7342 109.102C29.2073 91.8607 36.1317 73.635 44.9924 56.6497C51.1534 44.8392 54.9849 29.7171 62.6945 19.5122C65.4448 15.8717 69.53 8.56489 64.5253 17.233C53.8486 35.7252 44.5758 55.7367 36.1921 76.155C29.4651 92.5382 21.767 108.269 14.7172 124.417C11.4436 131.916 7.16626 139.009 4.38738 146.851" stroke="black" stroke-opacity="0.21" stroke-linecap="round" stroke-linejoin="round"/>
<path d="M64.2882 18.7349C64.2882 17.4671 64.8136 13.6137 63.2522 13.6137C61.2032 13.6137 64.8513 21.5397 64.9789 21.7895C70.8698 33.3228 78.697 43.2237 85.4847 53.8328C91.0592 62.5458 95.0891 72.156 99.9283 81.5368C102.904 87.3056 105.886 93.716 109.414 98.8975C112.957 104.102 116.934 108.616 120.215 114.157C122.612 118.206 124.2 123.208 126.761 127.033C127.34 127.897 123.575 120.788 122.868 119.264C113.364 98.8017 102.342 79.4462 93.226 58.7129C89.8789 51.1 87.101 43.0283 83.5347 35.585C80.198 28.6207 76.297 22.2502 73.5701 14.7959C71.4113 8.89463 62.1627 -9.00255 68.7467 8.45087C75.046 25.1493 83.1655 40.4912 89.6809 57.0579C96.4721 74.3258 105.616 90.5355 114.087 106.447C118.182 114.14 122.689 123.501 125.073 132.444C125.499 134.043 125.322 136.524 126.839 136.524" stroke="black" stroke-opacity="0.21" stroke-linecap="round" stroke-linejoin="round"/>
<path d="M3.60269 152.594C3.60269 153.765 2.63963 154.133 1.98561 154.711C-0.889643 157.254 8.5003 151.586 11.5871 149.525C25.2925 140.376 39.7042 133.361 53.496 124.441C60.7062 119.778 67.9251 115.814 75.8161 113.76C78.2986 113.113 70.1072 117.136 68.9457 117.73C58.4128 123.125 47.8592 128.395 37.1893 133.301C27.9023 137.572 17.9136 140.543 9.39896 147.275C4.05044 151.504 12.7153 146.238 14.0882 145.494" stroke="black" stroke-opacity="0.21" stroke-linecap="round" stroke-linejoin="round"/>
<path d="M93.7383 66.5388C93.7383 65.8283 93.8501 65.1776 93.8501 64.4629" stroke="black" stroke-opacity="0.21" stroke-linecap="round" stroke-linejoin="round"/>
<path d="M93.5356 64.152C93.5356 61.1963 93.7243 58.2188 93.7243 55.2418C93.7243 53.1441 93.7793 50.22 93.4717 54.539C92.5986 66.7961 92.7018 79.145 91.7568 91.3978C91.6185 93.1915 91.0886 108.315 91.3403 101.711C91.8883 87.3364 93.4736 72.9078 94.3016 58.54C94.5673 53.9306 92.2505 49.7862 96.1288 49.0987C97.8956 48.7855 109.412 47.1406 109.841 50.7522C109.903 51.2715 108.135 50.5362 107.998 49.0173C107.596 44.5917 107.188 51.5558 107.164 52.6801C106.915 64.4943 107.28 76.3098 106.681 88.1138C106.43 93.0569 105.959 98.539 106.492 103.487C107.116 109.273 107.34 91.8313 107.333 85.9858C107.321 75.7697 106.372 65.5983 106.372 55.3587C106.372 54.7296 106.851 50.7396 106.55 52.9209C105.486 60.6329 106.645 69.3408 106.793 77.1358C106.957 85.7751 106.935 94.4405 106.707 103.075C106.684 103.948 106.927 99.8736 107.001 99.1892" stroke="black" stroke-opacity="0.21" stroke-linecap="round" stroke-linejoin="round"/>
<path d="M76.9763 113.994C76.915 113.215 71.9233 112.369 74.7303 113.486C79.7378 115.479 84.7201 117.243 89.8119 118.857C95.8719 120.778 101.511 124.269 107.594 126.055C112.756 127.571 117.693 129.007 122.769 131.004C124.015 131.494 130.863 134.165 126.124 132.423C112.113 127.272 97.6755 126.59 83.7849 120.383C80.2447 118.801 76.7595 117.018 73.5375 114.506C72.8105 113.939 71.3993 113.601 73.3779 114.128C86.4801 117.616 99.1185 123.913 112.104 127.924C117.373 129.552 122.617 131.328 127.905 132.847C130.804 133.679 129.284 133.24 127.509 131.689" stroke="black" stroke-opacity="0.21" stroke-linecap="round" stroke-linejoin="round"/>
<path d="M12.0875 136.237C12.0875 136.897 12.5035 135.347 12.1289 136.569C11.6535 138.119 10.4197 143.67 12.3299 139.371C14.1165 135.349 15.1961 130.768 16.4808 126.447C17.0507 124.53 18.3994 120.694 17.2713 124.903C16.4695 127.894 15.6113 130.867 14.9724 133.93C14.7562 134.966 14.3224 137.1 15.2072 135.102C16.5608 132.046 17.3207 128.438 18.2022 125.118C18.9513 122.297 19.6591 119.456 20.433 116.647C20.7671 115.433 21.5098 111.768 21.5374 113.059C21.5975 115.871 19.421 120.069 18.6909 122.687C17.7776 125.961 16.9211 129.278 16.8608 132.797C16.8218 135.077 18.1524 130.947 18.3116 130.495C20.4127 124.527 22.2742 118.398 24.0749 112.263C25.3485 107.924 26.4628 103.514 27.6964 99.1565C28.157 97.5293 28.6175 95.148 29.5469 93.8354C31.4051 91.211 27.8909 100.691 26.9391 104.06C24.9415 111.132 23.0624 118.395 22.5115 125.952C22.232 129.786 22.8904 129.357 23.8717 126.172C26.2417 118.481 27.867 110.317 29.851 102.442C31.3771 96.384 32.6149 89.103 35.4014 83.7428C36.6574 81.3269 34.116 89.3589 33.3666 92.1189C31.0502 100.65 29.2101 109.394 28.193 118.367C28.0595 119.544 27.6666 129.191 27.8276 128.979C28.7642 127.744 29.1934 125.273 29.6237 123.697C30.8555 119.186 31.9777 114.617 33.0862 110.05C35.8592 98.6249 37.7473 86.6172 41.3035 75.5582C41.9908 73.4207 42.7505 71.3223 43.4931 69.2178C43.9672 67.874 43.7842 68.6363 43.4628 69.535C38.3043 83.9575 35.1474 100.061 34.7303 116.032C34.6551 118.91 35.304 119.661 36.45 116.767C39.0398 110.225 40.3456 102.617 41.96 95.5983C44.7809 83.3344 47.2925 70.8551 50.763 58.8751C51.5989 55.9895 52.5777 53.1832 53.4489 50.3166C53.4888 50.1855 54.2993 47.1064 54.2097 47.1104C53.5499 47.14 52.7035 50.1115 52.4974 50.6847C51.1898 54.3202 50.0671 58.0625 49.0853 61.8725C45.7759 74.7153 43.8151 87.9197 41.7275 101.178C40.7734 107.237 38.994 114.301 39.5223 120.59C39.5946 121.451 40.2159 120.808 40.3871 120.407C41.5184 117.761 41.9016 114.338 42.4526 111.434C45.2091 96.9043 47.8278 82.2783 51.2877 68.0075C53.8154 57.5818 57.084 47.9292 60.4435 37.978C60.7942 36.9391 63.0754 30.6876 61.2517 34.4773C58.2136 40.7907 56.581 48.2951 54.9525 55.392C51.6835 69.6374 49.5719 84.4396 47.6667 99.099C47.2288 102.469 46.7139 105.865 46.4771 109.274C46.467 109.419 46.2447 111.165 46.714 110.625C47.5906 109.618 47.8581 107.076 48.1415 105.711C48.9521 101.805 49.6068 97.8293 50.3094 93.8872C52.7018 80.4635 55.0389 67.0235 57.8521 53.74C59.8821 44.1543 67.5469 16.1175 64.402 25.1604C62.0978 31.7857 60.8707 39.2296 59.4675 46.2452C56.5024 61.0709 54.6032 76.3009 53.233 91.5187C52.8389 95.8956 52.4425 100.286 52.277 104.691C52.2571 105.219 51.9233 108.152 52.3591 108.509C53.164 109.169 55.6718 95.3321 55.8175 94.5757C58.4405 80.9525 60.9846 67.3047 64.0878 53.8534C65.22 48.9459 66.4436 44.0767 67.699 39.2224C68.1511 37.4745 69.8515 32.4599 69.0585 33.9801C65.7856 40.2547 64.186 48.5547 62.5459 55.7248C59.2481 70.1412 57.3334 85.1339 56.0381 100.085C55.8646 102.088 55.2579 109.522 56.8032 103.683C59.5396 93.3429 61.3676 82.453 63.5125 71.8829C65.2221 63.4585 66.6932 54.1922 69.8963 46.4621C71.3266 43.0102 67.845 53.8567 66.9557 57.6138C64.0346 69.9548 62.2583 82.5738 60.5962 95.2988C60.182 98.4696 59.6868 101.668 59.5001 104.882C59.4088 106.453 60.0035 104.328 60.1499 103.884C62.707 96.1188 64.115 87.2929 65.7163 79.1238C67.7859 68.5659 68.5737 56.6335 72.1173 46.6905C72.3188 46.1252 72.6914 45.1178 72.565 46.375C72.2825 49.1858 71.3707 51.9951 70.7815 54.71C68.2651 66.3055 66.1629 78.1748 65.0163 90.1506C64.9776 90.5555 64.0192 102.965 64.7371 102.743C65.3251 102.561 65.6435 100.125 65.7733 99.5513C66.5978 95.9081 67.2486 92.1932 67.9359 88.5019C68.9477 83.068 69.9077 77.6183 70.8541 72.1639C71.6479 67.5892 72.2652 62.65 73.7623 58.359C74.079 57.4515 74.8481 54.8841 75.9009 55.0518C76.6779 55.1756 76.2589 59.3085 76.22 59.8512C75.4907 70.0112 73.7769 80.1372 72.612 90.2217C72.1021 94.6366 71.5667 99.0617 71.3419 103.522C71.334 103.679 71.1437 106.975 71.5681 106.672C72.5008 106.008 72.8116 103.064 73.0579 101.914C74.0196 97.4228 74.8653 92.8846 75.6615 88.3376C77.4483 78.1326 77.9899 66.1135 81.7327 56.7297C83.5711 52.1204 82.8365 61.6819 82.7317 62.6864C81.6201 73.3402 80.0912 83.9096 78.8685 94.5408C78.7604 95.4803 78.1959 105.654 78.4345 105.408C79.1664 104.653 79.3243 101.956 79.5119 100.896C80.3287 96.2805 81.0057 91.6159 81.6296 86.949C82.793 78.247 82.8825 68.6252 85.0593 60.2382C85.992 56.6444 85.5087 65.1828 85.4451 65.7302C84.9975 69.5871 80.467 107.13 81.5244 107.13C82.4616 107.13 83.2392 96.25 83.3326 95.4146C84.2742 86.9882 84.6042 78.4534 85.5978 70.0432C85.6439 69.6529 86.8477 63.3376 86.8535 66.3465C86.8648 72.1857 85.9795 78.2507 85.6301 84.0768C85.163 91.8673 84.337 99.9083 84.6886 107.736C84.8314 110.916 85.7646 104.331 85.8214 103.863C87.2507 92.0811 88.6364 56.4733 89.3407 68.3694C89.7254 74.8663 88.6766 81.6497 88.1292 88.0821C87.7707 92.2949 87.3447 96.5235 87.1975 100.761C87.1429 102.33 86.8877 104.471 87.4297 105.951C88.1954 108.041 88.819 105.605 88.9749 104.594C89.8859 98.6887 90.0111 92.5551 90.0586 86.5501C90.0804 83.8042 90.0485 81.0577 90.0719 78.312C90.0821 77.1183 90.2631 79.5077 90.2723 79.7282C90.5679 86.8482 90.3637 94.0575 90.3637 101.185C90.3637 101.866 89.8667 112.86 90.6835 113.016C91.1308 113.102 92.0256 101.385 92.0946 100.585C92.4361 96.6291 92.7053 92.6661 92.961 88.6987C93.1279 86.11 92.9657 82.7866 93.7041 80.3284C94.0646 79.1283 94.283 81.7178 94.294 81.9294C94.4441 84.8147 94.3477 87.7463 94.3419 90.6362C94.3263 98.4853 93.5835 106.281 93.3801 114.118C93.3273 116.155 93.5628 118.833 94.0289 115.167C94.8272 108.888 95.3969 102.566 95.9493 96.2429C96.0044 95.6115 96.9172 86.5521 97.4112 90.6259C97.9882 95.3844 97.6523 100.49 97.6523 105.286C97.6523 107.126 96.8807 115.091 98.2701 116.441C98.4427 116.609 99.4055 108.546 99.4604 107.917C99.9205 102.653 99.3329 96.2758 100.531 91.2332C100.84 89.9361 101.115 92.5323 101.136 92.7886C101.336 95.2438 101.297 97.7364 101.328 100.202C101.389 105.059 101.367 110.049 102.188 114.813C102.347 115.738 102.652 117.958 102.929 115.869C103.494 111.613 103.617 107.267 103.838 102.963C103.927 101.228 104.213 96.555 105.018 100.689C105.903 105.23 106.295 109.943 107.078 114.519C107.334 116.012 107.601 119.929 108.776 120.807C109.339 121.227 109.395 116.865 109.41 116.464C109.512 113.663 109.2 110.28 109.815 107.567C110.063 106.473 110.929 110.183 111.034 110.542C111.889 113.467 113.528 115.804 113.688 119.005C113.873 122.694 113.792 116.122 113.741 115.292C113.54 112.05 112.241 108.669 111.367 105.688C110.221 101.779 109.124 96.9979 106.684 94.1201C104.607 91.6705 101.807 90.5537 99.6159 88.2747C97.3161 85.8825 95.5662 82.2578 93.0939 80.2228C92.3993 79.6511 91.3995 79.6271 90.7966 78.9106C90.158 78.1518 91.6651 78.0897 91.9231 78.2003C94.602 79.3478 96.8012 85.8089 98.0553 88.7402C100.726 94.9819 102.503 102.029 106.025 107.584C107.776 110.346 109.624 113.122 111.473 115.774C112.185 116.796 113.167 117.981 113.212 115.846C113.376 108.096 109.128 100.681 105.521 95.1299C102.505 90.4892 99.8285 85.914 97.5534 80.5663C95.9891 76.8896 94.4853 72.7422 91.928 70.0592C90.7913 68.8666 89.4366 68.0807 88.3249 66.858C87.0182 65.4206 89.1645 68.7578 89.405 69.3308C91.5543 74.4524 93.0506 79.9876 95.3861 84.9942C97.6227 89.7887 100.584 93.72 103.379 97.9265C105.506 101.126 107.187 104.732 108.981 108.252C109.074 108.435 110.901 111.734 110.978 110.537C111.125 108.225 109.883 105.434 109.154 103.425C107.716 99.463 105.616 96.0713 103.567 92.6489C98.0266 83.3962 94.3228 72.003 87.2021 64.5659C84.5241 61.7689 82.3137 58.8559 80.383 55.1098C78.4167 51.2946 77.0919 46.568 74.7721 43.1229C73.7536 41.6104 72.3961 40.7062 71.4727 39.0461C70.4623 37.2298 70.1187 34.9072 69.8223 32.7345C69.6954 31.8047 69.3769 30.6774 69.618 32.2834C69.9331 34.3831 71.0313 36.487 71.9702 38.1731C73.7455 41.3612 75.8797 44.1266 77.7871 47.1696C81.5516 53.1754 84.267 60.0452 87.2398 66.7409C89.7376 72.3667 92.5409 77.3415 95.7426 82.2799C98.8013 86.9976 101.069 92.3605 103.545 97.6126C105.8 102.395 108.819 109.404 113.663 109.356C114.515 109.347 113.441 107.801 113.271 107.534C111.593 104.899 109.803 102.397 108.152 99.7304C105.037 94.7 102.222 89.324 98.9657 84.4515C96.0883 80.1463 92.4874 76.8989 89.6558 72.4786C85.9403 66.6784 82.468 60.7576 79.6613 54.1003C77.6315 49.2858 75.9541 43.6798 72.1275 40.8896C70.1338 39.4358 67.8037 39.4565 65.7442 38.2651C64.5062 37.549 63.5508 36.3318 62.1458 36.3613C60.2435 36.4014 58.9092 40.12 58.1564 41.924C56.2225 46.5587 54.8047 51.5633 52.977 56.2753C47.7006 69.878 42.8631 83.8784 37.103 97.1311C34.682 102.701 32.0022 107.853 28.6398 112.505C27.7479 113.738 24.7488 116.915 25.8812 116.098C28.4199 114.265 30.3995 109.031 32.1281 106.137C36.7945 98.324 41.5083 90.5693 47.3326 84.1935C48.9943 82.3744 53.4185 76.3958 56.0008 76.9937C57.4996 77.3407 52.8119 84.8467 52.5495 85.244C43.9333 98.2902 34.1525 109.867 25.069 122.309C24.1077 123.626 22.1497 125.656 24.504 125.528C28.5459 125.306 32.7069 121.995 36.192 119.596C42.358 115.353 48.2311 110.284 54.7295 106.934C59.8761 104.282 65.2689 102.814 70.6191 101.087C72.4707 100.489 75.532 98.599 77.4887 99.2009C77.799 99.2963 72.9846 103.165 72.5569 103.45C61.7876 110.624 52.1367 121.402 40.6561 126.547C38.5286 127.5 36.1881 128.133 33.926 127.999C33.3438 127.964 34.9855 127.351 35.5322 127.083C37.0634 126.334 38.5741 125.532 40.0701 124.666C51.4126 118.104 61.7611 109.356 73.5741 104.14C77.5365 102.391 81.5682 100.768 85.3611 98.4215C85.5596 98.2988 88.7129 96.2607 87.8779 95.9126C83.8221 94.2215 78.1034 96.8574 74.9149 92.0745C71.8139 87.4229 72.1005 79.2722 72.1005 73.5205C72.1005 64.7572 72.8586 56.3145 73.4537 47.6133C73.5559 46.1189 74.658 38.8161 72.4743 39.0153C69.6048 39.2771 67.0447 46.9121 65.8462 49.6009C62.2905 57.5775 59.1956 65.9026 56.5675 74.4843C54.665 80.6967 52.0347 87.3493 50.9089 93.9176C50.0738 98.7892 54.3911 85.0501 55.9792 80.5186C59.8517 69.469 63.9056 57.9565 69.8204 48.5196C71.6382 45.6193 74.7834 41.9742 74.2771 48.2053C73.5606 57.0229 70.7337 65.9471 68.9878 74.4744C68.713 75.8167 65.3528 90.5597 67.4305 90.7952C68.7195 90.9414 69.837 88.6865 70.5269 87.5394C72.5921 84.1058 74.4488 80.4468 76.3452 76.8499C78.1989 73.3338 81.7035 63.3827 85.7444 63.8815C88.4459 64.215 87.0501 76.5388 86.8977 78.5372C86.4016 85.0434 85.0516 92.7545 85.8798 99.2913C86.2657 102.337 89.1652 101.888 90.8771 101.539C93.3919 101.027 95.811 100.645 98.3606 100.645C100.519 100.645 102.879 101.217 105.018 100.766C105.317 100.703 106.944 100.363 106.224 99.6955C104.275 97.8881 102.681 95.1639 101.114 92.8358C97.2536 87.1011 93.8739 80.9063 90.4214 74.7423C87.3223 69.2092 84.2139 64.9443 78.8666 63.9542C68.9679 62.1214 60.4785 70.0148 53.0456 77.5491C46.2598 84.4275 38.7187 92.9196 34.9239 103.325C34.4944 104.503 33.5442 107.881 35.4047 107.386C38.1439 106.658 41.4085 101.805 43.4568 99.5447C48.7625 93.69 53.4962 87.0073 58.7994 81.1603C62.0599 77.5656 67.1591 72.2112 71.8264 73.6585C78.1586 75.6221 76.3924 90.5883 75.6061 96.307C75.0731 100.183 74.5257 104.322 73.3872 107.986C72.4736 110.926 74.4905 101.797 75.072 98.7124C76.8129 89.4767 78.3447 80.1378 79.6895 70.788C80.3076 66.4904 80.9371 62.1785 81.3382 57.834C81.5468 55.5757 81.9906 52.8193 81.6138 50.545C80.5157 43.9175 69.1607 48.0816 66.5262 49.6896C61.9843 52.4617 57.181 56.5227 53.8378 61.5307C49.1224 68.594 63.2006 45.8911 69.9796 43.0091C78.777 39.2689 74.3828 59.973 73.0849 64.5101C70.9464 71.9851 68.6393 79.4505 66.1263 86.7189C64.6171 91.0844 62.8873 95.9567 60.3237 99.4511C58.3309 102.167 55.709 104.805 52.993 106.031C49.6452 107.543 47.0792 109.244 44.1342 111.846C43.9286 112.027 41.8207 113.872 42.6318 112.62C44.7081 109.414 47.6558 107.055 50.4435 105.11C55.9258 101.286 61.8496 98.8102 67.262 94.7384C71.9425 91.2171 76.2569 86.9233 80.9217 83.3928C82.5844 82.1344 86.0977 79.2749 88.0357 81.2367C89.269 82.4852 89.5933 84.9049 89.778 86.8212C90.0286 89.4225 90.0024 95.9367 92.6708 96.1393C94.0805 96.2464 95.2868 95.3519 96.6746 95.2511C98.3553 95.1291 99.9447 95.4948 101.607 95.6233C105.468 95.9218 101.512 92.4543 100.152 91.6337C94.9013 88.4664 89.3634 84.798 83.5025 84.59" stroke="black" stroke-opacity="0.21" stroke-linecap="round" stroke-linejoin="round"/>
</svg>
