<svg width="192" height="138" viewBox="0 0 192 138" fill="none" xmlns="http://www.w3.org/2000/svg">
<path d="M151.188 7.59071C169.729 7.59071 114.101 6.00611 95.571 6.65696C91.336 6.80571 87.0665 7.23546 82.8045 7.80002M82.8045 7.80002C77.5765 8.49254 72.3599 9.38791 67.2324 10.2163C63.511 10.8175 52.8082 11.2388 56.2282 12.822C60.5045 14.8017 68.2729 13.3893 72.7907 13.3803C83.4234 13.359 94.0789 12.9068 104.702 12.4561L105.16 12.4366C113.456 12.0846 138.098 10.7187 129.892 9.45114C115.143 7.17303 98.8604 7.91721 83.9764 7.80609C83.5855 7.80317 83.1948 7.80114 82.8045 7.80002ZM82.8045 7.80002C71.3976 7.7671 60.2639 8.50147 49.2067 10.106M49.2067 10.106C47.042 10.4201 44.8802 10.7676 42.72 11.1492M49.2067 10.106C46.7616 10.0875 44.1772 10.4835 41.69 11.0883M49.2067 10.106C51.1831 10.121 53.0685 10.4068 54.7377 11.0721C58.6525 12.6324 48.9162 11.5452 42.72 11.1492M42.72 11.1492C41.447 11.374 40.1746 11.6107 38.9024 11.8594M42.72 11.1492C42.3639 11.1264 42.0194 11.1059 41.69 11.0883M38.9024 11.8594C34.39 12.7415 29.8802 13.7746 25.3596 14.9658C22.0691 15.8329 16.7622 16.4056 15.1474 19.4688C13.8605 21.9102 10.757 23.9906 8.88597 25.9498C8.55446 26.297 8.23403 26.6497 7.92457 27.0077M38.9024 11.8594C36.8074 12.506 34.8578 13.254 33.2153 13.9626C19.2452 19.9901 8.21813 29.0068 4.56689 44.2934C4.46353 44.7261 4.36593 45.1592 4.27378 45.5926M38.9024 11.8594C39.8087 11.5796 40.7423 11.3188 41.69 11.0883M7.92457 27.0077C2.94151 32.7731 0.802069 39.9234 1.01432 47.5509C1.07081 49.5808 2.14463 53.2309 3.39653 50.9155M7.92457 27.0077C9.31274 23.5847 11.2882 20.5974 14.2143 18.5924C21.7633 13.4199 30.6646 10.9998 39.6752 11.0211C40.2386 11.0224 40.9239 11.0475 41.69 11.0883M7.92457 27.0077C5.64211 32.6359 4.94727 39.4421 4.22462 44.9969M3.39653 50.9155C3.41924 50.8735 3.44201 50.8296 3.46484 50.7836M3.39653 50.9155C3.21494 52.4132 3.08264 53.9147 2.98703 55.4199M3.39653 50.9155C3.45638 50.4219 3.52158 49.9287 3.59259 49.4359M3.46484 50.7836C3.5261 50.6602 3.58774 50.5223 3.64968 50.3691M3.46484 50.7836C3.50981 50.3958 3.55614 50.0085 3.60392 49.6215M3.46484 50.7836C3.28614 52.3242 3.12886 53.8703 2.98703 55.4199M3.64968 50.3691C3.70009 50.2443 3.7507 50.1094 3.80144 49.9639C4.28802 48.5685 4.37396 47.0886 4.27378 45.5926M3.64968 50.3691C3.63443 50.1199 3.61915 49.8707 3.60392 49.6215M3.64968 50.3691C3.69592 51.1242 3.74196 51.8786 3.78601 52.632C4.10072 58.0147 4.51934 63.3822 4.50621 68.7779C4.5058 68.9466 4.27686 72.9001 3.30161 71.9702C2.01489 70.7433 2.75281 65.8449 2.75281 64.3457C2.75281 61.3569 2.79891 58.3813 2.98703 55.4199M4.27378 45.5926C4.2605 45.3943 4.24395 45.1957 4.22462 44.9969M4.27378 45.5926C4.09618 46.4278 3.93881 47.2643 3.79945 48.102M4.22462 44.9969C4.03586 43.0556 3.58266 41.1025 3.33089 39.286C3.18739 38.2506 3.16481 36.2417 3.16481 38.6016C3.16481 42.2061 3.3725 45.8277 3.59259 49.4359M4.22462 44.9969C4.14119 45.6383 4.05738 46.263 3.97072 46.8672C3.91175 47.2783 3.8547 47.6899 3.79945 48.102M3.59259 49.4359C3.59636 49.4977 3.60014 49.5596 3.60392 49.6215M3.59259 49.4359C3.6567 48.9909 3.72554 48.5463 3.79945 48.102M3.60392 49.6215C3.66653 49.1143 3.73164 48.6078 3.79945 48.102M2.98703 55.4199C2.38985 61.9447 2.06682 68.5306 1.5743 75.0209C1.16407 80.4268 2.0921 82.2763 4.01011 76.2295C4.50207 74.6785 8.56501 62.7073 7.34283 70.136C5.66629 80.3264 7.89802 89.606 7.89802 99.7831C7.89802 101.917 7.67835 104.007 7.35808 106.088M7.35808 106.088C7.1435 107.482 6.88375 108.873 6.61465 110.272C6.15621 112.655 6.34114 111.27 6.61412 109.659C7.71356 103.172 7.63792 95.9221 6.05201 89.5217C5.72652 88.2081 7.05146 92.0702 7.20497 93.4147C7.67589 97.5391 7.56706 101.894 7.35808 106.088ZM7.35808 106.088C7.3249 106.754 7.28919 107.416 7.25288 108.072C6.94626 113.614 7.17239 118.468 8.71138 123.743C8.97467 124.646 9.56343 121.49 9.95808 118.897M9.95808 118.897C10.1703 117.503 10.3263 116.271 10.3455 115.92C10.3746 115.388 10.4168 114.532 10.4614 113.649M9.95808 118.897C9.95804 118.879 9.95802 118.861 9.95802 118.844C9.95802 117.096 10.2497 115.371 10.4614 113.649M9.95808 118.897C9.99953 137.523 31.6992 133.112 44.2786 133.112M10.4614 113.649C10.5628 111.643 10.6766 109.497 10.6766 110.706C10.6766 111.689 10.582 112.669 10.4614 113.649ZM13.4076 106.447C11.3746 108.285 11.5584 110.423 11.5584 113.201C11.5584 118.132 12.5652 124.334 14.6266 128.844C17.1296 134.321 23.88 134.514 29.12 135.137C36.403 136.002 46.9553 138.484 54.0407 135.755C54.5058 135.575 54.6172 135.451 54.4723 135.367M54.4723 135.367C53.8282 134.993 48.1196 135.42 45.9034 135.42C42.1937 135.42 31.1272 134.767 34.7741 135.446C40.7814 136.564 47.9309 135.96 54.4723 135.367ZM54.4723 135.367C56.4686 135.186 58.4082 135.005 60.2415 134.875C66.4307 134.437 72.5936 134.085 78.7582 133.838M78.7582 133.838C82.3076 133.695 85.8575 133.587 89.4135 133.516M78.7582 133.838C76.3324 134.184 73.9162 134.547 71.5118 134.926C65.6757 135.848 83.2877 133.934 89.1826 133.531C89.2595 133.526 89.3365 133.521 89.4135 133.516M78.7582 133.838C90.4285 132.174 102.319 130.916 114.177 130.185M89.4135 133.516C92.6595 133.452 95.9106 133.418 99.1707 133.418H99.4805C96.1309 133.418 92.7581 133.303 89.4135 133.516ZM114.177 130.185C121.798 129.716 129.405 129.465 136.931 129.465C144.564 129.465 123.33 129.864 114.177 130.185ZM114.177 130.185C113.651 130.204 113.164 130.222 112.726 130.24C108.516 130.412 104.306 130.549 100.093 130.549C97.3048 130.549 103.479 129.734 103.972 129.683C118.036 128.242 132.123 126.927 146.228 125.966C147.951 125.849 149.673 125.728 151.395 125.612M151.395 125.612C152.729 125.523 154.064 125.437 155.398 125.36M151.395 125.612C151.408 125.678 151.555 125.748 151.869 125.822C152.354 125.937 152.895 125.975 153.456 125.974M151.395 125.612C151.331 125.288 154.545 125.061 157.029 124.833M155.398 125.36C158.823 125.162 162.251 125.02 165.687 125.014C167.707 125.011 173.305 124.099 171.737 125.371C169.24 127.4 159.91 125.83 156.677 125.83C155.712 125.83 154.547 125.974 153.456 125.974M155.398 125.36C154.752 125.567 154.104 125.772 153.456 125.974M155.398 125.36C155.943 125.186 156.486 125.011 157.029 124.833M153.456 125.974C151.883 126.467 150.308 126.949 148.734 127.431L148.208 127.592C144.774 128.643 153.944 127.742 155.389 127.784C161.379 127.96 167.88 128.535 173.829 127.595C177.758 126.973 180.137 124.973 181.055 121.117C181.292 120.122 181.508 119.12 181.707 118.113M157.029 124.833C157.841 124.758 158.576 124.683 159.092 124.605C165.931 123.566 173.923 123.12 179.958 119.442C180.604 119.047 181.185 118.602 181.707 118.113M157.029 124.833C157.455 124.693 157.88 124.553 158.305 124.41M181.707 118.113C183.935 116.03 185.103 113.16 185.813 110.121M181.707 118.113C182.047 116.397 182.337 114.666 182.592 112.927M185.813 110.121C186.361 107.777 186.635 105.332 186.912 103.07C187.731 96.3775 187.45 89.5812 187.778 82.8511M185.813 110.121C184.836 111.118 183.75 112.052 182.592 112.927M185.813 110.121C187.635 108.262 189.077 106.185 189.888 103.864C191.325 99.751 189.185 97.1728 188.466 93.3297C187.637 88.9004 189.342 85.0618 190.161 80.8062C192.384 69.252 189.676 55.6004 187.975 44.2027C187.618 41.8068 187.364 34.1319 185.564 30.9337M187.778 82.8511C187.896 80.4229 188.094 78.0033 188.451 75.6004C188.603 74.5811 190.314 67.4307 190.335 68.3719C190.446 73.2796 189.369 78.09 187.778 82.8511ZM187.778 82.8511C187.098 84.8868 186.324 86.9136 185.508 88.935M185.508 88.935C183.802 93.1654 181.915 97.3726 180.33 101.591M185.508 88.935C186.518 81.5044 187.469 73.8508 186.79 66.6256C186.562 64.196 185.509 69.3702 185.509 69.9086C185.509 80.6093 182.393 91.1182 180.33 101.591M185.508 88.935C185.118 91.8089 184.718 94.6494 184.4 97.4189C183.813 102.542 183.351 107.77 182.592 112.927M180.33 101.591C179.082 104.914 178.022 108.243 177.385 111.596C176.087 118.423 172.558 117.47 166.849 118.05C161.198 118.625 155.672 119.781 149.979 120.143C146.156 120.386 136.722 118.924 133.609 121.747C131.897 123.299 143.115 124.678 143.835 124.724C148.733 125.034 153.556 125.048 158.305 124.41M180.33 101.591C180.162 102.446 180.001 103.301 179.849 104.155C178.867 109.673 177.787 114.278 174.752 117.686M158.305 124.41C161.573 123.972 164.806 123.225 168.004 122.054C170.987 120.962 173.144 119.492 174.752 117.686M158.305 124.41C161.507 123.339 164.679 122.185 167.784 120.866C169.895 119.969 172.306 118.918 174.752 117.686M174.752 117.686C177.441 116.332 180.172 114.758 182.592 112.927M185.564 30.9337C185.293 30.452 184.987 30.0718 184.64 29.8266C184.514 29.7378 183.369 35.9024 182.664 39.9665M185.564 30.9337C186.091 41.249 186.639 52.3872 186.639 54.5009C186.639 55.3843 186.555 66.0916 185.065 64.2636C180.801 59.0301 181.556 49.5812 182.116 43.3653C182.146 43.0323 182.366 41.6878 182.664 39.9665M185.564 30.9337C185.067 21.2048 184.588 12.2078 184.604 12.2042C186.009 11.8859 182.408 9.3208 182.283 9.25491C181.237 8.69935 180.128 8.20114 178.976 7.75225M182.664 39.9665C182.382 39.1566 182.176 38.3218 182.167 37.4312C182.098 30.2876 182.156 23.3218 181.059 16.2354C180.608 13.3257 180.141 10.426 178.976 7.75225M182.664 39.9665C183.313 41.8279 184.368 43.5575 184.368 45.5289M178.976 7.75225C173.389 5.57681 166.766 4.55977 161.192 3.7877L160.989 3.75955C159.858 3.6028 158.677 3.43928 157.463 3.28306M178.976 7.75225C178.685 7.08579 178.351 6.43336 177.964 5.79832C175.515 1.7877 168.467 2.94829 164.652 2.99989C162.262 3.03222 159.863 3.13194 157.463 3.28306M157.463 3.28306C155.22 2.99456 152.861 2.73092 150.476 2.58062M157.463 3.28306C151.598 3.65229 145.718 4.32837 139.901 5.07812M150.476 2.58062C149.477 2.51763 148.473 2.47455 147.471 2.4579M150.476 2.58062C147.332 3.31686 142.342 4.36991 140.035 5.04451C139.999 5.05499 139.954 5.06624 139.901 5.07812M150.476 2.58062C152.901 2.01276 154.228 1.63337 152.378 1.76149C150.741 1.87488 149.106 2.12597 147.471 2.4579M147.471 2.4579C142.909 2.38205 138.396 2.85455 134.571 4.4912C132.493 5.38022 133.587 5.59522 135.335 5.55005M147.471 2.4579C143.42 3.28054 139.376 4.59974 135.335 5.55005M135.335 5.55005C135.894 5.53559 136.521 5.49446 137.132 5.44025M135.335 5.55005C134.641 5.71325 133.947 5.86558 133.253 6.00264M137.132 5.44025C138.31 5.33575 139.43 5.18263 139.901 5.07812M137.132 5.44025C136.888 5.47264 136.643 5.5051 136.399 5.5376C135.814 5.61539 134.574 5.80052 133.253 6.00264M137.132 5.44025C138.053 5.3183 138.976 5.19728 139.901 5.07812M133.253 6.00264C132.6 6.13156 131.948 6.24698 131.295 6.34525C125.863 7.16322 129.832 6.526 133.253 6.00264ZM26.0067 22.0519C26.0067 21.4198 26.265 18.8051 24.9959 20.1234C18.8283 26.5303 13.6278 34.517 8.41422 41.6933C7.20084 43.3635 3.08253 47.1343 5.14111 46.9501C6.51168 46.8275 8.82684 43.6947 9.68748 42.8155C14.1283 38.2791 18.6902 33.8417 23.1828 29.3435M23.1828 29.3435C25.9671 26.5558 28.7248 23.7447 31.4106 20.8723C37.8223 14.0152 31.1503 19.9498 28.6022 22.8057C26.7202 24.9151 24.9078 27.0951 23.1828 29.3435ZM23.1828 29.3435C19.05 34.7303 15.4187 40.5091 12.5332 46.6469L12.5193 46.6765C12.1774 47.4026 9.50678 53.0762 10.7068 53.6642C12.4191 54.5032 15.4479 50.5368 16.321 49.6267C25.505 40.0531 33.1775 29.147 42.1285 19.3583C42.4905 18.9624 47.7825 14.0823 46.7781 15.6941C45.114 18.3648 42.4572 20.6021 40.3762 22.9389C29.978 34.6148 20.3822 46.9461 12.3277 60.3727C9.78938 64.6039 5.63514 69.967 4.63117 74.916C4.02628 77.8978 9.20527 70.8568 11.1396 68.5058C23.4477 53.5465 35.5449 38.4547 49.1884 24.6604C53.7 20.099 58.2718 15.5463 63.3082 11.5567C64.0003 11.0084 66.5202 9.10242 64.6144 11.0048C54.7424 20.8592 46.3046 32.4442 38.075 43.6543C31.0857 53.175 24.5468 63.004 18.4614 73.1236C15.9954 77.2244 12.5132 82.0042 11.9466 86.916C11.6378 89.5928 15.3302 86.0303 15.7781 85.5529C21.3603 79.6017 26.2766 72.941 31.3814 66.5859C44.0593 50.8026 56.6142 33.9374 72.026 20.6479M72.026 20.6479C72.1211 20.5658 72.2164 20.4839 72.3117 20.4022M72.026 20.6479C72.3066 20.6432 72.5872 20.6383 72.8678 20.6332M72.026 20.6479C71.139 20.6625 70.2519 20.6748 69.3647 20.6845C68.2623 20.6966 56.7707 21.6644 56.3127 20.5485C56.2472 20.389 58.0711 20.2551 58.1443 20.2481C60.4603 20.0271 62.7693 19.753 65.0743 19.4376C68.3655 18.9874 71.6603 18.5883 74.9585 18.2203M72.3117 20.4022C72.3333 20.3837 72.3548 20.3652 72.3764 20.3467M72.3117 20.4022C70.2929 20.3942 70.5121 20.3759 72.3764 20.3467M72.3117 20.4022C72.5432 20.4031 72.8042 20.4039 73.0956 20.4045M72.3764 20.3467C72.4978 20.2428 72.6193 20.1391 72.741 20.0356C72.9608 19.8487 74.1265 18.8745 74.9585 18.2203M72.3764 20.3467C72.6131 20.343 72.8763 20.3391 73.1648 20.3351M74.9585 18.2203C75.7501 17.5978 76.2397 17.2651 75.3254 18.1759C75.324 18.1772 75.3226 18.1786 75.3213 18.1799M74.9585 18.2203C75.0794 18.2068 75.2004 18.1933 75.3213 18.1799M75.3213 18.1799C74.601 18.8973 73.8819 19.6154 73.1648 20.3351M75.3213 18.1799C79.1231 17.7583 82.9293 17.3769 86.7395 17.0048C87.7029 16.9107 88.6704 16.8248 89.641 16.7444M73.1648 20.3351C73.1417 20.3582 73.1186 20.3814 73.0956 20.4045M73.1648 20.3351C75.5315 20.3018 79.601 20.2565 84.7035 20.1987M73.0956 20.4045C73.0196 20.4807 72.9437 20.557 72.8678 20.6332M73.0956 20.4045C73.7967 20.4061 74.6735 20.4068 75.7384 20.4068C78.7078 20.4068 81.6842 20.3421 84.665 20.2281M72.8678 20.6332C70.2446 23.2689 67.6477 25.9267 65.1105 28.6491C50.2154 44.631 37.9171 63.3365 26.7402 82.0247C22.2901 89.4656 9.49754 111.776 15.4177 105.437C20.7209 99.7594 24.9087 92.6223 29.3911 86.3067C37.4207 74.9931 45.4768 63.6632 54.201 52.8672C63.0799 41.88 72.9308 29.2146 84.5704 20.3005M72.8678 20.6332C76.7702 20.5622 80.6709 20.4463 84.5704 20.3005M84.5704 20.3005C84.6019 20.2763 84.6334 20.2522 84.665 20.2281M84.5704 20.3005C85.6094 20.2616 86.6483 20.2206 87.6872 20.1778M84.665 20.2281C84.6778 20.2183 84.6907 20.2085 84.7035 20.1987M84.665 20.2281C85.0009 20.2153 85.3368 20.2018 85.6728 20.1877M84.7035 20.1987C86.3144 18.9704 87.9595 17.8142 89.641 16.7444M84.7035 20.1987C85.0226 20.1951 85.3458 20.1915 85.6728 20.1877M89.641 16.7444C89.7682 16.6635 89.8956 16.5831 90.0232 16.5032C91.7978 15.3917 91.9484 15.5975 91.0933 16.6283M89.641 16.7444C90.1244 16.7044 90.6085 16.6658 91.0933 16.6283M91.0933 16.6283C90.4578 17.3945 89.2668 18.6164 87.7739 20.0921M91.0933 16.6283C96.2659 16.2279 101.514 15.9503 106.699 15.4128M87.7739 20.0921C87.7495 20.1162 87.725 20.1404 87.7005 20.1646M87.7739 20.0921C87.0733 20.1264 86.373 20.1584 85.6728 20.1877M87.7739 20.0921C92.83 19.8439 97.8957 19.4693 102.957 19.043M87.7005 20.1646C87.696 20.169 87.6916 20.1734 87.6872 20.1778M87.7005 20.1646C87.8393 20.163 87.9788 20.1615 88.1188 20.1598M87.7005 20.1646C87.0097 20.1725 86.3333 20.1802 85.6728 20.1877M87.6872 20.1778C83.1962 24.612 76.0591 31.2733 73.0258 34.7886C57.3005 53.0127 43.2301 73.3456 30.9177 94.0048C27.0949 100.419 23.5762 107.32 21.6376 114.57C21.2445 116.04 20.4279 120.108 22.9817 117.485C27.4717 112.875 31.0615 107.216 34.7705 101.992C42.1314 91.6252 49.5883 81.2975 57.3677 71.2391C71.1428 53.4285 85.9013 35.9438 101.996 19.9926M87.6872 20.1778C87.831 20.1718 87.9749 20.1658 88.1188 20.1598M101.996 19.9926C102.171 19.8184 102.347 19.6443 102.524 19.4704M101.996 19.9926C102.021 19.9923 102.045 19.992 102.07 19.9917M101.996 19.9926C97.0505 20.056 92.3258 20.1116 88.1188 20.1598M102.524 19.4704C102.668 19.3278 102.813 19.1854 102.957 19.043M102.524 19.4704C102.546 19.4692 102.568 19.4681 102.591 19.4669M102.524 19.4704C97.7225 19.7204 92.9214 19.9594 88.1188 20.1598M102.957 19.043C104.196 17.8236 105.444 16.6133 106.699 15.4128M102.957 19.043C102.978 19.0413 102.998 19.0396 103.019 19.0378M106.699 15.4128C109.35 12.8765 112.038 10.3836 114.763 7.93928C115.632 7.16028 119.393 3.94051 116.444 6.54928C113.145 9.46855 109.906 12.3949 106.743 15.4082M106.699 15.4128C106.714 15.4113 106.728 15.4097 106.743 15.4082M106.743 15.4082C105.489 16.6028 104.248 17.811 103.019 19.0378M106.743 15.4082C109.935 15.0764 113.102 14.6458 116.213 14.0271C117.477 13.7757 116.862 12.7172 119.88 12.7172C120.229 12.7172 117.718 15.2206 114.827 17.9829M103.019 19.0378C102.876 19.1806 102.733 19.3236 102.591 19.4669M103.019 19.0378C104.982 18.8723 106.945 18.6991 108.906 18.5225M102.591 19.4669C102.417 19.6414 102.243 19.8163 102.07 19.9917M102.591 19.4669C104.448 19.3701 106.306 19.2718 108.164 19.1734L108.282 19.1671M102.07 19.9917C100.942 21.1336 99.8258 22.2925 98.7215 23.4723C75.1993 48.6043 53.8802 75.9844 35.4939 105.102C31.1415 111.995 25.6437 119.768 24.182 127.974C23.5656 131.435 24.6942 133.266 27.7271 130.28C30.0616 127.981 32.2511 125.502 34.3576 122.931M102.07 19.9917C103.883 19.9684 105.724 19.9442 107.581 19.9188M34.3576 122.931C34.9442 122.215 35.5244 121.492 36.0995 120.764M34.3576 122.931C31.1986 122.138 33.1436 121.339 36.0995 120.764M34.3576 122.931C34.9339 123.076 35.6802 123.221 36.6213 123.364C37.452 123.49 38.2845 123.602 39.1186 123.701M36.0995 120.764C40.0594 115.748 43.7772 110.484 47.6889 105.591C49.1308 103.787 50.5809 101.992 52.0403 100.206M36.0995 120.764C38.7021 120.258 42.0885 119.926 43.4646 119.926C44.3726 119.926 45.2799 119.945 46.1866 119.973M52.0403 100.206C62.0025 88.0137 72.4015 76.2496 83.6255 65.1774M52.0403 100.206C50.8209 101.537 49.6041 102.87 48.391 104.207C47.4994 105.189 39.7006 113.053 40.7456 110.85C43.2031 105.668 46.8123 100.93 50.5114 96.3447M52.0403 100.206C59.6025 91.9524 67.264 83.7917 74.7633 75.4799C77.8039 72.1098 80.7432 68.6648 83.6255 65.1774M83.6255 65.1774C84.1562 64.654 84.6886 64.1321 85.2229 63.6118C85.7166 63.1311 86.2103 62.6506 86.7043 62.1702M83.6255 65.1774C89.5637 57.9926 95.2602 50.6276 101.103 43.3655M86.7043 62.1702C97.6817 51.4945 108.742 40.889 119.866 30.3678C123.529 26.9035 128.591 23.4079 132.52 19.5055M86.7043 62.1702C90.2699 57.7806 93.9613 53.4996 97.8246 49.3773C105.989 40.666 114.675 32.4676 123.783 24.7511C125.166 23.5795 127.43 21.5415 129.675 19.5629M86.7043 62.1702C77.9942 72.8933 70.0347 84.2647 62.1531 95.555C56.7697 103.266 50.8468 111.415 46.1866 119.973M132.52 19.5055C132.878 19.1502 133.226 18.7915 133.563 18.4292M132.52 19.5055C136.065 19.4316 139.38 19.3527 142.33 19.2688M132.52 19.5055C131.587 19.525 130.638 19.5441 129.675 19.5629M133.563 18.4292C134.213 17.731 134.82 17.0192 135.372 16.2918M133.563 18.4292C137.017 18.3241 140.47 18.1824 143.902 17.962M133.563 18.4292C132.669 18.4564 131.776 18.4812 130.882 18.5042M135.372 16.2918C135.651 15.9247 135.915 15.5537 136.163 15.1784C137.478 13.1925 135.839 14.3147 133.291 16.4412M135.372 16.2918C134.66 16.3423 133.964 16.3923 133.291 16.4412M135.372 16.2918C138.999 16.0347 143.074 15.762 146.994 15.5264M133.291 16.4412C132.548 17.0609 131.728 17.7659 130.882 18.5042M133.291 16.4412C130.962 16.6104 128.896 16.7676 127.28 16.8964C123.144 17.226 118.991 17.6022 114.827 17.9829M130.882 18.5042C130.484 18.8515 130.08 19.2063 129.675 19.5629M130.882 18.5042C125.16 18.6515 119.449 18.728 113.838 18.9246M129.675 19.5629C124.343 19.667 118.599 19.7607 112.864 19.8444M46.1866 119.973C45.8837 120.53 45.586 121.088 45.2942 121.648M46.1866 119.973C47.6906 120.021 49.1931 120.097 50.6956 120.164M45.2942 121.648C44.8629 122.475 44.4443 123.307 44.04 124.142M45.2942 121.648C43.0463 122.099 40.8416 122.739 39.1186 123.701M45.2942 121.648C48.0999 121.084 50.9728 120.815 53.0603 120.579C53.4728 120.533 55.1541 120.441 55.7718 120.375M44.04 124.142C44.0137 124.196 43.9875 124.25 43.9614 124.305M44.04 124.142C42.3943 124.041 40.7533 123.896 39.1186 123.701M44.04 124.142C44.1656 124.15 44.2912 124.157 44.4168 124.164M43.9614 124.305C43.6725 124.905 43.391 125.507 43.1175 126.11M43.9614 124.305C42.3677 124.803 40.7991 125.369 39.2689 126.02M43.9614 124.305C44.113 124.257 44.2648 124.211 44.4168 124.164M43.1175 126.11C42.6199 127.209 42.1489 128.315 41.7081 129.426M43.1175 126.11C43.2335 126.108 43.3067 126.106 43.3267 126.105C45.3961 126.058 47.4638 125.969 49.5296 125.846M43.1175 126.11C42.51 126.124 40.7288 126.151 39.2689 126.02M41.7081 129.426C41.554 129.815 41.4037 130.204 41.2571 130.594C40.3033 133.133 39.3586 138.292 43.4108 134.625C45.1932 133.013 46.8893 131.27 48.5211 129.439M41.7081 129.426C41.9741 129.443 42.1913 129.452 42.3377 129.454C44.3968 129.479 46.4581 129.474 48.5211 129.439M41.7081 129.426C39.4648 129.285 33.7527 128.577 37.8392 126.659C38.3117 126.437 38.7885 126.224 39.2689 126.02M48.5211 129.439C49.5716 128.261 50.5955 127.045 51.5985 125.803M48.5211 129.439C67.7093 129.121 87.0424 126.347 106.054 123.844M51.5985 125.803C51.6243 125.771 51.6501 125.739 51.6759 125.707M51.5985 125.803C59.044 125.145 66.452 124.467 73.9552 124.35C84.6237 124.183 95.3593 124.278 106.054 123.844M51.5985 125.803C50.1574 125.931 48.7149 126.057 47.27 126.179C46.992 126.202 46.7344 126.224 46.4962 126.245M51.6759 125.707C51.7261 125.645 51.7763 125.583 51.8265 125.52M51.6759 125.707C56.6977 125.357 61.7088 124.831 66.7096 124.265C72.6347 123.594 78.5776 122.761 84.4506 121.661M51.6759 125.707C50.9607 125.757 50.2452 125.804 49.5296 125.846M51.8265 125.52C52.1481 125.12 52.4677 124.716 52.7853 124.311M51.8265 125.52C51.0608 125.628 50.2951 125.737 49.5296 125.846M51.8265 125.52C57.541 124.714 63.2589 123.944 68.9835 123.244M52.7853 124.311C53.4362 123.48 54.0791 122.639 54.7156 121.792M52.7853 124.311C49.9867 124.362 47.1951 124.324 44.4168 124.164M52.7853 124.311C58.175 124.211 63.5901 123.779 68.9835 123.244M54.7156 121.792C55.0695 121.322 55.4215 120.849 55.7718 120.375M54.7156 121.792C51.2595 122.407 47.7852 123.141 44.4168 124.164M54.7156 121.792C55.7432 121.61 56.7692 121.437 57.7903 121.271C65.7372 119.975 73.7967 119.095 81.8482 118.866C82.5252 118.847 83.2934 118.788 84.1177 118.714M55.7718 120.375C55.7879 120.353 55.804 120.331 55.8202 120.309M55.7718 120.375C56.0294 120.347 56.102 120.323 55.8202 120.309M55.8202 120.309C58.7304 116.366 61.5255 112.327 64.3708 108.499M55.8202 120.309C55.6883 120.303 55.4789 120.298 55.1746 120.296C53.947 120.288 52.7203 120.248 51.4938 120.198M64.3708 108.499C65.134 107.472 65.9008 106.46 66.6744 105.469C74.7518 95.1245 83.164 85.0682 91.9804 75.37M64.3708 108.499C62.714 110.161 54.1204 118.56 51.4938 120.198M64.3708 108.499C64.4916 108.378 64.5756 108.292 64.6176 108.248C69.0085 103.616 73.4106 98.9821 77.8291 94.3562M91.9804 75.37C97.4157 69.3911 103.005 63.5482 108.763 57.8576C121.27 45.4995 134.755 34.2164 147.065 21.641C147.932 20.755 148.803 19.871 149.672 18.9838M91.9804 75.37C93.074 73.9901 94.1602 72.6245 95.2312 71.2731C106.898 56.552 119.976 43.392 134.29 31.2414C138.643 27.5463 143.819 22.6206 149.288 19.0122M91.9804 75.37C87.1851 81.4212 82.2484 87.7476 77.8291 94.3562M149.672 18.9838C149.864 18.7874 150.057 18.5908 150.249 18.3939M149.672 18.9838C151.563 18.8379 153.642 18.5875 155.757 18.4207M149.672 18.9838C149.543 18.9938 149.415 19.0033 149.288 19.0122M150.249 18.3939C150.588 18.0465 150.926 17.6985 151.263 17.3495M150.249 18.3939C150.892 17.9913 151.538 17.6086 152.187 17.25M150.249 18.3939C149.927 18.5952 149.607 18.8014 149.288 19.0122M151.263 17.3495C151.96 16.6293 152.652 15.9051 153.336 15.1744M151.263 17.3495C151.572 17.3172 151.879 17.2841 152.187 17.25M151.263 17.3495C148.825 17.6046 146.369 17.8036 143.902 17.962M153.336 15.1744C153.927 14.5431 154.513 13.9069 155.09 13.2641L155.109 13.2431C155.359 12.9661 157.285 10.8334 156.646 10.8681C153.711 11.0271 150.24 13.1043 146.994 15.5264M153.336 15.1744C151.342 15.2739 149.192 15.3943 146.994 15.5264M153.336 15.1744C154.765 15.1031 156.114 15.0425 157.345 14.9962M146.994 15.5264C145.93 16.3197 144.891 17.15 143.902 17.962M143.902 17.962C143.362 18.406 142.836 18.8447 142.33 19.2688M142.33 19.2688C141.097 20.3024 139.981 21.2499 139.043 21.9803C110.759 44.0207 87.6412 71.877 65.0924 99.5337L64.7458 99.9588C61.0002 104.552 57.2254 109.181 53.8556 114.057C52.954 115.362 50.4649 118.258 50.6956 120.164M142.33 19.2688C144.444 19.2087 146.37 19.1459 148.059 19.0806C148.458 19.0652 148.868 19.0417 149.288 19.0122M50.6956 120.164C50.7048 120.239 50.7183 120.313 50.7363 120.386C50.779 120.557 51.052 120.473 51.4938 120.198M50.6956 120.164C50.9617 120.175 51.2278 120.187 51.4938 120.198M77.8291 94.3562C99.591 71.5732 121.751 48.98 144.921 27.7203C147.305 25.5332 152.474 21.4203 155.757 18.4207M77.8291 94.3562C73.2559 101.195 69.2367 108.336 66.502 115.787C63.6151 123.653 70.9819 118.154 73.8658 115.631C83.8856 106.865 92.9637 96.9448 102.001 87.1189M155.757 18.4207C156.529 17.7149 157.197 17.0708 157.7 16.5279M155.757 18.4207C162.326 17.9023 169.244 18.1897 171.97 24.9155C172.314 25.7648 172.513 26.734 172.613 27.7691M157.7 16.5279C158.405 15.7667 158.785 15.2044 158.673 14.9503M157.7 16.5279C159.133 16.3091 160.557 16.0653 161.97 15.7933C166.33 14.9548 163.934 14.7868 158.673 14.9503M157.7 16.5279C155.875 16.8068 154.036 17.0452 152.187 17.25M158.673 14.9503C158.582 14.7447 158.169 14.7408 157.345 14.9962M158.673 14.9503C158.248 14.9635 157.805 14.9788 157.345 14.9962M157.345 14.9962C157.344 14.9964 157.343 14.9967 157.342 14.997C155.615 15.5328 153.892 16.3083 152.187 17.25M102.001 87.1189C103.985 84.9618 105.967 82.8092 107.956 80.6744C121.272 66.3868 134.569 52.0774 147.79 37.7033C151.368 33.8137 154.961 29.9547 158.68 26.1999C159.695 25.1754 163.017 22.5383 161.681 23.0834C154.213 26.1298 146.66 34.7343 141.156 40.2495C127.957 53.4745 115.683 67.4777 105.012 82.821C104.027 84.2374 103.019 85.6701 102.001 87.1189ZM102.001 87.1189C95.328 96.6151 88.231 106.803 84.458 117.604C84.3138 118.017 84.2013 118.386 84.1177 118.714M84.1177 118.714C83.9804 119.252 83.9215 119.68 83.9294 120.011M84.1177 118.714C85.69 118.572 87.4666 118.373 89.2045 118.283M83.9294 120.011C83.9652 121.504 85.3575 121.041 87.0645 119.9M83.9294 120.011C84.9302 119.972 85.9799 119.935 87.0645 119.9M83.9294 120.011C75.9275 120.323 71.0625 120.761 76.6518 121.356C78.787 121.583 80.9581 121.678 83.1538 121.674M87.0645 119.9C87.7496 119.443 88.4854 118.876 89.2045 118.283M87.0645 119.9C89.4671 119.823 92.0403 119.755 94.6283 119.695M89.2045 118.283C90.9091 116.878 92.5203 115.324 93.1414 114.723C118.938 89.7603 141.651 61.8634 168.136 37.502L168.199 37.4441C168.944 36.7587 169.691 36.072 170.442 35.3894M89.2045 118.283C91.4074 118.17 93.548 118.233 95.1317 118.812C95.9647 119.117 95.5745 119.415 94.6283 119.695M170.442 35.3894C171.11 34.7827 171.781 34.1793 172.459 33.5828M170.442 35.3894C170.88 31.1446 171.555 27.2019 172.58 27.7508C172.591 27.7568 172.602 27.7629 172.613 27.7691M170.442 35.3894C170.404 35.7616 170.367 36.1361 170.332 36.5102M172.459 33.5828C172.572 33.4838 172.684 33.3849 172.797 33.2863M172.459 33.5828C172.42 33.9732 172.378 34.36 172.335 34.7407M172.459 33.5828C172.655 31.637 172.79 29.5999 172.613 27.7691M172.797 33.2863C173.36 32.7942 173.928 32.3073 174.502 31.8279M172.797 33.2863C172.807 33.2189 172.818 33.1515 172.828 33.0841C173.013 31.8616 173.264 30.3481 173.561 28.6498M172.797 33.2863C172.737 33.6881 172.678 34.0899 172.62 34.4918M174.502 31.8279C175.375 31.0979 176.262 30.385 177.167 29.6967M174.502 31.8279C174.531 32.1515 174.55 32.4793 174.561 32.8061M174.502 31.8279C174.391 30.6213 174.128 29.4727 173.561 28.6498M177.167 29.6967C177.77 29.2381 178.381 28.7903 179.002 28.3558C180.67 27.1888 181.375 27.0764 179.478 28.6491C178.683 29.3087 177.891 29.9712 177.104 30.6366M177.167 29.6967C177.146 30.01 177.125 30.3233 177.104 30.6366M177.167 29.6967C177.764 20.81 178.396 11.926 179.35 3.07356C180.313 -5.87473 175.725 16.2868 173.561 28.6498M177.104 30.6366C176.252 31.3563 175.404 32.0795 174.561 32.8061M177.104 30.6366C176.295 42.7235 175.534 54.8138 174.104 66.8353C174.083 67.0114 174.061 67.1876 174.039 67.3638M174.561 32.8061C173.912 33.3659 173.264 33.9278 172.62 34.4918M174.561 32.8061C174.612 34.3274 174.49 35.8272 174.49 36.7844C174.49 36.9758 174.49 37.1672 174.49 37.3586M172.62 34.4918C172.525 34.5747 172.43 34.6576 172.335 34.7407M172.62 34.4918C172.301 36.7035 172.018 38.9149 171.765 41.1263M172.335 34.7407C171.665 35.3282 170.998 35.918 170.332 36.5102M172.335 34.7407C172.189 36.0565 172.037 37.2996 171.963 38.3706C171.899 39.2894 171.833 40.2079 171.765 41.1263M170.332 36.5102C163.653 42.4555 157.222 48.6324 150.926 55.0627C137.837 68.4314 125.257 82.6288 114.62 98.0459C114.241 98.5955 105.449 112.525 107.146 112.63C111.949 112.929 119.236 103.32 122.135 100.501C132.363 90.5549 142.318 80.3566 152.329 70.1948C156.508 65.9529 160.646 61.6649 164.924 57.5211C165.796 56.6761 167.305 54.8963 168.861 53.5266M170.332 36.5102C169.975 40.3558 169.802 44.1484 169.734 44.8176C169.437 47.7201 169.146 50.623 168.861 53.5266M168.861 53.5266C169.482 52.98 170.111 52.4988 170.71 52.1682M168.861 53.5266C168.798 54.1736 168.735 54.8207 168.672 55.4678M170.71 52.1682C170.754 52.144 170.798 52.1205 170.841 52.0979M170.71 52.1682C171.003 48.4867 171.344 44.8066 171.765 41.1263M170.71 52.1682C170.678 52.5778 170.646 52.9874 170.614 53.397M170.841 52.0979C171.196 51.9142 171.539 51.7864 171.863 51.7325M170.841 52.0979C170.804 52.4885 170.767 52.879 170.729 53.2694M170.841 52.0979C171.187 48.4442 171.494 44.7866 171.765 41.1263M171.863 51.7325C171.909 51.7247 171.955 51.7185 172.001 51.7138C172.042 51.7097 171.976 51.8129 171.839 51.9872M171.863 51.7325C172.048 49.7247 172.288 47.7263 172.6 45.745C172.961 43.4593 173.809 37.4814 174.49 37.3586M171.863 51.7325C171.855 51.8173 171.847 51.9023 171.839 51.9872M171.839 51.9872C171.613 52.2751 171.191 52.757 170.729 53.2694M171.839 51.9872C171.349 57.4286 171.25 62.9367 171.169 68.3585C171.166 68.5532 171.163 68.7483 171.16 68.9436M170.729 53.2694C170.691 53.3118 170.653 53.3543 170.614 53.397M170.729 53.2694C170.606 54.5419 170.477 55.8139 170.344 57.0854M170.614 53.397C169.804 54.2924 168.915 55.239 168.76 55.3851C168.731 55.4126 168.701 55.4402 168.672 55.4678M170.614 53.397C170.52 54.6263 170.43 55.8558 170.344 57.0854M168.672 55.4678C164.593 59.3138 160.672 63.3078 156.843 67.402C147.423 77.4742 138.279 87.7595 130.063 98.8479C126.198 104.063 118.875 111.416 116.561 118.262M168.672 55.4678C168.228 60.0526 167.802 64.6392 167.403 69.2285C167.359 69.7261 167.167 70.7768 166.974 72.0047M116.561 118.262C116.438 118.626 116.329 118.989 116.236 119.35M116.561 118.262C113.084 118.545 109.519 118.998 105.916 119.483M116.561 118.262C117.098 118.218 117.632 118.179 118.164 118.144C118.806 118.101 119.468 118.047 120.146 117.986M116.236 119.35C116.189 119.531 116.146 119.711 116.107 119.891M116.236 119.35C116.94 119.34 117.649 119.329 118.363 119.317M116.236 119.35C115.048 119.367 113.876 119.38 112.724 119.393C110.914 119.414 108.563 119.443 105.916 119.483M116.107 119.891C116.079 120.02 116.054 120.149 116.03 120.278C116.028 120.285 116.027 120.292 116.026 120.299M116.107 119.891C114.171 119.846 112.649 119.827 112.392 119.833C107.971 119.933 103.559 120.125 99.1532 120.393M116.107 119.891C116.542 119.901 116.997 119.913 117.463 119.925M116.026 120.299C115.98 120.618 116.29 120.578 116.827 120.298M116.026 120.299C109.575 120.314 103.148 120.387 96.7153 120.699M116.026 120.299C116.293 120.299 116.56 120.298 116.827 120.298M116.827 120.298C117.014 120.201 117.227 120.075 117.463 119.925M116.827 120.298C117.68 120.296 118.533 120.296 119.386 120.296C121.499 120.296 123.651 120.367 125.817 120.434M117.463 119.925C117.736 119.752 118.039 119.547 118.363 119.317M117.463 119.925C120.966 120.02 125.103 120.188 125.817 120.434M118.363 119.317C118.91 118.93 119.517 118.474 120.146 117.986M118.363 119.317C125.457 119.194 133.057 118.922 140.523 118.054M120.146 117.986C122.799 115.925 125.826 113.295 126.236 112.887C135.149 104.014 143.853 94.9467 152.822 86.1253C157.253 81.7681 161.834 76.2623 166.974 72.0047M120.146 117.986C124.474 117.592 129.443 116.893 134.026 117.03M166.974 72.0047C167.548 71.5289 168.13 71.0686 168.719 70.6273M166.974 72.0047C166.728 73.567 166.48 75.4161 166.535 76.7775M168.719 70.6273C168.983 70.4291 169.249 70.2348 169.517 70.0445M168.719 70.6273C168.503 72.149 168.271 73.6687 168.013 75.1859C168.011 75.1981 168.005 75.2265 167.997 75.2688M168.719 70.6273C169.121 67.7858 169.462 64.937 169.793 62.0829C169.985 60.418 170.169 58.7522 170.344 57.0854M169.517 70.0445C170.058 69.6598 170.605 69.292 171.16 68.9436M169.517 70.0445C169.784 65.7207 170.042 61.4017 170.344 57.0854M169.517 70.0445C169.436 71.3538 169.354 72.6635 169.27 73.9737M171.16 68.9436C171.348 68.8251 171.537 68.7089 171.727 68.595M171.16 68.9436C171.142 69.9754 171.118 71.014 171.094 72.0569M171.727 68.595C172.018 68.4207 172.311 68.2519 172.606 68.0889M171.727 68.595C171.513 69.7477 171.3 70.9012 171.094 72.0569M171.727 68.595C172.522 64.3252 173.333 60.0661 173.821 55.74C173.987 54.2644 174.254 52.5888 174.517 50.8288M172.606 68.0889C172.885 67.9342 173.167 67.7847 173.45 67.6408C173.672 67.5279 173.868 67.4361 174.039 67.3638M172.606 68.0889C172.276 69.312 171.908 70.5227 171.508 71.7254M172.606 68.0889C173.645 64.2377 174.31 60.263 174.429 56.0255C174.478 54.2942 174.504 52.5618 174.517 50.8288M174.039 67.3638C175.722 66.6512 175.005 67.8289 173.773 69.2773M174.039 67.3638C173.958 68.0015 173.868 68.6393 173.773 69.2773M173.773 69.2773C173.068 70.1058 172.195 71.0229 171.508 71.7254M173.773 69.2773C173.153 73.427 172.29 77.5835 172.012 81.7611M171.508 71.7254C171.359 71.8769 171.22 72.0184 171.092 72.1469M171.508 71.7254C171.367 72.149 171.222 72.5715 171.073 72.9933M171.092 72.1469C171.087 72.1526 171.081 72.1583 171.075 72.164M171.092 72.1469C171.093 72.1169 171.094 72.0869 171.094 72.0569M171.092 72.1469C171.086 72.4287 171.08 72.7109 171.073 72.9933M171.075 72.164C170.736 72.5053 170.486 72.7521 170.392 72.8459C170.017 73.2208 169.643 73.5967 169.27 73.9737M171.075 72.164C170.976 72.7248 170.873 73.2848 170.768 73.8441M171.075 72.164C171.076 72.1617 171.076 72.1595 171.076 72.1573C171.082 72.1238 171.088 72.0904 171.094 72.0569M169.27 73.9737C168.844 74.4041 168.42 74.8357 167.997 75.2688M169.27 73.9737C169.175 75.4442 169.077 76.9154 168.975 78.3873M167.997 75.2688C167.508 75.7699 167.02 76.2728 166.535 76.7775M167.997 75.2688C167.887 75.829 167.26 78.8183 166.963 78.4697C166.69 78.1493 166.565 77.5399 166.535 76.7775M166.535 76.7775C160.344 83.212 154.456 89.9312 148.788 96.8316C144.032 102.622 136.746 109.761 134.026 117.03M134.026 117.03C133.948 117.237 133.875 117.444 133.805 117.651C133.643 118.13 134.317 117.774 135.283 117.091M134.026 117.03C134.448 117.043 134.867 117.063 135.283 117.091M135.283 117.091C137.04 115.846 139.763 113.514 140.171 113.148C147.164 106.864 153.782 100.157 160.514 93.5989C161.57 92.5696 162.617 91.5052 163.661 90.4223M135.283 117.091C136.861 117.196 138.38 117.418 139.795 117.804C140.095 117.885 140.335 117.969 140.523 118.054M163.661 90.4223C165.203 88.8223 166.74 87.182 168.294 85.5547M163.661 90.4223C163.306 91.2987 162.961 92.1767 162.623 93.0561M163.661 90.4223C164.394 88.61 165.168 86.8043 166.008 85.0074C167.049 82.7808 168.049 80.5835 168.975 78.3873M168.294 85.5547C168.303 85.5457 168.312 85.5368 168.32 85.5279M168.294 85.5547C168.401 84.9562 168.551 84.0439 168.606 83.346C168.737 81.6921 168.859 80.0392 168.975 78.3873M168.294 85.5547C168.17 86.253 168.106 86.5239 168.32 85.5279M168.32 85.5279C169.24 84.5653 170.166 83.6074 171.104 82.6652M168.32 85.5279C168.368 85.3066 168.429 85.0228 168.507 84.6673C169.292 81.0636 170.086 77.4685 170.768 73.8441M171.104 82.6652C171.405 82.3621 171.708 82.0606 172.012 81.7611M171.104 82.6652C170.953 79.4511 171.003 76.2046 171.073 72.9933M171.104 82.6652C171.13 83.2272 171.162 83.7882 171.202 84.3478M172.012 81.7611C172.715 81.0685 173.426 80.3866 174.145 79.7199M172.012 81.7611C171.971 82.3788 171.943 82.997 171.93 83.6158M174.145 79.7199C175.755 78.2283 177.41 76.8131 179.133 75.5253C180.522 74.4881 176.079 79.3039 174.139 81.3598M174.145 79.7199C174.146 78.7934 174.152 77.9815 174.206 77.4055L174.23 77.1538C174.864 70.4306 175.5 63.6896 176.398 56.9961C176.719 54.6098 177.41 52.1419 177.989 49.6878M174.145 79.7199C174.144 80.2378 174.145 80.7915 174.139 81.3598M174.139 81.3598C173.766 81.7552 173.485 82.0485 173.356 82.1785C172.881 82.6578 172.406 83.1369 171.93 83.6158M174.139 81.3598C174.113 83.909 173.957 86.7517 172.973 87.9737C172.27 88.8465 171.922 84.5102 171.922 84.3641C171.922 84.1145 171.924 83.8651 171.93 83.6158M171.93 83.6158C171.687 83.8598 171.445 84.1038 171.202 84.3478M171.202 84.3478C168.33 87.2366 165.453 90.1244 162.623 93.0561M171.202 84.3478C171.331 86.1741 171.536 87.986 171.85 89.7711C171.941 90.2863 172.057 90.7918 172.191 91.2905M162.623 93.0561C159.732 96.0515 156.889 99.0926 154.151 102.227C151.106 105.713 148.184 109.307 145.291 112.918C144.276 114.185 142.169 116.132 141.284 117.963M162.623 93.0561C161.064 97.1105 159.651 101.193 158.111 105.283M141.284 117.963C141.196 118.145 141.12 118.327 141.058 118.506M141.284 117.963C142.185 117.853 143.083 117.734 143.978 117.606M141.284 117.963C141.031 117.994 140.777 118.024 140.523 118.054M141.058 118.506C141.02 118.618 140.987 118.73 140.96 118.841M141.058 118.506C141.017 118.353 140.85 118.202 140.523 118.054M141.058 118.506C141.089 118.617 141.051 118.729 140.96 118.841M140.96 118.841C140.932 118.956 140.911 119.07 140.897 119.184C140.826 119.769 142.34 118.806 143.978 117.606M140.96 118.841C140.463 119.445 138.371 120.021 136.92 120.359M143.978 117.606C145.735 116.318 147.636 114.758 147.88 114.542C151.328 111.494 154.737 108.407 158.111 105.283M143.978 117.606C146.113 117.299 148.229 116.937 150.311 116.51M158.111 105.283C161.079 102.535 164.019 99.7581 166.936 96.9535C168.522 95.4293 170.291 93.3261 172.191 91.2905M158.111 105.283C157.706 106.36 157.292 107.437 156.864 108.514C155.424 112.14 153.159 114.703 150.311 116.51M172.191 91.2905C174.371 88.9536 176.721 86.7057 179.158 85.525M172.191 91.2905C172.407 92.0966 172.669 92.8847 172.946 93.6664M179.158 85.525C179.442 85.3875 179.727 85.2645 180.013 85.1576C180.446 84.9953 179.796 85.9412 178.909 87.0721M179.158 85.525C179.077 86.0411 178.994 86.5568 178.909 87.0721M179.158 85.525C180.333 78.0794 181.182 70.5604 181.232 63.1385C181.265 58.2656 178.542 54.3182 177.989 49.6878M178.909 87.0721C177.834 88.4434 176.411 90.0868 176.15 90.3563C175.082 91.4607 174.013 92.5627 172.946 93.6664M178.909 87.0721C178.33 90.6107 177.684 94.13 177.024 97.6115M172.946 93.6664C168.987 97.7641 165.065 101.885 161.376 106.243C159.034 109.01 155.823 112.232 153.881 115.7M172.946 93.6664C173.594 95.4921 174.325 97.2826 174.741 99.1851C174.788 99.4005 174.827 99.6134 174.856 99.8239M153.881 115.7C153.333 116.677 152.887 117.674 152.589 118.685C151.766 121.477 156.814 117.308 157.355 116.862L157.362 116.856C158.74 115.718 160.101 114.557 161.446 113.376M153.881 115.7C156.484 115.051 159.016 114.284 161.446 113.376M153.881 115.7C152.704 115.993 151.513 116.262 150.311 116.51M161.446 113.376C164.71 110.51 167.88 107.526 170.962 104.479C171.481 103.965 173.207 101.709 174.856 99.8239M161.446 113.376C162.635 112.932 163.8 112.454 164.937 111.94C166.559 111.205 168.295 110.272 169.857 109.135M174.856 99.8239C175.642 98.9261 176.411 98.1125 177.024 97.6115M174.856 99.8239C175.014 100.94 174.933 101.988 174.664 102.968M177.024 97.6115C177.44 97.2715 177.784 97.0756 178.013 97.0952C178.383 97.1267 177.398 98.8389 176.52 100.246M177.024 97.6115C176.867 98.4377 176.709 99.2618 176.552 100.083C176.541 100.138 176.531 100.192 176.52 100.246M176.52 100.246C175.939 101.179 175.403 101.977 175.34 102.064C175.119 102.364 174.893 102.665 174.664 102.968M176.52 100.246C175.336 106.356 173.674 111.614 169.732 116.552C168.614 117.953 162.085 125.862 164.077 119.396C165.205 115.734 167.429 112.352 169.857 109.135M174.664 102.968C173.142 104.973 171.455 107.018 169.857 109.135M174.664 102.968C173.983 105.453 172.098 107.504 169.857 109.135M177.989 49.6878C177.897 48.9237 177.865 48.1411 177.914 47.3327C177.955 46.6663 178.928 43.5872 178.905 44.0667C178.816 45.9029 178.436 47.7913 177.989 49.6878ZM173.561 28.6498C173.31 28.284 172.998 27.9826 172.613 27.7691M168.975 78.3873C169.612 76.8754 170.213 75.3641 170.768 73.8441M170.768 73.8441C170.872 73.5608 170.973 73.2772 171.073 72.9933M174.517 50.8288C175.174 46.4431 175.811 41.5337 174.83 37.8903C174.724 37.4969 174.61 37.337 174.49 37.3586M174.517 50.8288C174.552 46.3392 174.495 41.8458 174.49 37.3586M150.311 116.51C147.523 118.278 144.178 119.321 140.503 119.929C139.322 120.124 138.126 120.263 136.92 120.359M105.916 119.483C102.476 119.535 98.5352 119.605 94.6283 119.695M105.916 119.483C103.673 119.785 101.414 120.1 99.1532 120.393M94.6283 119.695C92.9879 120.18 89.6764 120.611 88.1708 120.925C87.3179 121.103 86.4631 121.275 85.6067 121.44M83.1538 121.674C83.3987 121.674 83.6439 121.672 83.8894 121.669M83.1538 121.674C78.4247 122.137 73.7018 122.666 68.9835 123.244M83.1538 121.674C83.9712 121.594 84.7889 121.516 85.6067 121.44M83.8894 121.669C84.0763 121.667 84.2634 121.664 84.4506 121.661M83.8894 121.669C78.9645 122.161 73.9834 122.747 68.9835 123.244M83.8894 121.669C84.2492 121.633 84.6088 121.598 84.9681 121.563M84.4506 121.661C88.488 121.584 92.5998 121.196 96.7153 120.699M84.4506 121.661C84.6232 121.628 84.7956 121.596 84.9681 121.563M96.7153 120.699C97.5279 120.6 98.3408 120.498 99.1532 120.393M96.7153 120.699C93.9698 120.832 91.2232 121.008 88.4732 121.242C87.3085 121.342 86.14 121.449 84.9681 121.563M99.1532 120.393C94.6307 120.667 90.1158 121.022 85.6067 121.44M136.92 120.359C136.274 120.51 135.754 120.614 135.561 120.652C125.818 122.588 115.954 123.443 106.054 123.844M136.92 120.359C133.267 120.65 129.522 120.549 125.817 120.434M106.054 123.844C107.597 123.641 109.138 123.44 110.676 123.242C112.764 122.973 124.776 122.838 125.922 120.523C125.937 120.492 125.9 120.463 125.817 120.434M46.4962 126.245C42.5287 126.587 43.9646 126.532 46.4962 126.245ZM46.4962 126.245C47.1875 126.166 47.9605 126.071 48.7274 125.961C48.9948 125.922 49.2622 125.884 49.5296 125.846M85.6067 121.44C85.3939 121.482 85.181 121.523 84.9681 121.563M39.2689 126.02C37.8319 125.89 36.7062 125.609 37.3181 125.011C37.8235 124.518 38.4329 124.084 39.1186 123.701M112.864 19.8444C111.572 19.8632 110.28 19.8816 108.994 19.8994M112.864 19.8444C113.187 19.5397 113.513 19.2321 113.838 18.9246M112.864 19.8444C110.18 22.3714 107.64 24.6967 107.133 25.1089C104.525 27.2314 101.955 29.4126 99.4274 31.6468M108.994 19.8994C108.522 19.906 108.051 19.9124 107.581 19.9188M108.994 19.8994C109.212 19.6322 109.43 19.365 109.648 19.0976M108.994 19.8994C105.794 23.8209 102.594 27.7197 99.4274 31.6468M107.581 19.9188C102.055 25.9102 96.886 32.2247 91.8266 38.6411M107.581 19.9188C107.659 19.834 107.737 19.7491 107.816 19.6644C107.969 19.4987 108.125 19.3324 108.282 19.1671M108.906 18.5225C109.34 18.4834 109.774 18.4441 110.209 18.4047M108.906 18.5225C108.698 18.7334 108.489 18.9494 108.282 19.1671M108.906 18.5225C111.258 16.131 113.409 14.402 110.209 18.4047M110.209 18.4047C111.749 18.2649 113.289 18.1236 114.827 17.9829M110.209 18.4047C110.068 18.5801 109.918 18.7665 109.757 18.9644C109.72 19.0088 109.684 19.0532 109.648 19.0976M114.827 17.9829C114.501 18.2946 114.17 18.6096 113.838 18.9246M113.838 18.9246C112.434 18.9737 111.037 19.0304 109.648 19.0976M109.648 19.0976C109.255 19.1165 108.863 19.1364 108.472 19.1571L108.282 19.1671M99.4274 31.6468C96.8498 33.925 94.3154 36.2583 91.8266 38.6411M99.4274 31.6468C95.9829 35.9192 92.5796 40.2252 89.2636 44.6306C78.2897 59.21 67.8172 74.1603 56.7013 88.6347C54.7383 91.1907 52.6104 93.743 50.5114 96.3447M91.8266 38.6411C85.121 45.0611 78.7464 51.8395 72.7501 58.8622C65.2315 67.6679 56.9438 76.3868 50.5559 86.0764C49.1229 88.2501 49.3971 88.8617 51.4432 86.984C56.4839 82.3581 60.7927 76.7506 65.3245 71.6443C74.6841 61.0983 83.0925 49.7179 91.8266 38.6411ZM50.5114 96.3447C52.2029 94.6761 53.8929 93.0129 55.5919 91.3736C67.9954 79.4058 79.3308 66.3162 91.1086 53.7436C94.3851 50.246 97.7456 46.8087 101.103 43.3655M50.5114 96.3447C45.3474 101.439 40.1695 106.584 34.679 111.261C31.2368 114.193 38.0277 107.103 38.7691 106.396M101.103 43.3655C103.4 40.5116 105.719 37.6736 108.084 34.8687C110.729 31.7322 113.495 28.6381 116.57 25.9102C118.884 23.8579 117.763 25.4618 116.505 26.9148C111.599 32.5817 106.355 37.9808 101.103 43.3655Z" stroke="#0202CA" stroke-opacity="0.4" stroke-linecap="round" stroke-linejoin="round"/>
</svg>
