<svg width="217" height="217" viewBox="0 0 217 217" fill="none" xmlns="http://www.w3.org/2000/svg">
<path d="M52.0636 94.4093C53.527 94.2339 54.3893 93.7497 54.55 93.3949M54.55 93.3949C54.7317 92.9941 54.0177 92.7586 52.2632 93.3206C46.382 95.2043 40.5096 98.3278 35.7644 102.135M54.55 93.3949C50.312 94.5451 46.704 96.4958 43.5177 98.8773M54.55 93.3949C55.5772 93.1162 56.6414 92.8844 57.7455 92.705M35.7644 102.135C33.1138 104.262 30.8149 106.602 29.0626 109.058M35.7644 102.135C38.155 101.027 40.5261 100.073 42.5291 99.2671L42.6275 99.2275C42.9214 99.1092 43.2182 98.9924 43.5177 98.8773M35.7644 102.135C29.5154 105.031 23.1323 108.978 22.8369 114.076C22.7115 116.241 23.5292 116.225 24.6263 115.352M29.0626 109.058C28.0932 110.417 27.2911 111.812 26.6892 113.226M29.0626 109.058C32.214 105.994 36.3362 103.343 39.7373 101.712C39.9941 101.589 40.2511 101.468 40.5082 101.349M29.0626 109.058C27.0263 111.038 25.3954 113.191 24.6263 115.352M26.6892 113.226C26.5132 113.64 26.3542 114.055 26.2132 114.471C26.1569 114.638 25.3727 116.914 25.4112 118.093M26.6892 113.226C25.994 114.05 25.2631 114.845 24.6263 115.352M26.6892 113.226C27.7867 111.925 28.7952 110.551 29.2039 110.125C31.918 107.296 35.2037 104.854 38.8912 102.786M25.4112 118.093C25.429 118.638 25.6225 118.949 26.1447 118.709C26.7814 118.416 27.1438 117.604 27.4129 116.725M25.4112 118.093C24.6853 118.494 24.1611 118.611 24.1486 118.126C24.1249 117.209 24.2962 116.279 24.6263 115.352M25.4112 118.093C26.0007 117.768 26.7233 117.255 27.4129 116.725M27.4129 116.725C27.7109 115.751 27.8944 114.694 28.2088 114.167C30.5072 110.312 34.0421 106.6 38.3579 103.255M27.4129 116.725C28.6388 115.783 29.7608 114.787 29.847 114.692C31.2575 113.147 32.5187 111.557 33.7921 109.984M38.3579 103.255C38.6363 103.039 38.918 102.825 39.2029 102.612M38.3579 103.255C34.4128 106.73 29.1387 111.475 28.4562 115.416C28.4491 115.456 30.4679 113.407 30.8516 112.99C31.7957 111.965 32.7773 110.965 33.7921 109.984M38.3579 103.255C38.5386 103.096 38.7166 102.939 38.8912 102.786M39.2029 102.612C40.0494 101.98 40.9236 101.362 41.8221 100.759M39.2029 102.612C39.0987 102.67 38.9948 102.728 38.8912 102.786M39.2029 102.612C41.5993 101.29 44.1613 100.123 46.8432 99.1078M41.8221 100.759C43.4165 99.6903 45.0877 98.6702 46.8178 97.708M41.8221 100.759C44.4115 99.6332 47.0113 98.7146 49.6249 97.9906M41.8221 100.759C41.3839 100.95 40.9459 101.147 40.5082 101.349M46.8178 97.708C50.273 95.7863 53.9633 94.0953 57.7455 92.705M46.8178 97.708C49.2774 96.9061 51.8729 96.2071 54.5445 95.6273M46.8178 97.708C45.6871 98.0766 44.5851 98.4669 43.5177 98.8773M57.7455 92.705C62.8181 90.8404 68.0563 89.5167 73.1151 88.9027C80.9663 87.9498 91.3821 87.4716 93.9018 93.3062M57.7455 92.705C57.8899 92.6816 58.035 92.659 58.1808 92.6373C61.4545 92.1508 62.622 92.41 62.2853 93.1293M93.9018 93.3062C93.9295 93.3704 93.9563 93.4355 93.9821 93.5012M93.9018 93.3062C91.9047 93.8417 89.9579 94.4951 88.0413 95.1814M93.9018 93.3062C94.2066 93.2245 94.5125 93.1455 94.8197 93.0696C95.0497 93.0127 94.6498 93.205 93.9821 93.5012M93.9821 93.5012C94.2914 94.2893 94.4612 95.1882 94.4677 96.2116C94.4723 96.9398 94.5913 97.6893 94.6601 98.2599M93.9821 93.5012C92.6778 94.08 90.352 95.0553 89.7065 95.3441C89.501 95.4361 89.2827 95.5312 89.0528 95.6292M94.6601 98.2599C94.67 98.3423 94.6789 98.421 94.6863 98.4953M94.6601 98.2599C94.7609 98.3047 94.8611 98.3498 94.9606 98.3953M94.6601 98.2599C93.725 97.8444 92.7344 97.456 91.7181 97.0962M94.6863 98.4953C94.757 99.2103 94.6852 99.5245 94.0301 98.9015C93.9881 98.8616 93.9458 98.8219 93.9032 98.7824M94.6863 98.4953C94.4251 98.5907 94.164 98.6864 93.9032 98.7824M94.6863 98.4953C94.7777 98.4619 94.8691 98.4286 94.9606 98.3953M93.9032 98.7824C93.2502 98.177 92.5175 97.6152 91.7181 97.0962M93.9032 98.7824C93.4715 98.9411 93.0403 99.1004 92.6093 99.2601M91.7181 97.0962C90.8957 96.5622 90.0025 96.0735 89.0528 95.6292M91.7181 97.0962C91.205 96.9145 90.6853 96.7401 90.1629 96.5732M89.0528 95.6292C88.7223 95.4746 88.3849 95.3253 88.0413 95.1814M89.0528 95.6292C88.9733 95.6631 88.8925 95.6974 88.8104 95.732M88.0413 95.1814C86.1544 94.3913 84.0787 93.7623 81.9123 93.2885M88.0413 95.1814C87.9588 95.211 87.8763 95.2406 87.7939 95.2702M81.9123 93.2885C81.3136 93.1575 80.708 93.0384 80.0976 92.9311M81.9123 93.2885C83.1772 92.7813 85.5017 91.8646 85.5017 91.8646C83.711 92.058 81.904 92.4304 80.0976 92.9311M81.9123 93.2885C81.6531 93.3924 81.4385 93.4791 81.2974 93.5373C80.9927 93.6629 80.6887 93.7897 80.3855 93.9175M80.0976 92.9311C78.3189 92.6183 76.499 92.405 74.6892 92.2882M80.0976 92.9311C79.1134 93.2039 78.1294 93.5148 77.1483 93.8556M74.6892 92.2882C73.8277 92.2326 72.9684 92.1989 72.117 92.1867M74.6892 92.2882C78.4198 90.5758 81.4882 89.1161 73.933 91.577C73.3239 91.7754 72.7187 91.9788 72.117 92.1867M74.6892 92.2882C73.6429 92.7685 72.5445 93.2686 71.6138 93.7077M72.117 92.1867C68.6035 92.1363 65.2227 92.4523 62.3626 93.1114C62.3368 93.1173 62.311 93.1233 62.2853 93.1293M72.117 92.1867C70.6058 92.7088 69.117 93.2595 67.6451 93.8321M62.2853 93.1293C59.5584 93.7624 56.9832 94.6106 54.5445 95.6273M62.2853 93.1293C62.1164 93.49 61.5693 93.9664 60.7197 94.5224M54.5445 95.6273C52.8397 96.338 51.2015 97.1311 49.6249 97.9906M54.5445 95.6273C56.568 95.1882 58.6351 94.8175 60.7197 94.5224M49.6249 97.9906C49.5786 98.0158 49.5325 98.0411 49.4864 98.0664M49.6249 97.9906C49.8032 97.9412 49.9816 97.8928 50.16 97.8452M49.4864 98.0664C49.3298 98.1523 49.1738 98.2389 49.0185 98.3261M49.4864 98.0664C48.5987 98.3692 47.7175 98.715 46.8432 99.1078M49.4864 98.0664C49.7105 97.9899 49.9351 97.9162 50.16 97.8452M49.0185 98.3261C45.3613 100.38 42.0379 102.786 38.9813 105.342C38.7445 105.54 38.5088 105.739 38.2744 105.938M49.0185 98.3261C48.2854 98.5759 47.56 98.8364 46.8432 99.1078M49.0185 98.3261C49.9706 98.0018 50.9356 97.6956 51.9117 97.4073M38.2744 105.938C37.9109 106.247 37.5502 106.557 37.1927 106.869M38.2744 105.938C44.7981 102.94 51.1708 99.7656 57.3758 96.419M38.2744 105.938C38.192 105.976 38.1095 106.014 38.027 106.052C37.4328 106.324 36.933 106.557 36.5185 106.753M37.1927 106.869C36.0241 107.889 34.8887 108.925 33.7921 109.984M37.1927 106.869C36.7658 107.03 36.3744 107.174 36.0384 107.294M37.1927 106.869C39.4909 106.005 42.8178 104.668 44.0543 104.144C50.0593 101.601 55.854 98.8039 61.8194 96.2309M33.7921 109.984C34.5265 109.078 35.2649 108.177 36.0384 107.294M38.8912 102.786C39.4174 102.323 39.9131 101.886 40.3627 101.48C40.4111 101.436 40.4596 101.393 40.5082 101.349M40.5082 101.349C41.4708 100.488 42.4716 99.6592 43.5177 98.8773M60.7197 94.5224C60.2605 94.823 59.713 95.1468 59.089 95.4882C58.9385 95.5706 58.7878 95.6529 58.6371 95.7351M60.7197 94.5224C63.0185 94.1971 65.3386 93.9638 67.6451 93.8321M58.6371 95.7351C58.2269 95.9587 57.8159 96.1815 57.4042 96.4036M58.6371 95.7351C56.7545 96.1208 54.895 96.5671 53.0708 97.0749M58.6371 95.7351C60.9926 95.2524 63.3843 94.8644 65.7884 94.5691M57.4042 96.4036C57.3947 96.4087 57.3852 96.4139 57.3758 96.419M57.4042 96.4036C59.0883 96.1791 60.7794 96.0283 62.4783 95.9479M57.4042 96.4036C57.2961 96.418 57.1881 96.4328 57.0801 96.4478M57.3758 96.419C57.2771 96.4282 57.1786 96.4378 57.0801 96.4478M57.3758 96.419C58.8444 96.2815 60.3261 96.2241 61.8194 96.2309M36.5185 106.753C34.1583 107.872 34.5631 107.82 36.0384 107.294M36.5185 106.753C36.3568 106.933 36.1969 107.113 36.0384 107.294M36.5185 106.753C38.1984 104.89 40.0658 103.119 42.4196 101.554C43.8726 100.588 45.3479 99.7794 46.8432 99.1078M61.8194 96.2309C62.0388 96.1363 62.2584 96.0419 62.4783 95.9479M61.8194 96.2309C63.1565 96.237 64.5029 96.2945 65.8571 96.3921M62.4783 95.9479C63.5747 95.4792 64.6773 95.0186 65.7884 94.5691M62.4783 95.9479C63.9666 95.8775 65.4609 95.8612 66.9618 95.8966M65.7884 94.5691C66.4046 94.3199 67.0233 94.0741 67.6451 93.8321M65.7884 94.5691C67.4634 94.3634 69.1443 94.2026 70.8232 94.0862M67.6451 93.8321C68.9748 93.7562 70.2999 93.7141 71.6138 93.7077M71.6138 93.7077C71.333 93.8401 71.0674 93.9671 70.8232 94.0862M71.6138 93.7077C73.2834 93.6995 74.935 93.7488 76.5546 93.8595M70.8232 94.0862C70.7983 94.0983 70.7737 94.1104 70.7493 94.1223C69.5288 94.7204 68.2605 95.3098 66.9618 95.8966M70.8232 94.0862C72.7404 93.9532 74.6549 93.878 76.5546 93.8595M66.9618 95.8966C66.5959 96.0619 66.2275 96.2271 65.8571 96.3921M66.9618 95.8966C68.44 95.9315 69.9246 96.0167 71.4161 96.1499M65.8571 96.3921C58.2404 99.7858 49.7621 103.145 43.7697 107.621C39.9232 110.494 53.8692 104.431 58.531 102.315C62.0309 100.727 65.9201 98.674 69.9853 96.7986M65.8571 96.3921C67.2255 96.4907 68.602 96.6301 69.9853 96.7986M69.9853 96.7986C70.46 96.5796 70.937 96.363 71.4161 96.1499M69.9853 96.7986C70.9953 96.9216 72.009 97.0601 73.0257 97.2094M71.4161 96.1499C73.2656 95.3272 75.1457 94.5558 77.037 93.8944M71.4161 96.1499C72.4622 96.2434 73.5116 96.3605 74.5647 96.5005M77.037 93.8944C77.0741 93.8814 77.1112 93.8685 77.1483 93.8556M77.037 93.8944C77.6514 93.9412 78.2609 93.997 78.8649 94.0619C79.1472 94.0923 79.453 94.1299 79.7796 94.1747M77.037 93.8944C76.8765 93.8821 76.7157 93.8705 76.5546 93.8595M77.1483 93.8556C76.9506 93.8563 76.7527 93.8576 76.5546 93.8595M77.1483 93.8556C77.2166 93.8553 77.2848 93.8552 77.353 93.8551C78.3306 93.8537 79.3522 93.8676 80.3855 93.9175M80.3855 93.9175C80.1832 94.0028 79.9812 94.0885 79.7796 94.1747M80.3855 93.9175C82.9488 94.0413 85.5836 94.3865 87.7939 95.2702M79.7796 94.1747C78.0239 94.925 76.2906 95.7082 74.5647 96.5005M79.7796 94.1747C81.6396 94.43 84.1709 94.9179 86.845 95.6147M74.5647 96.5005C74.0512 96.7362 73.5383 96.9727 73.0257 97.2094M74.5647 96.5005C76.8224 96.8006 79.0968 97.2061 81.3896 97.7096M73.0257 97.2094C71.4219 97.9501 69.8206 98.6925 68.2098 99.4174C66.7953 100.054 51.5513 107.218 57.4095 106.108C65.1985 104.63 72.6459 101.3 79.8866 98.323M73.0257 97.2094C75.299 97.5434 77.5878 97.9317 79.8866 98.323M79.8866 98.323C80.3886 98.1166 80.8896 97.9119 81.3896 97.7096M79.8866 98.323C80.5006 98.4275 81.1153 98.5322 81.7305 98.6361M81.3896 97.7096C82.8058 97.1368 84.2143 96.5834 85.6163 96.0663C86.0248 95.9156 86.4343 95.7648 86.845 95.6147M81.3896 97.7096C81.9347 97.8293 82.4809 97.9546 83.0281 98.0852M86.845 95.6147C87.1605 95.4993 87.4768 95.3844 87.7939 95.2702M86.845 95.6147C87.2949 95.7319 87.749 95.8551 88.2045 95.984M87.7939 95.2702C88.1441 95.4102 88.4835 95.5637 88.8104 95.732M88.8104 95.732C88.6155 95.814 88.4133 95.8981 88.2045 95.984M88.8104 95.732C89.2905 95.9792 89.7434 96.2582 90.1629 96.5732M88.2045 95.984C86.7219 96.5944 84.9053 97.3016 83.0281 98.0852M88.2045 95.984C88.8566 96.1686 89.5119 96.3651 90.1629 96.5732M83.0281 98.0852C82.5977 98.2649 82.164 98.4487 81.7305 98.6361M83.0281 98.0852C84.7143 98.4879 86.4106 98.9422 88.1179 99.4453C88.256 99.486 88.5261 99.585 88.8855 99.7227M81.7305 98.6361C77.581 100.431 73.4419 102.571 72.2044 104.84C71.7115 105.744 84.4185 102.236 85.3446 101.912C86.9375 101.355 88.516 100.777 90.0911 100.194M81.7305 98.6361C83.7305 98.974 85.7368 99.3038 87.7458 99.5917C88.1089 99.6438 88.4926 99.6847 88.8855 99.7227M90.0911 100.194C90.3379 100.103 90.5845 100.011 90.8312 99.9196M90.0911 100.194C91.0915 100.589 92.2997 101.07 93.3524 101.47M90.0911 100.194C89.6344 100.014 89.221 99.8512 88.8855 99.7227M90.8312 99.9196C91.4239 99.6998 92.0164 99.4797 92.6093 99.2601M90.8312 99.9196C90.1918 99.8385 89.5265 99.7846 88.8855 99.7227M90.8312 99.9196C92.1701 100.089 93.3955 100.379 94.0468 101.11M92.6093 99.2601C92.0271 98.492 91.4703 97.7095 90.7312 97.0412C90.5496 96.877 90.3599 96.7211 90.1629 96.5732M92.6093 99.2601C93.0825 99.8842 93.5724 100.499 94.1907 101.035M94.9606 98.3953C95.4844 98.2044 96.0092 98.0149 96.5353 97.8273C96.8192 97.726 101.901 95.97 101.957 96.2116C102.066 96.6756 99.7361 98.0649 97.1059 99.4913M94.9606 98.3953C95.721 98.7425 96.4417 99.1081 97.1059 99.4913M97.1059 99.4913C96.1393 100.015 95.1322 100.545 94.1907 101.035M97.1059 99.4913C98.7441 100.436 100.039 101.489 100.742 102.637M94.1907 101.035C94.1425 101.06 94.0945 101.085 94.0468 101.11M94.1907 101.035C94.4748 101.281 94.786 101.511 95.1351 101.717C96.4825 102.513 95.8183 102.367 94.4617 101.882M94.0468 101.11C93.8102 101.233 93.5781 101.353 93.3524 101.47M94.0468 101.11C94.2391 101.326 94.3814 101.58 94.4617 101.882M93.3524 101.47C91.8161 102.266 90.5703 102.907 90.1577 103.166C80.2286 109.404 95.1173 104.464 100.742 102.637M93.3524 101.47C93.751 101.622 94.1274 101.762 94.4617 101.882M100.742 102.637C101.348 102.44 101.846 102.28 102.194 102.173C108.07 100.374 102.918 104.838 100.37 107.857M100.742 102.637C101.063 103.162 101.26 103.707 101.31 104.271C101.371 104.957 100.908 106.457 100.37 107.857M100.37 107.857C99.7817 108.553 99.3323 109.173 99.1887 109.621C98.3138 112.35 99.4512 110.248 100.37 107.857ZM51.9117 97.4073C52.2964 97.2938 52.6828 97.1829 53.0708 97.0749M51.9117 97.4073C53.6279 97.0069 55.3503 96.6883 57.0801 96.4478M51.9117 97.4073C51.3271 97.5437 50.7432 97.6896 50.16 97.8452M53.0708 97.0749C52.0935 97.2859 51.1231 97.541 50.16 97.8452M53.0708 97.0749C54.3951 96.789 55.732 96.5841 57.0801 96.4478M94.4617 101.882C94.486 101.973 94.5047 102.069 94.5173 102.169C94.6038 102.856 94.7699 103.138 95.6689 102.525" stroke="#271B0D" stroke-opacity="0.49" stroke-linecap="round" stroke-linejoin="round"/>
<path d="M1.51682 214.229C3.57353 214.229 1.14447 209.981 1.0786 209.289C0.616485 204.433 2.24712 199.829 4.52349 195.359M4.52349 195.359C5.36452 193.707 6.29371 192.073 7.23806 190.452C7.33341 190.288 7.43035 190.125 7.52884 189.962M4.52349 195.359C3.29465 199.055 2.63739 202.857 2.63739 206.722V208.726C2.63739 205.192 2.71568 203.179 4.12781 199.703C5.45155 196.445 6.38399 193.174 7.52884 189.962M4.52349 195.359C5.64887 191.973 7.25365 188.676 9.272 185.5M7.52884 189.962C7.75303 189.59 7.98525 189.22 8.22496 188.852M7.52884 189.962C7.98698 188.676 8.47915 187.401 9.04402 186.139M8.22496 188.852C9.19956 187.355 10.2979 185.883 11.4837 184.438M8.22496 188.852C8.45664 187.946 8.73139 187.041 9.04402 186.139M8.22496 188.852C7.88678 190.175 7.64033 191.499 7.50172 192.82C7.45197 193.295 7.39453 193.839 7.3308 194.438M11.4837 184.438C12.0418 183.759 12.6192 183.085 13.2123 182.418M11.4837 184.438C9.75172 187.496 8.37549 190.912 7.3308 194.438M11.4837 184.438C11.9792 183.563 12.5039 182.718 13.0582 181.907C13.8646 180.728 13.7554 181.165 13.2123 182.418M13.2123 182.418C16.0201 179.259 19.1774 176.243 22.2833 173.398C24.4818 171.384 26.8859 168.595 29.7354 166.312M13.2123 182.418C12.1189 184.941 9.26709 190.772 8.58811 193.384C8.40796 194.077 7.47935 197.044 6.70571 200.169M29.7354 166.312C30.0889 166.029 30.4493 165.754 30.817 165.488M29.7354 166.312C22.9049 170.536 17.2949 174.821 12.341 181.162C11.333 182.452 10.3933 183.767 9.52674 185.103M29.7354 166.312C30.1773 166.039 30.6243 165.766 31.0766 165.493M30.817 165.488C32.1277 164.543 33.5314 163.727 35.0487 163.152M30.817 165.488C30.9031 165.49 30.9897 165.491 31.0766 165.493M30.817 165.488C29.696 165.469 28.6429 165.447 27.6497 165.462M35.0487 163.152C36.1392 162.739 37.2884 162.449 38.5041 162.325C45.8296 161.579 52.8286 157.912 60.0512 157.87C64.2835 157.846 68.1851 158.622 72.3732 158.949C73.4781 159.035 74.7556 159.036 76.0747 159.051M35.0487 163.152C33.6802 163.943 32.3573 164.719 31.0766 165.493M35.0487 163.152C35.8521 162.688 36.6712 162.219 37.5068 161.742C45.918 156.943 54.6063 157.856 64.3008 156.568M76.0747 159.051C78.6739 159.08 81.4344 159.162 83.3536 160.052C85.0238 160.827 86.4207 161.925 87.7326 163.123M76.0747 159.051C78.3098 159.695 80.4944 160.432 82.6115 161.258C84.368 161.945 86.0738 162.549 87.7326 163.123M76.0747 159.051C72.4583 158.008 68.7099 157.207 64.9021 156.652C64.7015 156.622 64.5011 156.595 64.3008 156.568M87.7326 163.123C89.7912 165.004 91.6403 167.129 94.007 168.632C94.0086 168.634 94.0102 168.635 94.0119 168.636M87.7326 163.123C93.6523 165.175 98.972 166.853 103.856 170.56M94.0119 168.636C95.3701 169.498 96.7982 170.27 98.2326 171.02M94.0119 168.636C95.6351 168.209 97.082 168.707 98.0944 170.736C98.1415 170.83 98.1876 170.925 98.2326 171.02M94.0119 168.636C93.8045 168.69 93.5943 168.76 93.3818 168.843M98.2326 171.02C98.2994 171.055 98.3662 171.09 98.4329 171.125M98.2326 171.02C98.2776 171.115 98.3216 171.211 98.3646 171.307M98.4329 171.125C98.7017 171.265 98.9705 171.405 99.2391 171.544M98.4329 171.125C98.4095 171.184 98.3867 171.245 98.3646 171.307M98.4329 171.125C98.5639 170.798 98.7192 170.556 98.9378 170.736C99.1412 170.903 99.2311 171.186 99.2391 171.544M99.2391 171.544C102.785 173.385 106.279 175.198 108.762 178.038C109.718 179.131 110.562 180.269 111.371 181.421M99.2391 171.544C99.2416 171.655 99.2362 171.774 99.2239 171.899M111.371 181.421C111.809 182.046 112.237 182.674 112.667 183.302M111.371 181.421C111.873 181.96 112.358 182.507 112.83 183.059M111.371 181.421C111.174 181.209 110.974 180.999 110.772 180.79C107.311 177.208 103.549 174.398 99.2239 171.899M112.667 183.302C113.405 184.378 114.147 185.452 114.958 186.5M112.667 183.302C112.723 183.218 112.777 183.137 112.83 183.059M112.667 183.302C112.645 183.336 112.622 183.371 112.599 183.406C108.285 190.069 105.895 197.32 102.535 204.288M114.958 186.5C114.963 186.507 114.968 186.513 114.974 186.52M114.958 186.5C114.951 186.659 114.946 186.808 114.943 186.944C114.942 186.998 114.941 187.052 114.94 187.105M114.958 186.5C114.958 186.496 114.958 186.492 114.958 186.487M114.974 186.52C115.045 186.613 115.118 186.705 115.191 186.798M114.974 186.52C114.968 186.509 114.963 186.498 114.958 186.487M114.974 186.52C115.027 186.634 115.08 186.749 115.134 186.865M115.191 186.798C115.616 187.336 116.061 187.867 116.535 188.387M115.191 186.798C115.172 186.82 115.153 186.842 115.134 186.865M115.191 186.798C115.311 186.657 115.427 186.532 115.538 186.427M116.535 188.387C116.681 188.547 116.83 188.707 116.982 188.866C117.685 189.599 118.359 190.304 118.984 191.012M116.535 188.387C116.559 188.183 116.578 187.994 116.592 187.819M116.535 188.387C116.533 188.403 116.531 188.419 116.529 188.436C116.482 188.819 116.431 189.203 116.377 189.586M118.984 191.012C119.648 191.766 120.255 192.523 120.78 193.322M118.984 191.012C119.571 191.787 120.167 192.559 120.78 193.322M118.984 191.012C118.179 189.951 117.39 188.883 116.592 187.819M120.78 193.322C121.383 194.241 121.877 195.216 122.223 196.303C122.489 197.139 122.783 197.896 123.048 198.501M120.78 193.322C121.029 193.633 121.282 193.943 121.538 194.251M123.048 198.501C123.752 200.103 124.254 200.627 123.496 198.681M123.048 198.501C122.917 198.434 122.774 198.352 122.617 198.252C119.772 196.429 117.956 192.992 116.377 189.586M123.048 198.501C123.218 198.586 123.366 198.645 123.496 198.681M123.496 198.681C123.356 198.32 123.172 197.875 122.938 197.336C122.5 196.323 122.033 195.293 121.538 194.251M123.496 198.681C124.706 199.013 124.267 197.32 123.528 196.524C122.836 195.779 122.176 195.02 121.538 194.251M121.538 194.251C119.753 190.495 117.6 186.598 115.065 182.883M115.065 182.883C114.766 182.445 114.461 182.009 114.151 181.576M115.065 182.883C115.117 183.72 115.052 184.797 114.999 185.729M115.065 182.883C115.003 181.878 114.772 181.219 114.151 181.576M114.151 181.576C111.568 177.968 108.612 174.573 105.269 171.702C104.802 171.3 104.331 170.92 103.856 170.56M114.151 181.576C113.859 181.744 113.481 182.136 112.994 182.823M103.856 170.56C99.9448 166.111 95.2733 162.108 89.103 159.477C85.5742 157.973 81.9275 156.559 78.3556 155.109C75.3094 153.872 70.3907 155.522 67.4277 156.073C66.3734 156.269 65.3314 156.431 64.3008 156.568M103.856 170.56C107.265 174.438 110.096 178.654 112.839 182.595C112.891 182.669 112.943 182.745 112.994 182.823M64.3008 156.568C50.6664 154.751 37.8654 158.807 27.6497 165.462M27.6497 165.462C26.7078 166.075 25.7879 166.711 24.8913 167.366C20.1762 170.812 16.3337 175.33 12.9947 179.535C11.5581 181.344 10.4469 183.206 9.52674 185.103M27.6497 165.462C23.8578 165.519 20.939 166.116 18.4486 169.483C14.8017 174.415 11.3271 179.895 9.272 185.5M9.52674 185.103C9.35981 185.447 9.19917 185.793 9.04402 186.139M9.52674 185.103C9.44111 185.235 9.35619 185.367 9.272 185.5M9.04402 186.139C9.11792 185.926 9.19393 185.713 9.272 185.5M31.0766 165.493C31.6926 165.503 32.3288 165.511 32.9867 165.511C33.2531 165.511 33.5148 165.519 33.7724 165.534M112.994 182.823C113.302 183.286 113.599 183.792 113.889 184.33M112.994 182.823C112.941 182.898 112.886 182.977 112.83 183.059M113.889 184.33C114.252 185.006 114.605 185.732 114.958 186.487M113.889 184.33C114.265 184.794 114.634 185.26 114.999 185.729M113.889 184.33C113.542 183.904 113.19 183.48 112.83 183.059M114.958 186.487C114.969 186.253 114.983 185.997 114.999 185.729M115.134 186.865C115.541 187.748 115.95 188.666 116.377 189.586M115.134 186.865C115.07 186.941 115.006 187.021 114.94 187.105M116.377 189.586C115.923 192.781 115.217 195.963 114.539 199.149M116.592 187.819C116.243 187.354 115.892 186.89 115.538 186.427M116.592 187.819C116.742 185.894 116.263 185.738 115.538 186.427M115.538 186.427C115.359 186.194 115.179 185.961 114.999 185.729M99.2239 171.899C98.9597 171.746 98.6935 171.594 98.425 171.444M99.2239 171.899C99.1917 172.223 99.1125 172.589 99.0028 172.976M98.425 171.444C98.3949 171.427 98.3646 171.41 98.3344 171.393M98.425 171.444C98.6432 171.944 98.8348 172.455 99.0028 172.976M98.425 171.444C98.4051 171.398 98.385 171.353 98.3646 171.307M98.3344 171.393C96.7617 170.515 95.1149 169.672 93.3818 168.843M98.3344 171.393C98.2627 171.6 98.196 171.805 98.1261 171.939C97.181 173.747 96.4641 175.615 95.7226 177.473L95.7074 177.511C93.5484 182.92 91.3873 188.335 88.7618 193.633C87.3889 196.403 85.8573 200.205 82.6359 202.177C74.5196 207.147 83.7414 183.392 87.972 172.987M98.3344 171.393C98.3444 171.364 98.3544 171.336 98.3646 171.307M93.3818 168.843C92.9251 168.625 92.4624 168.407 91.9935 168.191C86.7754 165.779 80.8544 161.013 74.7431 160.139C70.5484 159.539 66.5368 160.221 62.5353 161.037C60.2002 161.513 57.7981 161.705 55.4218 161.982M93.3818 168.843C91.6369 169.527 89.7343 171.142 87.972 172.987M55.4218 161.982C55.1434 162.014 54.8654 162.048 54.5879 162.083M55.4218 161.982C57.2699 158.768 58.0299 157.315 56.1121 159.927C55.5906 160.638 55.0829 161.357 54.5879 162.083M55.4218 161.982C52.4098 167.22 46.5077 177.138 44.5964 181.77C44.1735 182.794 42.2244 187.693 40.7356 192.776M54.5879 162.083C53.6205 162.206 52.6593 162.351 51.7104 162.542C49.0205 163.083 46.6107 164.064 44.1216 164.933M54.5879 162.083C48.3248 171.273 44.0828 181.659 39.1767 191.199C36.9212 195.585 35.0381 200.477 31.4169 204.394C31.3225 204.496 30.7833 205.038 30.1487 205.547M44.1216 164.933C44.0501 164.958 43.9785 164.983 43.9068 165.008M44.1216 164.933C44.0699 165.069 44.018 165.205 43.9658 165.341M44.1216 164.933C44.2093 164.702 44.2964 164.471 44.3828 164.241C44.9226 162.8 44.5125 163.146 43.6389 164.423M43.9068 165.008C43.6273 165.104 43.3467 165.199 43.0644 165.292M43.9068 165.008C43.9328 165.113 43.9523 165.225 43.9658 165.341M43.9068 165.008C43.8508 164.781 43.7641 164.582 43.6389 164.423M43.0644 165.292C42.5323 165.466 41.9943 165.632 41.4471 165.785C40.6386 166.01 39.8686 166.091 39.114 166.091M43.0644 165.292C43.2718 164.97 43.4646 164.678 43.6389 164.423M43.0644 165.292C41.0854 168.367 37.7776 174.201 36.4998 176.887C33.7249 182.72 31.5058 188.678 29.7904 194.729C29.7113 195.008 29.6149 195.314 29.5066 195.641M39.114 166.091C38.8536 166.091 38.5951 166.081 38.3375 166.064M39.114 166.091C38.9733 166.297 38.8205 166.517 38.6555 166.751C34.5153 172.625 30.209 178.452 25.8781 184.27M39.114 166.091C39.3489 165.747 39.55 165.441 39.7172 165.175M38.3375 166.064C38.0602 166.046 37.784 166.019 37.5075 165.987M38.3375 166.064C38.7852 165.744 39.2449 165.446 39.7172 165.175M38.3375 166.064C34.6522 168.695 31.7804 172.808 29.4029 176.043M37.5075 165.987C36.4169 165.861 35.3232 165.654 34.1531 165.56M37.5075 165.987C40.2693 163.382 41.0189 163.1 39.7172 165.175M37.5075 165.987C37.4682 166.024 37.4285 166.061 37.3884 166.099C35.0916 168.276 32.9247 170.518 30.8327 172.798M34.1531 165.56C34.0271 165.55 33.9003 165.541 33.7724 165.534M34.1531 165.56C34.0699 165.74 33.9779 165.936 33.8766 166.151C32.833 168.361 31.8218 170.577 30.8327 172.798M34.1531 165.56C35.2979 163.086 34.7657 163.836 33.7724 165.534M33.7724 165.534C32.5517 167.621 30.6346 171.142 30.2793 171.874C29.7536 172.957 29.2266 174.05 28.7065 175.154M7.3308 194.438C7.15889 196.054 6.94128 198.066 6.70571 200.169M7.3308 194.438C5.57715 200.358 4.75768 206.591 4.75768 211.975C4.75768 215.01 5.22077 212.326 5.78007 207.975M6.70571 200.169C6.40718 202.834 6.07981 205.644 5.78007 207.975M6.70571 200.169C5.917 203.355 5.28937 206.705 5.78007 207.975M5.78007 207.975C5.87345 208.217 6.00732 208.384 6.18829 208.459C6.87709 208.748 9.94671 202.121 11.7763 197.981M11.7763 197.981C12.531 196.274 13.0747 194.99 13.1534 194.788C14.3965 191.61 15.5562 188.411 16.9057 185.257C16.9636 185.121 17.0151 185.004 17.0604 184.904M11.7763 197.981C12.7258 193.684 14.194 189.216 16.7861 185.343C16.8934 185.182 16.985 185.033 17.0604 184.904M11.7763 197.981C11.6627 198.495 11.5565 199.007 11.4567 199.515C11.3707 199.953 11.0722 202.062 10.9642 204.105M17.0604 184.904C17.4061 184.135 17.387 184.34 17.0604 184.904ZM10.9642 204.105C10.9578 204.225 10.9521 204.345 10.9472 204.465M10.9642 204.105C11.4953 203.152 12.5672 201.398 13.1522 200.366C13.9612 198.939 14.7874 197.518 15.6326 196.103M10.9642 204.105C10.6047 204.75 10.4929 205.027 10.9472 204.465M10.9472 204.465C10.8268 207.365 11.1438 209.92 13.074 207.06C13.5939 206.29 14.0765 205.503 14.5268 204.702M10.9472 204.465C11.183 204.173 11.5716 203.654 12.1573 202.843C13.1364 201.488 14.1223 200.134 15.1131 198.781M14.5268 204.702C16.5146 201.164 17.8711 197.351 19.0111 193.496M14.5268 204.702C14.516 204.323 14.528 203.865 14.5663 203.319C14.6715 201.818 14.8573 200.303 15.1131 198.781M14.5268 204.702C14.6548 209.191 17.9917 202.635 19.0516 200.234C20.1907 197.654 21.3026 195.07 22.4032 192.483M19.0111 193.496C19.4271 192.09 19.8142 190.678 20.1927 189.272M19.0111 193.496C17.7059 195.257 16.4052 197.018 15.1131 198.781M19.0111 193.496C20.6272 191.317 22.2504 189.14 23.8732 186.962M20.1927 189.272C20.2598 189.023 20.3266 188.774 20.3932 188.525M20.1927 189.272C20.0032 189.418 19.8067 189.57 19.6053 189.727M20.1927 189.272C20.7184 188.866 21.1907 188.508 21.5662 188.238M20.3932 188.525C20.8943 186.654 21.3864 184.798 21.917 182.982M20.3932 188.525C22.3792 185.521 24.4672 182.555 26.6736 179.635M20.3932 188.525C20.1288 188.925 19.8661 189.325 19.6053 189.727M21.917 182.982C22.1282 182.259 22.3456 181.543 22.572 180.835C23.4108 178.213 25.3393 175.005 25.3393 172.281C25.3393 170.543 23.3632 175.442 22.5647 177.077C21.0128 180.255 19.5594 183.582 18.3241 186.973M21.917 182.982C22.2898 182.564 22.6544 182.149 23.0066 181.736C24.8873 179.532 26.7719 177.33 28.7065 175.154M21.917 182.982C20.7542 184.286 19.5123 185.617 18.3241 186.973M18.3241 186.973C17.7224 188.625 17.1725 190.292 16.6881 191.965M18.3241 186.973C16.5732 188.972 14.9389 191.028 13.8461 193.14C13.2018 194.386 14.7406 193.412 16.6881 191.965M16.6881 191.965C16.2892 193.342 15.9348 194.724 15.6326 196.103M16.6881 191.965C17.6318 191.264 18.6715 190.451 19.6053 189.727M15.6326 196.103C15.4368 196.997 15.263 197.89 15.1131 198.781M15.6326 196.103C16.9117 193.962 18.234 191.836 19.6053 189.727M22.4032 192.483C23.5676 189.746 24.7196 187.008 25.8781 184.27M22.4032 192.483C22.7806 190.636 23.2817 188.794 23.8732 186.962M22.4032 192.483C21.9277 194.81 21.6485 197.144 21.6321 199.473C21.586 206.015 27.3112 198.872 29.5066 195.641M25.8781 184.27C27.04 181.525 28.2085 178.782 29.4029 176.043M25.8781 184.27C25.2102 185.168 24.5418 186.065 23.8732 186.962M29.4029 176.043C29.875 174.96 30.3512 173.879 30.8327 172.798M29.4029 176.043C28.9666 176.637 28.5469 177.201 28.1419 177.721C27.6467 178.356 27.1573 178.994 26.6736 179.635M30.8327 172.798C30.1159 173.579 29.4079 174.365 28.7065 175.154M28.7065 175.154C28.0098 176.632 27.3256 178.126 26.6736 179.635M26.6736 179.635C25.6304 182.048 24.6698 184.495 23.8732 186.962M29.5066 195.641C29.8595 195.122 30.1212 194.704 30.253 194.459C35.333 185.054 40.2222 175.115 43.9658 165.341M29.5066 195.641C28.5055 198.67 26.4952 203.56 27.9063 206.237C28.2407 206.871 29.2834 206.24 30.1487 205.547M43.9658 165.341C44.1296 166.747 43.4422 168.857 43.2964 169.512C40.5641 181.78 34.2588 193.511 30.1487 205.547M43.6389 164.423C43.2907 163.981 42.6444 163.851 41.5307 164.293C40.9062 164.542 40.302 164.838 39.7172 165.175M30.1487 205.547C30.0855 205.732 30.0228 205.917 29.9607 206.102C26.779 215.585 34.6632 202.072 35.8009 200.241C37.3678 197.719 39.0113 195.231 40.7356 192.776M40.7356 192.776C38.9349 198.924 37.8076 205.342 40.8691 205.505C48.1953 205.896 54.4143 187.248 56.128 183.891C57.5374 181.131 60.0772 176.32 62.485 171.77M40.7356 192.776C43.5809 188.724 46.6459 184.761 49.949 180.886C53.0374 177.262 56.4745 171.718 61.8395 169.561C62.5409 169.279 63.129 169.242 63.6194 169.405M62.485 171.77C62.902 170.982 63.3151 170.202 63.7176 169.441M62.485 171.77C62.855 170.98 63.2332 170.192 63.6194 169.405M62.485 171.77C58.8624 179.508 56.0314 187.443 54.2873 195.541C53.6709 198.403 52.3917 212.497 59.5282 204.021C60.685 202.647 61.7664 201.222 62.7855 199.758M63.7176 169.441C67.1851 162.891 69.8724 157.811 67.5876 161.876C66.1895 164.363 64.8633 166.873 63.6194 169.405M63.7176 169.441C67.8026 171.069 64.8159 187.115 64.5884 189.068C64.171 192.651 63.495 196.205 62.7855 199.758M63.7176 169.441C63.6853 169.428 63.6526 169.416 63.6194 169.405M62.7855 199.758C65.4219 195.968 67.6416 191.912 69.673 187.783M62.7855 199.758C62.4223 201.576 62.0503 203.394 61.6997 205.215C61.3261 207.156 59.0168 212.173 61.2273 211.085C63.3235 210.054 65.0837 207.093 66.5085 204.408M69.673 187.783C72.8083 181.41 75.4954 174.863 78.5748 168.852C79.5714 166.906 82.3333 161.009 81.3188 162.95C79.5346 166.363 77.6721 169.713 76.1255 173.203C74.1469 177.668 71.6435 182.673 69.673 187.783ZM69.673 187.783C67.5104 193.391 65.9896 199.124 66.5085 204.408M66.5085 204.408C66.5238 204.563 66.5409 204.719 66.5598 204.874C66.73 206.271 68.8128 206.153 69.9337 205.359C73.4952 202.835 75.2338 198.694 76.9684 195.407C80.7413 188.258 83.9431 180.963 87.2998 173.708M66.5085 204.408C67.3638 202.796 68.0982 201.283 68.7118 200.347C72.9609 193.865 77.1263 187.344 81.6496 180.963C82.3015 180.043 84.5775 176.701 87.2998 173.708M87.2998 173.708C87.9155 172.378 88.5364 171.048 89.1671 169.722C90.5824 166.744 89.6876 168.768 87.972 172.987M87.2998 173.708C87.5211 173.465 87.7454 173.224 87.972 172.987M99.0028 172.976C98.5071 174.721 97.3897 176.876 97.1923 177.479C94.1615 186.734 91.2921 196.28 91.4149 205.845C91.428 206.866 91.48 209.787 93.8733 209.499C95.0182 209.362 95.9118 208.279 96.6084 206.983M99.0028 172.976C100.785 178.498 99.8977 185.06 99.6226 190.461C99.3368 196.073 98.1913 201.517 96.6084 206.983M96.6084 206.983C97.5082 205.309 98.0793 203.28 98.4386 202.471C100.693 197.397 101.468 189.117 105.869 184.843C109.141 181.665 105.219 192.829 104.243 196.754C104.097 197.342 103.014 201.157 102.535 204.288M96.6084 206.983C96.4838 207.414 96.3565 207.844 96.2268 208.274C96.0622 208.82 93.4296 215.635 94.4983 215.982C95.6539 216.357 99.0641 210.638 99.3681 210.143C100.547 208.228 101.58 206.269 102.535 204.288M102.535 204.288C102.188 206.566 102.16 208.481 103.045 208.529C106.436 208.713 110.557 194.991 111.381 193.206C111.788 192.326 113.567 188.871 114.94 187.105M114.94 187.105C114.87 191.116 114.772 195.135 114.539 199.149M114.539 199.149C113.943 201.952 113.368 204.758 113.005 207.579C112.775 209.365 112.39 217.373 113.336 211.148C113.941 207.163 114.307 203.159 114.539 199.149Z" stroke="#1016AA" stroke-opacity="0.44" stroke-linecap="round" stroke-linejoin="round"/>
<path d="M17.1475 206.625V207.145L17.0657 207.207L16.9838 207.235H16.7791L16.7382 207.111L16.6973 206.868L16.6563 206.569V206.235L16.6154 205.811V198.346L16.6563 197.25L16.7791 196.312L16.9429 195.312L17.3931 193.097L17.6387 192.244L18.0174 190.938L18.3858 189.848L18.836 188.633L19.2863 187.452L19.8696 186.022L20.2789 185.084L20.8929 183.66L21.3841 182.654L21.9265 181.625L22.4177 180.744L22.9908 179.653L23.3592 179.043L23.9015 178.014L24.3109 177.286L24.7611 176.494L25.2114 175.799L25.7538 174.98L26.0812 174.494L26.6543 173.703L27.0636 173.126L27.5958 172.494L28.0563 171.917L28.7112 171.154L29.1615 170.668L29.8676 169.849L30.4406 169.244L31.1365 168.544L31.8426 167.877L32.7022 167.057L33.3162 166.481L34.3498 165.571L35.1684 164.842L36.1611 164.085L37.1025 163.39L38.2589 162.599L39.0366 162.141L40.2749 161.446L41.1754 160.96L42.2499 160.474L43.1913 160.05L44.3886 159.564L45.1254 159.293L46.3227 158.835M16.4636 207.463C16.368 207.655 14.7475 209.051 14.6928 208.873C14.0045 206.632 14.8883 203.528 15.0441 201.268C15.5955 193.272 19.6737 184.173 26.7281 177.944C31.6734 173.578 34.8432 167.69 41.3228 164.349C46.7263 161.563 50.5489 159.771 56.9896 158.837C64.5049 157.747 73.2232 158.141 80.7836 160.342M80.7836 160.342C85.2809 161.651 89.3685 163.6 92.5493 166.256C94.701 168.053 96.75 169.904 98.6822 171.811M80.7836 160.342C83.6629 161.893 86.2789 163.738 88.2537 165.281C90.8044 167.275 93.3697 169.505 96.6938 170.817C97.4095 171.099 98.0688 171.435 98.6822 171.811M80.7836 160.342C77.6569 158.658 74.2198 157.321 70.9562 157.094C63.4217 156.57 58.0603 158.39 50.9348 159.619C43.9726 160.819 35.2555 162.816 29.888 166.424C21.8832 171.805 16.8401 180.885 14.6957 188.521C13.0493 194.383 13.0855 200.531 12.9745 206.494C12.9551 207.538 11.5732 214.05 12.9232 211.212M98.6822 171.811C104.937 177.986 109.968 184.752 113.297 192.183C113.672 193.019 115.188 200.104 116.328 200.144C117.367 200.18 116.35 196.42 116.236 196.086C114.293 190.419 111.236 185.288 106.819 180.432C104.289 177.65 102.273 174.018 98.6822 171.811ZM79.5122 94.0533C79.2486 94.1199 78.9864 94.1818 78.7256 94.2393M78.7256 94.2393C74.2796 95.2197 70.2161 94.9373 65.6694 95.7762C61.1619 96.608 57.1807 97.7086 53.6031 99.2074M78.7256 94.2393C81.4103 95.3414 83.5917 97.0631 85.3391 99.2933C88.7443 103.639 94.8476 109.522 95.0998 114.695C95.1467 115.655 95.1364 116.599 95.0728 117.527M78.7256 94.2393C76.5424 93.3431 74.0264 92.8566 71.1402 92.8397C70.8791 92.8382 70.6186 92.8405 70.3585 92.8467M53.6031 99.2074C49.0378 101.12 45.1297 103.681 41.6233 107.159C35.4969 113.237 31.3523 117.879 29.3503 125.454C27.688 131.743 26.0577 140.066 29.8362 146.093C30.8174 147.658 32.1367 149.171 33.7065 150.486M53.6031 99.2074C57.248 96.5956 61.5219 94.5191 67.1743 93.3946C68.2225 93.1861 69.2869 92.9968 70.3585 92.8467M53.6031 99.2074C48.546 102.831 44.6996 107.485 40.0618 112.055C32.1416 119.86 29.3537 129.586 30.6958 139.207C31.0984 142.093 31.8943 146.512 33.7065 150.486M33.7065 150.486C38.193 154.242 44.7253 156.373 51.2567 153.434C56.7863 150.946 62.1583 148.268 67.6976 145.791C71.476 144.102 76.2843 142.735 79.5005 140.468C86.9373 135.226 91.0949 129.044 93.6597 121.807C94.1707 120.365 94.6659 118.947 95.0728 117.527M33.7065 150.486C36.0277 155.575 40.016 159.934 46.9802 159.403C53.1826 158.93 58.3516 155.341 63.3452 152.963C68.6141 150.454 73.4542 148.029 77.5751 144.491C86.7767 136.59 94.3519 128.043 95.0728 117.527M95.0728 117.527C95.7498 115.164 96.1825 112.795 96.0371 110.297C95.8277 106.699 94.4845 100.96 91.4096 98.0826C89.5367 96.3298 84.3858 94.6829 81.6927 93.6508C78.1015 92.2744 74.1845 92.3106 70.3585 92.8467M70.3585 92.8467C62.9722 93.0207 55.9752 96.2239 49.9416 99.1085C42.2732 102.775 35.6995 107.001 32.9769 113.659M48.5646 192.056C48.5646 190.74 49.2238 186.432 49.2238 190.247C49.2238 193.268 49.5112 196.244 49.7903 199.256C50.0711 202.287 50.0013 211.386 50.3465 208.36C50.7782 204.576 50.7802 200.728 50.7105 196.935C50.6467 193.465 50.6041 187.984 48.3036 184.852C46.5697 182.492 47.9465 190.24 47.9465 192.936C47.9465 196.412 47.483 200.073 48.4822 203.488M82.6484 194.533C82.3377 194.044 81.4221 192.641 80.7966 191.259M80.7966 191.259C80.1786 189.894 79.8437 188.548 80.6544 188.123C81.2413 187.816 80.6804 189.192 80.6959 189.727C80.7109 190.24 80.746 190.75 80.7966 191.259ZM80.7966 191.259C80.9304 192.605 81.1724 193.941 81.434 195.283C82.2952 199.7 83.3053 204.104 84.3748 208.495C85.8255 214.451 85.0003 196.333 83.8467 190.341C82.9667 185.771 83.0636 189.692 83.0636 191.875C83.0636 195.189 82.8562 198.59 83.4372 201.882M97.5852 70.8614C97.5625 69.1481 97.0282 67.3865 96.7579 65.6821C96.4524 63.7558 96.5554 69.5586 96.5066 71.4978C96.3515 77.6591 96.5365 83.796 97.0721 89.9427C97.1468 90.8005 97.0409 93.6269 96.6858 91.1062C95.9223 85.6862 95.7688 80.1101 95.5869 74.6691C95.5003 72.0795 95.4281 69.4847 95.4281 66.894C95.4281 65.5834 95.3502 68.1373 95.3466 68.4023C95.2387 76.2924 93.9708 99.8424 95.8155 92.0712M97.1135 93.3147C96.5843 93.3269 95.2865 93.8475 95.5466 93.5073C97.0788 91.5038 102.611 89.7231 105.104 88.5943C111.783 85.5701 118.678 82.6283 125.994 80.5178C128.126 79.9026 130.448 79.5096 132.622 78.9073M132.622 78.9073C133.448 78.6784 134.253 78.4192 135.019 78.1061C137.372 77.1436 135.736 77.7359 132.622 78.9073ZM132.622 78.9073C128.307 80.53 121.156 83.2637 117.837 84.5152C113.97 85.9737 109.922 87.548 106.946 89.9243C105.284 91.2511 107.357 90.3971 108.155 89.7892M96.7725 67.945C94.2074 67.945 92.2164 65.7693 90.554 64.4209C88.1173 62.4444 85.1131 60.3495 82.6636 58.0723M82.6636 58.0723C81.2507 56.7589 80.0223 55.3848 79.1937 53.9378C77.1271 50.3288 75.7404 46.0906 74.9705 41.8348M82.6636 58.0723C83.999 58.9218 86.0694 60.0322 86.0474 58.8999C85.9711 54.9846 82.0182 51.1038 80.2038 47.5553C77.7494 42.755 77.231 38.0745 77.231 33.019C77.231 31.0051 77.367 28.9694 76.6627 27.0045C76.6016 26.8338 76.4151 27.0385 76.1715 27.4494M82.6636 58.0723C82.1291 57.7323 81.7123 57.4342 81.5947 57.3384C78.2596 54.6231 75.695 51.43 75.3363 47.7176C75.1528 45.8188 75.0233 43.8463 74.9705 41.8348M74.9705 41.8348C74.3677 38.5021 74.1431 35.1586 74.2665 32.0979C74.2891 31.5377 75.4685 28.635 76.1715 27.4494M74.9705 41.8348C74.8465 37.1051 75.1473 32.1597 76.1715 27.4494M76.1715 27.4494C76.8111 24.5075 77.733 21.6573 79.0098 19.0086C82.6309 11.4965 91.2502 8.76249 100.21 5.48338M79.3118 21.379C75.7093 9.49749 98.5806 2.7864 111.321 2.09155C114.282 1.93005 117.215 1.78838 120.138 1.67295M120.138 1.67295C120.173 1.67157 120.208 1.67019 120.243 1.66881M120.138 1.67295C109.86 2.94708 100.05 5.90562 90.2728 9.08441C81.3853 11.9739 89.4716 10.8864 93.8216 9.63631C102.448 7.15747 111.048 3.22759 120.243 1.66881M120.138 1.67295C120.237 1.66067 120.336 1.64854 120.435 1.63657M120.243 1.66881C125.471 1.46345 130.667 1.34236 135.928 1.34236C137.9 1.34236 131.894 1.10854 129.079 1.02737M120.243 1.66881C120.307 1.65795 120.371 1.6472 120.435 1.63657M129.079 1.02737C128.488 1.01032 128.038 1 127.832 1C125.317 1 122.856 1.23537 120.435 1.63657M129.079 1.02737C126.156 1.08017 123.277 1.29353 120.435 1.63657M129.079 1.02737C132.102 0.972778 135.173 1.08982 138.302 1.41263C144.677 2.07027 150.854 3.16006 156.938 4.68889C160.561 5.5992 164.41 6.06169 168.192 5.48547M153.238 1.81516C152.42 1.81516 156.558 2.22761 156.979 2.26366C163.987 2.8634 173.484 4.03051 180.594 6.78987M180.594 6.78987C182.756 7.6288 184.697 8.61489 186.281 9.77697C187.399 10.5974 188.312 11.5014 189.115 12.4502M180.594 6.78987C183.273 8.75486 186.421 10.4532 189.115 12.4502M180.594 6.78987C179.748 6.1693 178.949 5.52213 178.226 4.83057C175.691 2.4063 185.544 7.85396 188.547 9.96762C197.873 16.5324 202.493 25.3626 206.816 34.1561C208.122 36.8137 211.897 44.7393 209.903 42.3254M189.115 12.4502C191.498 15.2676 192.899 18.4798 195.747 21.0683C197.852 22.9806 193.48 16.3475 191.445 14.3944C190.729 13.7071 189.944 13.0645 189.115 12.4502ZM203.372 34.0814C203.372 33.552 203.16 29.3163 205.342 30.016C207.426 30.6837 208.985 34.2224 209.732 35.5662C212.467 40.4872 213.796 45.9834 214.929 51.2128C216.209 57.1184 217.42 67.1778 211.737 72.2362C210.25 73.5602 209.403 73.2993 208.947 72.2749M208.947 72.2749C207.93 69.994 208.847 63.9284 208.93 63.1421C209.295 59.6913 209.944 56.3309 210.999 52.9546C211.129 52.5371 212.738 48.6274 212.903 49.2098C214.42 54.5544 213.717 60.3941 212.218 65.6818C211.465 68.336 210.409 70.4498 208.947 72.2749ZM208.947 72.2749C206.744 75.0232 203.619 77.117 199.217 79.4162C196.448 80.862 189.259 86.7657 185.325 84.5853M197.899 83.1869C197.899 85.0598 186.412 88.6931 184.568 89.4552C179.581 91.5161 176.784 91.9006 171.408 91.2165C167.102 90.6685 162.743 91.5152 158.504 90.5386C154.598 89.6386 150.758 88.9763 146.817 88.2049C143.129 87.4834 142.132 86.2581 139.393 84.602C138.295 83.9384 131.999 80.9408 132.46 81.8726M132.46 81.8726C132.481 81.915 132.516 81.9655 132.566 82.0248C136.622 86.8238 158.938 93.5349 152.02 91.0897C147.973 89.6592 143.807 87.7733 140.145 85.8729C139.467 85.5208 135.299 83.3508 132.46 81.8726ZM132.46 81.8726C130.926 81.0741 129.78 80.4775 129.78 80.4781C129.78 81.6399 131.438 82.3585 132.476 83.1118C137.002 86.3951 141.539 90.1133 147.637 91.7833C155.796 94.0179 165.844 93.6288 174.42 93.6288C178.792 93.6288 186.264 95.0231 188.977 91.7937M103.235 51.1017C103.172 51.0325 103.112 50.967 103.054 50.9051M103.054 50.9051C101.282 49.0069 101.697 50.4694 102.983 52.1688C106.107 56.2964 109.324 61.0975 113.176 65.0459M103.054 50.9051C103.114 51.0982 103.232 51.3999 103.421 51.8345C104.657 54.6844 106.998 57.272 109.352 59.7623M103.054 50.9051C102.618 49.505 105.214 53.8235 105.841 54.6629C107.093 56.337 108.203 58.0604 109.352 59.7623M113.176 65.0459C113.797 65.6828 114.435 66.2976 115.092 66.8837C115.995 67.6893 116.768 68.3497 116.668 67.9058M113.176 65.0459C113.14 64.9347 113.105 64.8214 113.07 64.7065M113.176 65.0459C113.932 67.405 114.779 68.8735 115.194 67.2257M116.668 67.9058C116.636 67.76 116.509 67.4951 116.261 67.0769C115.396 65.6135 113.98 64.3618 112.623 63.1008M116.668 67.9058C116.216 67.565 115.535 67.1725 115.255 66.9204C114.464 66.2087 113.742 65.4682 113.07 64.7065M116.668 67.9058C116.837 68.0329 116.973 68.1527 117.045 68.2555M112.623 63.1008C112.091 62.607 111.569 62.1117 111.091 61.6018C110.522 60.993 109.937 60.3806 109.352 59.7623M112.623 63.1008C112.063 60.8901 111.656 58.4584 111.699 57.0704C111.764 54.9736 115.093 55.4374 116.61 56.5856M112.623 63.1008C112.763 63.6567 112.914 64.1986 113.07 64.7065M109.352 59.7623C110.495 61.4548 111.675 63.1261 113.07 64.7065M117.045 68.2555C117.064 68.2821 117.078 68.3076 117.088 68.3317C117.516 69.4283 117.402 69.2075 117.045 68.2555ZM117.045 68.2555C116.202 66.005 114.001 59.6685 114.401 56.987C114.43 56.7905 116.277 56.5818 116.61 56.5856M116.61 56.5856C116.617 56.5857 116.623 56.5859 116.629 56.5861C117.58 56.6331 118.641 57.8201 119.501 59.0314M116.61 56.5856C116.617 56.5911 116.624 56.5967 116.632 56.6022C117.388 57.1846 118.432 58.0399 119.501 59.0314M119.501 59.0314C120.218 60.0431 120.795 61.0718 121.049 61.4675C122.065 63.0523 123.794 67.9667 124.083 66.2265C124.425 64.1734 121.901 61.2587 119.501 59.0314ZM128.502 59.4951C127.337 59.4951 126.613 59.3683 125.833 60.0885C124.812 61.0313 128.263 57.7239 128.68 57.2919C131.32 54.5566 133.286 53.6204 128.68 52.5156C126.954 52.1016 124.438 51.2993 123.548 52.918C122.036 55.6703 123.274 59.1849 125.134 61.6771C128.594 66.312 138.485 62.8483 138.485 58.2173M130.897 41.4057C130.524 41.1393 130.002 40.6439 129.62 40.315M129.62 40.315C129.092 39.8595 128.836 39.7235 129.623 40.9579C132.342 45.2175 136.616 48.7216 140.55 52.2942M129.62 40.315C129.731 40.4876 129.817 40.6209 129.865 40.6792C131.685 42.8715 133.707 44.9563 135.785 47.0209C137.492 48.7172 139.093 50.4758 140.55 52.2942M129.62 40.315C129.24 39.7198 128.577 38.6579 128.211 38.6005C127.804 38.5367 128.91 40.98 129.157 41.1858M140.55 52.2942C140.838 52.556 141.125 52.8181 141.408 53.081C141.722 53.3717 141.792 53.8978 141.348 53.3143C141.087 52.9722 140.821 52.6322 140.55 52.2942ZM134.859 37.367C132.394 36.0075 134.887 38.9367 135.349 39.4688C137.554 42.0089 139.819 44.5194 141.991 47.0769C143.274 48.5884 144.52 50.714 146.445 51.8721C148.642 53.194 146.103 50.6994 145.642 50.1002C142.172 45.5858 139.091 41.0493 134.859 36.867M153.054 39.6145C153.054 38.1571 151.291 37.6623 150.635 39.2538C149.411 42.2208 150.144 49.6354 156.677 48.4597C159.244 47.9978 159.625 44.0972 159.625 42.6268C159.625 40.1074 157.248 38.2082 153.908 37.7345C150.981 37.3193 144.745 39.4204 147.195 42.3957M170.403 37.5011C170.384 37.4326 170.361 37.3753 170.335 37.3283M170.335 37.3283C169.919 36.5738 168.648 38.4405 168.648 38.8619C168.648 39.1359 170.468 38.0384 170.335 37.3283ZM170.335 37.3283C170.275 37.0071 169.815 36.7651 168.606 36.7651M178.969 32.995C178.985 33.1095 178.636 33.4817 178.266 33.9105M178.266 33.9105C177.718 34.5461 177.126 35.3061 177.613 35.5343C177.86 35.6503 178.163 34.4856 178.266 33.9105ZM178.266 33.9105C178.292 33.7687 178.305 33.6627 178.302 33.6206C178.279 33.2463 177.035 33.4101 177.035 33.2467M188.177 28.6446C188.177 27.0409 185.379 29.7511 186.858 30.5566C188.031 31.1951 188.715 28.418 188.444 27.9246C187.7 26.569 184.773 28.761 184.773 29.6146" stroke="black" stroke-linecap="round" stroke-linejoin="round"/>
</svg>
