<svg width="188" height="38" viewBox="0 0 188 38" fill="none" xmlns="http://www.w3.org/2000/svg">
<path d="M9.33418 17.8652C12.8449 16.2908 20.4367 -2.10346 12.8902 1.94348C5.08517 6.12908 -0.025179 21.0324 1.57445 30.5242C3.07931 39.4536 11.4823 38.242 15.9634 34.1842M31.0244 14.2674C31.4909 13.0742 32.3392 8.9501 30.8556 7.7504M30.8556 7.7504C30.8376 7.73588 30.8193 7.72178 30.8007 7.70812C25.6296 3.92167 20.3035 21.8522 20.0851 24.4561C19.2148 34.8346 28.4337 37.1709 32.9826 29.8354C35.4664 25.8302 37.4872 8.3282 30.8556 7.7504ZM30.8556 7.7504C30.2736 7.69969 29.6249 7.77934 28.9041 8.0099M43.2357 12.8815C44.1074 12.4906 43.8252 11.6533 43.4499 10.8164C43.2603 10.3938 43.1119 10.2149 42.9965 10.2285M42.9965 10.2285C42.6239 10.2723 42.5947 12.3205 42.6335 14.6456M42.9965 10.2285C42.9486 10.5486 42.9054 10.9221 42.8673 11.3537C42.7712 12.442 42.6949 13.5404 42.6335 14.6456M42.9965 10.2285C43.5812 6.31726 44.8565 10.3625 45.9509 13.3591C47.4551 17.4776 49.4207 26.4578 53.8572 28.1752C61.4714 31.1227 54.3989 8.87601 54.1396 5.8119M42.6335 14.6456C42.6681 16.7182 42.7567 19.0109 42.7043 20.3001C42.6483 21.6793 42.1356 33.8048 42.2492 29.555C42.3807 24.6385 42.3597 19.5736 42.6335 14.6456ZM60.8206 12.0671C58.2198 14.4575 60.8748 13.0872 62.6753 12.4511C66.5506 11.0819 70.9236 10.5496 74.6569 8.87535M71.384 8.1275C72.598 7.58306 70.5543 13.5418 70.4141 14.2196C69.9876 16.2817 67.2191 34.1906 69.5116 33.1624M82.3449 14.0362C82.2795 13.6397 81.747 9.9116 82.3228 11.959C83.4571 15.9925 81.5434 22.2256 81.2428 26.1997C81.1821 27.0027 80.6868 35.4283 81.2191 31.8782C82.0548 26.3044 81.9529 20.5193 82.9332 14.9669C83.1027 14.007 85.277 3.09478 87.6553 5.1615C90.1694 7.34616 90.183 11.5057 90.1924 14.4024L90.1813 13.1197C90.2015 19.3109 89.5234 26.7566 90.1813 33.0118C90.342 34.5393 90.9803 36.3765 91.5975 33.9714M82.0235 22.6877C78.2404 24.1886 90.1511 21.3293 93.9897 19.9691M103.957 10.6328C104.04 9.56065 104.082 6.72516 102.486 7.10444C98.7393 7.99468 97.453 14.2857 96.7573 17.7939C96.2038 20.5845 94.5742 33.1806 99.6572 33.6849C104.351 34.1506 107.915 29.2518 110.424 25.8928M111.884 8.55373C110.021 9.08292 106.225 9.31097 111.231 9.22966C116.385 9.14596 122.907 8.33039 127.543 6.25124M123.881 6.38665C121.399 12.3931 114.037 20.2056 117.541 28.019M153.174 10.3248C156.133 3.25616 151.227 13.5921 150.701 16.382C150.206 19.0083 147.649 28.8945 150.026 31.3338C152.17 33.5341 157.966 21.4467 158.507 20.3285C160.785 15.6242 162.192 10.4876 163.689 5.37752C163.931 4.55168 162.422 9.856 162.212 11.0466C161.292 16.2875 159.998 22.4004 161.081 27.9398C161.929 32.2775 165.729 29.6431 167.888 28.6747M183.232 5.76743C183.404 -0.157013 176.784 4.87819 175.061 6.90615C169.638 13.2916 173.976 15.7381 180.251 17.7099C194.49 22.1845 181.232 37.522 175.606 25.6798" stroke="black" stroke-linecap="round" stroke-linejoin="round"/>
</svg>
