<svg width="32" height="32" viewBox="0 0 32 32" fill="none" xmlns="http://www.w3.org/2000/svg">
<path d="M13.0759 17.0501C13.1555 13.2715 13.2837 32.1662 13.2837 28.3867M10.1031 16.7841C9.86074 16.9125 9.90537 16.8335 10.2646 16.8508C10.7008 16.8719 11.1365 16.9007 11.5723 16.9278M11.5723 16.9278C11.7046 16.9361 11.8368 16.9441 11.9692 16.9518C11.9808 16.9525 11.9936 16.9529 12.0074 16.9532M11.5723 16.9278C11.7175 16.9259 11.8654 16.9369 12.0074 16.9532M11.5723 16.9278C11.3201 16.9313 11.0763 16.974 10.8863 17.0968M12.0074 16.9532C12.2726 16.959 12.9198 16.9045 13.1006 17.0863C13.1456 17.1316 12.4606 17.0183 12.3776 17.0054C12.2637 16.9876 12.1381 16.9682 12.0074 16.9532ZM10.4192 14.5671C10.4349 14.4666 10.6467 13.9063 10.4295 13.9063C10.3119 13.9063 10.4476 15.6288 10.4911 16.0825M10.4911 16.0825C10.4959 16.1325 10.4995 16.1671 10.5016 16.1823C10.5222 16.3323 10.7158 16.8555 10.6011 16.5257C10.5524 16.3856 10.5173 16.2363 10.4911 16.0825ZM10.4911 16.0825C10.4173 15.6506 10.4129 15.182 10.3704 14.7748C10.3652 14.7245 10.2966 13.4119 10.3045 13.2231M10.3045 13.2231C10.3051 13.2081 10.3062 13.2002 10.3079 13.2006C10.3083 13.2007 10.307 13.2089 10.3045 13.2231ZM10.3045 13.2231C10.2881 13.3152 10.2199 13.6587 10.2177 13.6765C10.1546 14.2006 10.1546 14.7265 10.1546 15.2533L10.1546 15.2746C10.1546 15.7688 10.1616 16.2612 10.1845 16.7548C10.1955 16.9938 10.1908 16.6856 10.1908 16.6153M9.65143 13.8968C9.22828 13.9379 10.3367 13.9273 10.3974 13.9273C11.1637 13.9273 11.9705 13.8549 12.7316 13.9504C12.7481 13.9525 12.7927 13.9638 12.8518 13.9788M12.8518 13.9788C13.0377 14.0261 13.3668 14.1102 13.4116 14.0588C13.4256 14.0426 13.0801 14.0018 12.8518 13.9788ZM12.8518 13.9788C12.7546 13.9691 12.6787 13.9626 12.6608 13.9626C12.1 13.9626 11.5398 13.9465 10.9792 13.9428C10.4728 13.9395 9.97721 13.9545 9.47358 14.0012C9.1931 14.0273 9.46881 13.959 9.57917 13.9321M13.0037 13.8148C12.9402 13.8213 12.916 13.9487 12.9032 13.8195C12.8484 13.268 12.821 12.7172 12.8037 12.1632C12.7757 11.2695 12.8233 10.4975 12.9482 9.62085C13.1341 8.31561 13.7374 7.0787 14.8467 6.31297C15.3826 5.94309 16.1712 5.9883 16.7942 5.87079C17.1941 5.79537 17.6089 5.7498 18.0007 5.64168C18.3872 5.53502 18.6211 5.71518 18.9884 5.73211C19.3655 5.74948 19.7366 5.77727 20.1105 5.79885C20.4112 5.81621 20.7428 5.70191 20.9922 5.89246C21.1674 6.02629 21.6441 6.29455 21.8437 6.22079M21.2579 5.847C21.4234 5.5687 21.4411 5.49577 21.4087 5.9218C21.3719 6.40745 21.3721 6.90416 21.3856 7.3978M21.3856 7.3978C21.3929 7.66531 21.4041 7.93191 21.4153 8.19536C21.4197 8.29903 21.476 8.75709 21.476 8.40402C21.476 7.53972 21.5165 4.94737 21.4857 5.81114C21.4726 6.17874 21.4246 6.79498 21.3856 7.3978ZM21.3856 7.3978C21.3136 8.51036 21.2724 9.57719 21.5379 8.95077M21.3146 8.86876C21.375 8.80897 21.4784 8.79174 21.5072 8.78825M21.5072 8.78825C21.5167 8.7871 21.5181 8.78745 21.5072 8.78825ZM21.5072 8.78825C21.4915 8.78941 21.4504 8.79152 21.3714 8.79152C20.8265 8.79152 20.3015 8.57904 19.7462 8.58174C18.9094 8.58581 18.1403 8.93349 17.7542 9.69526C17.3532 10.4865 17.4282 11.4638 17.4282 12.3302C17.4282 12.7759 17.4781 13.1932 17.5109 13.6342C17.5156 13.6971 17.5376 14.337 17.6101 14.2801M17.2837 13.8195C17.2057 13.8195 17.1792 13.7783 17.2768 13.747C18.3745 13.3942 19.6919 13.7858 20.814 13.808C21.1429 13.8145 21.4723 13.809 21.8013 13.809C21.968 13.809 21.4681 13.8258 21.3015 13.8311C20.974 13.8415 18.6011 13.7893 18.6011 13.9063M21.2527 13.953C21.2527 13.8237 21.2652 13.6132 21.2635 13.5054M21.2635 13.5054C21.2616 13.3858 21.2422 13.393 21.1689 13.7787C20.9996 14.6689 20.9302 15.6389 20.9302 16.5445C20.9302 16.5499 20.9298 16.5555 20.9291 16.5613M21.2635 13.5054C21.2591 13.4677 21.2517 13.5177 21.2424 13.6868C21.1938 14.5751 21.2488 15.7001 20.9291 16.5613M21.2635 13.5054C21.2841 13.6841 21.2353 15.8286 20.9779 16.5896M20.9291 16.5613C20.9198 16.642 20.8505 16.7525 20.8737 16.6992C20.8933 16.654 20.9118 16.6081 20.9291 16.5613ZM17.2682 16.9023C17.1677 16.9308 16.8544 16.9584 17.1121 16.9174C17.537 16.8498 17.9705 16.8095 18.4067 16.7835M18.4067 16.7835C19.1297 16.7404 19.8602 16.7365 20.5713 16.7126C20.8726 16.7024 21.171 16.6843 21.4705 16.6526C21.6972 16.6286 21.0142 16.6352 20.7865 16.646C20.0373 16.6816 19.1455 16.58 18.4067 16.7835ZM18.4067 16.7835C18.3403 16.8018 18.2752 16.8225 18.2114 16.8461M17.5688 16.9891C17.5688 16.9302 17.5121 16.4021 17.5121 16.6634C17.5121 17.6701 17.4488 18.677 17.4488 19.6853C17.4488 21.4203 17.6728 23.2368 17.4837 24.9646C17.4205 25.5414 17.4914 26.1356 17.4914 26.7144C17.4914 27.1031 17.3559 27.4856 17.3559 27.8794C17.3559 28.0397 17.2405 28.2687 17.2128 28.448C17.2066 28.4882 17.1998 28.6685 17.1998 28.6391C17.1998 28.1414 17.1499 27.6454 17.1275 27.1481M13.325 28.5812C13.1422 28.5855 12.5955 28.5824 12.777 28.6033C14.0941 28.7546 15.4842 28.4136 16.7993 28.3484C16.8542 28.3457 17.4871 28.3145 17.2301 28.3376C16.8562 28.3711 16.4634 28.4829 16.095 28.5582C15.5153 28.6767 14.9253 28.805 14.3332 28.8391C14.2437 28.8443 13.7503 28.832 13.8076 28.832M13.0088 30.5322C13.0182 30.3526 13.6061 30.6295 12.7348 30.6295C11.7875 30.6295 11.1024 30.1298 10.3085 29.7163C9.96391 29.5368 9.58047 29.4443 9.23279 29.2653C8.90092 29.0944 8.62832 28.8376 8.31164 28.6459C7.04025 27.8762 5.84751 26.9575 4.84497 25.8782C3.74555 24.6946 2.99414 23.4604 2.29866 22.0057C1.59744 20.5389 1.35471 19.0291 1.07995 17.4544C0.86338 16.2132 1.14338 14.8059 1.254 13.5638C1.35023 12.4833 1.72355 11.5196 2.22691 10.5797C2.55827 9.96103 2.98421 9.3734 3.23107 8.71736C3.52775 7.92891 4.13814 7.49448 4.57271 6.8053M3.78435 8.12119C3.60465 8.3753 3.68249 7.91053 3.69789 7.82104C3.79627 7.24955 4.35049 6.69012 4.69582 6.25607C5.54193 5.19256 6.4419 4.38221 7.56628 3.60057C8.08003 3.24343 8.74633 3.12162 9.29195 2.81078C9.89943 2.46469 10.6458 2.16157 11.3344 2.03809C12.1852 1.88552 12.9986 1.61504 13.8331 1.39091C14.6469 1.17234 15.5267 0.728581 16.3237 1.22902M14.9121 1.39778C14.3983 1.39778 15.9301 1.242 16.4243 1.10356C17.1747 0.893376 18.1832 1.25795 18.8527 1.59024C19.85 2.08519 21.0278 2.13809 22.0325 2.66133C22.4012 2.85335 22.7765 3.03368 23.144 3.22842C23.6353 3.48877 24.0167 3.91405 24.4436 4.26031C24.8952 4.62652 25.3992 4.92033 25.7471 5.39353C25.9554 5.67693 26.1436 5.97669 26.3005 6.29097C26.3189 6.32779 26.5032 6.63106 26.5082 6.59457M20.614 2.02809C21.298 2.9307 22.4225 3.09793 23.4294 3.49002C24.0873 3.74619 24.6177 4.22244 25.2053 4.59761C25.7694 4.95775 26.3467 5.30064 26.8479 5.74699C27.2517 6.10671 27.5636 6.50452 27.8686 6.94591C28.1471 7.3489 28.5128 7.68169 28.7618 8.10546C29.0749 8.6384 29.3844 9.2674 29.4914 9.8783C29.6234 10.6317 29.8842 11.2876 30.1547 12.0021M26.876 5.74498C27.0539 6.10471 27.4123 6.39096 27.6782 6.68257C28.1989 7.25364 28.5824 7.88509 28.8895 8.58917C29.1424 9.16903 29.516 9.70529 29.6596 10.3243C29.7932 10.9007 29.9384 11.4527 30.1131 12.0168C30.4165 12.9961 30.6063 13.9362 30.765 14.9438C30.8482 15.4715 30.9805 15.9743 30.9805 16.512C30.9805 17.1028 30.7693 18.1327 30.316 18.5558M30.8863 16.0317C31.0869 16.6907 30.9797 17.6803 30.8863 18.3344C30.7482 19.3014 30.3912 20.227 30.0136 21.1255C29.2859 22.8573 28.177 24.5429 26.9379 25.96M30.5547 20.2712C30.2464 20.9409 29.9317 21.6321 29.5603 22.2699C29.0199 23.1978 28.256 23.9485 27.6295 24.8142C27.1164 25.523 26.5417 26.1682 25.8788 26.7434C25.4156 27.1453 24.9446 27.6128 24.4006 27.9061C23.9647 28.1412 23.4723 28.2376 23.0424 28.4993M24.4747 27.6344C24.5297 27.6344 24.595 27.6161 24.6342 27.6273M24.6342 27.6273C24.6572 27.6339 24.6712 27.6506 24.669 27.6871M24.6342 27.6273C25.0904 27.2837 25.495 26.8988 25.9287 26.5184C25.9588 26.492 26.0141 26.451 26.0752 26.4075M24.6342 27.6273C24.5172 27.7154 24.3969 27.8008 24.2718 27.8826C23.3772 28.4681 22.5397 29.0657 21.6096 29.5398M24.669 27.6871C24.6682 27.699 24.6658 27.713 24.6613 27.7294C24.5886 27.9981 24.1339 28.2793 23.7048 28.5044M24.669 27.6871C24.5698 27.7677 24.4733 27.8513 24.3817 27.9405C24.1678 28.1487 23.9394 28.3303 23.7048 28.5044M24.669 27.6871C25.0115 27.4087 25.3857 27.1666 25.7012 26.8563C25.8374 26.7224 25.9418 26.5475 26.0752 26.4075M23.7048 28.5044C23.4224 28.6526 23.151 28.7766 23.0071 28.8566C22.5531 29.1092 22.0843 29.3306 21.6096 29.5398M23.7048 28.5044C23.4816 28.6702 23.2527 28.8292 23.0254 28.9983C22.6401 29.2847 22.267 29.674 21.8161 29.8593C21.2876 30.0764 20.7403 30.1921 20.1854 30.263M21.6096 29.5398C21.4107 29.6275 21.2107 29.713 21.0103 29.7978C20.9114 29.8396 20.8157 29.8869 20.722 29.9378M21.6096 29.5398C21.3239 29.6854 21.0295 29.8194 20.722 29.9378M20.722 29.9378C20.5382 30.0375 20.3622 30.1509 20.1854 30.263M20.722 29.9378C20.7146 29.9406 20.7072 29.9435 20.6998 29.9463C19.9316 30.2396 19.1684 30.2961 18.3823 30.4069M20.1854 30.263C19.999 30.3814 19.8118 30.4984 19.6139 30.5968C18.7304 31.0362 17.5196 31.0277 16.5544 30.9748C15.8791 30.9378 15.2279 30.8327 14.577 30.7232M20.1854 30.263C19.5954 30.3385 18.9967 30.3632 18.4026 30.4055C18.3958 30.406 18.389 30.4064 18.3823 30.4069M14.577 30.7232C14.4244 30.6976 14.2717 30.6716 14.1188 30.6463M14.577 30.7232C15.6762 30.7235 16.7934 30.6925 17.8391 30.4949C18.0216 30.4604 18.2025 30.4322 18.3823 30.4069M14.577 30.7232C14.0655 30.7231 13.5578 30.7162 13.063 30.7162C12.7203 30.7162 12.4568 30.6868 12.1504 30.5272C12.1043 30.5032 12.0578 30.4813 12.0108 30.461M14.1188 30.6463C13.7561 30.5861 13.3919 30.5292 13.022 30.4865C12.7869 30.4593 12.2264 30.4572 12.0053 30.4586M14.1188 30.6463C13.6727 30.6664 13.2273 30.6607 12.7917 30.5977C12.5282 30.5595 12.2772 30.4672 12.0108 30.461M14.1188 30.6463C14.6538 30.6221 15.1898 30.5608 15.7111 30.5169C16.6004 30.442 17.4923 30.4688 18.3823 30.4069M12.0053 30.4586C11.9028 30.4593 11.8733 30.4607 11.9831 30.4607C11.9923 30.4607 12.0016 30.4608 12.0108 30.461M12.0053 30.4586C12.0072 30.4594 12.009 30.4602 12.0108 30.461M12.0053 30.4586C11.5909 30.2811 11.1423 30.2349 10.7058 30.1177C9.98411 29.924 9.44917 29.4106 8.76068 29.1482C7.94099 28.8357 7.10247 28.7782 6.43982 28.156M26.0752 26.4075C26.1552 26.3236 26.2456 26.2521 26.3595 26.2095C26.3694 26.2058 26.2084 26.3128 26.0752 26.4075Z" stroke="black" stroke-linecap="round" stroke-linejoin="round"/>
</svg>
