<svg width="745" height="423" viewBox="0 0 745 423" fill="none" xmlns="http://www.w3.org/2000/svg">
<path d="M134.973 407.105C134.973 396.44 134.409 385.611 134.002 374.878C133.828 370.284 133.475 356.501 133.475 361.097C133.475 366.972 132.348 372.812 132.348 378.733C132.348 387.783 134.433 396.76 134.433 405.846C134.433 408.89 134.162 418.018 134.162 414.974C134.162 408.204 138.811 400.84 142.955 395.822C143.755 394.854 149.793 390.675 149.793 389.518" stroke="#1FDE3D" stroke-opacity="0.66" stroke-width="2" stroke-linecap="round" stroke-linejoin="round"/>
<path d="M134.409 413.065C131.558 415.814 127.456 405.853 126.753 404.761C125.185 402.324 119.992 392.172 116.398 391.993C115.421 391.944 116.271 394.49 116.47 394.788" stroke="#1FDE3D" stroke-opacity="0.66" stroke-linecap="round" stroke-linejoin="round"/>
<path d="M109.121 414.906C107.972 414.906 109.606 403.718 109.708 402.572C109.763 401.951 110.437 392.812 110.437 397.352C110.437 403.195 109.193 409.71 110.344 415.461C110.923 418.353 108.569 415.022 107.318 414.034C105.181 412.344 103.603 410.259 101.827 408.196C101.631 407.967 98.4922 404.949 98.4922 405.596C98.4922 407.632 101.748 411.268 103.131 412.336C104.938 413.731 107.231 415.218 109.406 415.904C110.395 416.216 110.32 414.991 110.857 414.31C114.106 410.194 118.914 405.659 123.121 402.659" stroke="#1FDE3D" stroke-opacity="0.66" stroke-width="2" stroke-linecap="round" stroke-linejoin="round"/>
<path d="M160.836 408.97C159.904 408.97 160.312 392.771 160.312 391.042C160.312 387.507 159.971 393.432 160.05 394.332C160.556 400.121 161.405 406.011 161.405 411.825C161.405 414.287 159.308 410.549 158.257 409.61C157.045 408.527 149.112 403.222 147.752 406.289C147.623 406.579 149.618 406.805 149.836 406.878C151.963 407.579 154.096 408.712 155.896 410.059C157.593 411.33 159.509 412.744 160.885 414.391C161.672 415.333 161.571 412 162.098 410.883C163.791 407.296 166.759 403.748 169.643 401.119C170.775 400.088 172.49 399.878 173.401 399.054" stroke="#1FDE3D" stroke-opacity="0.66" stroke-width="2" stroke-linecap="round" stroke-linejoin="round"/>
<path d="M188.815 409.43C188.793 409.209 187.459 408.605 187.274 408.465C184.741 406.552 182.458 404.053 181.029 401.2C177.789 394.731 177.512 388.136 177.512 380.979C177.512 376.933 179.072 372.054 183.012 370.103C186.41 368.421 191.032 371.719 193.879 373.148C196.092 374.26 196.279 373.784 194.472 372.419C190.86 369.689 189.38 365.564 187.829 361.479C185.338 354.919 182.379 345.607 186.385 338.949C188.121 336.063 192.865 340.808 194.189 341.767C195.813 342.943 197.517 347.038 197.173 346.347C194.971 341.91 195.659 336.655 196.854 332.113C197.835 328.384 198.599 323.332 201.981 320.947C204.16 319.411 207.011 320.411 209.284 321.325C211.755 322.32 209.752 325.505 209.752 327.195C209.752 328.308 214.174 324.172 214.589 323.935C217.467 322.289 220.437 322.064 222.935 324.443C224.31 325.753 224.198 328.175 224.198 329.934C224.198 331.523 220.47 333.236 220.663 333.91C220.736 334.167 223.917 333.983 224.207 333.983C226.247 333.983 227.561 335.249 229.511 335.585C232.495 336.098 236.638 338.02 238.32 340.753C239.628 342.878 241.067 344.547 240.848 347.214C240.729 348.66 236.885 348.374 238.247 348.752C244.085 350.371 248.441 356.405 248.441 362.377C248.441 364.019 246.92 367.066 244.676 365.91C242.867 364.978 248.088 368.167 249.575 369.561C251.966 371.803 257.495 384.221 255.13 387.189C254.286 388.247 252.251 388.688 252.418 388.77C255.012 390.05 258.461 392.771 259.319 395.635C260.166 398.466 260.634 401.928 260.634 404.882C260.634 408.207 258.077 408.443 254.845 408.443" stroke="#1FDE3D" stroke-opacity="0.66" stroke-width="2" stroke-linecap="round" stroke-linejoin="round"/>
<path d="M194.126 385.461C192.738 385.461 199.421 380.955 201.004 380.739C205.682 380.101 207.491 385.82 212.409 385.82" stroke="#1FDE3D" stroke-opacity="0.66" stroke-width="2" stroke-linecap="round" stroke-linejoin="round"/>
<path d="M222.22 385.823C222.22 384.282 220.793 383.935 222.402 382.437C224.659 380.336 225.849 379.187 229.235 379.211C234.199 379.246 238.923 380.729 243.187 377.613" stroke="#1FDE3D" stroke-opacity="0.66" stroke-width="2" stroke-linecap="round" stroke-linejoin="round"/>
<path d="M217.167 368.253C217.167 370.219 218.122 369.472 216.976 367.609C215.007 364.408 212.854 362.186 208.691 362.186C206.517 362.186 203.818 363.042 201.723 362.414C198.916 361.573 193.665 359.272 193.949 356.072" stroke="#1FDE3D" stroke-opacity="0.66" stroke-width="2" stroke-linecap="round" stroke-linejoin="round"/>
<path d="M215.567 356.066C214.978 356.066 217.439 355.127 218.053 354.659C220.694 352.647 222.644 349.768 223.128 346.316C223.448 344.042 229.891 342.361 231.896 341.699" stroke="#1FDE3D" stroke-opacity="0.66" stroke-width="2" stroke-linecap="round" stroke-linejoin="round"/>
<path d="M191.646 241.69C191.712 241.134 191.786 240.745 192.097 240.273C198.398 230.723 202.534 219.313 208.177 209.33C219.714 188.921 233.123 169.441 245.712 149.672C257.977 130.411 270.302 111.191 283.775 92.7471C293.829 78.9845 304.828 65.3792 312.761 50.2341C316.741 42.6378 322.055 35.1933 325.048 27.129C327.13 21.5157 321.155 33.1783 320.701 34.0189C311.531 51.0008 299.729 66.3301 289.888 82.8995C276.27 105.828 260.723 127.557 247.062 150.488C239.597 163.017 230.945 174.58 223.005 186.764C216.86 196.193 209.564 204.697 203.487 214.142C198.285 222.227 178.722 243.541 185.228 236.465C196.211 224.521 202.158 207.495 210.557 193.79C220.034 178.326 231.268 164.115 241.288 149.028C250.433 135.258 259.048 121.073 267.754 107.022C281.184 85.3468 296.47 64.8961 311.566 44.3659C317.648 36.0951 323.729 27.1123 331.097 19.898C332.128 18.8883 335.491 16.2836 336.739 16.2837" stroke="black" stroke-opacity="0.21" stroke-linecap="round" stroke-linejoin="round"/>
<path d="M332.756 12.9849C332.445 11.8639 330.879 10.0696 332.329 12.425C336.832 19.7383 341.394 27.0557 346.048 34.2732C355.658 49.1778 362.873 65.4483 372.233 80.4532C381.697 95.624 391.055 110.899 400.632 125.995C416.34 150.753 427.244 179.504 445.744 202.389C448.72 206.07 457.277 217.356 454.825 213.308C448.244 202.447 440.262 192.271 432.944 181.905" stroke="black" stroke-opacity="0.21" stroke-linecap="round" stroke-linejoin="round"/>
<path d="M379.882 101.258C376.015 95.3101 372.269 89.2551 368.847 83.0374C366.734 79.1974 373.702 90.3451 375.906 94.1338C390.438 119.111 405.398 144.199 422.204 167.724C433.054 182.913 443.878 198.301 454.204 213.846C457.272 218.466 460.751 222.812 464.028 227.285C464.992 228.601 466.789 232.201 468.621 232.543" stroke="black" stroke-opacity="0.21" stroke-linecap="round" stroke-linejoin="round"/>
<path d="M184.578 247.905C184.038 248.078 180.762 248.187 180.579 248.683C180.335 249.341 185.754 249.202 186.19 249.168C193.426 248.609 200.86 245.202 207.689 243.011C219.784 239.13 231.841 235.408 244.211 232.505C269.765 226.508 294.852 218.946 320.011 211.502C323.434 210.49 330.632 209.627 333.341 206.996C336.113 204.304 325.601 207.47 321.837 208.327C302.077 212.823 283.438 222.388 263.593 225.978C263.092 226.068 254.185 227.292 256.729 225.607C262.261 221.94 269.84 220.381 276.047 218.311C296.619 211.447 317.68 206.833 338.425 200.668C340.825 199.955 345.729 199.165 347.476 197.119C348.383 196.057 341.723 197.026 341.305 197.159" stroke="black" stroke-opacity="0.21" stroke-linecap="round" stroke-linejoin="round"/>
<path d="M341.711 196.979C341.711 194.292 344.132 196.838 346.528 197.805C363.639 204.712 381.41 210.32 398.829 216.43C417.299 222.91 435.745 229.395 454.249 235.77C459.194 237.474 464.044 239.226 468.754 241.493C471.991 243.05 472.133 242.896 469.037 241.045C456.624 233.624 442.541 228.509 429.062 223.426C419.698 219.895 410.347 216.271 401.15 212.328C398.673 211.266 396.11 209.305 393.463 208.691C389.613 207.798 400.775 211.67 404.431 213.157C414.005 217.051 423.518 221.085 433.082 225.004C443.213 229.155 453.459 232.946 463.797 236.557C467.751 237.938 472.77 239.257 476.126 241.866" stroke="black" stroke-opacity="0.21" stroke-linecap="round" stroke-linejoin="round"/>
<path d="M222.736 214.099C216.583 218.815 225.976 199.495 226.552 198.117C229.44 191.202 232.412 179.218 238.839 174.627C243 171.653 241.964 179.194 241.731 181.307C240.75 190.203 237.539 198.891 235.051 207.436C233.766 211.848 232.515 216.27 231.222 220.68C231.156 220.906 229.998 225.091 230.334 224.982C235.042 223.464 239.614 212.795 241.527 209.024C249.246 193.806 255.558 177.73 262.429 162.115C266.064 153.853 269.392 142.498 275.381 135.493C275.516 135.335 273.049 147.015 272.245 149.162C268.084 160.281 263.145 171.169 258.03 181.874C257.483 183.019 249.001 200.633 250.523 200.943C263.426 203.564 272.741 170.982 275.252 163.311C280.146 148.363 283.395 133.017 285.828 117.486C286.673 112.091 287.425 106.687 288.519 101.335C288.802 99.9535 288.99 95.8724 289.444 97.2073C290.355 99.8874 285.479 107.796 284.472 110.11C280.1 120.16 275.464 130.086 271.061 140.119C270.404 141.615 261.501 159.007 262.894 160.243C263.275 160.581 273.313 142.206 273.766 141.266C281.395 125.43 289.245 109.715 297.049 93.9664C302.643 82.6768 307.761 70.8442 313.913 59.8587C314.952 58.0038 318.551 52.3765 315.675 57.642C312.152 64.0941 308.922 70.6126 306.243 77.4651C305.836 78.5084 301.42 88.8418 304.017 88.4879C308.1 87.9313 311.301 81.9054 313.102 78.8262C317.759 70.8631 320.85 61.934 324.859 53.6314C326.644 49.9353 328.295 46.1459 330.23 42.5251C330.267 42.4552 331.766 40.1873 331.835 40.5152C332.598 44.1139 330.301 49.1424 329.407 52.5212C327.609 59.3232 324.798 65.8273 323.321 72.7163C323.09 73.7963 321.302 81.8824 324.523 78.139C328.836 73.1277 330.765 65.339 333.328 59.3543C335.198 54.9864 336.663 48.4923 339.802 44.8245C342.587 41.5714 339.595 53.434 338.735 57.63C336.982 66.1805 335.071 74.7978 334.481 83.5276C334.359 85.3339 334.389 91.2455 337.502 87.5823C341.141 83.2998 342.411 76.7829 344.064 71.5797C344.284 70.8859 348.375 60.3592 348.845 61.1509C350.819 64.4738 349.295 72.6911 349.025 76.2905C348.472 83.644 347.767 90.9657 347.85 98.3506C347.872 100.299 348.028 107.774 351.528 107.465C355.143 107.147 356.658 98.6765 357.212 96.1515C358.352 90.948 358.724 85.5614 359.944 80.3881C360.868 76.4689 360.637 88.4119 360.982 92.424C362.26 107.272 363.92 123.877 370.517 137.419C375.128 146.883 379.136 128.223 380.013 124.555C380.206 123.75 382.435 115.761 382.997 117.427C385.719 125.488 385.073 135.551 386.601 143.934C389.311 158.795 394.626 172.592 400.7 186.335C402.684 190.824 406.73 202.614 413.207 203.038C419.124 203.427 419.039 193.41 418.361 189.384C416.491 178.277 409.206 169.158 403.284 159.971C402.104 158.14 386.772 135.728 384.647 137.166C379.468 140.669 401.157 170.735 402.965 173.534C409.56 183.742 415.639 194.247 422.425 204.333C422.712 204.761 429.788 214.379 430.228 212.653C431.089 209.276 426.643 204.031 424.911 201.563C419.997 194.56 413.851 187.996 407.823 181.954C400.233 174.347 391.401 168.143 382.905 161.602C381.087 160.204 374.67 155.619 374.231 160.313C373.203 171.308 385.327 180.832 392.591 187.353C393.074 187.786 397.712 191.054 396.129 190.14C392.988 188.325 390.311 186.103 387.681 183.601C383.044 179.189 376.274 171.987 372.843 180.785C372.454 181.784 368.705 190.735 369.246 190.949C371.423 191.812 373.718 191.609 370.199 190.547C362.168 188.124 352.049 187.969 343.858 189.187C328.682 191.444 311.274 193.117 297.215 199.314C290.941 202.08 284.954 205.437 278.104 206.563C272.814 207.433 268.329 206.122 263.234 205.168C260.29 204.616 257.818 205.091 256.502 208C255.867 209.406 255.389 211.836 257.743 210.529C267.318 205.209 276.14 191.982 280.505 182.415C281.899 179.36 289.483 165.166 279.822 168.815C270.685 172.266 262.133 181.521 257.056 189.594C254.883 193.05 255.276 192.909 257.066 189.332C260.499 182.471 263.507 175.341 266.653 168.344C268.426 164.402 270.867 154.958 275.282 153.115C278.333 151.84 277.493 162.318 277.493 163.451C277.492 170.379 276.746 177.145 275.872 184.011C275.242 188.965 273.278 197.805 275.816 202.505C278.553 207.573 288.01 181.704 288.855 179.915C294.879 167.156 295.27 185.797 295.279 190.731C295.287 195.444 293.263 201.481 299.823 197.965C304.851 195.271 308.584 189.879 314.891 190.727C317.979 191.142 320.741 192.869 323.899 193.273C327.604 193.746 331.358 193.831 335.088 193.898C339.33 193.974 343.963 194.456 348.115 193.449C352.935 192.28 357.606 189.928 362.592 189.548C372.882 188.764 377.89 194.488 383.713 202.042C389.457 209.493 396.114 212.378 405.021 214.545C408.105 215.295 433.571 220.588 433.631 214.608C433.651 212.688 432.643 211.78 431.492 210.304C427.268 204.892 422.833 199.648 418.662 194.193C402.308 172.801 386.668 150.164 373.183 126.91C367.287 116.742 362.504 105.674 359.378 94.3363C358.662 91.7404 357.82 87.7666 354.58 87.2844C353.227 87.0831 357.291 88.0373 358.353 88.8995C365.141 94.409 370.409 104.731 375.008 112.002C383.749 125.822 391.255 140.537 401.05 153.654C408.445 163.556 415.863 173.63 422.954 183.744C424.542 186.01 442.583 216.157 445.247 214.586" stroke="black" stroke-opacity="0.21" stroke-width="2" stroke-linecap="round" stroke-linejoin="round"/>
<path d="M210.226 126.664C208.462 119.218 208.887 125.261 209.574 129.968C211.85 145.552 215.025 192.433 216.291 176.736C217.423 162.689 214.478 147.71 213.001 133.761C212.658 130.519 210.958 132.083 210.959 128.429C210.959 122.945 215.414 118.099 220.062 115.596C223.494 113.748 227.715 116.987 230.878 115.054C233.85 113.238 233.031 113.275 233.418 118.159C234.361 130.056 235.486 141.929 236.309 153.838C236.503 156.65 237.36 165.461 237.361 157.592" stroke="black" stroke-opacity="0.21" stroke-width="2" stroke-linecap="round" stroke-linejoin="round"/>
<path d="M233.7 117.293C231.112 129.84 232.69 142.296 234.859 154.865" stroke="black" stroke-opacity="0.21" stroke-linecap="round" stroke-linejoin="round"/>
<path d="M280.087 407.777C280.087 407.895 280.09 407.999 280.094 408.088M280.094 408.088C280.114 408.468 280.16 408.549 280.094 408.088ZM280.094 408.088C280.083 408.007 280.068 407.911 280.049 407.796C279.113 402.116 275.634 396.354 273.445 391.132C268.267 378.786 262.958 366.469 257.972 354.035M257.972 354.035C255.636 348.21 253.371 342.358 251.224 336.466C245.857 321.736 242.515 306.832 238.803 291.667C236.457 282.082 233.442 272.768 231.463 263.071C230.268 257.211 230.016 251.215 228.927 245.336C228.458 242.806 229.607 243.662 230.449 241.458C231.181 239.542 231.486 237.554 231.585 235.536M257.972 354.035C254.194 340.61 249.692 327.393 246.618 313.767C242.64 296.136 240.054 278.162 236.341 260.461C234.609 252.204 232.785 243.901 231.585 235.536M257.972 354.035C258.672 356.523 259.347 359.018 259.984 361.524C262.764 372.464 263.591 383.701 267.194 394.46M231.585 235.536C231.614 234.956 231.625 234.374 231.625 233.791C231.625 231.078 231.568 228.415 230.953 225.757C230.871 225.401 230.94 230.497 231.065 231.56C231.221 232.887 231.395 234.212 231.585 235.536ZM404.299 402.247C404.299 400.197 404.95 398.052 405.235 396.031C407.334 381.17 410.253 366.61 413.513 351.968C419.953 323.043 423.438 293.902 434.351 266.141C437.472 258.202 438.577 249.795 441.087 241.688C442.607 236.778 444.497 231.998 445.932 227.052C447.842 220.466 443.037 240.462 441.42 247.127C434.754 274.599 430.687 302.388 427.35 330.441M178.547 253.443C175.012 253.641 181.562 246.033 182.399 244.703C193.389 227.243 202.812 208.748 213.035 190.842C224.452 170.844 234.963 150.303 246.248 130.232C256.965 111.171 268.75 93.1484 280.954 75.0417C290.667 60.6287 300.994 46.6627 309.995 31.7785C315.235 23.1126 320.708 14.8796 327.824 7.60851C328.149 7.27648 333.832 2.05469 332.157 4.94944C329.147 10.1498 324.255 14.5699 320.565 19.2748C305.879 38.0045 294.716 59.6982 283.543 80.615M326.308 1C327.038 8.94849 333.946 15.1593 337.644 21.9737C346.681 38.6242 355.485 55.2824 364.989 71.6759C378.055 94.2138 388.955 117.885 404.193 139.177C409.75 146.942 416.188 153.913 421.258 162.057C425.519 168.903 429.834 175.643 434.478 182.241C446.59 199.449 460.146 215.526 472.029 232.923M183.099 250.29C182.34 250.708 178.067 253.005 178.576 252.281C179.598 250.824 181.203 249.859 182.827 249.176C191.101 245.697 200.087 243.389 208.586 240.506C225.205 234.868 241.207 227.743 257.54 221.39C271.676 215.892 285.681 209.812 300.292 205.642C308.576 203.278 316.757 201.009 324.888 198.163C328.827 196.784 332.356 194.682 325.514 197.051M344.026 197.602C343.953 197.601 343.855 197.601 343.736 197.601M343.736 197.601C341.644 197.6 332.998 197.618 332.998 195.183C332.998 194.555 332.314 193.903 331.472 193.345M343.736 197.601C339.045 196.045 334.407 194.462 331.472 193.345M343.736 197.601C351.471 200.168 359.349 202.663 359.972 202.883C380.951 210.296 401.853 217.14 423.281 223.121C438.366 227.331 454.007 230.359 468.95 234.975M331.472 193.345C330.127 192.454 328.375 191.804 328.361 191.881C328.325 192.068 329.523 192.604 331.472 193.345ZM266.085 232.923C264.001 233.307 272.609 270.665 273.971 274.997M266.788 236.883C267.658 234.369 268.611 233.511 271.501 232.775C281.59 230.205 292.996 232.025 301.96 225.867C304.666 224.008 304.145 221.762 304.842 226.573L304.98 227.524C306.286 236.527 307.592 245.532 308.846 254.542C309.521 259.385 311.259 273.724 311.941 268.882M273.117 278.076C261.996 276.152 295.619 276.424 306.81 274.997M370.465 225.6C370.465 222.657 370.309 220.796 370.701 225.638C371.819 239.429 369.339 254.279 371.461 267.814M373.399 220.647C368.001 220.647 375.337 220.397 377.756 221.165C386.367 223.898 395.495 226.528 403.475 230.895C407.146 232.904 410.019 236.719 413.617 238.663M413.617 238.663C413.819 238.772 414.023 238.876 414.229 238.972C414.99 239.328 414.221 235.797 414.111 235.289L414.108 235.276C413.581 232.853 413.696 237.861 413.637 238.458C413.631 238.527 413.624 238.595 413.617 238.663ZM413.617 238.663C412.905 245.598 410.744 252.374 409.514 259.221C409.283 260.504 408.317 272.797 407.168 272.945M367.405 264.429C360.214 263.227 373.662 263.821 375.163 264.145C387.857 266.892 398.62 273.251 410.457 278.076M330.412 342.387V340.989C330.412 347.975 331.539 354.857 332.352 361.774C333.99 375.702 337.596 417.551 337.596 403.511M331.439 342.788C331.439 338.902 335.439 342.151 339.178 342.708C343.989 343.424 349.795 344.321 354.614 343.279C358.132 342.518 360.215 340.139 363.251 338.622M363.473 335.543C358.839 353.57 368.378 373.966 371.461 391.985M370.64 381.723C369.363 381.59 374.413 404.539 375.566 407.378M16.1359 421.745C15.4876 421.745 14.306 420.679 13.6203 420.453C13.411 420.384 13.2023 420.32 12.9941 420.261M12.9941 420.261C10.7983 419.637 8.64802 419.537 6.3214 419.537C4.62301 419.537 -0.0986831 418.792 1.23388 419.806C3.13345 421.251 8.45464 420.826 12.9941 420.261ZM12.9941 420.261C15.6988 419.924 18.126 419.537 19.3865 419.466C50.0935 417.727 80.9183 418.821 111.656 417.811C130.244 417.2 148.755 417.736 167.339 417.943C185.94 418.151 204.524 417.269 223.122 417.269C302.591 417.269 381.784 413.389 461.218 411.668C483.07 411.194 504.824 411.84 526.639 410.068C551.452 408.053 576.376 406.064 601.279 405.526C626.802 404.974 652.348 405.739 677.873 405.739C700.299 405.739 722.616 405.583 745 407.033M414.199 340.789C405.67 345.017 431.76 333.392 440.381 329.35C463.57 318.478 486.274 306.247 509.999 296.548M503.895 291.685C503.895 289.278 503.595 286.09 504.413 290.648C507.125 305.763 507.795 321.442 509.155 336.711C510.914 356.455 512.783 376.106 515.687 395.722C516.417 400.656 517.984 415.455 518.208 410.472M425.009 373.972C425.433 371.567 425.045 369.036 425.315 366.602C425.397 365.863 425.731 360 425.719 363.146C425.672 375.173 425.556 387.232 425.252 399.254C425.208 400.986 423.999 422.475 425.85 411.41M426.879 363.251C426.879 362.068 426.739 361.879 428.242 361.631C434.591 360.583 440.641 358.571 446.548 356.123C456.216 352.114 465.329 346.615 475.745 344.473C477.955 344.018 481.17 343.215 483.317 344.281M477.232 337.943C476.554 335.522 480.901 346.513 481.322 347.926C485.868 363.203 488.132 379.086 490.788 394.756C491.418 398.469 491.948 411.038 495.632 413.535M440.188 377.514C437.365 377.787 433.455 377.626 438.68 375.762C442.889 374.261 474.081 366.228 474.081 368.935M446.836 383.622C441.905 384.364 450.724 382.178 451.72 381.999C458.071 380.854 464.523 379.67 471.003 379.67M444.321 393.011C455.045 393.011 465.532 389.932 476.134 389.932M216.881 133.661C216.872 132.572 216.659 130.682 216.235 128.925M216.235 128.925C215.876 127.437 215.366 126.044 214.701 125.313C214.498 125.09 214.451 127.92 214.451 128.136C214.451 135.249 214.989 142.216 215.72 149.291C216.439 156.246 217.288 163.199 218.163 170.136C218.68 174.237 218.335 166.707 218.3 165.866C217.798 153.509 216.563 141.276 216.235 128.925ZM216.235 128.925C216.183 126.969 216.154 125.011 216.154 123.048C216.154 121.966 216.543 127.457 216.906 128.88C217.956 133.004 222.154 127.101 223.231 125.884C225.556 123.255 228.137 120.811 230.146 117.914C230.929 116.787 232.219 112.832 231.822 114.148C229.508 121.82 230.999 131.839 231.725 139.615M129.476 373.439C129.476 363.61 130.601 393.097 132.117 402.811C132.279 403.845 133.342 404.662 133.342 405.709C133.342 409.675 133.263 407.38 135.075 403.904C137.338 399.56 140.096 395.271 143.336 391.57C145.191 389.452 144.699 392.307 144.276 393.652C142.786 398.386 139.209 401.938 136.375 405.898C135.561 407.035 133.856 411.098 133.029 408.67C132.428 406.906 130.437 405.187 129.463 403.6C127.395 400.231 124.238 391.728 120.04 390.668M158.192 393.279C157.85 387.381 157.28 403.119 157.921 410.756M157.921 410.756C157.956 411.164 157.993 411.55 158.035 411.908M157.921 410.756C156.042 408.652 153.836 405.5 153.347 404.796C153.183 404.559 152.657 403.874 152.059 403.053M157.921 410.756C158.149 411.011 158.372 411.25 158.586 411.468M158.035 411.908C158.067 412.181 158.1 412.438 158.137 412.676C158.353 414.11 158.476 413.567 158.546 412.379M158.035 411.908C158.211 412.088 158.382 412.247 158.546 412.379M158.035 411.908C157.032 410.88 155.894 409.188 155.343 408.35C154.203 406.615 153.102 404.848 152.059 403.053M158.546 412.379C158.562 412.104 158.575 411.795 158.586 411.468M158.546 412.379C159.077 412.804 159.523 412.928 159.751 412.471M158.586 411.468C158.638 409.933 158.637 408 158.637 407.361V407.311C158.637 405.058 159.816 410.042 159.874 410.671C159.959 411.592 159.904 412.164 159.751 412.471M158.586 411.468C159.019 411.907 159.417 412.259 159.751 412.471M159.751 412.471C160.328 412.839 160.713 412.791 160.754 412.066C160.927 408.955 165.491 396.917 170.324 398.709M152.059 403.053C151.901 402.782 151.745 402.51 151.591 402.238C150.997 401.194 150.249 397.981 149.818 399.101C149.628 399.596 150.964 401.551 152.059 403.053ZM103.784 396.864C103.784 391.664 103.185 399.204 103.548 400.958C103.952 402.908 104.46 406.452 104.925 409.676M104.925 409.676C105.072 410.695 105.214 411.682 105.348 412.577M104.925 409.676C103.131 409.362 101.696 408.976 100.477 408.306M104.925 409.676C105.012 409.691 105.1 409.706 105.19 409.721C106.033 409.863 109.709 409.877 110.774 410.63M105.348 412.577C105.843 415.903 106.212 417.949 106.212 415.606C106.212 414.191 106.487 413.304 105.348 412.577ZM105.348 412.577C105.204 412.485 105.037 412.396 104.844 412.308C103.111 411.52 101.72 409.892 100.477 408.306M100.477 408.306C100.031 407.736 99.6038 407.172 99.1871 406.653C98.8629 406.25 95.4189 401.819 96.7361 404.241C97.8368 406.265 98.9983 407.494 100.477 408.306ZM110.774 410.63C111.13 410.882 111.194 411.217 110.758 411.668C110.484 411.952 110.531 411.5 110.774 410.63ZM110.774 410.63C111.525 407.933 114.153 401.214 114.909 399.891M189.473 410.457C188.495 405.172 182.556 401.776 180.098 397.364C176.77 391.389 169.228 358.437 185.689 364.9C190.976 366.976 201.403 380.914 198.876 375.777C195.248 368.404 190.252 361.286 188.044 352.78C186.268 345.94 184.76 335.028 193.736 335.028C196.906 335.028 198.634 336.104 199.636 338.14M199.636 338.14C200.297 339.483 200.641 341.242 200.876 343.385C201.065 345.121 201.056 347.465 200.494 344.196C200.166 342.287 199.853 340.234 199.636 338.14ZM199.636 338.14C199.252 334.423 199.172 330.579 199.856 327.186C200.55 323.748 203.571 315.75 208.17 316.054C210.855 316.232 213.181 322.334 213.951 324.497C215.003 327.451 214.996 330.485 214.989 333.57M214.989 333.57C214.988 333.822 214.987 334.075 214.987 334.328C214.987 336.227 214.945 334.81 214.989 333.57ZM214.989 333.57C215.007 333.051 215.04 332.563 215.098 332.361C215.625 330.521 217.418 326.965 219.671 326.885C223.431 326.751 223.742 333.891 223.794 336.527C223.819 337.762 224.438 343.905 223.072 345.719M223.072 345.719C222.892 345.958 222.677 346.122 222.421 346.19C222.398 346.196 222.664 345.983 223.072 345.719ZM223.072 345.719C223.717 345.301 224.719 344.756 225.494 344.751C233.072 344.698 235.238 356.213 234.38 362.114C234.249 363.015 234.055 363.645 233.853 364.072M233.853 364.072C233.139 365.579 232.328 364.567 233.853 364.072ZM233.853 364.072C234.383 363.9 235.195 363.79 236.392 363.871C243.391 364.343 244.57 381.893 245.288 387.039C245.454 388.228 246.583 386.201 246.738 385.923L246.739 385.921C248.28 383.155 250.556 384.31 251.661 386.706C254.087 391.967 254.473 398.29 254.473 404.006C254.473 404.842 254.071 412.915 252.859 408.709M218.254 391.985C212.895 391.985 221.461 384.199 222.39 383.435C224.735 381.505 227.529 378.949 229.379 382.391C230.829 385.087 233.123 386.087 236.001 384.613M211.654 371.461C210.359 366.629 213.782 363.377 216.685 359.46C219.998 354.991 222.51 358.225 226.766 358.225M208.294 357.094C202.691 357.094 201.817 354.538 199.058 349.91M329.468 90.7076C329.468 85.0588 320.97 90.9912 319.312 92.2188C305.782 102.236 305.783 122.83 305.783 137.885V138.178C305.783 148.832 310.306 160.136 320.155 165.441C329.516 170.484 339.181 164.124 344.927 156.61C354.343 144.298 356.692 126.056 353.997 111.162C352.352 102.069 348.95 96.884 341.757 91.1721C337.335 87.6612 330.304 83.3564 324.441 83.0966M331.439 83.0966C330.216 84.4896 329.587 84.5369 329.485 86.856C329.09 95.8748 330.436 104.893 330.57 113.915C330.725 124.307 330.475 134.52 329.044 144.855C328.136 151.411 326.266 158.648 328.132 165.193M311.087 131.328C310.99 131.056 309.529 130.451 309.972 130.203C313.134 128.439 318.158 128.325 321.635 127.191C327.909 125.146 334.165 122.335 340.753 121.499C344.886 120.975 348.898 120.947 352.989 120.04" stroke="black" stroke-linecap="round" stroke-linejoin="round"/>
</svg>
