<svg width="32" height="32" viewBox="0 0 32 32" fill="none" xmlns="http://www.w3.org/2000/svg">
<path d="M1.51718 24.487C1.51718 23.2682 1.46304 22.0521 1.41747 20.8354M1.41747 20.8354C1.39365 20.1997 1.37217 19.5639 1.36198 18.9274M1.41747 20.8354C1.42151 21.1533 1.42644 21.4711 1.42644 21.7891C1.42644 21.9347 1.50827 22.3327 1.41806 22.2257C1.37648 22.1764 1.41701 21.8867 1.41701 21.8251C1.41701 21.3253 1.41115 20.8261 1.39318 20.3266C1.37639 19.86 1.36711 19.3937 1.36198 18.9274M1.41747 20.8354C1.41481 20.6269 1.41254 20.4184 1.4123 20.2099C1.40975 18.0686 1.44058 15.9298 1.44058 13.7899C1.44058 12.5099 1.55961 11.2304 1.55961 9.95404C1.55961 9.03624 1.40522 8.10982 1.38899 7.19706C1.37519 6.42097 1.50135 5.56393 1.64813 4.80214C1.88219 3.58737 2.61239 2.81227 3.55838 2.13788M1.36198 18.9274C1.35799 18.6783 1.35573 18.4292 1.35573 18.18V17.5144M1.36198 18.9274C1.3568 18.4565 1.35587 17.9856 1.35573 17.5144M1.35573 17.5144V17.0228C1.35573 17.1867 1.35568 17.3506 1.35573 17.5144ZM1.265 5.76874C1.27754 6.03646 1.32617 5.23627 1.37486 4.97355C1.53543 4.1071 1.79886 3.25143 2.45079 2.68568C3.06327 2.15416 3.59368 1.94681 4.35141 1.92881C5.08583 1.91137 5.82141 1.73651 6.55178 1.65524C7.58435 1.54033 8.621 1.46543 9.65437 1.35834C10.443 1.27661 11.2385 1.18178 12.0323 1.18013M12.0323 1.18013C12.3106 1.17955 12.5886 1.19042 12.866 1.2173C13.1227 1.24218 13.8946 1.22908 13.6388 1.19505C13.2235 1.1398 12.7986 1.14188 12.3735 1.15001M12.0323 1.18013C12.1459 1.16925 12.2596 1.15923 12.3735 1.15001M12.0323 1.18013C11.7394 1.20817 11.4476 1.24184 11.157 1.2818C9.52272 1.50653 14.45 1.18517 16.0968 1.14576C16.3287 1.14021 16.5607 1.13858 16.7926 1.13977M12.3735 1.15001C12.0859 1.15551 11.7981 1.16378 11.5132 1.15895M12.3735 1.15001C13.5442 1.0552 14.7296 1.04575 15.9128 1.07967M11.5132 1.15895C11.4222 1.15741 11.3314 1.15453 11.2411 1.1498C10.0816 1.08906 8.91495 0.933555 7.75328 1.03171C7.29845 1.07015 6.45017 1.01707 6.03788 1.27137C5.6465 1.51277 6.93405 1.35812 7.38329 1.35812C8.76587 1.35812 10.1381 1.26976 11.5132 1.15895ZM11.5132 1.15895C11.8797 1.12942 12.2464 1.09829 12.6136 1.06681C13.7268 0.97139 14.8184 1.01042 15.9128 1.07967M15.9128 1.07967C16.2057 1.09821 16.4988 1.11891 16.7926 1.13977M15.9128 1.07967C16.4825 1.09601 17.0517 1.1224 17.6186 1.15416M16.7926 1.13977C17.2203 1.17015 17.6495 1.20088 18.0815 1.22579C18.8114 1.2679 19.5429 1.30088 20.2741 1.32515M16.7926 1.13977C17.0679 1.14118 17.3433 1.14659 17.6186 1.15416M20.2741 1.32515C20.5429 1.33407 20.8117 1.34181 21.0803 1.34839C21.3209 1.35429 21.1662 1.35997 21.0213 1.35705C20.7724 1.35202 20.5232 1.34005 20.2741 1.32515ZM20.2741 1.32515C20.0307 1.31058 19.7875 1.29321 19.5448 1.27675C18.9076 1.23353 18.2646 1.19035 17.6186 1.15416M17.6186 1.15416C18.8793 1.18883 20.1397 1.26904 21.3993 1.22063C23.1814 1.15215 24.9421 1.1322 26.7198 1.31168C27.5586 1.39638 28.0095 1.86671 28.7349 2.26484C29.2188 2.53043 29.4999 2.73352 29.5478 3.37128C29.6162 4.28332 29.689 4.9828 30.1329 5.77938M30.1093 3.61324C30.1402 3.59702 30.1423 3.56393 30.1423 3.53004C30.1423 3.30315 30.1748 3.98265 30.2023 4.20752C30.3102 5.08899 30.4031 5.97002 30.4811 6.85183M30.4811 6.85183C30.5444 7.5657 30.5979 8.28009 30.6419 8.99562M30.4811 6.85183C29.8946 8.96091 30.1992 11.4222 30.3781 13.5692C30.388 13.6879 30.3977 13.8067 30.4073 13.9256M30.4811 6.85183C30.4982 6.79049 30.516 6.72945 30.5346 6.66872C30.5648 6.57027 30.6927 6.12834 30.6927 6.45626C30.6927 7.11351 30.6788 7.76822 30.6598 8.42513C30.6543 8.61543 30.6483 8.80559 30.6419 8.99562M30.6419 8.99562C30.7 9.93854 30.7416 10.8835 30.767 11.8319C30.7961 12.9144 30.8371 13.9926 30.9041 15.0731C30.9423 15.6881 31.0998 16.5467 30.9033 17.1487C30.7855 17.5095 30.6902 16.7655 30.6808 16.6987C30.5521 15.7814 30.482 14.8509 30.4073 13.9256M30.6419 8.99562C30.5866 10.6443 30.5003 12.2835 30.4073 13.9256M30.4073 13.9256C30.3656 14.6614 30.3226 15.3979 30.2804 16.1361C30.2359 16.9161 30.2045 17.6996 30.1698 18.4835M30.1698 18.4835C30.1085 19.8695 30.037 21.2564 29.8651 22.6266C29.8564 22.6961 29.7043 23.4604 29.6897 23.2402C29.6405 22.4944 29.6669 21.7178 29.6968 20.9722C29.7499 19.652 30.0763 18.3231 30.0763 17.0107C30.0763 15.8649 30.1203 16.8525 30.1698 18.4835ZM30.1698 18.4835C30.2266 20.3551 30.2906 23.0738 30.3038 24.3885C30.3204 26.055 30.7614 28.0339 29.3609 29.1308M29.091 29.2662C28.517 29.5434 27.9775 29.5777 27.3563 29.5777M28.787 29.6551C28.9693 29.8754 29.0162 29.1616 29.0168 29.1485C29.0179 29.1255 29.0197 29.1025 29.022 29.0796M29.022 29.0796C29.098 28.326 29.8031 27.6019 30.1559 26.971C30.3238 26.6708 30.043 27.4521 30.0113 27.5107C29.7193 28.0504 29.3927 28.5871 29.022 29.0796ZM29.022 29.0796C28.7728 29.4106 28.5037 29.7217 28.2118 30.0004C27.5741 30.6093 27.1124 30.75 26.3065 30.9051C25.2154 31.1151 23.9691 30.9273 22.8761 30.814C21.5882 30.6805 20.273 30.6584 18.979 30.6584C17.1965 30.6584 15.4223 30.4873 13.646 30.39M13.646 30.39C13.2576 30.3687 12.8691 30.351 12.4803 30.3393M13.646 30.39C12.7462 30.4468 11.8463 30.5044 10.9463 30.5528C9.82102 30.6134 8.73679 30.5733 7.6478 30.4468M13.646 30.39C13.9068 30.3735 14.1676 30.3571 14.4284 30.341M12.4803 30.3393C11.8615 30.3207 11.242 30.3176 10.6216 30.3402M12.4803 30.3393C13.1297 30.3398 13.779 30.3408 14.4284 30.341M12.4803 30.3393C11.8608 30.3388 11.2412 30.3388 10.6216 30.3402M10.6216 30.3402C10.4131 30.3478 10.2044 30.3584 9.99559 30.3722C9.73892 30.3892 9.48463 30.3972 9.23198 30.3981M10.6216 30.3402C10.5229 30.3405 10.4242 30.3407 10.3254 30.3411C9.96006 30.3422 9.596 30.3699 9.23198 30.3981M9.23198 30.3981C7.99699 30.4023 6.8014 30.2348 5.56016 30.101C5.1804 30.0601 4.79597 29.8882 4.42106 29.8689C3.91408 29.8429 5.41755 30.0808 5.91738 30.1772C6.49996 30.2896 7.07454 30.3801 7.6478 30.4468M9.23198 30.3981C8.72853 30.4371 8.22515 30.4773 7.71843 30.4504C7.69488 30.4491 7.67134 30.4479 7.6478 30.4468M7.6478 30.4468C6.93436 30.4111 6.22358 30.4106 5.50883 30.4088C4.84366 30.4071 4.32057 30.1254 3.751 29.7857C3.39815 29.5753 2.94655 29.4905 2.78959 29.0318C2.70714 28.7908 2.69043 28.5335 2.58989 28.2974C2.45677 27.9848 2.25551 27.7133 2.12922 27.3958C1.97353 27.0044 1.94475 26.5693 1.83577 26.1622C1.7153 25.7122 1.48578 25.3585 1.29038 24.9502C1.11619 24.5863 0.80709 23.7764 1.16598 23.4315M14.4284 30.341C15.1055 30.2992 15.7826 30.2594 16.4599 30.2258C17.0386 30.1971 17.6179 30.1901 18.1971 30.1901C18.2699 30.1901 18.6746 30.1946 18.3805 30.2208C17.1505 30.3304 15.9052 30.3411 14.672 30.3411C14.5908 30.3411 14.5096 30.3411 14.4284 30.341ZM1.68222 23.5931C1.6851 23.5869 1.68922 23.5776 1.69419 23.5659M1.69419 23.5659C1.74016 23.4577 1.85812 23.1413 1.72465 23.1413C1.67717 23.1413 1.64253 23.1794 1.61703 23.2368M1.69419 23.5659C1.73671 23.8888 1.74283 24.3036 1.74907 24.3741C1.8247 25.2279 1.84613 26.085 1.81172 26.9417M1.69419 23.5659C1.67605 23.4282 1.65127 23.3071 1.61703 23.2368M1.61703 23.2368C1.5503 23.387 1.54609 23.6696 1.53818 23.7488C1.53162 23.8146 1.52542 23.8805 1.5196 23.9466M1.61703 23.2368C1.59847 23.1987 1.57714 23.1755 1.55258 23.1725C1.51752 23.1683 1.51213 23.5148 1.5196 23.9466M1.5196 23.9466C1.42254 25.0487 1.42965 26.1952 1.57956 27.2856C1.69694 28.1395 1.77536 27.695 1.80361 27.1228C1.80659 27.0625 1.80929 27.0021 1.81172 26.9417M1.5196 23.9466C1.53124 24.6196 1.57409 25.4999 1.58453 25.5834C1.64146 26.0387 1.71901 26.4922 1.81172 26.9417M1.81172 26.9417C1.87966 27.2712 1.95574 27.5986 2.03781 27.9231C2.13451 28.3055 2.20426 28.8658 2.60147 28.9857M24.826 5.38466C24.8728 5.38466 24.908 5.38108 24.9336 5.37463M24.9336 5.37463C25.0968 5.33358 24.8731 5.17621 24.7893 5.08464C24.748 5.03945 24.7035 4.99843 24.6565 4.96117M24.9336 5.37463C24.9478 5.38317 24.9619 5.39167 24.9762 5.40014C25.2392 5.55632 25.5935 5.71225 25.8084 5.96112M24.9336 5.37463C24.5673 5.15297 24.2511 4.911 23.8899 4.77531M24.6565 4.96117C24.3486 4.71737 23.9307 4.63491 23.5666 4.60323C22.6885 4.52682 21.9969 4.86036 21.3547 5.50699C20.7006 6.16568 20.027 7.36555 20.3789 8.38258C20.4436 8.56984 20.5203 8.77117 20.6104 8.97286M24.6565 4.96117C25.1412 5.15024 25.5695 5.47567 25.8084 5.96112M24.6565 4.96117C24.4098 4.86494 24.1484 4.80402 23.8899 4.77531M20.6104 8.97286C20.612 8.9765 20.6136 8.98014 20.6153 8.98378M20.6104 8.97286C20.61 8.966 20.6096 8.95913 20.6092 8.95226M20.6104 8.97286C20.6531 9.66397 20.9272 10.2898 21.5523 10.6883M20.6153 8.98378C20.9397 9.70662 21.4353 10.4308 22.1649 10.5242C22.9916 10.6301 24.2831 10.3095 25.0444 9.75242M20.6153 8.98378C20.6132 8.97329 20.6112 8.96278 20.6092 8.95226M20.6153 8.98378C20.7419 9.62238 21.053 10.2107 21.5523 10.6883M25.0444 9.75242C25.1115 9.70332 25.1745 9.65239 25.2327 9.59975C25.609 9.25922 25.853 8.65598 25.9665 8.01875M25.0444 9.75242C24.7391 10.156 24.2683 10.5586 23.7588 10.8307M25.0444 9.75242C25.1398 9.6263 25.219 9.50008 25.2782 9.37772C25.5408 8.83493 25.745 8.1843 25.8691 7.53612M25.9665 8.01875C26.0554 7.51904 26.0641 6.99843 25.9933 6.56724M25.9665 8.01875C26.014 8.35549 26.0184 8.69194 25.9738 9.0111C25.876 9.71017 25.0811 10.0842 24.5857 10.3881C24.3096 10.5575 24.0363 10.7127 23.7588 10.8307M25.9665 8.01875C25.9437 7.85732 25.911 7.69581 25.8691 7.53612M25.9933 6.56724C25.977 6.46802 25.9565 6.37355 25.9318 6.28515C25.8997 6.17007 25.8582 6.06213 25.8084 5.96112M25.9933 6.56724C25.9743 6.88001 25.932 7.20775 25.8691 7.53612M25.9933 6.56724C25.9948 6.54297 25.9961 6.51879 25.9973 6.49471C26.0082 6.27512 25.931 6.10301 25.8084 5.96112M23.8899 4.77531C23.772 4.76222 23.6547 4.75582 23.5396 4.75582C23.0851 4.75582 22.6466 4.89461 22.2534 5.13087M23.8899 4.77531C23.6801 4.69654 23.4552 4.65359 23.1964 4.67122C22.8441 4.69521 22.5298 4.87792 22.2534 5.13087M22.2534 5.13087C21.6095 5.51782 21.0873 6.16619 20.8152 6.89443C20.5557 7.5889 20.4857 8.29646 20.6092 8.95226M22.2534 5.13087C21.9056 5.44919 21.6177 5.87874 21.3895 6.24328C20.9116 7.00665 20.5586 8.03526 20.6092 8.95226M21.5523 10.6883C21.6369 10.7691 21.7268 10.8468 21.8222 10.9211C22.3382 11.3228 23.0826 11.1917 23.7588 10.8307M21.5523 10.6883C21.6925 10.7776 21.8503 10.8555 22.0271 10.9201C22.6552 11.1497 23.215 11.0618 23.7588 10.8307M25.8691 7.53612C25.5002 6.13051 24.4157 4.86485 23.0676 5.01606M19.6417 15.6706C19.8244 15.6706 19.8614 15.5859 19.8241 15.4763M19.8241 15.4763C19.804 15.4171 19.762 15.3506 19.7096 15.2862C19.1176 14.5595 18.0774 14.0048 17.2068 13.8321C16.8756 13.7664 16.5626 13.7636 16.2601 13.8003M19.8241 15.4763C20.0994 15.6512 20.3506 15.8565 20.5206 16.2038C20.8766 16.9311 21.3589 17.6964 21.5386 18.506C21.9498 20.3582 21.7961 22.4205 21.1765 24.1834C20.5527 25.9584 18.8671 26.5347 17.3491 27.0888M19.8241 15.4763C19.5266 15.2874 19.201 15.134 18.9195 14.8752C18.4083 14.4052 17.8728 13.9399 17.185 13.8898C16.8929 13.8686 16.579 13.8309 16.2601 13.8003M16.2601 13.8003C15.3106 13.9155 14.4636 14.4192 13.4742 14.5851C12.3549 14.7729 11.3421 15.8913 10.9508 16.9968C10.3186 18.7822 10.0882 20.5346 10.6054 22.3954C11.0374 23.9498 11.9774 25.4402 13.3018 26.2526C13.7343 26.5179 14.1456 26.7923 14.5622 27.0082M16.2601 13.8003C15.7182 13.7483 15.1618 13.717 14.6733 13.8222C13.7177 14.028 12.8294 14.6331 12.0438 15.2424C11.237 15.8682 10.8557 16.6919 10.5053 17.6826C10.082 18.879 9.82529 20.069 9.99484 21.3621C10.1405 22.4727 10.5058 23.5973 10.815 24.6661C11.2632 26.2157 13.2176 26.8875 14.5622 27.0082M14.5622 27.0082C15.2902 27.3854 16.0343 27.5838 16.9363 27.2418C17.0719 27.1904 17.2098 27.1397 17.3491 27.0888M14.5622 27.0082C14.5982 27.0114 14.6338 27.0142 14.6689 27.0167C15.4232 27.0693 16.2508 26.8942 16.9909 27.0328C17.1145 27.056 17.2333 27.0745 17.3491 27.0888M17.3491 27.0888C17.8446 27.1502 18.2856 27.1346 18.8213 27.0748C19.3611 27.0146 19.8943 26.7556 20.371 26.4814C21.2309 25.9867 21.524 24.6218 21.7285 23.6694L21.7359 23.6347M19.7701 18.7568C19.9271 18.8701 19.848 18.641 19.8257 18.5061C19.7566 18.0888 19.4453 17.8303 19.1826 17.5504C18.5831 16.9116 17.8279 15.9328 16.9285 15.8202C16.4608 15.7617 16.0457 15.8387 15.597 15.9744C15.2201 16.0884 14.8348 16.0935 14.4923 16.3184C13.7565 16.8016 13.192 17.2597 12.7823 18.0838M12.7823 18.0838C12.7616 18.1255 12.7413 18.1681 12.7213 18.2117C12.2273 19.2924 11.9717 20.8981 12.4462 22.014C12.6935 22.5956 12.8419 23.1652 13.2803 23.6214C13.748 24.1081 14.1929 24.5612 14.7774 24.8714C14.8824 24.9271 14.9861 24.9851 15.0898 25.041M12.7823 18.0838C12.8606 17.9812 12.9466 17.8816 13.0411 17.7852C13.7497 17.0623 14.7858 16.2483 15.813 16.5668C16.3504 16.7334 16.8205 16.8151 17.2801 17.1876C17.7938 17.6038 18.2519 17.7064 18.833 17.9161C19.2644 18.0718 19.4345 19.131 19.6485 19.5377C20.0071 20.2192 19.8173 21.0637 19.7424 21.8158M12.7823 18.0838C11.9835 19.1299 11.9836 20.4839 11.9836 21.8271L11.9836 21.8653C11.9836 23.2448 12.905 24.4649 14.0788 24.9481C14.4068 25.0832 14.7487 25.0894 15.0898 25.041M15.0898 25.041C15.4568 25.2389 15.8238 25.4114 16.2511 25.3717C16.845 25.3164 17.4738 24.9885 18.0081 24.7145C19.0912 24.159 19.6253 23.2181 19.7318 21.9311C19.735 21.8929 19.7385 21.8545 19.7424 21.8158M15.0898 25.041C15.4237 24.9936 15.7569 24.8939 16.0755 24.8116C16.8007 24.6244 17.4562 24.3215 18.1305 23.9825C18.7638 23.6642 19.2653 23.3391 19.4976 22.5808C19.5709 22.3415 19.6597 22.0832 19.7424 21.8158M19.7424 21.8158C19.9213 21.2372 20.071 20.6168 19.9705 20.0578C19.7869 19.0363 19.6321 17.9866 18.7444 17.4379C17.9412 16.9414 17.063 16.5958 16.2204 16.1901" stroke="black" stroke-linecap="round" stroke-linejoin="round"/>
</svg>
