<svg width="1261" height="404" viewBox="0 0 1261 404" fill="none" xmlns="http://www.w3.org/2000/svg">
<path d="M739.49 352.733C721.544 351.567 712.105 354.568 694.211 355.703C589.327 362.356 484.168 359.087 379.545 370.179C311.457 377.397 243.509 380.995 175.303 386.128C127.982 389.689 80.9954 397.616 33.6926 400.741C26.2958 401.229 8.49352 405.046 1.34013 401.504C0.605852 401.14 1.28907 392.808 1.28907 392.146C1.28907 362.303 -1.29312 330.146 29.2599 314.995C57.9861 300.751 85.7883 304.168 106.142 329.649C110.784 335.459 115.243 341.784 120.882 346.686C121.231 346.99 125.267 349.987 125.257 349.487C125.136 343.803 120.34 335.71 118.104 330.589C112.645 318.083 109.946 307.007 109.525 293.233C109.033 277.181 105.753 260.708 113.032 245.751C123.415 224.418 144.154 186.845 170.899 186.845C195.747 186.845 221.362 200.793 230.057 225.536C234.259 237.495 234.539 248.048 242.024 258.7C245.025 262.971 244.579 273.75 248.849 276.44C251.307 277.989 250.856 268.675 250.856 267.62C250.856 248.461 246.938 230.629 242.946 211.85C234.315 171.243 221.465 133.497 221.357 91.3951C221.256 51.7343 256.178 12.0696 293.926 2.74471C329.844 -6.12843 376.737 20.0327 388.909 54.2484C394.818 70.8574 398.054 90.5038 398.762 108.104C399.453 125.264 392.866 141.043 386.342 156.669L386.203 157C377.623 177.553 366.273 194.742 365.457 217.391C365.078 227.898 393.247 211.083 398.64 209.807C431.802 201.958 486.34 196.211 511.695 224.623C521.442 235.545 523.998 248.374 529.969 260.763C529.102 254.428 529.393 247.198 529.393 244.482C529.393 224.178 530.413 205.717 543.078 189.188C559.151 168.209 591.986 157.292 616.425 171.87C629.247 179.518 637.946 195.985 644.565 208.838C647.905 215.321 651.313 226.555 657.848 230.83C661.074 232.941 670.031 220.56 672.105 218.835C686.166 207.141 703.167 202.102 721.231 201.251C754.56 199.682 776.344 230.352 782.731 260.076C788.451 286.694 788.658 305.576 769.161 324.686C762.086 331.621 762.062 347.799 750.809 351.136C747.066 352.245 743.385 352.733 739.49 352.733Z" fill="white" fill-opacity="0.75"/>
<path d="M739.49 352.733C721.544 351.567 712.105 354.568 694.211 355.703C589.327 362.356 484.168 359.087 379.545 370.179C311.457 377.397 243.509 380.995 175.303 386.128C127.982 389.689 80.9954 397.616 33.6926 400.741C26.2958 401.229 8.49352 405.046 1.34013 401.504C0.605852 401.14 1.28907 392.808 1.28907 392.146C1.28907 362.303 -1.29312 330.146 29.2599 314.995C57.9861 300.751 85.7883 304.168 106.142 329.649C110.784 335.459 115.243 341.784 120.882 346.686C121.231 346.99 125.267 349.987 125.257 349.487C125.136 343.803 120.34 335.71 118.104 330.589C112.645 318.083 109.946 307.007 109.525 293.233C109.033 277.181 105.753 260.708 113.032 245.751C123.415 224.418 144.154 186.845 170.899 186.845C195.747 186.845 221.362 200.793 230.057 225.536C234.259 237.495 234.539 248.048 242.024 258.7C245.025 262.971 244.579 273.75 248.849 276.44C251.307 277.989 250.856 268.675 250.856 267.62C250.856 248.461 246.938 230.629 242.946 211.85C234.315 171.243 221.465 133.497 221.357 91.3951C221.256 51.7343 256.178 12.0696 293.926 2.74471C329.844 -6.12842 376.737 20.0327 388.909 54.2484C394.818 70.8574 398.054 90.5038 398.762 108.104C399.458 125.385 392.772 141.266 386.203 157C377.623 177.553 366.273 194.742 365.457 217.391C365.078 227.898 393.247 211.083 398.64 209.807C431.802 201.958 486.34 196.211 511.695 224.623C522.504 236.735 524.469 251.192 532.055 264.793C532.248 265.139 538.185 272.873 534.877 271.424C528.464 268.614 529.393 249.337 529.393 244.482C529.393 224.178 530.413 205.717 543.078 189.188C559.151 168.209 591.986 157.292 616.425 171.87C629.247 179.518 637.946 195.985 644.565 208.838C647.905 215.321 651.313 226.555 657.848 230.83C661.074 232.941 670.031 220.56 672.105 218.835C686.166 207.141 703.167 202.102 721.231 201.251C754.56 199.682 776.344 230.352 782.731 260.076C788.451 286.694 788.658 305.576 769.161 324.687C762.086 331.621 762.062 347.799 750.809 351.136C747.066 352.245 743.385 352.733 739.49 352.733Z" stroke="black" stroke-opacity="0.21" stroke-linecap="round" stroke-linejoin="round"/>
<path d="M1092.16 228.977C1092.03 228.737 1091.91 228.458 1091.78 228.137C1086.18 213.678 1081.25 196.991 1081.01 181.452C1080.81 168.576 1083.02 155.377 1088.39 143.591C1093.36 132.698 1102.69 127.004 1113.15 122.034C1123.29 117.215 1134.13 114.489 1145.4 115.08C1155.43 115.605 1165.05 124.453 1171.62 131.31C1178.93 138.936 1182.65 147.235 1185.12 157.411C1185.47 158.851 1187.7 166.227 1187.7 165.78C1187.7 160.836 1191.61 155.455 1193.92 151.341C1198.77 142.733 1205.32 131.186 1216.21 129.721C1235.09 127.184 1251.22 140.637 1257.58 157.436C1263.09 171.97 1259.84 195.439 1241.15 198.489C1236.83 199.193 1239.83 198.458 1242.25 201.018C1247.56 206.642 1251.15 214.002 1251.8 221.743C1253.72 244.458 1235.7 257.061 1213.96 257.061C1204.44 257.061 1192.79 253.807 1184.1 249.82C1181.89 248.804 1178.99 244.607 1179.68 246.965C1184.58 263.952 1191.22 282.401 1176.91 297.29C1163.69 311.049 1131.77 304.622 1119.61 292.662C1112.67 285.833 1106.62 276.361 1101.36 268.33C1094.68 258.13 1075.66 239.793 1092.16 228.977Z" fill="white" fill-opacity="0.75"/>
<path d="M1093.81 227.515C1095.38 229.169 1093.46 232.448 1091.78 228.137C1086.18 213.678 1081.25 196.991 1081.01 181.452C1080.81 168.576 1083.02 155.377 1088.39 143.591C1093.36 132.698 1102.69 127.004 1113.15 122.034C1123.29 117.215 1134.13 114.489 1145.4 115.08C1155.43 115.605 1165.05 124.453 1171.62 131.31C1178.93 138.936 1182.65 147.235 1185.12 157.411C1185.47 158.851 1187.7 166.227 1187.7 165.78C1187.7 160.836 1191.61 155.455 1193.92 151.341C1198.77 142.733 1205.32 131.186 1216.21 129.721C1235.09 127.184 1251.22 140.637 1257.58 157.436C1263.09 171.97 1259.84 195.439 1241.15 198.489C1236.83 199.193 1239.83 198.458 1242.25 201.018C1247.56 206.642 1251.15 214.002 1251.8 221.743C1253.72 244.458 1235.7 257.061 1213.96 257.061C1204.44 257.061 1192.79 253.807 1184.1 249.82C1181.89 248.804 1178.99 244.607 1179.68 246.965C1184.58 263.952 1191.22 282.401 1176.91 297.29C1163.69 311.049 1131.77 304.622 1119.61 292.662C1112.67 285.833 1106.62 276.361 1101.36 268.33C1094.53 257.902 1074.8 238.969 1093.32 228.264C1095.94 226.747 1101.11 225.82 1104.02 227.112C1106.16 228.063 1104.85 226.645 1104.85 224.053" stroke="black" stroke-opacity="0.21" stroke-linecap="round" stroke-linejoin="round"/>
</svg>
