<svg width="51" height="53" viewBox="0 0 51 53" fill="none" xmlns="http://www.w3.org/2000/svg">
<path d="M0.738307 15.8448C0.738307 16.2693 1.04995 14.5373 1.0854 14.3907C1.14261 14.1539 1.20472 13.9172 1.27165 13.6807M1.27165 13.6807C1.77744 11.8936 2.55869 10.123 3.58463 8.5082M1.27165 13.6807C1.37852 11.7204 2.29697 9.97994 3.58463 8.5082M1.27165 13.6807C1.2636 13.8283 1.26015 13.9772 1.2615 14.1272C1.26239 14.2272 1.26712 14.3299 1.27367 14.4345M3.58463 8.5082C4.66929 6.80099 6.02746 5.26796 7.62277 4.07375M3.58463 8.5082C4.20522 7.7989 4.91157 7.15203 5.65415 6.57307M7.62277 4.07375C8.1428 3.68446 8.68804 3.33118 9.25721 3.0196M7.62277 4.07375C7.31655 4.39679 7.02064 4.76607 6.72247 5.14527C6.35729 5.60968 6.00081 6.08636 5.65415 6.57307M7.62277 4.07375C8.12201 3.54707 8.64865 3.14326 9.25721 3.0196M9.25721 3.0196C9.38363 2.9504 9.51124 2.88325 9.64001 2.81822C9.90668 2.68355 13.415 1.30713 12.2664 2.51233C11.7312 3.07389 10.9749 3.34989 10.2951 3.69192C9.06126 4.31273 7.85592 5.03904 6.71069 5.80862C6.35398 6.04833 6.00014 6.30333 5.65415 6.57307M9.25721 3.0196C9.70438 2.92874 10.1958 2.98914 10.753 3.2632M5.65415 6.57307C4.41219 8.31682 3.29633 10.1894 2.35832 12.0881C2.00585 12.8016 1.55511 13.6139 1.27367 14.4345M1.27367 14.4345C1.309 14.9983 1.39742 15.6154 1.22456 16.1377C0.99745 16.8239 1.00317 15.7447 1.01904 15.5606C1.05103 15.1893 1.14452 14.811 1.27367 14.4345ZM11.4009 1.92451C10.9447 1.92451 12.4366 2.79964 12.5121 2.854C14.3825 4.20053 15.926 5.69051 17.2076 7.43018M17.2076 7.43018C17.9369 8.42034 18.5814 9.49138 19.153 10.6629C19.8116 12.013 20.4875 13.5563 20.7557 15.0428C20.7865 15.2133 21.0183 16.4033 20.7964 16.5235C20.6066 16.6263 20.2901 13.993 20.2427 13.7209C20.0522 12.6267 19.5787 11.6362 19.0285 10.678C18.411 9.60253 17.8178 8.51115 17.2076 7.43018ZM17.2076 7.43018C16.8078 6.72203 16.4008 6.01836 15.975 5.32657C15.1628 4.00691 14.146 2.69877 13.4514 1.32057C13.1984 0.818538 12.9005 0.237628 13.4921 0.927973C15.9824 3.83408 17.8745 7.04913 19.6392 10.4275C19.7609 10.6604 21.4278 14.9721 20.9388 15.03M21.4346 16.5331C21.0534 16.5331 21.0275 16.9478 20.6119 16.9723C20.4534 16.9816 20.2959 17.0039 20.1398 17.0377M20.1398 17.0377C20.0201 17.0636 19.9013 17.0964 19.7833 17.1353M20.1398 17.0377C20.4308 16.688 20.7647 16.2705 20.3244 16.6678C20.1472 16.8276 19.9661 16.9826 19.7833 17.1353M20.1398 17.0377C20.0102 17.1935 19.8891 17.3358 19.8488 17.3866C18.9666 18.5 17.8129 19.2967 16.7182 20.1674M19.7833 17.1353C18.1305 17.6802 16.6583 19.4375 15.7396 20.7123C15.7147 20.7468 15.6089 20.8966 15.5353 21.0297M19.7833 17.1353C19.0999 17.706 18.3918 18.2455 17.772 18.8909C17.415 19.2626 17.0787 19.7303 16.7182 20.1674M15.5353 21.0297C15.4769 21.1353 15.4388 21.2305 15.4776 21.2494M15.5353 21.0297C15.5234 20.9715 15.507 20.9438 15.4836 20.9799C15.3827 21.1356 15.1212 21.6196 15.2484 21.4845C15.3235 21.4046 15.4 21.3263 15.4776 21.2494M15.5353 21.0297C15.5431 21.0681 15.549 21.1196 15.5537 21.1747M15.4776 21.2494C15.4923 21.2566 15.5182 21.2528 15.5583 21.2343M15.4776 21.2494C15.5028 21.2244 15.5282 21.1995 15.5537 21.1747M15.5583 21.2343C15.5782 21.2251 15.6018 21.2122 15.6292 21.1952C16.0358 20.944 16.3873 20.5686 16.7182 20.1674M15.5583 21.2343C15.5569 21.2143 15.5554 21.1943 15.5537 21.1747M15.5583 21.2343C15.5663 21.3491 15.5704 21.4648 15.5767 21.5013C15.9662 23.7285 18.1569 25.7744 19.439 27.5134C20.8675 29.4509 22.5416 31.0845 24.4164 32.5866M16.7182 20.1674C16.3167 20.4868 15.923 20.8161 15.5537 21.1747M31.7964 36.6312C31.7964 36.6269 31.7991 36.6206 31.8024 36.6144M31.8024 36.6144C31.8093 36.6018 31.8189 36.5897 31.8146 36.5971C31.8111 36.6033 31.807 36.6091 31.8024 36.6144ZM31.8024 36.6144C31.4836 36.9879 28.7384 35.4009 28.5564 35.3014C27.483 34.7148 26.4249 34.0403 25.4023 33.2954M25.4023 33.2954C22.9935 31.5408 20.7818 29.3956 19.0306 27.0887C18.8377 26.8346 18.5546 25.963 18.5187 26.28C18.4552 26.8394 19.5877 28.0084 19.8832 28.4337C21.1133 30.2037 22.5187 31.5473 24.3685 32.6849C24.6998 32.8886 25.0454 33.094 25.4023 33.2954ZM25.4023 33.2954C27.1716 34.2938 29.2195 35.1936 31.1871 35.3016M32.4443 36.3692C32.2952 36.4436 31.8455 36.6877 32.1032 36.356C32.4026 35.9708 32.7306 35.6146 33.0749 35.2748M33.0749 35.2748C33.6095 34.7474 34.1836 34.2594 34.7516 33.7636C34.9946 33.5515 35.2441 33.3319 35.4911 33.1038M33.0749 35.2748C33.9705 34.6966 34.7721 33.9234 35.4911 33.1038M33.0749 35.2748C32.8264 35.4353 32.5706 35.5808 32.3073 35.708C31.732 35.9861 33.1814 34.7737 33.6563 34.3464C34.8281 33.2922 35.9143 32.1602 37.0254 31.0439M35.4911 33.1038C36.2581 32.3953 37.002 31.6039 37.4602 30.6927C37.5554 30.5036 36.8271 31.441 36.7143 31.5897C36.3354 32.0893 35.9285 32.6051 35.4911 33.1038ZM36.8517 30.2979C36.8517 30.1787 36.7547 30.0883 36.7746 29.9623C36.8275 29.6283 38.9117 30.3438 39.0173 30.384C39.2479 30.4719 39.4769 30.5651 39.7041 30.6634M39.7041 30.6634C41.4129 31.4027 43.0192 32.4307 44.4559 33.6506M39.7041 30.6634C40.2373 31.1474 40.7758 31.6266 41.3056 32.1049C43.1719 33.7897 45.1851 35.4732 46.6385 37.5527M39.7041 30.6634C39.2299 30.2329 38.7598 29.7987 38.3035 29.358C38.0855 29.1473 37.4105 28.6085 37.5221 28.211C37.6906 27.6106 39.2858 28.4106 39.503 28.5336C41.1109 29.4441 42.4077 30.8513 43.5057 32.3145C43.8338 32.7516 44.1511 33.197 44.4559 33.6506M44.4559 33.6506C45.5324 34.5645 46.5137 35.5861 47.3717 36.6746C48.1668 37.6834 48.813 38.8274 49.1578 40.0681C49.2613 40.4408 49.6607 41.7403 49.2253 42.0232C48.4143 42.5502 48.0635 40.2208 47.8874 39.7986C47.5522 38.9952 47.127 38.2516 46.6385 37.5527M44.4559 33.6506C45.2869 34.8871 46.0251 36.1848 46.6353 37.5457C46.6364 37.548 46.6374 37.5504 46.6385 37.5527M46.6385 37.5527C46.8702 38.0667 47.6742 39.5709 47.3289 40.1428M48.2009 40.103C48.2009 40.7088 48.1294 41.2921 47.9988 41.8548M47.9988 41.8548C47.9677 41.9885 47.9333 42.121 47.8958 42.2525M47.9988 41.8548C47.8636 42.0851 47.7245 42.3129 47.5808 42.5382M47.9988 41.8548C48.3223 41.3033 48.6228 40.7375 48.9079 40.1577C49.1122 39.742 49.406 38.4341 49.4799 38.8913C49.6725 40.0833 49.1729 40.9752 48.2978 41.8619C48.1668 41.9946 48.0327 42.1247 47.8958 42.2525M47.8958 42.2525C47.1413 44.8935 45.1076 47.0774 43.155 49.0266C42.4175 49.7628 41.4918 50.3501 40.4244 50.3998C40.0327 50.4181 39.6169 50.3908 39.1985 50.3675M47.8958 42.2525C47.7923 42.349 47.6873 42.4443 47.5808 42.5382M39.1985 50.3675C38.602 50.3344 38.0002 50.3094 37.4559 50.4363C35.7316 50.8383 37.6355 50.8185 38.3176 50.6556C38.6213 50.5831 38.9146 50.4856 39.1985 50.3675ZM39.1985 50.3675C40.4066 49.8654 41.4455 48.9929 42.3952 48.1047C43.8694 46.7258 45.4539 45.4472 46.6806 43.8322C47.0009 43.4106 47.2996 42.9792 47.5808 42.5382M47.5808 42.5382C46.5103 43.4833 45.2998 44.3007 44.1276 45.0921L44.1115 45.103C43.2513 45.6837 42.3534 46.3858 41.3727 46.7488M37.7718 50.1628C37.8501 50.3272 38.1476 50.7644 37.8574 50.7644C37.2533 50.7644 36.538 50.4287 35.9793 50.2423C33.9644 49.5703 32.1871 48.6926 30.4412 47.4792C28.823 46.3546 27.1011 45.3938 25.4885 44.2649C22.5262 42.1913 19.6705 39.791 17.1346 37.2119L17.0895 37.166C15.9883 36.0461 14.8733 34.9121 13.8539 33.7177C12.6998 32.3655 11.7871 30.8335 10.647 29.467C8.7621 27.2077 7.09515 24.5937 5.53771 22.0729M5.53771 22.0729C5.43163 21.9012 5.32607 21.73 5.22098 21.5593C4.28403 20.0376 3.60902 18.2799 2.94491 16.6254C2.6662 15.931 2.38786 15.1893 2.26862 14.4368M5.53771 22.0729C6.7743 24.7062 8.16577 27.2787 9.67357 29.7409C12.2786 33.9948 16.1045 37.3997 19.7481 40.7449C23.8516 44.5123 28.4418 48.1639 33.5006 50.5687C35.0314 51.2964 36.6609 51.7032 38.2211 52.3406C38.7844 52.5707 38.3289 52.3826 38.0383 52.2848C37.2945 52.0344 36.5127 51.9233 35.7681 51.6796C33.9085 51.0711 32.1328 50.1462 30.4256 49.2007C25.0781 46.2393 20.0977 42.4726 15.9158 38.0165C11.5584 33.3732 8.23877 28.0496 5.17829 22.5015C4.05092 20.4578 2.73398 18.3588 2.20214 16.0605C2.01238 15.2404 1.94906 14.413 1.85794 13.584M5.53771 22.0729C4.85047 20.6095 4.21107 19.1273 3.62612 17.6349C3.20053 16.549 2.75754 15.4842 2.26862 14.4368M2.26862 14.4368C2.24264 14.2729 2.22422 14.1085 2.21498 13.944C2.1762 13.2532 1.50199 10.9782 1.77583 12.9181C1.80716 13.1401 1.83355 13.3621 1.85794 13.584M2.26862 14.4368C2.13533 14.1513 1.99863 13.867 1.85794 13.584M1.85794 13.584C1.70502 13.2764 1.54739 12.9702 1.3843 12.6654C1.25293 12.4199 0.0886919 10.534 0.699474 10.5086" stroke="black" stroke-linecap="round" stroke-linejoin="round"/>
</svg>
