<svg width="217" height="217" viewBox="0 0 217 217" fill="none" xmlns="http://www.w3.org/2000/svg">
<path d="M33.2114 96.9058C30.5562 97.6237 30.5714 99.6416 34.0852 96.9469C54.3422 81.4118 74.881 66.1096 95.9686 53.2268C107.479 46.1949 119.022 39.7387 130.297 31.9129M130.297 31.9129C131.081 31.3687 131.863 30.818 132.644 30.26C136.965 27.174 141.282 24.1169 145.635 21.1909M130.297 31.9129C124.17 35.0761 118.05 38.2752 111.933 41.5067C104.338 45.52 96.8233 49.8241 89.3636 54.3277M130.297 31.9129C142.966 25.372 155.664 18.9841 168.419 12.7779C173.389 10.3599 178.42 8.02751 183.279 5.13683C184.079 4.66109 186.958 3.44399 187.137 1.7667C187.402 -0.719121 175.083 3.60543 174.188 3.94928M145.635 21.1909C150.805 17.7161 156.026 14.4264 161.366 11.4934C162.741 10.7383 164.082 9.83984 165.518 9.3781C166.741 8.98469 163.202 10.7966 162.05 11.5257C156.628 14.9557 151.146 18.1279 145.635 21.1909ZM145.635 21.1909C140.79 23.8836 135.924 26.4919 131.058 29.1168C116.976 36.7137 103.128 45.3531 89.3636 54.3277M89.3636 54.3277C72.2581 65.4811 55.2835 77.1519 38.155 87.9823C38.0091 88.0746 37.8554 88.1727 37.6946 88.2762M89.3636 54.3277C76.3575 62.1799 63.5179 70.6387 50.7048 79.2197C46.3388 82.1436 42.0143 85.2033 37.6946 88.2762M37.6946 88.2762C31.949 91.9737 17.1613 102.507 22.3269 99.0318C27.483 95.5635 32.5854 91.9107 37.6946 88.2762ZM104.773 57.3006C104.773 53.4356 104.003 57.5425 103.883 59.1959C102.688 75.6549 103.318 92.5982 102.814 109.136C102.139 131.322 101.303 153.476 101.42 175.694C101.479 186.833 102.993 199.709 100.572 210.533C100.017 213.018 100.53 205.292 100.53 202.672C100.53 193.178 100.567 183.684 100.567 174.189C100.567 158.855 100.36 143.503 101.038 128.194C101.629 114.85 102.64 101.521 102.817 88.1446C103.05 70.5687 101.877 52.3721 106.13 35.5768C107.983 28.2581 107.211 46.1556 107.176 47.2786C105.727 93.7471 101.147 141.161 105.278 187.564M105.278 187.564C105.672 191.989 106.145 196.404 106.707 200.809C107.079 203.722 107.164 205.985 106.954 201.507C106.517 192.151 105.961 182.845 105.768 173.462C105.49 159.929 105.466 146.394 105.641 132.864M105.278 187.564C105.028 169.323 105.208 151.088 105.641 132.864M105.278 187.564C105.279 187.625 105.279 187.687 105.28 187.749C105.403 196.594 106.489 223.059 106.633 214.214M105.641 132.864C105.817 119.244 106.195 105.629 106.72 92.0234C106.915 86.9769 107.208 81.9452 107.505 76.9142M105.641 132.864C105.921 121.056 106.306 109.253 106.749 97.4554C107.006 90.6134 107.227 83.76 107.505 76.9142M107.505 76.9142C107.765 72.5255 108.027 68.1375 108.231 63.7408C108.259 63.1459 108.272 62.5341 108.28 61.9139M107.505 76.9142C107.672 72.8056 107.86 68.6998 108.088 64.6009C108.125 63.9362 108.197 62.9722 108.28 61.9139M108.28 61.9139C108.309 59.8889 108.294 57.7747 108.609 55.8673C108.972 53.6778 108.561 58.3351 108.28 61.9139Z" stroke="#FDC501" stroke-opacity="0.68" stroke-linecap="round" stroke-linejoin="round"/>
<path d="M43.508 211.317C37.7764 210.983 45.4953 210.468 47.1386 210.203C52.8587 209.28 58.5842 208.356 64.3138 207.452M64.3138 207.452C78.0462 205.284 91.8018 203.226 105.562 201.555M64.3138 207.452C78.5054 204.821 92.7532 202.204 107.001 200.655C111.192 200.2 115.387 199.862 119.584 199.573M64.3138 207.452C62.5339 207.782 60.755 208.112 58.977 208.44C48.4338 210.387 37.9022 212.692 27.4338 215.406C22.131 216.781 32.126 215.367 33.1597 215.14C45.3549 212.458 57.4581 209.176 69.7072 206.998C81.6326 204.879 93.598 203.22 105.562 201.555M105.562 201.555C110.794 200.92 116.026 200.34 121.258 199.832C124.406 199.526 127.557 199.202 130.71 198.876M105.562 201.555C110.237 200.905 114.912 200.253 119.584 199.573M130.71 198.876C144.307 197.473 157.952 196.054 171.557 196.054C180.354 196.054 153.976 197.068 145.195 197.846C140.37 198.274 135.54 198.583 130.71 198.876ZM130.71 198.876C127.001 199.102 123.292 199.318 119.584 199.573M119.584 199.573C121.906 199.235 124.226 198.89 126.545 198.535C141.797 196.197 157.086 193.631 172.427 193.18C174.93 193.106 183.116 195.312 185.033 191.634M103.753 68.4772C103.753 63.5091 103.779 58.5394 103.835 53.5797M103.835 53.5797C103.839 53.2624 103.842 52.9451 103.846 52.6279C103.9 48.1681 103.9 49.2581 103.873 53.3083M103.835 53.5797C103.352 57.0994 103.342 60.8924 102.976 64.3192C101.97 73.7334 101.301 82.9631 100.909 92.5475C100.262 108.35 99.9263 124.494 100.306 140.311C100.75 158.797 103.11 177.248 103.277 195.729M103.835 53.5797C103.848 53.489 103.86 53.3985 103.873 53.3083M103.873 53.3083C103.815 62.2777 103.629 85.7649 103.629 95.6432C103.629 110.929 104.04 125.916 103.318 141.175C102.811 151.89 103.001 162.858 103.209 173.597C103.346 180.653 103.471 187.628 103.302 194.684L103.297 194.923C103.29 195.191 103.284 195.46 103.277 195.729M103.873 53.3083C104.051 52.0801 104.29 50.8875 104.624 49.7579C106.342 43.9611 106.695 49.3436 106.839 53.1159C107.511 70.7609 106.529 88.7215 105.943 106.36C105.192 128.938 104.414 151.706 104.414 174.31C104.414 180.402 104.219 186.511 104.219 192.617C104.219 196.249 104.519 209.193 103.629 198.076M103.277 195.729C103.233 197.616 103.194 199.504 103.194 201.391C103.194 203.804 103.287 198.361 103.287 197.77C103.287 197.09 103.284 196.409 103.277 195.729ZM30.8562 107.58C31.4432 105.584 31.9391 103.541 32.5139 101.539C33.6438 97.603 29.9607 109.217 28.8842 113.187C24.8722 127.981 19.3757 141.676 15.4044 156.432C14.3406 160.385 13.1173 164.22 12.0376 168.158C10.5333 173.644 12.0114 166.389 12.4767 164.49C16.96 146.193 21.8662 128.454 27.7432 111.058C28.8022 107.923 29.9847 104.79 30.8974 101.552C31.331 100.013 29.575 104.249 28.9961 105.676M31.6017 102.141C31.5388 101.385 31.0392 99.2525 31.0392 100.015C31.0392 101.97 31.7307 103.933 32.2112 105.712C33.9345 112.091 36.3087 118.066 38.5723 124.037C40.523 129.182 41.9667 134.687 43.736 139.961M43.736 139.961C43.9671 140.65 44.2038 141.336 44.4479 142.015C46.6795 148.231 49.9518 154.022 51.3197 160.864C51.6117 162.325 51.7322 161.953 51.4207 160.696C50.2607 156.015 48.8537 151.416 47.496 146.862C43.3325 132.894 38.5854 119.339 34.0805 105.634C32.1457 99.7478 34.0441 105.977 34.687 108.461C37.4212 119.024 40.4657 129.618 43.736 139.961ZM43.736 139.961C45.114 144.32 46.5321 148.633 47.984 152.881C49.462 157.206 51.0305 161.512 52.721 165.661C53.7778 168.254 52.8852 163.096 52.7587 162.448M5.47383 174.461C1.08833 174.461 8.2254 173.215 15.4739 171.967M15.4739 171.967C17.3154 171.65 19.1641 171.333 20.8328 171.036M15.4739 171.967C20.7412 169.981 26.1867 168.796 31.5081 167.236C36.2111 165.858 40.924 164.794 45.6736 163.978M15.4739 171.967C15.0343 172.133 14.5958 172.304 14.1588 172.482C11.1109 173.721 7.93875 175.55 4.78102 175.996C2.83923 176.27 -1.72336 179.014 3.23374 177.034C9.04984 174.711 14.9288 172.791 20.8328 171.036M20.8328 171.036C22.5438 170.732 24.0656 170.449 25.1967 170.209C32.5629 168.65 39.843 166.482 47.1126 164.149C48.9133 163.571 51.0686 163.914 52.7937 163.088C54.2024 162.414 49.8387 163.317 48.3674 163.541C47.468 163.678 46.5701 163.824 45.6736 163.978M20.8328 171.036C29.0987 168.578 37.4135 166.443 45.6736 163.978M45.6736 163.978C45.8191 163.934 45.9647 163.891 46.1102 163.847C50.2471 162.606 54.3314 160.95 58.4846 159.848C58.9503 159.724 56.6817 160.049 56.0798 160.049C52.7666 160.049 49.2283 161.53 45.9883 162.335C42.1111 163.299 38.232 164.249 34.382 165.44C33.2905 165.777 30.0581 166.158 31.1309 166.61M33.0403 136.226C33.9038 137.522 33.6242 136.189 33.3771 134.72C32.9515 132.191 31.7839 125.355 29.4546 125.355C27.1341 125.355 28.8938 143.134 28.8938 145.709C28.8938 148.752 28.8948 151.737 29.1092 154.753C29.1598 155.464 29.1352 160.711 29.3246 160.575C31.1523 159.261 32.2793 158.187 34.6271 157.916C35.1217 157.859 36.102 158.957 36.102 158.213M26.0521 150.545H24.298C25.6049 150.545 27.1591 150.572 28.7181 150.469M28.7181 150.469C30.5877 150.345 32.4642 150.033 33.9296 149.262C36.7427 147.782 33.6965 148.446 32.5719 148.711C31.6353 148.93 30.1828 149.662 28.7181 150.469ZM28.7181 150.469C25.6069 152.182 22.4404 154.232 24.0451 152.427M168.965 14.4383C169.812 12.63 169.525 12.9504 169.056 14.9319C167.823 20.1331 166.419 25.1883 164.97 30.2662C161.574 42.1661 157.789 53.883 154.777 66.0196C151.167 80.5655 147.368 94.5636 143.205 108.721C142.435 111.336 141.747 113.837 141.189 116.564C138.537 129.539 146.314 90.4523 149.994 78.053C152.387 69.9904 155.142 62.1693 157.534 54.0969C159.619 47.0609 161.175 39.7385 163.592 32.9227C165.044 28.8271 166.719 24.9707 167.485 20.427C168.156 16.4425 167.868 18.506 166.769 20.4251M171.043 18.9031C171.039 18.9031 171.035 18.9031 171.031 18.903M171.031 18.903C169.235 18.8845 168.913 14.8436 169.303 14.439M171.031 18.903C171.062 18.9697 171.093 19.0359 171.124 19.1018M171.031 18.903C170.39 17.5191 169.86 15.9568 169.303 14.439M169.303 14.439C169.409 14.3292 169.567 14.4876 169.763 15.0679C170.216 16.4113 170.669 17.7563 171.124 19.1018M169.303 14.439C168.742 12.911 168.154 11.4281 167.397 10.2177M171.124 19.1018C174.903 30.2803 178.767 41.4977 183.052 52.2371C185.044 57.2323 187.049 62.2938 188.976 67.4276M171.124 19.1018C171.175 19.2086 171.227 19.3143 171.279 19.4188C174.246 25.3193 176.966 31.8152 179.32 38.3073C182.786 47.8689 185.826 57.6848 188.976 67.4276M188.976 67.4276C191.335 73.7112 193.577 80.1031 195.541 86.6142M188.976 67.4276C191.064 73.8872 193.201 80.3145 195.541 86.6142M195.541 86.6142C195.798 87.464 196.049 88.3159 196.296 89.1698C197.628 93.7853 199.259 97.5933 201.22 101.616C201.87 102.948 203.58 107.124 203.206 105.572C201.935 100.301 198.778 95.0332 196.909 90.2156C196.445 89.0203 195.989 87.8196 195.541 86.6142ZM167.144 10.3439C166.978 10.163 166.683 10.0246 166.469 10.1254M132.797 124.012C132.789 124.011 132.781 124.01 132.773 124.009M132.773 124.009C132.474 123.968 131.839 123.62 132.475 123.478C133.514 123.244 134.551 122.987 135.587 122.715M132.773 124.009C133.72 123.569 134.66 123.121 135.587 122.715M132.773 124.009C130.167 125.22 127.513 126.365 124.954 126.365M135.587 122.715C137.084 122.322 138.579 121.9 140.073 121.478L140.25 121.427C152.32 118.017 164.464 115.161 176.507 111.55C186.459 108.565 196.368 106.412 206.384 104.073C208.827 103.502 211.261 102.717 213.724 102.376C214.434 102.278 216.557 102.546 215.862 102.304C213.906 101.62 211.247 102.254 209.298 102.586C203.096 103.643 196.842 104.615 190.711 106.399C180.619 109.336 170.4 112.029 160.385 115.5C152.924 118.086 145.342 119.351 137.878 121.819C137.126 122.068 136.361 122.376 135.587 122.715ZM162.815 92.5305C162.208 92.6246 162.118 93.5464 162.333 94.8933M162.333 94.8933C162.916 98.5581 165.755 105.37 166.582 107.219C166.98 108.108 169.162 114.691 168.429 111.933C167.224 107.392 165.772 103.024 163.993 98.9142C163.909 98.7205 162.768 96.2062 162.333 94.8933ZM162.333 94.8933C162.177 94.4229 162.111 94.1067 162.218 94.1067M174.578 104.858C174.547 103.915 173.838 102.77 173.534 101.951C173.201 101.057 173.243 102.613 173.33 103.992M173.33 103.992C173.38 104.781 173.445 105.512 173.463 105.693C173.709 108.143 174.617 112.887 173.92 107.577C173.761 106.362 173.549 105.175 173.33 103.992ZM173.33 103.992C173.119 102.846 172.901 101.702 172.721 100.538C172.609 99.8168 173.708 100.76 174.204 100.837C175.154 100.985 176.598 101.246 177.377 100.298C178.012 99.5245 177.531 99.5999 177.531 101.813C177.531 102.921 177.922 113.549 178.367 108.915M183.184 107.861C183.184 100.481 183.6 93.2702 184.221 85.9429C184.706 80.2289 183.752 88.4633 183.641 89.7284C183.085 96.0716 182.463 102.387 182.019 108.748C181.941 109.872 182.075 105.786 182.075 105.17M167.323 91.102C167.323 87.8594 165.797 95.4214 167.299 96.0508C167.973 96.3333 172.078 92.4134 172.499 91.4215C173.272 89.5991 172.757 87.8704 171.999 86.155C171.454 84.9224 170.898 87.6583 170.664 88.2286C170.111 89.5802 166.386 94.0524 167.662 92.8797M175.331 88.3981C175.331 87.8661 175.32 87.542 175.303 87.3809M175.303 87.3809C175.282 87.1908 175.253 87.2279 175.222 87.4185M175.303 87.3809C176.41 86.8648 177.954 86.16 178.608 85.4713C178.909 85.1533 179.692 83.2506 180.031 83.9879C180.81 85.6781 181.429 88.5174 180.208 89.8396C179.406 90.7086 176.368 92.9206 175.516 92.6307C174.923 92.4289 175.083 88.2961 175.222 87.4185M175.303 87.3809C175.276 87.3936 175.249 87.4061 175.222 87.4185M175.222 87.4185C174.258 87.8693 173.665 88.1667 174.378 88.1667M160.1 96.0206C159.369 96.0206 157.852 98.0126 158.401 96.8224C162.147 88.7006 166.024 80.5844 169.544 72.2286M169.544 72.2286C169.753 71.7322 169.961 71.235 170.168 70.7369M169.544 72.2286C169.751 71.7299 169.958 71.2324 170.168 70.7369M169.544 72.2286C168.955 73.653 168.375 75.0866 167.782 76.5074C165.178 82.7461 156.725 100.836 159.454 94.718M170.168 70.7369C170.173 70.7239 170.178 70.7109 170.184 70.698C170.192 70.6781 170.205 70.6481 170.222 70.6092M170.168 70.7369C170.186 70.6943 170.204 70.6517 170.222 70.6092M170.222 70.6092C170.531 69.8964 172.194 66.2089 171.556 67.5867C171.096 68.5796 170.654 69.5898 170.222 70.6092ZM171.11 68.6851C171.11 68.9673 178.107 77.7947 179.572 79.6601C180.242 80.5117 180.953 81.2169 181.669 81.9034M181.669 81.9034C182.628 82.8219 183.596 83.7068 184.486 84.8634C184.746 85.2017 186.219 85.5447 185.786 85.2964C184.759 84.7074 183.753 82.7373 182.987 81.6431C180.93 78.7046 178.877 75.7592 176.815 72.8279C175.794 71.3765 174.501 70.5578 173.476 69.2412C173.475 69.2405 173.475 69.2398 173.474 69.239M181.669 81.9034C179.169 78.3229 174.83 73.9888 173.474 69.239M181.669 81.9034C181.85 82.1621 182.021 82.4169 182.181 82.6677C182.582 83.2975 188.253 92.1691 186.319 86.7391M173.474 69.239C173.356 69.0814 173.258 68.3646 173.308 68.5855C173.357 68.8042 173.412 69.022 173.474 69.239ZM30.6119 100.087C30.457 100.183 27.8726 101.717 28.93 102.341C29.1621 102.478 29.4035 102.555 29.6516 102.58M29.6516 102.58C29.9717 102.613 30.3031 102.562 30.6403 102.445M29.6516 102.58C29.7914 102.28 30.1932 101.757 30.8823 101.021C36.5257 94.9944 43.5136 89.7012 49.8164 85.4437C67.3866 73.5752 84.7665 61.2052 102.169 48.7882C105.619 46.3272 109.098 43.9113 112.602 41.5442M29.6516 102.58C29.4471 103.02 29.8031 102.984 30.6403 102.445M30.6403 102.445C31.6451 102.098 32.7018 101.176 33.6681 100.211M30.6403 102.445C30.8461 102.313 31.0809 102.15 31.3437 101.956C32.1213 101.382 32.8959 100.8 33.6681 100.211M33.6681 100.211C34.543 99.3373 35.3438 98.4281 35.9644 97.8784C49.8153 85.6102 64.3091 76.1994 78.9848 66.4706C90.4193 58.8904 101.381 49.8417 112.602 41.5442M33.6681 100.211C39.2967 95.9194 44.8009 91.2799 50.4652 87.0919C66.8571 74.9723 83.7643 63.4917 100.534 52.5923C107.353 48.1602 114.359 44.5089 121.126 39.8781C127.1 35.7896 133.184 31.8711 139.372 28.567C149.183 23.3286 177.919 4.90478 168.356 11.085M112.602 41.5442C115.348 39.5133 118.11 37.5274 120.898 35.619C131.36 28.4586 142.262 22.8047 152.743 15.6957C158.616 11.7118 164.753 7.67225 171.06 5.4448C171.422 5.31702 173.947 4.1777 172.547 5.23392C169.061 7.86455 165.706 10.4461 161.987 12.3383C145.345 20.8067 128.713 30.6597 112.602 41.5442Z" stroke="black" stroke-linecap="round" stroke-linejoin="round"/>
</svg>
