<svg width="217" height="217" viewBox="0 0 217 217" fill="none" xmlns="http://www.w3.org/2000/svg">
<path d="M150.554 117.407C150.463 116.919 150.216 116.44 150.116 115.908C150.033 115.464 150.189 116.827 150.3 117.26C150.846 119.382 151.47 121.46 152.099 123.54C153.166 127.071 153.877 130.73 154.51 134.436C154.589 134.897 154.583 136.073 154.931 136.364C155.109 136.512 154.995 135.904 154.974 135.824C153.739 131.276 152.665 126.514 151.796 121.829C151.331 119.322 150.58 116.767 150.222 114.246C150.021 112.824 150.062 117.819 150.131 117.819" stroke="#E32D2D" stroke-opacity="0.66" stroke-linecap="round" stroke-linejoin="round"/>
<path d="M150.966 117.023C150.736 117.018 149.952 116.718 149.861 116.353C149.778 116.017 152.541 115.082 152.704 115.029C153.934 114.627 155.197 114.278 156.46 114.15C157.432 114.051 158.491 114.2 159.424 113.739C160.27 113.321 161.231 112.769 159.76 113.058C158.598 113.286 151.024 115.205 151.106 116.534C151.179 117.705 155.585 115.644 155.866 115.514C157.26 114.866 158.624 114.11 160.005 113.414C160.298 113.266 160.278 113.358 160.109 113.664" stroke="#E32D2D" stroke-opacity="0.66" stroke-linecap="round" stroke-linejoin="round"/>
<path d="M160.675 113.928C160.576 112.981 160.301 112.623 160.474 113.87C161.109 118.447 161.969 123.088 162.964 127.542C163.247 128.808 163.472 130.158 163.824 131.391C163.834 131.426 163.967 131.75 163.95 131.752C163.386 131.846 162.059 119.555 161.977 119.017C161.636 116.78 161.167 114.615 160.739 112.412C160.694 112.184 160.476 110.284 160.5 111.207C160.536 112.571 160.915 114.021 161.182 115.324C161.864 118.641 162.583 121.944 163.249 125.268C163.296 125.501 164.954 133.519 165.047 133.496C165.075 133.49 164.875 132.92 164.863 132.883C164.737 132.49 164.626 132.086 164.506 131.689C164.313 131.049 164.11 130.402 163.965 129.738" stroke="#E32D2D" stroke-opacity="0.66" stroke-linecap="round" stroke-linejoin="round"/>
<path d="M151.152 117.452C151.396 117.452 151.752 116.574 151.754 116.899C151.767 118.525 151.446 120.161 151.446 121.807C151.446 123.883 152.126 120.07 152.222 119.602C152.291 119.268 153.111 115.749 152.876 117.286C152.622 118.937 152.523 120.682 152.523 122.365C152.523 124.169 153.179 120.512 153.23 120.189C153.346 119.454 154.191 115.879 154.191 116.18C154.191 118.506 153.729 120.865 153.719 123.227C153.715 124.123 153.65 128.736 154.159 125.459C154.747 121.682 154.865 117.809 155.945 114.184C156.162 113.455 156.372 113.055 156.196 114.091C155.894 115.88 155.739 117.695 155.603 119.518C155.278 123.85 154.898 128.185 154.91 132.544C154.91 132.754 155.05 133.33 155.179 132.856C155.575 131.403 155.541 129.633 155.694 128.118C155.955 125.532 156.391 123.005 156.923 120.496C157.114 119.591 157.304 118.685 157.516 117.789C157.565 117.586 157.581 117 157.666 117.18C157.825 117.519 157.491 118.727 157.454 119.058C157.145 121.776 156.886 124.511 156.656 127.243C156.422 130.023 156.278 132.78 156.283 135.577C156.283 135.646 156.461 137.893 156.727 137.296C157.417 135.749 157.208 132.929 157.288 131.228C157.493 126.905 157.677 122.61 158.315 118.351C158.595 116.477 159.084 114.632 159.284 112.739C159.385 111.78 158.976 114.635 158.884 115.596C158.282 121.863 158.218 128.605 158.853 134.863C158.879 135.116 159.209 137.639 159.277 137.292C159.654 135.39 159.463 133.155 159.463 131.215C159.463 127.714 159.945 117.227 159.858 120.726C159.758 124.793 159.695 128.876 160.067 132.926C160.156 133.899 160.307 134.681 160.429 133.229C160.658 130.51 160.652 127.749 160.753 125.019C160.761 124.788 160.983 121.05 161.034 121.074C161.2 121.153 161.054 124.143 161.054 124.369C161.054 124.962 161.136 133.064 161.433 132.899C161.861 132.661 161.814 129.808 161.842 129.334C161.941 127.659 162.009 125.981 162.111 124.306C162.196 122.925 162.313 127.065 162.452 128.438C162.573 129.638 162.74 130.746 163.263 131.755C163.425 132.066 163.43 131.917 163.441 132.362C163.462 133.257 163.6 133.74 163.863 134.322" stroke="#E32D2D" stroke-opacity="0.66" stroke-linecap="round" stroke-linejoin="round"/>
<path d="M88.1315 114.45C87.3589 113.844 77.6956 124.163 76.5924 125.148C68.8061 132.102 61.2558 139.742 53.1121 145.928C46.0622 151.283 40.5632 158.346 34.3719 165.151C28.2173 171.915 22.271 178.752 16.382 185.942C11.5932 191.789 6.30922 198.006 2.66688 205.26C0.518746 209.539 -0.290309 216 4.84476 216C7.92194 216 11.0385 212.716 13.6651 209.83M13.6651 209.83C14.44 208.978 15.1723 208.161 15.8484 207.473C15.9176 207.403 15.9869 207.332 16.0562 207.262M13.6651 209.83C14.6251 208.644 15.6535 207.511 16.6752 206.395M13.6651 209.83C12.8022 210.895 11.9945 212.002 11.2965 213.175C8.70489 217.529 11.6965 213.366 16.0562 207.262M16.0562 207.262C20.9613 202.273 25.9077 197.311 31.0198 192.711C40.871 183.847 50.1842 174.002 59.9423 164.975C70.2529 155.437 80.6893 146.19 90.5883 135.935C94.394 131.992 95.8128 123.327 93.0696 117.709C90.1801 111.791 79.6294 122.82 77.2594 125.117C72.5727 129.659 68.3017 134.944 63.329 138.944C58.1713 143.093 53.2226 147.519 48.3036 152.158C38.9679 160.964 29.8311 169.831 21.4803 180.269C17.6818 185.018 13.4513 189.165 10.1218 194.558L10.0956 194.601C8.15789 197.74 5.15 202.612 5.06177 206.892C5.02827 208.517 5.69117 208.885 6.56313 208.67M16.0562 207.262C16.2597 206.977 16.4662 206.688 16.6752 206.395M6.56313 208.67C7.81345 208.361 9.49363 206.853 10.1668 206.129C14.4355 201.536 18.3193 196.134 22.331 191.151C28.8824 183.013 35.8221 175.456 42.6658 167.767C47.8448 161.948 53.1298 155.85 58.6164 150.103M6.56313 208.67C15.2831 193.126 28.0125 183.146 38.9406 170.84C45.348 163.624 51.8815 156.75 58.6164 150.103M6.56313 208.67C6.55312 208.688 6.54311 208.706 6.5331 208.724C4.73329 211.938 4.9542 214.193 8.04402 211.457C8.85766 210.737 9.66325 209.996 10.4615 209.236M58.6164 150.103C60.3056 148.334 62.014 146.598 63.7443 144.913M58.6164 150.103C59.066 149.66 59.5164 149.217 59.9678 148.775C61.2546 147.516 62.5101 146.226 63.7443 144.913M63.7443 144.913C68.5451 140.239 73.5145 135.963 78.7121 132.478C79.0262 132.267 79.4223 132.045 79.8559 131.842M63.7443 144.913C66.7063 141.762 69.5456 138.483 72.4007 135.198M79.8559 131.842C82.1016 130.792 85.354 130.246 83.4496 134.349M79.8559 131.842C75.4588 136.698 71.1095 141.622 66.5638 146.256C63.3844 149.497 60.2521 152.858 57.1568 156.301M79.8559 131.842C82.1824 129.273 84.5223 126.723 86.9117 124.244C87.0985 124.05 88.8186 122.032 89.4074 121.016M83.4496 134.349C83.3639 134.534 83.2677 134.728 83.1606 134.932C82.6841 135.838 82.1423 136.734 81.5527 137.616M83.4496 134.349C83.4495 134.243 83.4348 134.145 83.4045 134.056C81.8928 129.598 73.0016 140.021 72.1006 141C67.2063 146.316 62.172 151.295 57.1568 156.301M83.4496 134.349C83.4501 135.111 82.6934 136.281 81.5527 137.616M81.5527 137.616C81.0023 138.439 80.4103 139.249 79.7911 140.045M81.5527 137.616C78.3344 141.381 72.0595 146.451 71.1134 147.331C63.9088 154.029 57.0697 161.419 50.1551 168.664M79.7911 140.045C77.293 143.253 74.3511 146.211 71.9059 148.724C70.1698 150.509 68.4028 152.239 66.6145 153.933M79.7911 140.045C75.3492 144.572 71.0049 149.309 66.6145 153.933M79.7911 140.045C81.3421 138.464 82.905 136.909 84.4859 135.393C87.4456 132.555 91.2462 129.558 93.2661 125.367C94.179 123.473 94.5407 121.63 92.52 121.13C91.4862 120.874 90.4438 120.853 89.4074 121.016M66.6145 153.933C61.2335 159.028 55.6596 163.787 50.1551 168.664M66.6145 153.933C65.2216 155.399 63.8241 156.854 62.4173 158.288C49.9479 170.993 37.6086 184 25.1986 196.817C25.0328 196.988 24.0693 197.971 22.697 199.349M50.1551 168.664C47.3643 171.136 44.5914 173.639 41.8705 176.231C39.3027 178.678 36.7004 181.097 34.1022 183.532M50.1551 168.664C47.3961 171.555 44.6251 174.422 41.8141 177.214C35.024 183.957 28.9061 191.711 22.697 199.349M34.1022 183.532C32.0242 185.479 29.9488 187.437 27.8958 189.428M34.1022 183.532C32.2976 185.728 30.4972 187.921 28.6986 190.1C26.45 192.824 22.7684 197.888 19.2896 202.74M34.1022 183.532C41.6592 174.332 49.2885 165.052 57.1568 156.301M27.8958 189.428C25.1993 192.044 22.5414 194.716 19.9671 197.496C17.2202 200.462 14.5696 203.498 12.1468 206.945C11.9092 207.283 11.0891 208.264 10.4615 209.236M27.8958 189.428C22.3092 196.444 16.6033 203.391 10.4615 209.236M27.8958 189.428C31.4572 184.956 34.9702 180.455 38.5166 176.194C44.4841 169.024 50.8052 162.641 57.1568 156.301M10.4615 209.236C9.9833 209.977 9.61689 210.713 9.70507 211.156C9.84561 211.863 14.9681 206.998 19.2896 202.74M19.2896 202.74C20.5389 201.509 21.7213 200.329 22.697 199.349M19.2896 202.74C18.3955 203.987 17.5148 205.22 16.6752 206.395M22.697 199.349C21.7621 200.499 20.8251 201.646 19.8834 202.787C18.8857 203.996 17.7843 205.185 16.6752 206.395M89.4074 121.016C88.9349 121.091 88.4637 121.204 87.9952 121.351M89.4074 121.016C89.7489 120.428 89.7098 120.176 88.7702 120.814C88.5113 120.99 88.253 121.169 87.9952 121.351M87.9952 121.351C84.4336 122.466 81.0255 125.524 78.3845 128.425C76.352 130.658 74.3726 132.929 72.4007 135.198M87.9952 121.351C82.5896 125.168 77.4297 130.322 72.4007 135.198M72.4007 135.198C71.1533 136.407 69.9138 137.599 68.6807 138.75C64.5303 142.621 60.4455 146.614 56.0334 149.946C53.7873 151.643 55.3503 150.809 56.8159 150.166M204.919 49.4039C204.919 48.0492 205.444 46.9594 205.444 45.5605C205.444 42.5117 202.908 38.4389 201.895 35.8611C197.088 23.6203 186.055 16.1968 177.115 10.3918M203.478 44.4384C203.478 43.3207 203.756 42.6689 203.959 41.9929M203.959 41.9929C204.194 41.2079 204.326 40.3903 203.802 38.7726C201.921 32.9771 198.285 27.8068 194.702 23.8821C191.568 20.4486 188.772 17.1679 185.042 14.9115C181.253 12.6188 178.009 9.24664 174.284 6.93311C167.386 2.64753 158.539 1 150.984 1C144.054 1 137.042 3.44704 131.047 8.199C126.998 11.4078 123.417 15.6467 119.881 19.937M203.959 41.9929C205.526 44.1775 207 46.4696 208.235 49.0306C210.39 53.4971 212.551 58.366 214.463 63.0258C216.635 68.3172 216.235 73.9702 214.929 79.5813C214.812 80.0807 214.709 80.5791 214.616 81.0769M203.959 41.9929C201.412 38.443 198.617 35.1769 196.196 31.5022C195.323 30.1768 194.42 28.9336 193.49 27.763M119.881 19.937C117.29 23.0803 114.723 26.2512 112.014 29.0647C101.027 40.4746 90.6353 52.6356 86.5551 71.1155C84.8869 78.6708 82.2344 86.1471 82.2344 94.1692C82.2344 97.7495 83.404 102.386 84.9681 106.612M119.881 19.937C122.607 18.2456 125.403 16.7314 128.229 15.2008L128.55 15.0273C135.297 11.3729 141.681 7.03534 148.981 5.74594C151.512 5.29877 154.117 5.25718 156.734 5.41737M119.881 19.937C116.669 21.9299 113.554 24.1689 110.602 26.9709C100.682 36.3836 91.3348 48.5066 83.9673 61.4753C77.8764 72.1969 79.6365 84.6636 81.4668 96.8003C82.0416 100.612 83.4075 103.669 84.9681 106.612M84.9681 106.612C86.1596 109.831 87.58 112.811 88.8864 114.903C89.2355 115.462 89.6081 115.987 89.9954 116.491M84.9681 106.612C86.2246 108.981 87.6072 111.276 88.8046 113.829C89.219 114.713 89.6113 115.603 89.9954 116.491M89.9954 116.491C91.95 119.035 94.2814 121.038 95.8787 124.092C97.8984 127.953 100.025 131.333 102.314 134.899C103.461 136.686 104.481 138.696 105.603 140.566M89.9954 116.491C91.8002 120.662 93.4253 124.783 96.3247 127.972C99.5251 131.493 101.882 135.148 104.643 139.222C104.953 139.68 105.274 140.128 105.603 140.566M105.603 140.566C106.563 142.166 107.598 143.663 108.85 144.831C110.412 146.289 112.013 147.685 113.62 149.072M105.603 140.566C107.999 143.754 110.853 146.444 113.62 149.072M113.62 149.072C115.551 150.738 117.492 152.39 119.388 154.117C119.746 154.443 120.107 154.754 120.471 155.051M113.62 149.072C114.187 149.61 114.75 150.145 115.304 150.682C116.964 152.287 118.69 153.744 120.471 155.051M120.471 155.051C124.335 158.207 128.502 159.828 132.699 162.191C137.145 164.694 141.169 167.144 146.074 167.457C150.516 167.74 155.001 167.504 159.449 167.504C164.268 167.504 170.071 162.853 174.139 159.671C179.275 155.654 184.254 151.076 189.248 146.75C193.046 143.46 195.861 138.778 199.139 134.651C203.027 129.758 206.634 124.978 208.661 118.361M120.471 155.051C128.104 160.651 136.744 163.495 145.515 163.517C156.587 163.545 168.932 162.479 178.688 154.537C184.142 150.098 189.133 144.291 194.456 139.516C198.617 135.784 202.632 129.426 205.747 124.249C206.939 122.268 207.896 120.355 208.661 118.361M208.661 118.361C208.804 117.893 208.94 117.415 209.067 116.928C209.333 115.908 209.654 114.929 210.008 113.975M208.661 118.361C209.2 116.957 209.644 115.512 210.008 113.975M210.008 113.975C211.545 109.843 213.721 106.188 214.878 101.807C216.047 97.3774 215.004 93.4834 214.903 89.0182C214.843 86.3544 214.812 83.7008 214.616 81.0769M210.008 113.975C210.319 112.667 210.571 111.292 210.776 109.819C211.497 104.631 213.47 100.327 213.676 94.8909C213.856 90.1419 213.77 85.6354 214.616 81.0769M214.616 81.0769C214.435 78.6363 214.111 76.2213 213.491 73.8477C212.023 68.2326 209.196 63.66 207.857 57.8525C206.567 52.2579 203.026 47.8208 200.628 43.0151C198.158 38.0674 196.224 32.467 193.49 27.763M193.49 27.763C193.347 27.517 193.202 27.2735 193.055 27.0327C190.139 22.2721 186.077 17.5815 182.351 13.9902C178.052 9.8468 173.313 7.42841 168.05 6.77019C164.375 6.31059 160.541 5.65043 156.734 5.41737M193.49 27.763C188.155 21.0473 181.903 16.7213 174.934 12.987C169.12 9.87121 162.977 7.26638 156.734 5.41737M156.734 5.41737C151.706 3.92848 146.614 2.92966 141.575 2.54872M141.973 22.6472C142.44 21.4436 145.465 17.1281 146.708 15.8841M146.708 15.8841C146.782 15.8101 146.849 15.7471 146.909 15.6961M146.708 15.8841C147.477 14.6923 147.655 14.4554 146.909 15.6961M146.708 15.8841C145.954 17.0529 144.631 19.1402 143.055 21.6529M146.909 15.6961C147.121 15.5177 147.244 15.4883 147.239 15.6637C147.141 19.536 141.957 26.0654 140.383 28.8748C135.761 37.1206 131.461 45.588 127.117 54.0915C123.473 61.2245 119.617 67.4215 115.346 73.7575C115.173 74.0145 113.655 75.8248 114.352 74.7214C117.134 70.3186 119.185 65.1835 121.491 60.32C124.074 54.8739 126.697 49.3154 129.477 43.9071M146.909 15.6961C146.779 15.9133 146.62 16.1758 146.431 16.4864C145.348 18.2673 144.211 19.9715 143.055 21.6529M129.477 43.9071C132.357 38.3079 135.405 32.8696 138.753 27.8835C140.169 25.7742 141.626 23.731 143.055 21.6529M129.477 43.9071C130.256 42.6364 131.022 41.3601 131.769 40.0722C134.194 35.8868 139.333 27.5846 143.055 21.6529M129.477 43.9071C125.318 50.6996 120.835 57.3352 117.403 64.7574C116.089 67.5987 114.861 70.8547 113.117 73.2912C112.147 74.6469 111.341 76.2074 110.603 77.799C108.659 81.9971 112.057 75.2953 112.567 74.3256M112.791 77.902C112.704 77.8989 112.618 77.8959 112.533 77.8929M112.533 77.8929C106.133 77.6663 108.742 77.6709 115.712 77.8858M112.533 77.8929C110.321 77.8978 108.106 77.902 105.888 77.902C105.299 77.902 99.2012 77.7272 101.641 77.8133C105.698 77.9563 109.783 78.1676 113.829 78.5742C127.182 79.9157 140.635 81.1001 154.012 81.7786C155.492 81.8537 166.473 81.7399 175.097 81.892M112.533 77.8929C113.594 77.8906 114.653 77.8881 115.712 77.8858M115.712 77.8858C129.071 78.2978 158.447 79.4827 171.105 81.2946C171.39 81.3354 173.021 81.5931 175.097 81.892M115.712 77.8858C131.858 77.8509 147.884 77.8667 164.065 79.2851C169.911 79.7976 175.941 79.8306 181.668 81.6982C181.859 81.7606 182.9 82.0229 184.055 82.2809M175.097 81.892C179.427 82.5156 185.689 83.3188 185.689 82.7068C185.689 82.6728 185.666 82.6401 185.62 82.6086M175.097 81.892C178.861 81.9584 182.176 82.0754 184.055 82.2809M185.62 82.6086C185.436 82.4799 184.886 82.3717 184.055 82.2809M185.62 82.6086C185.12 82.5127 184.576 82.3972 184.055 82.2809M185.62 82.6086C186.693 82.8143 187.563 82.9297 187.563 82.7697M148.197 20.1899C148.14 20.1667 148.084 20.1408 148.03 20.1123M148.03 20.1123C146.597 19.3595 146.17 16.799 145.745 15.0107C145.275 13.0379 146.902 17.5254 148.03 20.1123ZM148.03 20.1123C148.222 20.5528 148.399 20.9382 148.55 21.2272C152.588 28.9915 156.868 36.7078 161.231 44.1482C168.638 56.7796 190.583 94.906 183.875 81.5868C175.369 64.6983 165.073 49.5224 156.693 32.4391C155.87 30.7608 154.587 28.0616 153.253 25.2523M153.253 25.2523C150.098 18.6071 146.658 11.346 148.348 15.5243C149.721 18.9209 151.397 22.0204 153.153 25.0777C153.186 25.1359 153.22 25.1941 153.253 25.2523ZM153.253 25.2523C158.787 34.8933 164.264 44.5788 169.572 54.4502C174.658 63.9098 190.716 91.4014 186.09 81.5236M179.64 88.4795C179.631 87.3765 179.236 84.4717 178.975 82.3911M178.975 82.3911C178.66 79.8796 178.54 78.5688 179.528 83.0763C179.621 83.4984 179.718 83.9446 179.821 84.4127M178.975 82.3911C178.839 81.4887 178.716 80.5864 178.607 79.6841C178.26 76.8131 178.946 80.0177 179.821 84.4127M178.975 82.3911C180.036 89.462 181.853 96.5307 183.615 103.522M179.821 84.4127C181.846 93.6617 185.733 111.484 188.149 122.039M179.821 84.4127C180.577 88.2087 181.474 92.8928 181.968 95.317C182.524 98.045 183.062 100.786 183.615 103.522M188.149 122.039C188.74 124.618 189.242 126.762 189.608 128.242M188.149 122.039C188.675 123.518 189.254 125.043 189.612 126.523M188.149 122.039C187.884 121.294 187.633 120.561 187.43 119.85C187.373 119.651 187.317 119.452 187.261 119.253M189.608 128.242C190.334 131.178 190.523 131.498 189.796 127.401C189.745 127.11 189.683 126.818 189.612 126.523M189.608 128.242C189.562 128.105 189.511 127.942 189.453 127.752C188.608 124.971 187.905 122.124 187.261 119.253M189.608 128.242C190.168 129.929 189.868 127.897 189.612 126.523M189.612 126.523C189.547 126.178 189.485 125.874 189.44 125.682M187.261 119.253C185.819 114.111 184.687 108.825 183.615 103.522M187.261 119.253C186.958 117.903 186.668 116.547 186.383 115.191C185.573 111.334 184.602 107.44 183.615 103.522M130.523 85.2866C130.227 85.2866 129.941 85.0686 129.669 84.7135M129.669 84.7135C128.264 82.8785 127.245 77.3846 127.221 79.4325C127.193 81.8483 127.924 84.106 128.58 86.3244C130.513 92.8593 132.523 99.3593 134.667 105.776C137.558 114.427 141.291 122.462 143.33 131.596L143.341 131.646C143.546 132.566 144.692 137.704 144.692 136.874C144.692 134.268 143.544 131.151 142.926 128.737C140.908 120.843 138.554 113.114 136.552 105.21C134.698 97.8903 132.139 91.4162 129.669 84.7135ZM129.669 84.7135C128.887 82.5925 128.115 80.4486 127.376 78.2478C126.81 76.5586 125.966 74.6705 125.734 72.8112M125.627 72.6667C125.627 75.2981 126.742 77.969 127.434 80.3549C130.565 91.1541 133.035 102.301 135.978 113.199C137.936 120.448 140.301 127.609 142.969 134.364M145.849 136.613C145.132 134.646 146.147 135.989 147.688 135.989C147.917 135.989 148.146 135.988 148.374 135.987M148.374 135.987C148.629 135.985 148.883 135.982 149.137 135.978M148.374 135.987C149.994 135.55 151.617 135.186 153.244 134.877M148.374 135.987C148.312 136.003 148.249 136.02 148.186 136.038C146.021 136.628 143.851 137.201 141.681 137.757C140.579 138.04 143.916 137.446 145.013 137.133C146.387 136.742 147.762 136.356 149.137 135.978M149.137 135.978C157.742 135.853 166.209 134.622 174.725 132.877M149.137 135.978C150.505 135.602 151.874 135.235 153.244 134.877M174.725 132.877C174.781 132.865 174.836 132.854 174.892 132.842C177.541 132.297 182.751 131.952 186.897 131.739M174.725 132.877C176.101 132.802 177.477 132.722 178.853 132.629C181.525 132.448 184.213 132.03 186.897 131.739M174.725 132.877C167.54 133.268 160.363 133.529 153.244 134.877M186.897 131.739C191.496 131.503 194.785 131.43 191.813 131.43C190.179 131.43 188.539 131.561 186.897 131.739ZM153.244 134.877C160.98 132.86 168.747 131.183 176.629 130.323C180.935 129.852 185.238 129.501 189.533 128.884M189.533 128.884C189.726 128.856 189.919 128.828 190.112 128.799C192.498 128.443 190.717 128.569 189.533 128.884ZM189.533 128.884C189.377 128.925 189.231 128.97 189.107 129.017M153.408 119.243C153.043 118.159 152.366 116.727 151.639 116.024C151.533 115.921 151.65 116.804 151.856 118.024M151.856 118.024C152.226 120.217 152.881 123.498 153.046 124.116C154.188 128.385 156.961 141.266 156.843 136.735C156.75 133.15 154.627 128.238 153.758 124.878C153.629 124.381 152.796 121.131 152.321 119.03M151.856 118.024C152 118.361 152.159 118.699 152.321 119.03M151.856 118.024C151.517 117.229 151.263 116.435 151.263 115.724C151.263 114.973 151.65 115.59 151.972 115.792C153.232 116.585 155.066 115.809 156.333 115.484C157.593 115.161 159.15 115.07 159.977 113.538C159.993 113.508 160.247 113.02 160.363 112.654M152.321 119.03C151.965 117.458 151.809 116.528 152.298 117.873C153.243 120.477 154.152 123.196 154.811 125.955C155.633 129.394 153.732 122.29 153.39 121.328C153.154 120.667 152.729 119.867 152.321 119.03ZM160.363 112.654C160.428 112.452 160.45 112.287 160.366 112.257C160.338 112.247 160.339 112.392 160.363 112.654ZM160.363 112.654C160.525 114.417 161.72 121.476 161.808 121.862C162.111 123.202 163.212 131.496 164.74 131.496C165.944 131.496 164.172 124.675 164.116 124.064M169.513 113.324C169.513 112.778 169.144 108.928 169.144 110.444C169.144 114.569 171.559 126.509 171.559 122.384C171.559 120.27 179.873 119.466 181.389 119.466C183.049 119.466 178.393 110.533 178.393 109.167C178.393 108.127 172.196 110.887 171.791 111.082C171.593 111.177 171.413 111.262 171.248 111.336M171.248 111.336C169.006 112.353 169.675 111.569 171.248 111.336ZM171.248 111.336C171.496 111.3 171.767 111.277 172.052 111.277M174.422 111.836C174.422 106.139 174.593 112.414 175.031 114.763C175.186 115.592 175.796 121.455 176.605 121.644C177.132 121.767 176.813 119.501 176.699 119.186M171.727 117.025C169.02 117.025 170.362 117.067 172.611 116.235C174.772 115.436 176.959 114.684 179.146 114.026C179.256 113.993 180.743 113.368 180.404 113.946M167.025 89.8776C167.025 87.4759 166.657 90.1079 166.636 91.2405M166.636 91.2405C166.635 91.2747 166.635 91.3075 166.635 91.3387M166.636 91.2405C167.759 90.6 170.9 88.9504 171.495 88.5976C172.509 87.9963 173.616 86.4889 173.644 88.1855C173.682 90.419 177.834 97.4639 177.005 98.4077C176.321 99.187 173.916 98.7265 173.07 98.8715C171.242 99.1848 169.386 100.085 168.253 102.128C167.909 102.749 167.979 101.4 167.846 100.658C167.324 97.7386 166.754 94.4662 166.637 91.467C166.635 91.4281 166.635 91.3851 166.635 91.3387M166.636 91.2405C166.161 91.511 166.046 91.6016 166.635 91.3387M166.635 91.3387C166.664 91.3256 166.695 91.3115 166.728 91.2965M170.969 89.1251C170.394 86.1491 169.969 90.7158 170.008 91.3452C170.118 93.133 171.729 100.194 171.729 99.816M168.432 96.3629C166.663 95.878 167.449 95.2695 168.992 94.8215C170.376 94.4197 175.647 91.1846 175.264 91.8222M156.009 92.5571C155.991 92.2706 155.672 90.9853 155.602 91.628C155.561 92.0032 155.535 92.3836 155.523 92.7666M155.523 92.7666C155.46 94.8062 155.801 96.9201 156.466 98.7082C156.903 99.8834 159.005 102.064 157.534 102.064C154.38 102.064 150.264 104.916 147.685 107.329C145.91 108.99 145.203 97.1852 143.498 95.4559C142.151 94.0887 144.391 93.7716 145.214 93.5813C148.274 92.8729 151.357 92.9129 154.45 92.9129C154.488 92.9129 155.11 92.8562 155.523 92.7666ZM155.523 92.7666C155.791 92.7085 155.971 92.6364 155.846 92.5571M149.395 94.9303C149.395 92.3154 148.559 95.3164 148.845 97.188C149.375 100.655 150.438 103.925 151.025 107.361C151.355 109.295 151.324 106.715 151.371 106.019M145.839 102.661C143.675 102.985 146.317 101.914 147.591 101.207C150.449 99.6238 153.538 98.8109 156.353 97.109C156.827 96.8223 156.951 96.5609 156.969 96.5146M156.969 96.5146C156.973 96.5052 156.972 96.5047 156.969 96.5146ZM156.969 96.5146C156.961 96.5426 156.934 96.6537 156.934 96.8835" stroke="black" stroke-linecap="round" stroke-linejoin="round"/>
<path d="M112.456 75.7039C112.127 75.716 111.458 76.0979 111.152 75.8955C111.04 75.822 111.776 74.7557 111.834 74.6653C112.701 73.317 113.489 71.8932 114.249 70.4338C121.505 56.5102 128.797 43.5373 137.662 31.3195C140.516 27.3853 143.692 23.8806 146.278 19.6097C148.061 16.6662 149.715 13.5679 152.072 11.3769C152.73 10.7651 151.161 12.7134 150.948 13.0301C148.61 16.4902 146.633 20.4733 144.403 24.0637C135.401 38.5532 124.999 51.4195 116.967 66.9953C113.586 73.5528 109.574 79.3213 106.002 85.6548C104.671 88.0141 108.09 80.4345 109.306 77.9672C113.59 69.2813 118.948 61.8466 123.833 53.7981C129.214 44.9306 133.761 35.2961 139.755 27.0947C141.47 24.7481 143.279 21.2723 145.583 19.8278" stroke="black" stroke-opacity="0.21" stroke-linecap="round" stroke-linejoin="round"/>
<path d="M150.036 11.4326C149.686 11.1729 147.443 8.76482 147.481 8.76482C149.06 8.76482 152.923 16.9518 153.778 18.3704C158.052 25.46 161.16 33.0473 164.5 40.9358C166.321 45.2354 168.392 47.7885 170.832 51.2758C173.427 54.9859 174.89 59.5437 176.789 63.8649C178.456 67.66 181.117 70.4485 182.601 74.3834C184.458 79.3077 183.031 74.513 182.063 72.5437C177.041 62.327 171.459 52.9785 167.233 42.0361C164.324 34.5053 161.404 25.1023 156.923 19.0167C154.657 15.9393 152.378 12.6991 151.23 8.56206C150.953 7.56616 151.572 10.6647 151.945 11.6023C153.289 14.9817 154.9 18.1087 156.586 21.1935C161.441 30.0776 166.741 38.517 171.272 47.7138C173.949 53.1469 176.805 58.3157 180.079 63.1261C182.156 66.1764 182.44 69.8699 183.978 73.206C185.446 76.3911 187.601 78.7198 188.907 82.2204C189.787 84.5779 188.814 78.7715 188.766 77.8297" stroke="black" stroke-opacity="0.21" stroke-linecap="round" stroke-linejoin="round"/>
<path d="M102.351 76.583C102.157 76.6205 100.312 76.1077 100.761 75.8344C101.952 75.1095 105.706 77.5496 107.058 77.7025C113.232 78.4016 119.437 77.231 125.612 77.1279C133.119 77.0026 140.632 77.196 148.12 77.9491C158.31 78.9739 168.44 81.3027 178.641 82.5087C180.601 82.7404 182.602 82.3753 184.55 82.6485C186.889 82.9765 179.851 82.9099 177.5 83.003C169.453 83.3214 161.406 83.9086 153.355 83.9563C144.422 84.0091 135.443 85.3747 126.515 84.5254C118.368 83.7504 110.047 84.9166 101.974 83.08C101.449 82.9606 94.1609 81.0852 96.957 79.9933C104.353 77.1052 112.814 76.8587 120.439 76.7861C132.96 76.6668 145.519 76.7197 158.038 76.9892C165.972 77.16 173.899 77.9139 181.832 78.1561C183.777 78.2154 185.725 78.1781 187.67 78.1781C188.711 78.1781 186.874 78.8183 186.556 79.0202" stroke="black" stroke-opacity="0.21" stroke-linecap="round" stroke-linejoin="round"/>
<path d="M114.937 82.213C115.833 81.0976 112.758 67.6397 114.339 68.1283C114.957 68.3192 115.186 73.5894 115.3 74.3181C115.705 76.9092 116.257 80.3864 117.634 82.4006C119.038 84.4547 119.155 77.4994 119.162 76.9292C119.213 72.6783 119.131 67.9375 118.055 63.873C116.782 59.0662 118.048 74.5596 119.974 78.958C121.035 81.3827 122.597 81.7714 122.829 78.6021C123.213 73.3423 122.465 68.2415 121.514 63.17C120.745 59.0731 121.45 64.8371 121.609 65.8958C122.129 69.3558 122.31 73.1091 123.214 76.4381C123.919 79.0374 124.962 77.9927 125.143 75.7141C125.572 70.3017 124.705 64.8492 123.63 59.664C123.209 57.628 121.923 51.8789 123.377 57.0684C125.048 63.0347 126.567 69.0747 128.036 75.1353C128.22 75.8945 129.909 84.2973 130.599 80.4423C131.763 73.9443 129.884 65.7302 128.932 59.3964C128.224 54.6864 124.87 41.4205 127.085 45.1963C128.911 48.3087 129.067 55.2575 129.756 58.9638C130.541 63.1869 131.171 71.6199 134.041 74.4439C136.703 77.0621 136.97 71.1488 136.968 69.1733C136.959 61.7683 135.553 54.4831 134.095 47.3913C133.813 46.0206 132.981 41.9219 133.399 43.2287C133.857 44.6609 134.227 46.1298 134.589 47.6098C136.322 54.689 137.643 61.9175 139.277 69.0332C139.614 70.5002 141.8 79.747 143.89 75.3494C146.21 70.4648 143.794 61.0301 142.801 56.1431C141.229 48.3991 134.921 25.928 137.624 33.0881C139.505 38.0701 140.065 44.2898 141.052 49.6553C142.811 59.2185 144.783 69.0822 148.646 77.5626C150.118 80.7955 152.25 83.033 152.618 77.8142C153.29 68.2821 150.032 57.7456 147.659 48.9793C146.239 43.7358 144.549 38.4465 143.557 33.0175C143.373 32.0124 143.154 29.544 144.008 31.6767C146.309 37.4177 147.172 44.7013 148.743 50.841C150.44 57.4761 152.224 68.2818 156.871 72.5182C160.027 75.395 159.794 69.6032 159.388 66.9088C157.507 54.4335 152.486 42.5383 148.834 30.8986C148.117 28.6115 145.521 17.4995 147.576 25.6236C150.149 35.7941 153.258 45.9761 156.954 55.4981C159.392 61.7808 162.805 71.9416 168.149 74.9389C171.22 76.6613 169.951 70.2773 169.381 68.3926C165.638 56.0265 159.682 45.01 154.914 33.3662C153.934 30.9743 150.749 24.3243 152.41 25.8995C153.181 26.6304 153.66 28.7322 154.058 29.7995C156.986 37.6548 159.836 45.6234 163.226 53.1442C166.611 60.6528 170.915 70.3572 177.189 74.0687C178.475 74.8291 180.847 75.8664 179.295 72.9779C174.214 63.515 168.116 55.0643 163.022 45.5782C160.33 40.5641 157.512 35.5025 155.336 30.0357C155.289 29.9194 154.764 28.7723 155.055 28.7412C156.994 28.5341 159.334 35.4398 160.161 37.1244C164.506 45.9861 168.419 55.277 173.023 63.9033C173.653 65.0838 176.244 70.6703 177.796 70.3122C178.203 70.2183 172.555 59.1838 172.239 58.6101C165.794 46.8949 158.875 35.1763 153.484 22.5254C152.81 20.9421 150.844 16.2287 151.774 17.5588C152.724 18.9183 153.264 20.8603 153.874 22.4984C160.163 39.3877 166.98 54.809 177.428 67.6052C178.179 68.5255 181.615 73.3077 179.378 69.425C173.934 59.974 168.621 50.373 163.407 40.6916C160.668 35.6053 157.956 30.5025 155.365 25.2782C154.386 23.3053 154.687 24.4154 155.16 25.8907C158.044 34.8713 161.035 43.7573 164.239 52.5438C166.37 58.3908 169.944 65.135 170.179 71.8539C170.233 73.4102 169.604 68.8257 169.175 67.3779C167.503 61.7327 165.418 56.3536 163.201 51.0662" stroke="black" stroke-opacity="0.21" stroke-linecap="round" stroke-linejoin="round"/>
<path d="M153.692 30.7327C149.918 31.605 156.257 60.4584 156.621 64.5506C156.69 65.3265 156.933 68.8121 156.932 68.5512C156.921 65.6927 156.813 62.8361 156.816 59.9733C156.82 55.7651 156.941 51.2795 157.81 47.2061C158.066 46.003 159.426 43.9938 158.648 45.8266C157.549 48.411 154.797 50.5772 153.062 52.2587C149.013 56.1829 144.528 59.8017 141.351 65.0667C140.868 65.8677 137.747 73.8823 136.916 73.589C136.24 73.3504 139.156 63.5656 139.366 62.9065C141.906 54.9301 145.534 47.7196 149.036 40.4685C150.375 37.6958 151.761 34.938 152.931 32.0261C153.006 31.8397 153.757 30.1202 153.362 30.1857C150.671 30.6323 147.087 36.3069 145.065 38.4428C140.283 43.4946 135.489 48.4492 131.671 54.8787C130.048 57.6111 127.959 63.8795 125.545 65.5011C124.561 66.1618 126.78 63.0567 127.384 61.8225C129.019 58.4838 130.702 55.192 132.552 52.0608C138.314 42.3113 159.569 18.2852 151.866 25.2031C148.073 28.6101 144.803 33.8544 141.548 38.1026C136.596 44.5671 131.9 51.3749 128.907 59.8431C128.7 60.427 125.727 70.5349 126.816 70.3829C130.468 69.8731 134.766 62.853 137.33 59.8503C143.157 53.028 148.911 46.1116 154.659 39.1712C156.448 37.0116 159.448 32.7191 158.084 38.3899C156.244 46.0373 154.194 53.2124 151.33 60.3052C149.134 65.7449 145.978 71.1521 144.339 76.9385C143.304 80.5888 148.636 71.6641 150.618 68.8071C155.257 62.1202 160.12 55.7265 165.864 50.7524C168.346 48.6034 169.26 48.2725 168.613 52.557C167.69 58.6661 165.671 64.5379 164.139 70.3999C163.826 71.596 161.204 79.3813 162.363 80.5377C163.541 81.7135 167.106 77.7706 168 76.9804" stroke="black" stroke-opacity="0.21" stroke-linecap="round" stroke-linejoin="round"/>
</svg>
