<svg width="50" height="72" viewBox="0 0 50 72" fill="none" xmlns="http://www.w3.org/2000/svg">
<path d="M21.9826 59.9351C19.8806 59.9351 26.1686 59.3652 28.2707 59.3652C29.4399 59.3652 30.608 59.4369 31.7775 59.4488C32.692 59.4581 33.6542 59.3796 34.5562 59.5955C35.6936 59.8677 33.8773 60.0722 33.6311 60.0824C30.6638 60.2056 21.7547 60.0824 24.7238 60.0824C26.8685 60.0824 29.0041 60.0917 31.14 60.3687C32.1285 60.4969 33.0983 60.717 34.0944 60.7531C34.2248 60.7578 35.2381 60.7388 34.6376 60.7841" stroke="#E97777" stroke-opacity="0.66" stroke-linecap="round" stroke-linejoin="round"/>
<path d="M21.8953 61.0962C21.8953 60.9182 21.8309 60.5627 21.6014 60.6627C21.4053 60.7482 21.9448 62.3578 21.9755 62.4719C22.4601 64.2741 22.8583 66.1164 23.3083 67.932C23.3093 67.9363 23.3104 67.9405 23.3114 67.9447M23.3114 67.9447C23.3855 68.2456 23.4446 68.5488 23.494 68.8565C23.5003 68.8961 23.3691 68.1989 23.3343 68.0457C23.3267 68.0121 23.3191 67.9784 23.3114 67.9447ZM23.3114 67.9447C22.7825 65.6144 22.2631 63.2974 22.0238 60.8931C21.9981 60.6345 21.8522 59.3451 21.8627 59.3655C22.119 59.8622 22.188 60.5595 22.2878 61.1163C22.523 62.4294 22.7203 63.7513 22.9394 65.0683C23.1472 66.3171 23.3249 67.6247 23.6633 68.8361C23.779 69.2502 23.8542 68.9928 23.8763 68.7032M22.9415 60.7055C22.9462 60.5915 23.0067 60.4221 23.0403 60.3137C23.0943 60.1399 22.7823 60.8934 22.7446 61.0198C22.0129 63.4769 23.7665 60.032 23.8111 60.1247C23.861 60.2283 23.4799 60.9219 23.4357 61.0481C23.2737 61.5103 23.1277 61.9891 23.0261 62.4759C22.7692 63.7055 23.6679 61.976 23.7934 61.7149C23.9173 61.4573 24.2571 60.3901 24.5119 60.3042C24.845 60.1919 24.2658 61.0811 24.1271 61.4617C24.0124 61.7761 23.1836 64.6419 23.4878 64.495C23.9738 64.2602 24.3613 62.9757 24.5902 62.4859C24.9021 61.8187 25.1992 61.1423 25.5089 60.4738C25.6113 60.2526 25.8348 59.5034 26.0599 59.4064C26.1052 59.3868 25.9893 59.8514 25.9829 59.8701C25.824 60.3285 25.6414 60.7745 25.4621 61.2217C25.0074 62.3555 24.5701 63.4999 24.1648 64.6604C24.1272 64.7681 23.6438 66.2572 23.8553 66.2681C24.2754 66.2896 24.8185 64.7178 24.9755 64.3804C25.5003 63.2527 25.9582 62.0514 26.6034 61.0124C27.0467 60.2986 26.613 61.3429 26.5153 61.5457C25.9803 62.6557 25.4548 63.7712 24.9883 64.9256C24.6503 65.7619 24.0518 66.9652 24.0984 67.9372C24.1137 68.2564 25.0638 66.5934 25.1246 66.4679C25.9963 64.6689 26.9197 62.9133 27.9427 61.2318C27.9787 61.1726 28.8851 59.8786 28.6256 60.4329C28.0907 61.5757 27.4065 62.6338 26.8448 63.7615C26.1648 65.1265 25.4677 66.7028 25.2779 68.2976C25.1434 69.4284 26.2925 67.4693 26.3948 67.2838C27.3293 65.5892 28.1868 63.8291 29.1999 62.1983C29.5537 61.6288 30.544 59.921 30.3763 60.6023C30.2927 60.9417 30.0134 61.2796 29.8475 61.5622C29.4665 62.2114 29.091 62.8642 28.7323 63.5316C28.0612 64.7801 27.2461 66.2375 27.0385 67.7308C26.9238 68.5558 28.0759 66.8083 28.1422 66.6939C29.0837 65.0691 29.946 63.3656 31.0162 61.8542C31.0798 61.7644 32.1374 60.5965 32.0308 60.9096C31.8731 61.3725 31.5212 61.8002 31.2849 62.207C30.8922 62.8832 30.5144 63.572 30.1468 64.2682C30.0234 64.502 28.7371 66.8147 29.0192 67.0273C29.3826 67.3011 30.4424 65.2371 30.5824 64.999C31.3909 63.6241 32.2125 62.2666 33.2005 61.0671C33.8855 60.2354 33.2745 61.1926 33.0483 61.547L33.0319 61.5726C32.2326 62.8255 31.4647 64.1273 30.8605 65.5323C30.5758 66.1942 30.2924 66.8909 30.1131 67.6063C30.0713 67.7728 30.0345 68.0374 30.2218 67.8136C31.76 65.9754 32.2587 62.8934 34.0056 61.2661C34.3961 60.9024 33.6795 62.0012 33.6446 62.0611C32.906 63.3262 32.1684 64.648 31.5814 66.0243C31.3717 66.5159 31.1845 67.3702 31.7403 66.5502C32.4633 65.4837 33.061 64.2885 33.6797 63.1346C33.731 63.0388 34.5768 61.7571 34.3521 62.2865C33.9789 63.1661 33.4899 63.9836 33.0826 64.8415C32.916 65.1924 32.2867 66.2395 32.424 66.6868C32.4341 66.72 33.0671 65.605 33.1149 65.5058C33.1863 65.3577 34.2091 63.4652 34.0873 64.0536C34.0363 64.2996 32.9645 66.8897 32.9918 66.8907C33.2383 66.8996 33.7523 65.5481 33.8614 65.3248C33.9261 65.1925 34.4915 64.0395 34.2227 64.7001C33.9222 65.4383 33.6279 66.1817 33.3765 66.9463L33.3733 66.9558C33.3133 67.1382 32.9233 68.3234 33.2235 67.703M34.728 60.9844C34.7282 60.9839 34.7284 60.9835 34.7286 60.983M34.7286 60.983C34.8911 60.6227 34.9493 59.3785 34.8323 59.7621C34.7759 59.9469 34.7458 60.3978 34.7286 60.983ZM34.7286 60.983C34.6772 62.7414 34.7433 65.7133 34.5671 66.3299M34.5671 66.3299C34.5467 66.4014 34.523 66.4412 34.4956 66.4439C34.2225 66.4703 34.5582 61.9695 34.6201 60.8841M34.5671 66.3299C34.5808 65.1648 34.6063 62.0707 34.6201 60.8841M34.5671 66.3299C34.5615 66.8087 34.5579 66.9618 34.5579 66.5231M34.6201 60.8841C34.6261 60.7781 34.6296 60.7046 34.6296 60.6712C34.6296 60.2266 34.6259 60.3899 34.6201 60.8841Z" stroke="#E97777" stroke-opacity="0.66" stroke-linecap="round" stroke-linejoin="round"/>
<path d="M4.31703 45.88C1.863 49.9296 7.87613 36.7914 10.0393 32.5071C14.1535 24.3585 18.4773 16.1653 23.2772 8.59468C23.5822 8.11372 24.1664 6.22979 24.7506 6.22979C24.9377 6.22979 24.1368 7.49438 24.0576 7.63262C22.4423 10.4534 20.7633 13.2055 19.3091 16.1569C15.9343 23.0064 12.1778 29.6339 8.93473 36.5687C7.53448 39.5629 6.00629 42.466 4.59157 45.4513C4.41726 45.8191 3.59275 47.4198 3.61765 47.4103M25.2801 5.61461C25.2165 5.55899 24.6438 5.00232 24.5511 4.9936M24.5511 4.9936C24.5432 4.99285 24.5387 4.99616 24.5385 5.00418C24.5026 6.19496 25.6815 7.75472 26.2841 8.73258M24.5511 4.9936C25.0275 5.73359 25.3481 6.72227 25.6784 7.43633C25.8788 7.86966 26.0807 8.30175 26.2841 8.73258M24.5511 4.9936C24.2998 4.60317 24.0051 4.28196 23.6427 4.10685C23.4232 4.00079 22.3724 3.63574 23.0619 3.63574M26.2841 8.73258C26.3296 8.80642 26.3718 8.87695 26.41 8.94375C29.7388 14.7705 33.306 20.3924 36.7187 26.1443C38.2878 28.7889 39.7616 31.4877 41.2342 34.1996M26.2841 8.73258C28.8426 14.1527 31.6378 19.3729 34.7568 24.3526C36.8354 27.6711 39.0859 30.8945 41.2342 34.1996M41.2342 34.1996C41.5754 34.8278 41.9165 35.4567 42.2587 36.0858C43.3408 38.0751 44.717 39.6855 45.6055 41.8347C46.0184 42.8335 47.476 45.205 46.2016 42.6716C44.7194 39.7248 43.0118 36.9342 41.2342 34.1996ZM4.51251 47.4522C3.39186 47.4522 4.75966 47.2183 5.57177 47.0282M5.57177 47.0282C5.77606 46.9804 5.94518 46.9353 6.03069 46.8975C6.50841 46.6859 6.98051 46.4568 7.44813 46.2138M5.57177 47.0282C6.49969 46.3249 7.40836 45.5697 8.30604 44.8559C10.9765 42.7325 13.8663 41.4735 16.8127 40.3678M5.57177 47.0282C4.92739 47.5166 4.27372 47.98 3.60801 48.3871C3.21581 48.6269 2.17172 49.2866 3.25455 48.7384C4.6914 48.011 6.07011 47.1096 7.44813 46.2138M7.44813 46.2138C8.98154 45.4168 10.4668 44.4694 11.9444 43.4952M7.44813 46.2138C8.18252 45.7364 8.91672 45.2605 9.65942 44.8135C10.4154 44.3584 11.1778 43.9212 11.9444 43.4952M11.9444 43.4952C13.5587 42.4309 15.1639 41.3346 16.8127 40.3678M11.9444 43.4952C14.5602 42.0416 17.2238 40.7184 19.8393 39.2622M16.8127 40.3678C17.4873 39.9721 18.1693 39.5981 18.8623 39.2568C20.2117 38.5922 21.5509 38.0514 22.9355 37.565M16.8127 40.3678C17.8171 39.9908 18.8281 39.6317 19.8393 39.2622M22.9355 37.565C23.158 37.4868 23.3818 37.41 23.6069 37.3343C24.3935 37.0699 25.1643 36.4505 25.9706 36.3157C27.2081 36.1088 24.8088 37.2262 24.6755 37.2899C23.0808 38.0512 21.4599 38.67 19.8393 39.2622M22.9355 37.565C21.9507 38.1014 20.9642 38.6335 19.9838 39.1816C19.9357 39.2085 19.8875 39.2354 19.8393 39.2622M22.9355 37.565C23.7374 37.1282 24.5382 36.6886 25.3336 36.2351C25.8967 35.9141 25.4072 36.2469 25.2054 36.4613M28.1234 35.6054C27.6818 35.6054 27.4847 35.3634 28.0432 35.773C31.3176 38.1743 34.9572 39.4751 38.3441 41.5726C40.8561 43.1283 43.4087 44.571 45.99 45.9503C46.3142 46.1235 47.8175 46.9198 46.7992 46.0077C43.5212 43.0717 39.5845 40.893 35.7117 39.4503C33.7964 38.7368 28.4418 35.3781 30.2931 36.3051C34.4065 38.3649 38.4989 40.5208 42.5901 42.6481C44.5823 43.684 46.515 44.8816 48.4664 46.023C50.0051 46.9231 47.747 45.2076 47.3744 44.9672M35.135 17.1252C35.1249 16.3642 34.9783 15.3009 35.3745 14.6291C35.5389 14.3502 35.3602 15.3205 35.3282 15.6636C35.2345 16.6654 35.3016 17.7126 35.3016 18.7192C35.3016 19.0854 35.3027 19.4516 35.3047 19.8177M35.3047 19.8177C35.3209 22.7955 35.3946 25.7726 35.3946 28.7511C35.3946 30.1244 35.2975 31.5365 35.3521 32.9181M35.3047 19.8177C35.1389 20.5383 34.9475 21.2648 34.9127 21.9947C34.7936 24.4923 35.1614 30.206 35.3521 32.9181M35.3047 19.8177C35.4417 19.223 35.5613 18.6322 35.5613 18.0469C35.5613 17.6185 35.3615 18.5578 35.3401 18.6762M35.3521 32.9181C35.3614 33.1545 35.3751 33.3899 35.3946 33.6241C35.5085 34.9965 35.4572 34.4137 35.3521 32.9181ZM36.086 16.2503C36.0538 16.314 36.0144 16.364 35.9699 16.4025M35.9699 16.4025C35.4923 16.8163 34.4369 15.9042 35.6624 16.3211C35.7511 16.3513 35.8547 16.3783 35.9699 16.4025ZM35.9699 16.4025C37.3323 16.688 40.3067 16.5712 39.2142 16.5303C38.5768 16.5064 37.9373 16.5569 37.3 16.5263C37.1717 16.5201 36.1099 16.359 36.1636 16.3104C36.9379 15.61 39.3864 15.7443 39.928 16.8086M40.3982 15.5373C40.3716 15.4625 40.0531 14.7754 40.0506 15.0485C40.0355 16.7088 39.964 18.3682 39.9348 20.0285C39.8731 23.5257 40.2596 33.9375 39.664 30.5173C39.2997 28.4251 39.3402 26.1465 39.1566 24.0208C39.0115 22.3408 38.7735 20.4544 38.76 18.6259M38.76 18.6259C38.7519 17.5441 38.8224 16.4825 39.0371 15.496C39.2652 14.448 38.9001 17.1037 38.76 18.6259ZM38.76 18.6259C38.7393 18.8503 38.7235 19.05 38.7153 19.2097C38.6079 21.2854 38.5508 23.3424 38.5508 25.4233M17.7157 47.8347C17.5668 47.2353 17.8205 46.6322 17.8205 47.5278C17.8205 47.7619 17.8216 47.996 17.8238 48.2299M17.8238 48.2299C17.839 49.9039 17.9047 51.5738 17.9646 53.247C17.9764 53.5755 17.8951 55.3821 18.0956 55.0241C19.2805 52.9092 23.3949 53.4417 25.1944 53.4417C26.1898 53.4417 25.5948 52.8282 25.3794 51.7713C25.2841 51.3035 24.7701 46.4251 24.6549 46.399C24.4895 46.3614 23.8902 46.8715 23.719 46.9384C22.2146 47.5259 20.6094 47.8184 19.0541 48.1315C18.9277 48.1569 18.3282 48.1905 17.8238 48.2299ZM17.8238 48.2299C17.2154 48.2774 16.7455 48.3334 17.4111 48.3939M20.2778 48.1367C20.4023 47.857 20.3587 47.5137 20.3587 47.2064C20.3587 45.6022 20.4936 50.412 20.4936 52.0162C20.4936 52.1947 20.6081 55.6252 20.8581 54.7729C20.9718 54.3853 20.8902 53.6927 20.8476 53.3049M17.6969 51.4635C17.5667 51.3871 16.9481 51.1746 17.0686 51.1746C18.3719 51.1746 19.6497 50.9121 20.9432 50.7344C22.5759 50.5101 24.6056 50.5088 26.0868 49.5305C26.5266 49.2401 25.9977 49.3006 25.795 49.385M30.3687 48.8452C30.4846 48.506 30.5925 47.9511 30.6596 47.6766M30.6596 47.6766C30.7063 47.4857 30.7332 47.4304 30.7294 47.6773M30.6596 47.6766C30.6822 47.6757 30.7055 47.676 30.7294 47.6773M30.6596 47.6766C30.5699 47.6802 30.4917 47.7033 30.4344 47.7582C30.2292 47.9546 29.9473 48.2595 30.3818 48.3005M30.7294 47.6773C30.7281 47.7651 30.7229 47.8909 30.7133 48.0624C30.5993 50.1027 30.9371 52.2959 30.9371 54.2156C30.9371 55.1511 31.8558 54.2149 32.3395 54.0392C33.8794 53.4799 35.5083 53.9207 37.0226 53.3394C37.4681 53.1684 37.5458 53.1177 37.3179 52.5688C36.8286 51.3902 35.4781 48.0442 36.0431 46.6957C36.1706 46.3914 35.6235 46.8991 35.3885 46.9909C34.2282 47.4441 32.7658 47.8106 31.5477 47.8354C31.3435 47.8395 30.9993 47.6926 30.7294 47.6773ZM33.4001 48.4336C33.0246 45.5292 33.6289 50.5082 33.6299 51.2205C33.6317 52.4523 33.6299 53.6842 33.6299 54.916C33.6299 54.9402 33.6311 55.5143 33.6803 55.4265C33.9119 55.0125 33.9318 54.0687 33.9825 53.5867M31.1722 51.1798C29.6682 51.1798 31.6793 50.5891 32.1789 50.556C33.546 50.4652 34.886 50.6526 36.2467 50.6661C36.4732 50.6684 35.9142 50.6693 35.8047 50.7142M22.52 60.6451C22.2865 60.6185 22.0977 60.1381 22.1136 60.4993M22.1136 60.4993C22.1141 60.5122 22.115 60.5262 22.1161 60.5414C22.2482 62.3611 22.5857 64.0353 23.1007 65.7617C23.183 66.0377 24.2392 68.809 23.9052 67.8505C23.2525 65.9777 23.0146 63.8521 22.5171 61.9164C22.4902 61.8119 22.2987 61.086 22.1136 60.4993ZM22.1136 60.4993C22.0329 60.2436 21.9534 60.0144 21.8893 59.8744M21.8893 59.8744C21.8243 59.7327 21.7751 59.6826 21.7563 59.7895C21.75 59.8252 21.7983 59.8531 21.8893 59.8744ZM21.8893 59.8744C22.5824 60.0371 25.7499 59.8206 26.0689 59.8142C27.9741 59.7757 29.8771 59.7075 31.7058 60.1313C32.5182 60.3196 33.5373 60.2784 34.3793 60.2784C34.4593 60.2784 33.7551 64.565 33.7162 64.9647C33.6704 65.4353 33.7114 66.2937 33.7756 67.0636M33.7756 67.0636C33.8682 68.1728 34.0093 69.0984 34.0093 68.4158C34.0093 67.9413 33.912 67.4964 33.7756 67.0636ZM33.7756 67.0636C33.5735 66.422 33.2853 65.807 33.1005 65.1615M28.1799 60.2235C28.1799 58.2285 28.1658 62.0611 28.1741 62.3985C28.217 64.1442 28.2304 65.883 28.4437 67.6092C28.4823 67.9215 28.4727 67.0475 28.4727 66.9557M29.7961 63.9879C29.7901 63.7571 29.3224 63.1908 29.9179 63.6133C30.2408 63.8423 30.799 63.4979 30.0471 63.4979M26.6935 63.8627C26.6935 62.8296 26.6599 65.2405 26.6599 63.3799M40.4437 49.8602C40.4413 49.8112 40.4385 49.762 40.4354 49.7127M40.4354 49.7127C40.3698 48.6742 40.1621 47.5974 40.4225 46.576C40.6448 45.7039 41.0385 44.9313 41.2793 44.0741C41.4983 43.2946 40.8647 46.3111 40.8284 46.5757C40.6854 47.6184 40.557 48.6647 40.4354 49.7127ZM40.4354 49.7127C40.3277 50.6404 40.2254 51.5695 40.1231 52.4985M40.1231 52.4985C40.11 52.6172 40.0969 52.7359 40.0839 52.8545M40.1231 52.4985C40.145 52.4217 40.167 52.3448 40.189 52.268M40.1231 52.4985C39.5941 54.3539 39.0956 56.2216 38.6324 58.1048C37.9655 60.8162 36.9789 69.2038 37.08 66.379M40.0839 52.8545C39.6914 56.4133 39.2878 59.9704 38.5693 63.4532M40.0839 52.8545C39.9965 53.3523 39.9131 53.8525 39.8311 54.3542C39.3372 57.3773 38.9807 60.4155 38.5693 63.4532M40.0839 52.8545C40.1182 52.6587 40.1532 52.4631 40.189 52.268M38.5693 63.4532C38.5491 63.5509 38.5287 63.6486 38.508 63.7462C38.4359 64.0872 38.3932 64.4244 38.366 64.7602M38.5693 63.4532C38.5567 63.5459 38.5441 63.6387 38.5315 63.7314C38.4847 64.0739 38.4262 64.4167 38.366 64.7602M38.366 64.7602C38.2969 65.6138 38.3279 66.4579 38.229 67.3294C38.2 67.5852 38.0345 68.045 38.0345 67.5084C38.0345 66.5847 38.2064 65.6702 38.366 64.7602ZM40.189 52.268C40.6611 49.6923 41.2676 47.1884 42.3676 44.8636L42.3794 44.8387C42.4005 44.794 42.4238 44.7448 42.4488 44.6918M40.189 52.268C40.6888 50.5242 41.2154 48.7914 41.7646 47.0669C41.9941 46.3461 42.2002 45.5066 42.4488 44.6918M42.4488 44.6918C42.8727 43.7954 43.8037 41.8147 43.3809 42.4767C42.9851 43.0963 42.696 43.8818 42.4488 44.6918ZM10.7271 45.6144C10.7264 45.5443 10.7241 45.4769 10.7206 45.4125M10.7206 45.4125C10.6678 44.4411 10.3345 44.1546 10.7206 45.4125ZM10.7206 45.4125C10.75 45.5083 10.7836 45.6131 10.8218 45.7272C12.42 50.5012 14.2091 55.3291 16.1364 59.9204C17.2733 62.6288 19.1811 65.272 19.4639 68.3866C19.5838 69.7074 18.2665 65.6522 18.093 65.2382C16.4649 61.3538 14.233 57.6305 12.6365 53.6597M12.6365 53.6597C12.1895 52.548 11.7922 51.4168 11.472 50.2573C11.2747 49.5428 10.4142 46.0082 11.1673 48.6377C11.6477 50.3148 12.1343 51.9906 12.6365 53.6597ZM12.6365 53.6597C13.7502 57.3615 14.9403 61.03 16.3085 64.6056C17.0422 66.523 17.7646 68.5058 18.6957 70.3005C19.418 71.6927 19.2101 70.7442 18.9263 69.7251M19.3256 69.8283C19.3826 69.2779 23.6005 69.1481 25.7337 69.1175M25.7337 69.1175C26.396 69.1079 26.8574 69.108 26.9308 69.108H26.9358C27.9492 69.108 28.7805 68.7479 29.7876 68.7479C30.3645 68.7479 30.9175 68.5731 31.4525 68.3957M25.7337 69.1175C26.4583 68.9148 27.1888 68.7479 27.914 68.7479C29.1026 68.7479 30.2781 68.5904 31.4525 68.3957M25.7337 69.1175C24.6149 69.4303 23.5099 69.8283 22.4592 69.8283C21.5143 69.8283 20.7082 70.1884 19.7732 70.1884H22.9069C25.7352 70.1884 28.7508 70.1618 31.4124 69.4481C32.9189 69.0442 35.0183 69.1832 36.3367 68.3878M31.4525 68.3957C32.0033 68.213 32.5349 68.0277 33.0538 68.0277C33.9848 68.0277 34.8407 67.6676 35.7398 67.6676H37.1988C35.2523 67.6676 33.3538 68.0804 31.4525 68.3957Z" stroke="black" stroke-linecap="round"/>
<path d="M1 50.0433C1.79942 47.1434 6.03193 40.0933 8.0827 36.297C11.1238 30.6677 13.609 24.717 16.7891 19.1713C19.0003 15.3152 20.3755 10.3778 23.1425 7.04593C24.1296 5.85731 25.5958 3.47165 23.7996 6.30178C19.9677 12.3395 16.6396 18.8732 13.6306 25.5398C11.2163 30.8889 8.45339 36.025 5.92317 41.2974C4.74826 43.7456 3.2131 46.0615 2.21575 48.6218" stroke="black" stroke-opacity="0.21" stroke-linecap="round" stroke-linejoin="round"/>
<path d="M23.6962 6.78676C23.6962 6.37307 23.8844 5.11573 23.3249 5.11573C22.5907 5.11573 23.898 7.70192 23.9437 7.78344C26.0546 11.5466 28.8595 14.7772 31.2918 18.2389C33.2894 21.0819 34.7335 24.2176 36.4676 27.2785C37.534 29.1608 38.6027 31.2524 39.8667 32.9431C41.1365 34.6415 42.5615 36.1143 43.7372 37.9222C44.5964 39.2434 45.1654 40.8755 46.0831 42.1234C46.2905 42.4054 44.9414 40.0859 44.6878 39.5886C41.2821 32.9119 37.3325 26.5963 34.0659 19.8312C32.8665 17.3472 31.871 14.7135 30.5931 12.2848C29.3973 10.0124 27.9995 7.93375 27.0223 5.50149C26.2487 3.57595 22.9345 -2.26375 25.2939 3.43115C27.5511 8.8797 30.4607 13.8856 32.7955 19.2912C35.2291 24.9256 38.5056 30.2147 41.5412 35.4064C43.0089 37.9166 44.6238 40.9711 45.478 43.889C45.6308 44.4108 45.5672 45.2204 46.1108 45.2204" stroke="black" stroke-opacity="0.21" stroke-linecap="round" stroke-linejoin="round"/>
<path d="M1.94166 50.4811C1.94166 50.8628 1.59629 50.9826 1.36173 51.1711C0.33059 51.9997 3.69808 50.1526 4.80508 49.4811C9.72021 46.4994 14.8886 44.2133 19.8348 41.3065C22.4206 39.7868 25.0094 38.4953 27.8394 37.8256C28.7296 37.6149 25.792 38.9258 25.3755 39.1196C21.5981 40.8777 17.8132 42.5949 13.9867 44.194C10.6562 45.5858 7.07393 46.5538 4.02036 48.7479C2.10224 50.1261 5.2097 48.4097 5.70205 48.1674" stroke="black" stroke-opacity="0.21" stroke-linecap="round" stroke-linejoin="round"/>
<path d="M34.2578 22.4011C34.2578 22.1652 34.2908 21.9492 34.2908 21.7119" stroke="black" stroke-opacity="0.21" stroke-linecap="round" stroke-linejoin="round"/>
<path d="M34.1891 21.6191C34.1891 20.6537 34.2567 19.6813 34.2567 18.7089C34.2567 18.0238 34.2764 17.0688 34.1662 18.4794C33.8535 22.4826 33.8905 26.5159 33.552 30.5177C33.5025 31.1035 33.3127 36.0428 33.4029 33.8861C33.5991 29.1912 34.1669 24.4788 34.4635 19.7862C34.5586 18.2807 33.7289 16.9271 35.1179 16.7026C35.7507 16.6003 39.8755 16.0631 40.0292 17.2426C40.0513 17.4122 39.4181 17.1721 39.3688 16.676C39.2252 15.2305 39.0788 17.5051 39.0703 17.8723C38.9813 21.7309 39.1119 25.5899 38.8974 29.4451C38.8075 31.0596 38.6388 32.8501 38.8298 34.466C39.0531 36.3559 39.1334 30.6593 39.131 28.7501C39.1266 25.4135 38.7865 22.0914 38.7865 18.7471C38.7865 18.5417 38.9583 17.2385 38.8505 17.9509C38.4694 20.4697 38.8844 23.3138 38.9374 25.8597C38.9962 28.6813 38.9885 31.5115 38.9067 34.3316C38.8984 34.6167 38.9855 33.286 39.0118 33.0624" stroke="black" stroke-opacity="0.21" stroke-linecap="round" stroke-linejoin="round"/>
<path d="M28.2459 37.902C28.2239 37.6486 26.4346 37.3734 27.4408 37.7367C29.2358 38.3848 31.0217 38.9587 32.8469 39.4836C35.0191 40.1084 37.0404 41.2436 39.221 41.8247C41.0712 42.3177 42.841 42.7845 44.6604 43.4342C45.107 43.5936 47.5618 44.4623 45.8631 43.8957C40.8408 42.2203 35.6656 41.9984 30.6865 39.9799C29.4175 39.4654 28.1682 38.8853 27.0133 38.0684C26.7527 37.8841 26.2468 37.7743 26.956 37.9456C31.6526 39.08 36.1828 41.128 40.8375 42.4325C42.7263 42.9619 44.606 43.5395 46.5016 44.0334C47.5404 44.3041 46.9958 44.1615 46.3595 43.6569" stroke="black" stroke-opacity="0.21" stroke-linecap="round" stroke-linejoin="round"/>
<path d="M4.31077 46.7562C4.31077 46.9715 4.45991 46.4657 4.32562 46.8645C4.15521 47.3706 3.71288 49.1827 4.3977 47.7792C5.0382 46.4665 5.42522 44.9709 5.88579 43.5604C6.09009 42.9348 6.5736 41.6825 6.1692 43.0562C5.88173 44.0328 5.57407 45.0033 5.34502 46.0031C5.26753 46.3413 5.11199 47.0379 5.4292 46.3857C5.91446 45.3881 6.18689 44.2103 6.50291 43.1265C6.77145 42.2056 7.02522 41.2782 7.30264 40.3611C7.42244 39.9651 7.6887 38.7687 7.69859 39.19C7.72014 40.108 6.93985 41.4783 6.6781 42.3328C6.35069 43.4018 6.04365 44.4846 6.02203 45.6332C6.00802 46.3777 6.48504 45.0294 6.54212 44.8818C7.29537 42.9337 7.96272 40.9328 8.60828 38.9301C9.06487 37.5137 9.46435 36.0741 9.90658 34.6517C10.0717 34.1205 10.2368 33.3431 10.57 32.9146C11.2362 32.0579 9.97631 35.1525 9.6351 36.2524C8.91896 38.561 8.24531 40.9318 8.04782 43.3986C7.94761 44.6503 8.18363 44.5103 8.53545 43.4707C9.38508 40.96 9.96777 38.2949 10.679 35.724C11.2261 33.7466 11.6699 31.3698 12.6689 29.62C13.1191 28.8314 12.208 31.4533 11.9394 32.3543C11.1089 35.1392 10.4493 37.9935 10.0846 40.9228C10.0368 41.3071 9.89591 44.4562 9.95363 44.3869C10.2894 43.9838 10.4433 43.1772 10.5975 42.6628C11.0391 41.19 11.4415 39.6985 11.8388 38.2077C12.833 34.4781 13.5099 30.5583 14.7847 26.9482C15.0312 26.2505 15.3035 25.5654 15.5697 24.8785C15.7397 24.4398 15.6741 24.6886 15.5589 24.982C13.7095 29.6901 12.5778 34.947 12.4283 40.1605C12.4013 41.1001 12.6339 41.3452 13.0448 40.4003C13.9732 38.265 14.4413 35.7812 15.0201 33.4901C16.0314 29.4867 16.9318 25.4129 18.176 21.5022C18.4756 20.5602 18.8266 19.6441 19.1389 18.7083C19.1532 18.6655 19.4438 17.6604 19.4116 17.6617C19.1751 17.6714 18.8717 18.6414 18.7978 18.8285C18.329 20.0153 17.9265 21.2369 17.5746 22.4806C16.3881 26.6731 15.6852 30.9835 14.9367 35.3115C14.5947 37.2894 13.9568 39.5954 14.1462 41.6483C14.1721 41.9294 14.3949 41.7194 14.4562 41.5888C14.8618 40.7249 14.9992 39.6076 15.1967 38.6595C16.1849 33.9165 17.1237 29.1419 18.3641 24.4834C19.2703 21.08 20.4421 17.929 21.6465 14.6805C21.7722 14.3414 22.59 12.3006 21.9362 13.5377C20.8471 15.5987 20.2618 18.0484 19.6779 20.3652C18.506 25.0154 17.749 29.8475 17.066 34.6329C16.909 35.733 16.7244 36.8415 16.6395 37.9543C16.6359 38.0018 16.5562 38.5716 16.7244 38.3956C17.0387 38.0668 17.1346 37.237 17.2362 36.7913C17.5268 35.5162 17.7615 34.2184 18.0134 32.9315C18.8711 28.5495 19.7089 24.1622 20.7174 19.8259C21.4452 16.6967 24.193 7.54438 23.0656 10.4963C22.2395 12.6591 21.7996 15.0891 21.2966 17.3793C20.2336 22.219 19.5527 27.1907 19.0615 32.1584C18.9202 33.5872 18.7781 35.0203 18.7188 36.4583C18.7116 36.6308 18.592 37.5881 18.7482 37.7047C19.0367 37.9201 19.9358 33.4032 19.988 33.1563C20.9284 28.7091 21.8405 24.2539 22.9529 19.8629C23.3588 18.2609 23.7975 16.6714 24.2476 15.0867C24.4096 14.5161 25.0192 12.8792 24.735 13.3755C23.5616 15.4237 22.9882 18.1332 22.4002 20.4738C21.2179 25.1799 20.5315 30.0741 20.0671 34.9549C20.0049 35.6086 19.7874 38.0354 20.3414 36.1292C21.3224 32.7539 21.9777 29.199 22.7467 25.7484C23.3596 22.9984 23.887 19.9735 25.0353 17.4501C25.5481 16.3232 24.2999 19.864 23.9811 21.0904C22.9339 25.119 22.2971 29.2384 21.7012 33.3923C21.5527 34.4274 21.3752 35.4716 21.3083 36.5207C21.2755 37.0337 21.4887 36.3398 21.5412 36.1948C22.4579 33.66 22.9627 30.7789 23.5368 28.1122C24.2787 24.6656 24.5611 20.7704 25.8315 17.5246C25.9038 17.3401 26.0373 17.0112 25.992 17.4216C25.8908 18.3392 25.5639 19.2563 25.3527 20.1425C24.4505 23.9278 23.6969 27.8024 23.2858 31.7118C23.2719 31.844 22.9284 35.8949 23.1857 35.8223C23.3965 35.7629 23.5107 34.9678 23.5572 34.7805C23.8528 33.5913 24.0861 32.3786 24.3325 31.1736C24.6952 29.3997 25.0394 27.6207 25.3787 25.8402C25.6632 24.3468 25.8846 22.7345 26.4213 21.3337C26.5348 21.0375 26.8105 20.1994 27.188 20.2541C27.4665 20.2945 27.3163 21.6437 27.3024 21.8208C27.0409 25.1375 26.4265 28.443 26.0089 31.735C25.8261 33.1762 25.6341 34.6207 25.5535 36.0767C25.5507 36.1279 25.4825 37.2039 25.6346 37.1051C25.969 36.8881 26.0804 35.9274 26.1687 35.5518C26.5135 34.0857 26.8167 32.6043 27.1021 31.1199C27.7427 27.7886 27.9369 23.8651 29.2787 20.8018C29.9377 19.2972 29.6744 22.4184 29.6368 22.7463C29.2383 26.2242 28.6902 29.6744 28.2518 33.1449C28.2131 33.4516 28.0107 36.7726 28.0962 36.6923C28.3586 36.4459 28.4152 35.5657 28.4825 35.2195C28.7753 33.7128 29.018 32.1901 29.2417 30.6666C29.6588 27.826 29.6909 24.685 30.4713 21.9471C30.8056 20.774 30.6324 23.5613 30.6096 23.74C30.4491 24.999 28.8249 37.2545 29.204 37.2545C29.54 37.2545 29.8188 33.7028 29.8522 33.4302C30.1898 30.6794 30.3081 27.8933 30.6643 25.1479C30.6808 25.0205 31.1124 22.9589 31.1145 23.9411C31.1185 25.8473 30.8012 27.8272 30.6759 29.729C30.5084 32.2722 30.2123 34.8971 30.3384 37.4525C30.3896 38.4903 30.7241 36.3408 30.7445 36.1879C31.2569 32.3419 31.7537 20.7181 32.0062 24.6015C32.144 26.7224 31.7681 28.9367 31.5718 31.0365C31.4433 32.4118 31.2906 33.7921 31.2378 35.1755C31.2182 35.6876 31.1267 36.3867 31.321 36.8696C31.5955 37.5519 31.8191 36.7568 31.875 36.4268C32.2016 34.499 32.2465 32.4967 32.2635 30.5364C32.2713 29.64 32.2599 28.7435 32.2683 27.8472C32.2719 27.4575 32.3368 28.2375 32.3401 28.3095C32.4461 30.6337 32.3729 32.9871 32.3729 35.3139C32.3729 35.5363 32.1947 39.125 32.4875 39.1761C32.6479 39.2041 32.9687 35.3793 32.9934 35.1181C33.1159 33.8266 33.2124 32.5329 33.304 31.2378C33.3639 30.3927 33.3057 29.3079 33.5704 28.5054C33.6997 28.1136 33.778 28.9589 33.7819 29.028C33.8357 29.9699 33.8011 30.9269 33.7991 31.8703C33.7935 34.4325 33.5272 36.9774 33.4543 39.5356C33.4353 40.2005 33.5198 41.0748 33.6869 39.878C33.973 37.8285 34.1773 35.7645 34.3753 33.7005C34.3951 33.4944 34.7223 30.5371 34.8994 31.8669C35.1063 33.4203 34.9858 35.0868 34.9858 36.6526C34.9858 37.2533 34.7092 39.8534 35.2073 40.2941C35.2692 40.3488 35.6144 37.7168 35.6341 37.5115C35.799 35.7932 35.5884 33.7113 36.018 32.0652C36.1285 31.6418 36.2274 32.4893 36.2348 32.5729C36.3066 33.3744 36.2926 34.1881 36.3037 34.9931C36.3255 36.5783 36.3176 38.2074 36.6118 39.7627C36.669 40.0647 36.7783 40.7891 36.8776 40.1074C37.0802 38.7178 37.1242 37.2991 37.2035 35.8942C37.2355 35.3278 37.3377 33.8024 37.6266 35.1519C37.9439 36.6344 38.0842 38.1728 38.3652 39.6667C38.4568 40.1541 38.5523 41.4327 38.9737 41.7191C39.1754 41.8563 39.1957 40.4326 39.2009 40.3016C39.2375 39.3872 39.1258 38.2827 39.3463 37.3972C39.4352 37.0402 39.7457 38.2513 39.7833 38.3682C40.0899 39.3232 40.6773 40.0862 40.7347 41.1309C40.8008 42.3352 40.7721 40.1899 40.7536 39.9189C40.6815 38.8606 40.2158 37.7568 39.9026 36.7837C39.4918 35.5077 39.0985 33.947 38.2237 33.0076C37.479 32.2079 36.4752 31.8433 35.6898 31.0994C34.8653 30.3185 34.238 29.1352 33.3517 28.4709C33.1027 28.2843 32.7442 28.2765 32.5281 28.0426C32.2991 27.7949 32.8394 27.7746 32.9319 27.8107C33.8923 28.1853 34.6807 30.2945 35.1303 31.2514C36.0877 33.2889 36.725 35.5894 37.9874 37.4026C38.6152 38.3043 39.2776 39.2107 39.9404 40.0763C40.196 40.41 40.548 40.7968 40.5641 40.0999C40.6229 37.57 39.1001 35.1493 37.8067 33.3372C36.7254 31.8223 35.766 30.3288 34.9504 28.5831C34.3896 27.3828 33.8505 26.029 32.9337 25.1531C32.5262 24.7638 32.0405 24.5073 31.642 24.1081C31.1735 23.6389 31.943 24.7283 32.0292 24.9153C32.7997 26.5872 33.3361 28.3941 34.1734 30.0285C34.9752 31.5936 36.0369 32.877 37.039 34.2501C37.8013 35.2947 38.4041 36.4716 39.0473 37.6209C39.0806 37.6806 39.7356 38.7575 39.763 38.3666C39.8159 37.6119 39.3708 36.701 39.1093 36.0451C38.5938 34.7517 37.8409 33.6445 37.1062 32.5273C35.12 29.5069 33.7922 25.7877 31.2395 23.3599C30.2794 22.4468 29.4869 21.4959 28.7948 20.273C28.0899 19.0276 27.6149 17.4847 26.7833 16.36C26.4182 15.8663 25.9315 15.5711 25.6004 15.0292C25.2382 14.4363 25.115 13.6781 25.0088 12.9688C24.9633 12.6653 24.8491 12.2973 24.9355 12.8216C25.0485 13.507 25.4422 14.1938 25.7788 14.7442C26.4152 15.7849 27.1804 16.6877 27.8642 17.681C29.2137 19.6416 30.1872 21.8841 31.253 24.0699C32.1484 25.9064 33.1534 27.5304 34.3012 29.1424C35.3978 30.6825 36.2108 32.4332 37.0985 34.1477C37.9068 35.7088 38.9892 37.9969 40.7256 37.9811C41.031 37.9784 40.646 37.4735 40.5852 37.3865C39.9835 36.5264 39.3419 35.7095 38.75 34.839C37.6333 33.1969 36.6242 31.4419 35.4567 29.8514C34.4252 28.446 33.1342 27.3859 32.1191 25.9429C30.7871 24.0495 29.5423 22.1167 28.5361 19.9435C27.8084 18.3718 27.207 16.5418 25.8352 15.631C25.1204 15.1564 24.2851 15.1632 23.5468 14.7743C23.103 14.5405 22.7604 14.1431 22.2567 14.1528C21.5748 14.1658 21.0964 15.3798 20.8266 15.9687C20.1332 17.4816 19.625 19.1153 18.9697 20.6535C17.0781 25.094 15.3439 29.6643 13.2789 33.9905C12.4109 35.8089 11.4502 37.4906 10.2448 39.009C9.92504 39.4117 8.84987 40.4489 9.25584 40.1819C10.166 39.5835 10.8757 37.875 11.4954 36.9302C13.1683 34.3799 14.8582 31.8485 16.9462 29.7671C17.5419 29.1733 19.128 27.2216 20.0538 27.4168C20.5911 27.5301 18.9105 29.9804 18.8165 30.1101C15.7275 34.3689 12.2211 38.1479 8.96468 42.2097C8.62003 42.6396 7.9181 43.3023 8.76212 43.2602C10.2111 43.188 11.7029 42.1069 12.9523 41.324C15.1628 39.9389 17.2683 38.284 19.598 37.1907C21.443 36.3248 23.3764 35.8455 25.2944 35.2817C25.9582 35.0866 27.0557 34.4697 27.7572 34.6661C27.8684 34.6973 26.1425 35.9601 25.9891 36.0531C22.1283 38.3952 18.6685 41.9136 14.5526 43.593C13.79 43.9042 12.9509 44.1107 12.1399 44.0669C11.9312 44.0556 12.5197 43.8554 12.7157 43.7681C13.2647 43.5236 13.8063 43.2615 14.3426 42.979C18.4089 40.8368 22.1188 37.9811 26.3538 36.2786C27.7743 35.7075 29.2197 35.1778 30.5795 34.4117C30.6506 34.3717 31.7811 33.7064 31.4817 33.5927C30.0277 33.0407 27.9776 33.9011 26.8345 32.3398C25.7228 30.8213 25.8255 28.1606 25.8255 26.283C25.8255 23.4223 26.0973 20.6663 26.3107 17.8259C26.3473 17.338 26.7424 14.9541 25.9595 15.0191C24.9308 15.1046 24.013 17.597 23.5833 18.4747C22.3086 21.0786 21.1991 23.7962 20.2569 26.5976C19.5749 28.6256 18.6319 30.7973 18.2283 32.9415C17.9289 34.5318 19.4767 30.0467 20.046 28.5675C21.4343 24.9605 22.8876 21.2023 25.0081 18.1217C25.6598 17.1749 26.7873 15.985 26.6058 18.0191C26.349 20.8976 25.3355 23.8108 24.7096 26.5944C24.6111 27.0326 23.4064 31.8453 24.1513 31.9222C24.6134 31.9699 25.014 31.2338 25.2614 30.8594C26.0017 29.7385 26.6674 28.5441 27.3472 27.3699C28.0118 26.2221 29.2682 22.9736 30.7169 23.1365C31.6854 23.2453 31.185 27.2683 31.1303 27.9207C30.9525 30.0446 30.4685 32.5618 30.7654 34.6957C30.9038 35.6899 31.9432 35.5434 32.5569 35.4295C33.4585 35.2623 34.3258 35.1374 35.2398 35.1374C36.0136 35.1374 36.8597 35.3243 37.6265 35.1771C37.7337 35.1565 38.3169 35.0456 38.0588 34.8276C37.3603 34.2376 36.7886 33.3483 36.2268 32.5883C34.8429 30.7163 33.6313 28.694 32.3936 26.6819C31.2826 24.8756 30.1682 23.4834 28.2512 23.1602C24.7025 22.5619 21.659 25.1386 18.9943 27.5981C16.5616 29.8435 13.8581 32.6157 12.4977 36.0124C12.3437 36.3968 12.003 37.4998 12.67 37.3382C13.652 37.1003 14.8224 35.5162 15.5567 34.7784C17.4588 32.8672 19.1558 30.6857 21.0571 28.777C22.226 27.6035 24.054 25.8556 25.7272 26.3281C27.9974 26.9691 27.3641 31.8547 27.0823 33.7215C26.8912 34.9869 26.6949 36.3379 26.2868 37.534C25.9593 38.4939 26.6823 35.5137 26.8908 34.5067C27.5149 31.4918 28.0641 28.4432 28.5462 25.391C28.7678 23.9881 28.9935 22.5806 29.1373 21.1623C29.212 20.4251 29.3711 19.5253 29.236 18.7829C28.8424 16.6194 24.7716 17.9788 23.8271 18.5037C22.1989 19.4086 20.4769 20.7343 19.2783 22.3691C17.5878 24.6748 22.6349 17.2637 25.0652 16.3229C28.219 15.1019 26.6437 21.8606 26.1784 23.3417C25.4118 25.7818 24.5847 28.2188 23.6838 30.5915C23.1427 32.0166 22.5226 33.6071 21.6035 34.7478C20.8891 35.6345 19.9492 36.4956 18.9755 36.8959C17.7753 37.3893 16.8554 37.9447 15.7996 38.7939C15.7259 38.8531 14.9702 39.4553 15.2609 39.0465C16.0053 38.0001 17.0621 37.23 18.0614 36.5952C20.0269 35.3469 22.1506 34.5386 24.0909 33.2094C25.7689 32.0599 27.3156 30.6583 28.9879 29.5057C29.584 29.095 30.8435 28.1615 31.5383 28.8019C31.9804 29.2095 32.0967 29.9994 32.1629 30.6249C32.2528 31.4741 32.2433 33.6006 33.2 33.6667C33.7054 33.7017 34.1378 33.4097 34.6354 33.3768C35.2379 33.337 35.8077 33.4563 36.4038 33.4983C37.7878 33.5957 36.3695 32.4638 35.8819 32.1959C33.9996 31.162 32.0143 29.9644 29.9131 29.8966" stroke="black" stroke-opacity="0.21" stroke-linecap="round" stroke-linejoin="round"/>
</svg>
