<svg width="217" height="217" viewBox="0 0 217 217" fill="none" xmlns="http://www.w3.org/2000/svg">
<path d="M59.0802 182.018C53.2607 182.018 70.669 180.268 76.4886 180.268C79.7255 180.268 82.9593 180.488 86.1969 180.524C88.7287 180.553 91.3926 180.312 93.8898 180.975C97.0387 181.81 92.0102 182.439 91.3288 182.47C83.1138 182.848 58.4491 182.47 66.669 182.47C72.6066 182.47 78.5189 182.498 84.432 183.349C87.1688 183.743 89.8536 184.419 92.6114 184.53C92.9723 184.544 95.7776 184.486 94.1152 184.625" stroke="#E97777" stroke-opacity="0.66" stroke-linecap="round" stroke-linejoin="round"/>
<path d="M58.8384 185.584C58.8384 185.037 58.6602 183.946 58.0248 184.253C57.4817 184.515 58.9755 189.459 59.0604 189.809C60.402 195.345 61.5046 201.003 62.7502 206.58C62.7531 206.593 62.756 206.606 62.7589 206.619M62.7589 206.619C62.9641 207.543 63.1275 208.474 63.2644 209.42C63.2819 209.541 62.9187 207.4 62.8224 206.929C62.8012 206.826 62.7801 206.722 62.7589 206.619ZM62.7589 206.619C61.2945 199.461 59.8567 192.345 59.1943 184.96C59.123 184.166 58.719 180.206 58.7481 180.268C59.4577 181.794 59.6488 183.936 59.925 185.646C60.5762 189.679 61.1224 193.739 61.7291 197.784C62.3044 201.62 62.7963 205.636 63.7332 209.357C64.0535 210.629 64.2617 209.838 64.3228 208.949M61.7349 184.384C61.7477 184.034 61.9152 183.514 62.0084 183.181C62.1578 182.647 61.2939 184.961 61.1897 185.349C59.1641 192.896 64.0187 182.315 64.1423 182.6C64.2804 182.918 63.2254 185.049 63.1029 185.437C62.6544 186.856 62.2504 188.327 61.9689 189.822C61.2577 193.598 63.7459 188.286 64.0934 187.484C64.4362 186.693 65.377 183.415 66.0825 183.151C67.0046 182.807 65.4011 185.538 65.017 186.707C64.6997 187.672 62.4051 196.474 63.2471 196.023C64.5928 195.302 65.6653 191.357 66.2991 189.852C67.1625 187.803 67.9851 185.726 68.8425 183.673C69.1262 182.993 69.7449 180.692 70.368 180.394C70.4935 180.334 70.1726 181.761 70.1548 181.818C69.7148 183.226 69.2094 184.596 68.7129 185.97C67.4543 189.452 66.2434 192.967 65.1215 196.531C65.0175 196.862 63.6792 201.436 64.2647 201.469C65.4278 201.535 66.9312 196.708 67.3658 195.671C68.8188 192.208 70.0863 188.518 71.8727 185.327C73.0999 183.134 71.8993 186.342 71.6288 186.965C70.1476 190.374 68.6927 193.8 67.4012 197.346C66.4656 199.914 64.8085 203.61 64.9376 206.596C64.98 207.576 67.6102 202.469 67.7786 202.083C70.1919 196.558 72.7483 191.165 75.5805 186C75.6802 185.819 78.1895 181.844 77.4711 183.547C75.9901 187.057 74.0961 190.307 72.5409 193.771C70.6585 197.963 68.7285 202.804 68.2031 207.703C67.8305 211.176 71.0119 205.159 71.2952 204.589C73.8824 199.384 76.2563 193.978 79.0609 188.969C80.0403 187.22 82.7821 181.974 82.3178 184.067C82.0865 185.11 81.3132 186.147 80.8539 187.015C79.7989 189.009 78.7595 191.014 77.7663 193.064C75.9086 196.899 73.6519 201.375 73.0772 205.962C72.7597 208.496 75.9491 203.128 76.1327 202.777C78.7392 197.787 81.1266 192.555 84.0893 187.912C84.2654 187.637 87.1934 184.049 86.8982 185.011C86.4616 186.433 85.4874 187.746 84.8333 188.996C83.746 191.073 82.7002 193.188 81.6825 195.327C81.3408 196.045 77.7797 203.148 78.5607 203.801C79.5669 204.642 82.5008 198.303 82.8884 197.571C85.1266 193.348 87.4014 189.179 90.1366 185.495C92.0328 182.94 90.3415 185.88 89.7152 186.969L89.6698 187.047C87.457 190.895 85.3311 194.894 83.6583 199.209C82.8702 201.242 82.0855 203.382 81.589 205.579C81.4734 206.091 81.3717 206.904 81.8901 206.216C86.1485 200.57 87.5293 191.104 92.3655 186.106C93.4464 184.989 91.4627 188.364 91.3659 188.548C89.3213 192.433 87.2792 196.493 85.6542 200.72C85.0737 202.23 84.5552 204.854 86.094 202.336C88.0956 199.06 89.7504 195.389 91.4632 191.845C91.6053 191.551 93.9467 187.614 93.3248 189.24C92.2915 191.942 90.9377 194.453 89.8101 197.088C89.3489 198.165 87.6066 201.381 87.9867 202.755C88.0149 202.857 89.7673 199.433 89.8996 199.128C90.0972 198.673 92.9289 192.86 92.5915 194.668C92.4505 195.423 89.4832 203.378 89.5589 203.381C90.2412 203.409 91.6641 199.258 91.9662 198.572C92.1452 198.166 93.7107 194.624 92.9663 196.653C92.1346 198.921 91.3197 201.204 90.6237 203.552L90.6151 203.582C90.4489 204.142 89.3692 207.782 90.2002 205.876M94.3654 185.241C94.366 185.239 94.3666 185.238 94.3672 185.236M94.3672 185.236C94.817 184.13 94.9781 180.308 94.6541 181.486C94.4979 182.054 94.4145 183.439 94.3672 185.236ZM94.3672 185.236C94.2248 190.637 94.4078 199.765 93.92 201.659M93.92 201.659C93.8635 201.879 93.7979 202.001 93.7218 202.009C92.966 202.09 93.8953 188.266 94.0667 184.933M93.92 201.659C93.9578 198.081 94.0284 188.577 94.0667 184.933M93.92 201.659C93.9044 203.13 93.8944 203.6 93.8944 202.253M94.0667 184.933C94.0834 184.607 94.0929 184.382 94.0929 184.279C94.0929 182.913 94.0826 183.415 94.0667 184.933Z" stroke="#E97777" stroke-opacity="0.66" stroke-linecap="round" stroke-linejoin="round"/>
<path d="M156.124 104.515C158.203 102.731 157.827 102.441 156.347 105.264C155.15 107.548 153.795 109.973 153.027 112.585C152.469 114.484 155.087 110.05 155.289 109.725C157.421 106.292 159.634 102.9 162.337 100.249C164.574 98.0561 164.232 99.2526 162.908 101.703C160.724 105.741 158.551 109.716 156.672 114.033C156.471 114.495 153.622 120.669 154.972 120.725C156.622 120.793 159.483 114.861 160.391 113.456C163.213 109.095 166.35 103.93 170.151 101.03C170.964 100.411 170.674 101.043 170.25 101.691C169.029 103.56 167.76 105.374 166.533 107.238C163.02 112.575 160.209 118.397 157.867 124.786C157.803 124.959 155.769 130.724 156.378 130.769C157.102 130.823 158.017 128.448 158.347 127.824C159.925 124.833 161.437 121.778 163.073 118.843C166.475 112.743 170.366 106.774 174.935 102.194C177.836 99.2865 175.369 103.106 174.375 104.768C170.831 110.695 167.547 116.902 164.239 123.067C161.459 128.251 158.137 133.521 156.211 139.417C155.511 141.558 156.189 141.98 157.415 140.381C160.357 136.541 162.682 131.555 165.235 127.269C169.696 119.782 174.048 112.49 179.607 106.398C180.004 105.962 183.843 101.687 182.009 104.136C178.964 108.204 176.349 112.902 173.578 117.298C168.913 124.701 164.061 132.039 160.222 140.282C160.029 140.697 157.214 146.988 159.434 145.823C160.914 145.047 162.182 142.16 163.124 140.595C165.632 136.432 168.105 132.238 170.568 128.027C175.797 119.086 181.321 110.919 188.312 104.441C190.286 102.611 191.741 101.198 189.169 104.577C183.963 111.416 178.737 118.221 173.842 125.466C170.82 129.938 167.972 134.547 165.418 139.521C164.447 141.411 163.241 143.62 163.039 145.978C162.922 147.343 164.515 146.279 164.868 145.925C167.35 143.435 169.402 139.977 171.462 136.903C178.86 125.86 185.797 114.608 194.962 106.085C196.56 104.6 198.262 103.298 200.065 102.312C201.62 101.463 200.051 103.22 199.576 103.778C194.055 110.266 188.224 116.419 183.429 123.917C180.906 127.861 178.421 131.95 176.327 136.331C175.877 137.273 173.782 140.979 174.406 142.334C175.45 144.599 185.564 127.387 186.16 126.401C190.989 118.42 196.11 110.611 202.65 105.083C203.816 104.098 203.35 104.828 202.641 105.746C200.331 108.739 198.137 111.891 195.934 115.026C192.644 119.708 189.313 124.426 186.444 129.593C185.01 132.175 183.327 135.148 182.661 138.315C182.334 139.87 183.891 138.149 184.175 137.814C186.969 134.523 189.388 130.564 192.01 127.028C195.337 122.543 198.604 117.813 202.408 114.038C204.08 112.38 206.087 110.098 208.151 109.358C208.851 109.107 206.451 112.574 206.257 112.852C203.419 116.921 200.449 120.815 197.531 124.78C194.393 129.042 191.128 133.36 188.599 138.324C188.541 138.436 187.071 141.62 187.722 141.39C189.453 140.776 191.291 136.989 192.395 135.326C195.499 130.651 198.517 125.874 201.701 121.296C203.641 118.506 205.637 115.359 208.041 113.247C208.373 112.956 205.944 116.513 205.506 117.16C202.647 121.381 199.662 125.455 196.855 129.736C194.984 132.59 191.984 136.626 191.282 140.477C190.997 142.038 192.452 140.724 192.808 140.318C195.212 137.576 197.186 134.088 199.301 130.964C201.502 127.714 203.812 124.599 206.256 121.678C207.661 120 207.599 120.084 206.352 121.822C204.442 124.485 202.591 127.231 200.698 129.918C198.828 132.573 196.403 135.59 195.388 139.06C194.096 143.481 200.176 135.423 200.59 134.852C202.191 132.645 203.783 130.397 205.492 128.337C205.757 128.018 207.902 125.93 206.897 127.661C204.382 131.992 200.828 135.581 198.876 140.46C198.404 141.641 199.63 140.776 199.932 140.478C201.345 139.081 202.622 137.371 203.886 135.744C205.243 133.998 206.559 132.199 207.975 130.535C208.916 129.429 209.978 128.369 208.614 130.493C207.213 132.675 205.799 134.85 204.476 137.119C203.702 138.445 202.137 140.57 202.054 142.374C201.983 143.922 205.724 138.858 205.995 138.48C206.861 137.271 207.758 136.111 208.694 134.999C209.03 134.599 210.127 133.298 209.294 134.584C208.281 136.148 206.712 138.563 206.599 140.747C206.554 141.622 209.154 137.955 209.365 137.617C210.659 135.546 209.784 136.196 209.191 137.956C208.79 139.145 208.631 140.44 208.644 141.739C208.655 142.921 210.3 139.807 210.389 139.644C213.165 134.58 210.024 140.27 210.024 142.283" stroke="#E47D7D" stroke-opacity="0.66" stroke-linecap="round" stroke-linejoin="round"/>
<path d="M10.1923 138.846C3.39835 151.285 20.0455 110.931 26.0341 97.7723C37.4242 72.7443 49.3947 47.5793 62.683 24.3268C63.5273 22.8495 65.1446 17.0632 66.762 17.0632C67.28 17.0632 65.0626 20.9473 64.8435 21.3719C60.3716 30.0358 55.7232 38.4885 51.6974 47.5536C42.3545 68.5915 31.9546 88.9473 22.9762 110.247C19.0997 119.444 14.8689 128.36 10.9523 137.53C10.4698 138.659 8.18712 143.576 8.25605 143.546M68.2279 15.1737C68.0519 15.0028 66.4664 13.2931 66.2098 13.2663M66.2098 13.2663C66.1877 13.264 66.1755 13.2741 66.1748 13.2988C66.0755 16.9562 69.3391 21.7469 71.0074 24.7503M66.2098 13.2663C67.5287 15.5391 68.4163 18.5758 69.3306 20.769C69.8855 22.0999 70.4444 23.4271 71.0074 24.7503M66.2098 13.2663C65.5139 12.0671 64.698 11.0805 63.6948 10.5427C63.0872 10.2169 60.178 9.0957 62.0869 9.0957M71.0074 24.7503C71.1334 24.9771 71.2503 25.1938 71.3559 25.3989C80.5717 43.2954 90.4474 60.5628 99.8953 78.2292C104.239 86.352 108.319 94.6414 112.396 102.971M71.0074 24.7503C78.0907 41.398 85.8292 57.4315 94.4639 72.7262C100.218 82.919 106.449 92.8193 112.396 102.971M112.396 102.971C113.341 104.9 114.285 106.832 115.233 108.764C118.229 114.874 122.038 119.82 124.498 126.421C125.641 129.489 129.676 136.773 126.149 128.992C122.045 119.941 117.318 111.37 112.396 102.971ZM10.7334 143.675C7.63095 143.675 11.4177 142.957 13.666 142.373M13.666 142.373C14.2315 142.226 14.6998 142.088 14.9365 141.971C16.259 141.322 17.566 140.618 18.8606 139.872M13.666 142.373C16.2349 140.213 18.7505 137.893 21.2357 135.701C28.6289 129.179 36.6292 125.312 44.786 121.916M13.666 142.373C11.882 143.873 10.0724 145.296 8.22937 146.547C7.14356 147.283 4.25304 149.309 7.25083 147.626C11.2287 145.391 15.0456 142.623 18.8606 139.872M18.8606 139.872C23.1058 137.424 27.2178 134.514 31.3084 131.522M18.8606 139.872C20.8938 138.405 22.9264 136.944 24.9825 135.571C27.0753 134.173 29.1862 132.83 31.3084 131.522M31.3084 131.522C35.7776 128.253 40.2215 124.886 44.786 121.916M31.3084 131.522C38.5501 127.057 45.9244 122.993 53.1652 118.52M44.786 121.916C46.6539 120.701 48.542 119.552 50.4603 118.504C54.1963 116.462 57.9037 114.801 61.7369 113.307M44.786 121.916C47.5668 120.758 50.3658 119.655 53.1652 118.52M61.7369 113.307C62.3531 113.067 62.9724 112.831 63.5957 112.599C65.7735 111.787 67.9073 109.884 70.1395 109.47C73.5654 108.835 66.9231 112.267 66.5541 112.462C62.1393 114.801 57.6518 116.701 53.1652 118.52M61.7369 113.307C59.0104 114.955 56.2793 116.589 53.5653 118.272C53.432 118.355 53.2986 118.438 53.1652 118.52M61.7369 113.307C63.9569 111.966 66.1739 110.615 68.376 109.223C69.9351 108.237 68.5798 109.259 68.0211 109.917M76.0996 107.289C74.8768 107.289 74.3312 106.545 75.8774 107.803C84.9424 115.179 95.0186 119.174 104.395 125.616C111.35 130.395 118.417 134.826 125.563 139.062C126.46 139.594 130.622 142.04 127.803 139.239C118.728 130.221 107.829 123.529 97.1076 119.098C91.8051 116.906 76.9809 106.59 82.1062 109.438C93.494 115.764 104.824 122.386 116.15 128.92C121.666 132.101 127.016 135.78 132.418 139.286C136.678 142.05 130.427 136.781 129.395 136.043M95.5108 50.5278C95.4828 48.1905 95.0772 44.9247 96.1739 42.8611C96.6292 42.0044 96.1345 44.9847 96.0457 46.0384C95.7864 49.1154 95.9722 52.332 95.9722 55.4235C95.9722 56.5483 95.9753 57.673 95.9808 58.7976M95.9808 58.7976C96.0255 67.9437 96.2296 77.0876 96.2296 86.2361C96.2296 90.4541 95.9609 94.7913 96.1118 99.0348M95.9808 58.7976C95.5216 61.0108 94.992 63.2421 94.8956 65.4842C94.5657 73.1554 95.5839 90.7047 96.1118 99.0348M95.9808 58.7976C96.3599 56.9709 96.691 55.1565 96.691 53.3587C96.691 52.0429 96.1381 54.9278 96.0787 55.2915M96.1118 99.0348C96.1377 99.7607 96.1758 100.484 96.2296 101.203C96.5449 105.418 96.4029 103.628 96.1118 99.0348ZM98.1436 47.8406C98.0547 48.036 97.9454 48.1896 97.8224 48.3079M97.8224 48.3079C96.5 49.579 93.5782 46.7775 96.9709 48.0581C97.2165 48.1508 97.5035 48.2338 97.8224 48.3079ZM97.8224 48.3079C101.594 49.1849 109.829 48.8263 106.804 48.7005C105.039 48.6271 103.269 48.7823 101.505 48.6882C101.149 48.6692 98.2098 48.1745 98.3585 48.0252C100.502 45.8738 107.281 46.2863 108.78 49.5554M110.082 45.6506C110.008 45.421 109.127 43.3104 109.12 44.1494C109.078 49.2488 108.88 54.3454 108.799 59.4452C108.628 70.1866 109.698 102.166 108.049 91.6606C107.041 85.2346 107.153 78.2361 106.645 71.7071C106.243 66.5472 105.584 60.7532 105.547 55.137M105.547 55.137C105.524 51.8143 105.719 48.5538 106.314 45.5237C106.945 42.305 105.934 50.4619 105.547 55.137ZM105.547 55.137C105.489 55.8262 105.446 56.4398 105.423 56.93C105.126 63.3057 104.967 69.6234 104.967 76.0147M138.721 103.282C138.672 103.151 137.536 96.4371 138.721 97.063C139.122 97.2752 139.377 99.1164 139.54 101.612M139.54 101.612C139.905 107.2 139.807 116.069 139.856 117.274C139.966 119.966 140.026 122.659 140.061 125.351M139.54 101.612C138.848 110.361 138.381 118.856 138.677 127.893C138.873 133.887 138.917 139.933 138.943 145.998M139.54 101.612C139.707 99.5103 139.886 97.3942 140.071 95.2524C140.303 92.5687 140.494 89.8196 140.503 87.1142C140.504 87.0523 140.442 85.8025 140.592 86.0686C141.904 88.3922 140.823 96.2897 140.823 98.8888C140.823 107.717 140.496 116.537 140.061 125.351M140.061 125.351C140.156 132.609 140.073 139.865 140.312 147.119C140.79 161.644 142.642 205.057 140.823 190.733C138.96 176.065 139.007 160.977 138.943 145.998M140.061 125.351C139.721 132.237 139.314 139.119 138.943 145.998M138.943 145.998C138.817 148.348 138.694 150.697 138.581 153.046C138.099 162.985 137.969 172.971 138.559 182.909C138.753 186.169 138.969 190.635 138.969 184.66M143.223 113.42C142.832 111.852 141.564 111.042 140.443 110.626C139.945 110.441 143.689 111.683 145.351 111.093C145.562 111.018 149.049 109.629 149.046 109.624C148.933 109.382 145.267 109.909 144.889 109.909H140.59C139.971 109.909 142.054 109.945 142.525 110.25M138.745 137.446C136.79 137.446 140.379 136.458 140.779 136.359C141.593 136.158 142.423 135.992 143.258 135.823M143.258 135.823C145.489 135.371 147.751 134.899 149.801 133.697C151.508 132.695 147.907 135.217 147.157 135.416C146.342 135.632 144.306 136.336 143.258 135.823ZM143.258 135.823C142.866 135.631 142.612 135.268 142.612 134.646M150.065 98.4523C150.043 97.5056 149.132 94.4163 148.898 96.9958C148.779 98.3067 148.703 99.6226 148.664 100.942M148.664 100.942C148.548 104.78 148.736 108.649 149.037 112.512M148.664 100.942C148.528 100.492 148.376 100.235 148.208 100.224C147.894 100.203 148.441 106.461 149.037 112.512M148.664 100.942C149.595 104.024 149.796 116.155 149.832 120.286M149.037 112.512C149.266 115.454 149.561 118.393 149.838 121.312M149.037 112.512C149.319 115.381 149.613 118.203 149.832 120.286M149.838 121.312C150.048 123.52 150.247 125.716 150.4 127.894C150.792 133.49 151.092 150.347 151.092 144.728C151.092 137.668 150.784 130.576 150.171 123.562C150.145 123.261 150.015 122.033 149.832 120.286M149.838 121.312C149.837 121.074 149.835 120.726 149.832 120.286M149.838 121.312C149.838 121.422 149.838 121.509 149.838 121.569C149.823 129.402 147.481 138.04 148.509 145.831C148.863 148.511 149.461 145.501 149.838 144.201M148.63 97.8109C150.231 96.5191 152.047 96.8598 153.872 96.8598C157.524 96.8598 161.174 96.8477 164.825 96.8219M164.825 96.8219C167.971 96.7996 171.118 96.767 174.264 96.7229M164.825 96.8219C159.207 97.2776 153.616 98.0311 148.152 99.3418L148.143 99.3438C146.033 99.85 145.538 99.9686 148.005 99.7352C151.747 99.3812 155.509 98.9167 159.24 98.3968C164.27 97.6958 169.269 97.1397 174.264 96.7229M164.825 96.8219C171.868 96.2506 178.954 96.1475 185.888 96.002C185.903 96.0017 185.917 96.0014 185.932 96.001M174.264 96.7229C178.632 96.6617 183.001 96.5784 187.371 96.4699C191.915 96.3569 196.463 96.22 201.011 96.1108M174.264 96.7229C178.15 96.3988 182.035 96.159 185.932 96.001M201.011 96.1108C205.619 96.0001 210.228 95.9179 214.834 95.9179C220.488 95.9179 204.096 95.7774 197.895 95.7704M201.011 96.1108C200.396 95.9174 199.276 95.8151 197.895 95.7704M201.011 96.1108C201.748 96.3426 201.759 96.7053 200.623 97.2568M197.895 95.7704C197.735 95.7702 197.582 95.7701 197.437 95.7701C195.054 95.7701 192.68 95.7992 190.313 95.858M197.895 95.7704C195.698 95.6991 192.84 95.7736 190.313 95.858M190.313 95.858C188.851 95.8943 187.39 95.9419 185.932 96.001M190.313 95.858C188.597 95.9153 187.033 95.9772 185.932 96.001M214.146 97.495C214.138 97.3593 214.123 97.2274 214.101 97.0984M214.101 97.0984C213.896 95.8708 213.163 94.9027 213.561 93.4104C214.33 90.5354 214.241 94.3032 214.101 97.0984ZM214.101 97.0984C214.037 98.3825 213.961 99.4613 213.953 99.5965C213.165 112.553 213.212 125.651 213.212 138.644C213.212 144.073 213.85 142.595 213.85 138.047C213.85 126.922 213.245 116.325 214.123 105.123C214.421 101.325 214.617 97.5235 214.866 93.7221C214.981 91.9655 214.889 94.1251 214.884 94.741C214.776 107.44 214.706 120.148 214.259 132.836C214.13 136.524 214.035 140.193 214.035 143.884C214.035 144.375 214.868 139.659 215.071 138.554M149.015 150.976C146.438 148.387 149.424 150.03 151.827 150.292M151.827 150.292C152.023 150.313 152.215 150.326 152.399 150.326C155.02 150.326 157.641 150.268 160.262 150.166M151.827 150.292C152.148 149.565 156.463 150.079 158.157 149.806C163.5 148.944 168.914 148.66 174.281 148.185C176.183 148.016 178.088 147.896 179.994 147.806M151.827 150.292C151.766 150.43 151.848 150.612 152.119 150.852C153.619 152.186 158.081 150.68 160.262 150.166M160.262 150.166C171.684 149.72 183.098 148.431 194.496 147.406M160.262 150.166C160.515 150.106 160.738 150.059 160.922 150.033C167.269 149.101 173.624 148.33 179.994 147.806M194.496 147.406C195.713 147.297 196.931 147.191 198.148 147.089C201.363 146.819 204.582 146.637 207.799 146.411M194.496 147.406C199.202 147.272 203.902 147.038 208.585 146.431C208.595 146.429 208.607 146.428 208.62 146.426M194.496 147.406C189.662 147.545 184.824 147.578 179.994 147.806M207.799 146.411C208.879 146.335 209.957 146.255 211.036 146.164C213.854 145.928 209.364 146.336 208.62 146.426M207.799 146.411C206.948 146.396 206.109 146.39 205.298 146.431C198.383 146.778 191.464 147.041 184.552 147.475C183.032 147.571 181.512 147.681 179.994 147.806M207.799 146.411C208.072 146.416 208.346 146.421 208.62 146.426M208.62 146.426C210.618 146.463 212.652 146.474 214.518 145.965C215.88 145.593 211.795 145.04 210.406 145.04M165.208 111.814C166.599 111.814 166.027 111.309 165.362 110.721L165.35 110.711C163.826 109.365 161.912 107.544 160.204 109.269C158.527 110.961 158.224 113.475 158.382 116.148C158.484 117.86 160.801 119.047 161.549 120.254C164.453 124.938 165.753 131.853 165.043 137.765C164.687 140.737 164.874 142.489 162.408 143.465C159.12 144.767 156.54 139.529 160.449 137.908M176.449 129.396C177.607 127.334 177.407 126.705 175.924 125.459C174.549 124.303 173.31 124.441 172.301 125.3M172.301 125.3C171.065 126.353 170.174 128.488 169.803 130.653C168.579 137.788 173.087 140.278 176.461 134.975C179.932 129.52 173.73 129.061 172.301 125.3ZM172.301 125.3C172.296 125.286 172.291 125.273 172.286 125.259M186.884 112.526C186.884 108.655 186.15 108.138 186.15 112.601C186.15 119.72 186.884 126.743 186.884 133.853C186.884 136.184 186.399 137.232 187.731 135.371M200.765 129.011C200.798 128.955 200.895 128.832 201.029 128.662M201.029 128.662C201.551 128.002 202.643 126.644 202.799 125.832M201.029 128.662C200.882 127.328 200.808 125.943 200.787 124.537M201.029 128.662C201.208 130.283 201.494 131.828 201.924 133.245M202.799 125.832C202.816 125.746 202.822 125.666 202.816 125.594M202.799 125.832C202.645 128.01 202.426 130.129 202.144 132.109C202.085 132.519 202.012 132.897 201.924 133.245M202.799 125.832C202.805 125.753 202.811 125.673 202.816 125.594M202.816 125.594C202.808 125.494 202.776 125.409 202.716 125.343C202.168 124.731 201.492 124.506 200.787 124.537M202.816 125.594C203.167 120.482 203.164 115.061 202.805 110.358C202.487 106.206 202.213 103.417 201.725 109.383C201.373 113.678 200.707 119.256 200.787 124.537M200.787 124.537C199.355 124.599 197.797 125.714 196.92 126.791C191.359 133.617 199.978 141.01 201.924 133.245M201.924 133.245C202.201 134.156 202.537 135.014 202.942 135.804C204.531 138.909 205.292 137.161 207.074 136.263M47.2861 144.85C46.8738 143.009 47.5762 141.157 47.5762 143.907C47.5762 144.627 47.5794 145.345 47.5853 146.064M47.5853 146.064C47.6274 151.205 47.8093 156.335 47.9752 161.474C48.0078 162.483 47.7827 168.031 48.3379 166.932C51.6183 160.436 63.0088 162.072 67.9907 162.072C70.7463 162.072 69.0992 160.187 68.5029 156.941C68.239 155.504 66.816 140.521 66.4971 140.44C66.0391 140.325 64.3801 141.892 63.906 142.097C59.7412 143.902 55.2972 144.8 50.9915 145.762C50.6416 145.84 48.9817 145.943 47.5853 146.064ZM47.5853 146.064C45.9011 146.21 44.6001 146.382 46.4429 146.568M54.3791 145.778C54.7239 144.919 54.6032 143.864 54.6032 142.92C54.6032 137.993 54.9766 152.766 54.9766 157.693C54.9766 158.242 55.2936 168.778 55.9858 166.16C56.3005 164.97 56.0747 162.843 55.9567 161.652M47.2341 155.996C46.8735 155.761 45.161 155.109 45.4946 155.109C49.1027 155.109 52.6402 154.302 56.2213 153.756C60.7414 153.067 66.3605 153.063 70.4612 150.059C71.6788 149.167 70.2146 149.352 69.6533 149.612M82.3155 147.954C82.6365 146.912 82.9352 145.208 83.121 144.364M83.121 144.364C83.2501 143.778 83.3247 143.608 83.3143 144.367M83.121 144.364C83.1835 144.362 83.2481 144.363 83.3143 144.367M83.121 144.364C82.8725 144.376 82.656 144.447 82.4974 144.615C81.9294 145.218 81.1489 146.155 82.3519 146.281M83.3143 144.367C83.3106 144.636 83.2961 145.023 83.2696 145.55C82.9539 151.816 83.8891 158.552 83.8891 164.449C83.8891 167.322 86.4327 164.446 87.7718 163.907C92.0348 162.189 96.5443 163.543 100.737 161.757C101.97 161.232 102.185 161.076 101.554 159.391C100.2 155.771 96.4607 145.493 98.0249 141.352C98.3779 140.417 96.8633 141.976 96.2127 142.258C93.0004 143.65 88.9519 144.776 85.5796 144.852C85.0143 144.865 84.0614 144.413 83.3143 144.367ZM90.7078 146.689C89.6684 137.769 91.3412 153.062 91.3441 155.249C91.3492 159.033 91.3441 162.816 91.3441 166.6C91.3441 166.674 91.3475 168.438 91.4836 168.168C92.1247 166.896 92.1798 163.997 92.3203 162.517M84.5401 155.124C80.3763 155.124 85.9439 153.31 87.3271 153.208C91.1117 152.93 94.8216 153.505 98.5887 153.547C99.2158 153.554 97.6682 153.556 97.3648 153.694M60.5866 184.196C59.9403 184.115 59.4176 182.639 59.4615 183.748M59.4615 183.748C59.4631 183.788 59.4654 183.831 59.4684 183.878C59.8342 189.467 60.7687 194.609 62.1942 199.912C62.4222 200.759 65.3463 209.271 64.4215 206.327C62.6147 200.575 61.9559 194.047 60.5785 188.101C60.5042 187.78 59.9741 185.551 59.4615 183.748ZM59.4615 183.748C59.2381 182.963 59.0181 182.259 58.8406 181.829M58.8406 181.829C58.6607 181.394 58.5244 181.24 58.4723 181.568C58.4549 181.678 58.5888 181.764 58.8406 181.829ZM58.8406 181.829C60.7594 182.329 69.5284 181.664 70.4116 181.644C75.6861 181.526 80.9547 181.317 86.0173 182.618C88.2665 183.197 91.0877 183.07 93.4187 183.07C93.6404 183.07 91.6906 196.236 91.583 197.464C91.4563 198.909 91.5697 201.546 91.7476 203.91M91.7476 203.91C92.0039 207.317 92.3944 210.16 92.3944 208.063C92.3944 206.606 92.1251 205.24 91.7476 203.91ZM91.7476 203.91C91.1879 201.94 90.3901 200.051 89.8784 198.068M76.2558 182.901C76.2558 176.774 76.2168 188.545 76.2398 189.582C76.3585 194.944 76.3958 200.284 76.9863 205.586C77.0931 206.545 77.0665 203.861 77.0665 203.579M80.7302 194.464C80.7136 193.755 79.4188 192.015 81.0676 193.313C81.9614 194.016 83.5069 192.959 81.4253 192.959M72.1408 194.079C72.1408 190.906 72.0478 198.311 72.0478 192.596M110.208 151.071C110.201 150.921 110.193 150.77 110.185 150.618M110.185 150.618C110.003 147.429 109.428 144.121 110.149 140.984C110.765 138.306 111.855 135.932 112.521 133.3C113.127 130.905 111.373 140.171 111.273 140.983C110.877 144.186 110.521 147.399 110.185 150.618ZM110.185 150.618C109.887 153.468 109.604 156.321 109.32 159.175M109.32 159.175C109.284 159.539 109.248 159.904 109.212 160.268M109.32 159.175C109.381 158.939 109.442 158.703 109.503 158.467M109.32 159.175C107.856 164.873 106.476 170.61 105.193 176.394C103.347 184.722 100.616 210.484 100.896 201.808M109.212 160.268C108.125 171.199 107.008 182.124 105.019 192.821M109.212 160.268C108.97 161.797 108.739 163.333 108.512 164.874C107.145 174.16 106.158 183.491 105.019 192.821M109.212 160.268C109.307 159.667 109.404 159.066 109.503 158.467M105.019 192.821C104.963 193.122 104.906 193.422 104.849 193.721C104.649 194.769 104.531 195.804 104.456 196.836M105.019 192.821C104.984 193.106 104.949 193.391 104.914 193.676C104.784 194.728 104.623 195.781 104.456 196.836M104.456 196.836C104.264 199.457 104.35 202.05 104.077 204.727C103.996 205.512 103.538 206.925 103.538 205.277C103.538 202.44 104.014 199.631 104.456 196.836ZM109.503 158.467C110.81 150.556 112.489 142.865 115.534 135.724L115.567 135.648C115.625 135.511 115.69 135.36 115.759 135.197M109.503 158.467C110.886 153.111 112.344 147.788 113.865 142.492C114.5 140.278 115.071 137.699 115.759 135.197M115.759 135.197C116.932 132.444 119.51 126.36 118.34 128.393C117.244 130.296 116.443 132.709 115.759 135.197ZM27.9384 138.031C27.9364 137.815 27.9301 137.608 27.9204 137.41M27.9204 137.41C27.7743 134.427 26.8514 133.547 27.9204 137.41ZM27.9204 137.41C28.0018 137.705 28.0948 138.027 28.2006 138.377C32.6251 153.04 37.5782 167.869 42.9138 181.97C46.0613 190.289 51.3431 198.408 52.126 207.974C52.458 212.031 48.8111 199.575 48.3307 198.304C43.8232 186.373 37.6444 174.937 33.2244 162.741M33.2244 162.741C31.9869 159.327 30.8872 155.852 30.0007 152.291C29.4544 150.096 27.072 139.24 29.1571 147.316C30.487 152.467 31.8342 157.615 33.2244 162.741ZM33.2244 162.741C36.3076 174.111 39.6025 185.379 43.3903 196.361C45.4216 202.25 47.4216 208.34 49.9992 213.852C51.9987 218.128 51.4234 215.215 50.6375 212.085M51.743 212.402C51.9008 210.712 63.578 210.313 69.4837 210.219M69.4837 210.219C71.3173 210.19 72.5946 210.19 72.7978 210.19H72.8117C75.6173 210.19 77.9186 209.084 80.7067 209.084C82.304 209.084 83.835 208.547 85.316 208.002M69.4837 210.219C71.4898 209.596 73.512 209.084 75.5198 209.084C78.8104 209.084 82.0647 208.6 85.316 208.002M69.4837 210.219C66.3863 211.18 63.3272 212.402 60.4183 212.402C57.8023 212.402 55.5709 213.508 52.9823 213.508H61.6577C69.4877 213.508 77.8365 213.426 85.205 211.234C89.3757 209.994 95.1878 210.421 98.8377 207.978M85.316 208.002C86.8408 207.441 88.3126 206.872 89.7492 206.872C92.3267 206.872 94.6961 205.765 97.1852 205.765H101.225C95.8355 205.765 90.5797 207.033 85.316 208.002Z" stroke="black" stroke-linecap="round"/>
<path d="M1 151.634C3.21318 142.727 14.9307 121.073 20.6083 109.413C29.0273 92.1229 35.9076 73.8458 44.7117 56.8125C50.8334 44.9687 54.6405 29.8038 62.3009 19.5701C65.0337 15.9194 69.0927 8.59196 64.12 17.2845C53.5115 35.8289 44.2978 55.897 35.9676 76.3728C29.2835 92.8023 21.6345 108.578 14.6297 124.771C11.3769 132.291 7.12692 139.404 4.36576 147.268" stroke="black" stroke-opacity="0.21" stroke-linecap="round" stroke-linejoin="round"/>
<path d="M63.8337 18.7737C63.8337 17.5031 64.3549 13.6412 62.8058 13.6412C60.7731 13.6412 64.3923 21.5845 64.5189 21.8349C70.363 33.3933 78.1282 43.3159 84.862 53.9482C90.3923 62.6802 94.3902 72.3114 99.191 81.7127C102.143 87.4941 105.102 93.9185 108.601 99.1114C112.117 104.328 116.062 108.851 119.317 114.404C121.695 118.462 123.271 123.475 125.811 127.308C126.386 128.174 122.651 121.05 121.948 119.523C112.52 99.0153 101.585 79.6176 92.5419 58.8389C89.2214 51.2095 86.4655 43.12 82.9275 35.6605C79.6172 28.681 75.7472 22.2966 73.0419 14.826C70.9002 8.91187 61.725 -9.02439 68.2568 8.46714C74.5061 25.202 82.5612 40.5774 89.0249 57.1803C95.7623 74.4859 104.833 90.7311 113.237 106.677C117.3 114.387 121.771 123.769 124.136 132.731C124.559 134.334 124.383 136.82 125.888 136.82" stroke="black" stroke-opacity="0.21" stroke-linecap="round" stroke-linejoin="round"/>
<path d="M3.60679 152.978C3.60679 154.15 2.65063 154.518 2.00128 155.097C-0.853416 157.642 8.46938 151.969 11.5341 149.906C25.1415 140.748 39.4502 133.727 53.1434 124.799C60.302 120.131 67.4692 116.164 75.3038 114.107C77.7686 113.46 69.6357 117.486 68.4826 118.082C58.025 123.482 47.5468 128.756 36.9532 133.667C27.7326 137.942 17.8153 140.915 9.36162 147.654C4.05134 151.888 12.6543 146.616 14.0173 145.872" stroke="black" stroke-opacity="0.21" stroke-linecap="round" stroke-linejoin="round"/>
<path d="M93.0664 66.7306C93.0664 66.0063 93.1594 65.3429 93.1594 64.6143" stroke="black" stroke-opacity="0.21" stroke-linecap="round" stroke-linejoin="round"/>
<path d="M92.8915 64.3293C92.8915 61.3643 93.0787 58.3774 93.0787 55.391C93.0787 53.2867 93.1331 50.3534 92.8281 54.686C91.9624 66.9817 92.0647 79.3695 91.1277 91.6609C90.9906 93.4603 90.4652 108.631 90.7148 102.007C91.2581 87.5867 92.83 73.1127 93.6511 58.6996C93.9145 54.0756 91.6173 49.9182 95.4629 49.2285C97.2147 48.9144 108.634 47.2643 109.06 50.8873C109.121 51.4081 107.368 50.6706 107.231 49.1468C106.834 44.7073 106.428 51.6934 106.405 52.8213C106.158 64.6727 106.52 76.5254 105.926 88.3666C105.677 93.3252 105.21 98.8246 105.739 103.788C106.357 109.593 106.58 92.0958 106.573 86.2319C106.561 75.9836 105.619 65.7801 105.619 55.5082C105.619 54.8772 106.095 50.8746 105.796 53.0628C104.741 60.799 105.89 69.5344 106.037 77.354C106.2 86.0205 106.178 94.7132 105.952 103.375C105.929 104.251 106.17 100.163 106.243 99.4768" stroke="black" stroke-opacity="0.21" stroke-linecap="round" stroke-linejoin="round"/>
<path d="M76.4333 114.339C76.3724 113.56 71.4189 112.715 74.2045 113.831C79.1737 115.822 84.118 117.584 89.1709 119.197C95.1847 121.115 100.781 124.602 106.818 126.387C111.94 127.901 116.84 129.335 121.876 131.33C123.113 131.82 129.909 134.488 125.206 132.748C111.302 127.602 96.9744 126.921 83.1899 120.721C79.6767 119.141 76.2182 117.359 73.0208 114.85C72.2993 114.284 70.8989 113.946 72.8624 114.473C85.8646 117.957 98.4064 124.247 111.293 128.254C116.522 129.88 121.726 131.654 126.974 133.171C129.85 134.002 128.342 133.564 126.58 132.014" stroke="black" stroke-opacity="0.21" stroke-linecap="round" stroke-linejoin="round"/>
<path d="M10.1557 141.536C10.1557 142.197 10.5686 140.644 10.1969 141.869C9.72509 143.423 8.50051 148.989 10.3964 144.678C12.1696 140.646 13.2411 136.052 14.5162 131.72C15.0817 129.799 16.4203 125.952 15.3008 130.172C14.5049 133.171 13.6532 136.152 13.019 139.223C12.8045 140.262 12.3739 142.401 13.2521 140.398C14.5955 137.334 15.3497 133.716 16.2246 130.388C16.9681 127.559 17.6706 124.711 18.4387 121.894C18.7703 120.678 19.5074 117.003 19.5348 118.297C19.5945 121.117 17.4343 125.325 16.7096 127.95C15.8032 131.233 14.9532 134.559 14.8933 138.087C14.8545 140.373 16.1752 136.232 16.3332 135.779C18.4185 129.795 20.2661 123.65 22.0533 117.499C23.3173 113.148 24.4233 108.727 25.6476 104.358C26.1048 102.726 26.5618 100.339 27.4842 99.0225C29.3285 96.3911 25.8406 105.896 24.896 109.274C22.9134 116.365 21.0484 123.647 20.5017 131.223C20.2242 135.068 20.8776 134.638 21.8517 131.445C24.2038 123.733 25.817 115.548 27.7861 107.651C29.3007 101.578 30.5292 94.2775 33.2949 88.9033C34.5414 86.481 32.0191 94.5342 31.2753 97.3015C28.9763 105.855 27.15 114.622 26.1405 123.619C26.008 124.799 25.6181 134.472 25.7778 134.259C26.7075 133.021 27.1334 130.543 27.5604 128.963C28.7831 124.44 29.8969 119.859 30.997 115.28C33.7492 103.825 35.6231 91.7853 39.1526 80.697C39.8348 78.5539 40.5888 76.4499 41.3258 74.3398C41.7964 72.9925 41.6148 73.7568 41.2958 74.6579C36.1759 89.1185 33.0427 105.265 32.6288 121.278C32.5542 124.164 33.1981 124.917 34.3356 122.014C36.906 115.456 38.2019 107.827 39.8042 100.79C42.604 88.4938 45.0968 75.9815 48.5412 63.9698C49.3708 61.0766 50.3423 58.2628 51.207 55.3887C51.2465 55.2573 52.051 52.17 51.962 52.1741C51.3072 52.2037 50.4672 55.1831 50.2626 55.7578C48.9649 59.4029 47.8506 63.1551 46.8762 66.9751C43.5915 79.8519 41.6454 93.0912 39.5735 106.384C38.6266 112.459 36.8605 119.542 37.3848 125.848C37.4566 126.711 38.0733 126.066 38.2431 125.665C39.366 123.011 39.7463 119.58 40.2932 116.667C43.0289 102.1 45.628 87.4349 49.062 73.1263C51.5708 62.6731 54.8149 52.995 58.1492 43.0175C58.4972 41.9759 60.7612 35.7079 58.9513 39.5075C55.936 45.8377 54.3156 53.3619 52.6993 60.4775C49.4549 74.7606 47.3591 89.6018 45.4682 104.3C45.0335 107.679 44.5225 111.084 44.2875 114.502C44.2775 114.647 44.0568 116.397 44.5226 115.857C45.3926 114.847 45.6582 112.298 45.9394 110.929C46.7439 107.013 47.3937 103.027 48.091 99.0744C50.4655 85.6153 52.7851 72.1398 55.5771 58.8212C57.592 49.2101 65.1992 21.0993 62.0779 30.166C59.791 36.8088 58.5731 44.2724 57.1805 51.3066C54.2376 66.1714 52.3526 81.4417 50.9927 96.6997C50.6015 101.088 50.2081 105.49 50.0439 109.907C50.0241 110.437 49.6928 113.377 50.1254 113.735C50.9242 114.396 53.4132 100.523 53.5578 99.7648C56.1611 86.1056 58.6862 72.4217 61.7661 58.9349C62.8898 54.0144 64.1043 49.1324 65.3502 44.2652C65.7989 42.5127 67.4866 37.4849 66.6995 39.0091C63.4512 45.3002 61.8635 53.6221 60.2357 60.8112C56.9627 75.2657 55.0624 90.298 53.7767 105.289C53.6045 107.297 53.0024 114.751 54.5362 108.896C57.252 98.5287 59.0663 87.61 61.1951 77.012C62.8918 68.5654 64.352 59.2746 67.531 51.524C68.9506 48.0631 65.4952 58.9382 64.6125 62.7052C61.7133 75.0788 59.9503 87.7311 58.3007 100.49C57.8896 103.669 57.3981 106.876 57.2128 110.098C57.1222 111.674 57.7124 109.543 57.8577 109.097C60.3956 101.312 61.7931 92.4627 63.3824 84.2721C65.4365 73.6862 66.2183 61.7223 69.7354 51.7531C69.9353 51.1863 70.3051 50.1762 70.1797 51.4367C69.8993 54.2549 68.9944 57.0717 68.4096 59.7937C65.9121 71.4199 63.8256 83.3206 62.6877 95.328C62.6492 95.734 61.698 108.176 62.4105 107.953C62.9941 107.771 63.3101 105.329 63.439 104.754C64.2573 101.101 64.9032 97.376 65.5853 93.6749C66.5895 88.2266 67.5424 82.7626 68.4817 77.2937C69.2695 72.707 69.8822 67.7547 71.3681 63.4524C71.6823 62.5425 72.4457 59.9683 73.4906 60.1365C74.2618 60.2605 73.8459 64.4044 73.8073 64.9485C73.0835 75.1354 71.3825 85.2881 70.2264 95.3992C69.7202 99.8258 69.1889 104.263 68.9658 108.735C68.9579 108.892 68.7691 112.197 69.1903 111.893C70.116 111.227 70.4244 108.276 70.6689 107.122C71.6234 102.619 72.4628 98.0692 73.253 93.5102C75.0264 83.2782 75.5639 71.2273 79.2787 61.8187C81.1033 57.1973 80.3742 66.784 80.2702 67.7912C79.1669 78.4732 77.6495 89.0705 76.4359 99.7297C76.3287 100.672 75.7684 110.872 76.0052 110.625C76.7316 109.869 76.8883 107.165 77.0745 106.102C77.8852 101.474 78.5571 96.7971 79.1763 92.1179C80.331 83.3929 80.4199 73.7457 82.5803 65.3365C83.506 61.7333 83.0263 70.2942 82.9633 70.8431C82.519 74.7101 78.0224 112.352 79.0719 112.352C80.0021 112.352 80.7739 101.443 80.8665 100.606C81.8011 92.1573 82.1286 83.5998 83.1148 75.1674C83.1605 74.7761 84.3553 68.4441 84.3611 71.4609C84.3722 77.3156 83.4936 83.3967 83.1469 89.2382C82.6832 97.0492 81.8634 105.111 82.2124 112.96C82.3541 116.148 83.2803 109.546 83.3367 109.076C84.7553 97.2635 86.1306 61.5617 86.8296 73.4892C87.2114 80.0033 86.1705 86.8046 85.6272 93.254C85.2714 97.4779 84.8486 101.718 84.7024 105.967C84.6483 107.54 84.395 109.687 84.9329 111.17C85.6929 113.266 86.3118 110.823 86.4666 109.81C87.3707 103.889 87.4949 97.7388 87.5422 91.7179C87.5638 88.9648 87.5321 86.2111 87.5553 83.4581C87.5654 82.2612 87.7451 84.657 87.7542 84.878C88.0476 92.0168 87.845 99.2452 87.845 106.392C87.845 107.075 87.3516 118.097 88.1623 118.254C88.6063 118.34 89.4944 106.592 89.5629 105.79C89.9018 101.824 90.169 97.8501 90.4228 93.8723C90.5884 91.2767 90.4274 87.9445 91.1603 85.4798C91.518 84.2765 91.7348 86.8728 91.7457 87.0851C91.8947 89.978 91.799 92.9173 91.7933 95.8149C91.7779 103.685 91.0406 111.501 90.8387 119.359C90.7863 121.401 91.0201 124.086 91.4827 120.41C92.2749 114.115 92.8403 107.776 93.3886 101.436C93.4434 100.803 94.3493 91.72 94.8395 95.8046C95.4122 100.576 95.0788 105.694 95.0788 110.504C95.0788 112.348 94.313 120.335 95.692 121.688C95.8633 121.856 96.8189 113.772 96.8734 113.141C97.33 107.864 96.7469 101.469 97.9363 96.4134C98.2423 95.1129 98.5159 97.716 98.5366 97.9729C98.7352 100.435 98.6965 102.934 98.7272 105.406C98.7876 110.275 98.7657 115.279 99.5804 120.056C99.7385 120.983 100.041 123.208 100.316 121.115C100.877 116.847 100.999 112.489 101.218 108.174C101.307 106.434 101.59 101.749 102.39 105.894C103.268 110.447 103.657 115.173 104.434 119.761C104.688 121.258 104.952 125.185 106.119 126.065C106.677 126.486 106.734 122.113 106.748 121.711C106.849 118.903 106.54 115.51 107.151 112.79C107.397 111.694 108.256 115.414 108.36 115.773C109.209 118.706 110.835 121.05 110.994 124.258C111.177 127.957 111.098 121.368 111.047 120.536C110.847 117.285 109.558 113.895 108.691 110.906C107.553 106.987 106.465 102.193 104.043 99.3079C101.981 96.8518 99.2021 95.7321 97.0277 93.4471C94.7452 91.0486 93.0084 87.4143 90.5547 85.3739C89.8653 84.8007 88.873 84.7766 88.2746 84.0583C87.6407 83.2974 89.1366 83.2352 89.3927 83.3461C92.0514 84.4966 94.2342 90.9748 95.4789 93.9139C98.1292 100.172 99.8935 107.238 103.389 112.807C105.127 115.577 106.961 118.361 108.795 121.019C109.503 122.044 110.477 123.232 110.522 121.091C110.685 113.321 106.469 105.886 102.888 100.32C99.8948 95.6674 97.2388 91.0802 94.9807 85.7183C93.4282 82.0319 91.9357 77.8735 89.3975 75.1835C88.2693 73.9877 86.9247 73.1998 85.8215 71.9738C84.5245 70.5326 86.6547 73.8786 86.8934 74.4531C89.0266 79.5883 90.5116 85.1381 92.8297 90.158C95.0495 94.9651 97.9886 98.9068 100.763 103.124C102.873 106.333 104.542 109.948 106.323 113.478C106.415 113.661 108.228 116.968 108.304 115.768C108.451 113.45 107.218 110.652 106.495 108.638C105.067 104.665 102.983 101.264 100.949 97.8329C95.4503 88.5557 91.7744 77.1324 84.7071 69.6757C82.0491 66.8713 79.8553 63.9506 77.939 60.1945C75.9875 56.3693 74.6727 51.6303 72.3702 48.176C71.3594 46.6595 70.0121 45.7529 69.0956 44.0885C68.0928 42.2674 67.7517 39.9386 67.4576 37.7602C67.3317 36.8279 67.0156 35.6976 67.2548 37.3079C67.5675 39.4131 68.6575 41.5226 69.5894 43.2132C71.3514 46.4096 73.4696 49.1823 75.3626 52.2334C79.0989 58.2551 81.794 65.143 84.7445 71.8564C87.2235 77.4971 90.0058 82.485 93.1835 87.4364C96.2192 92.1666 98.47 97.5437 100.928 102.81C103.165 107.605 106.162 114.632 110.969 114.584C111.815 114.575 110.749 113.025 110.58 112.758C108.915 110.116 107.138 107.607 105.5 104.933C102.408 99.8893 99.6144 94.4992 96.3824 89.6138C93.5266 85.2972 89.9527 82.0412 87.1424 77.6093C83.4547 71.7937 80.0084 65.8573 77.2228 59.1825C75.2082 54.3552 73.5434 48.7344 69.7455 45.9368C67.7667 44.4791 65.4541 44.4999 63.4101 43.3054C62.1814 42.5874 61.2331 41.3669 59.8387 41.3966C57.9506 41.4367 56.6263 45.1652 55.8792 46.974C53.9598 51.6209 52.5527 56.6387 50.7386 61.3632C45.5018 75.0018 40.7005 89.0392 34.9837 102.327C32.5808 107.912 29.9212 113.077 26.5839 117.741C25.6987 118.978 22.7221 122.163 23.846 121.344C26.3657 119.506 28.3305 114.258 30.0461 111.356C34.6774 103.523 39.356 95.7478 45.1365 89.3551C46.7858 87.5312 51.1768 81.5368 53.7398 82.1363C55.2273 82.4842 50.5748 90.0101 50.3143 90.4084C41.7627 103.489 32.0553 115.096 23.04 127.572C22.0858 128.892 20.1425 130.928 22.4792 130.798C26.4907 130.577 30.6205 127.256 34.0795 124.851C40.1993 120.597 46.0283 115.514 52.478 112.156C57.586 109.497 62.9384 108.024 68.2484 106.293C70.0861 105.694 73.1245 103.799 75.0665 104.402C75.3745 104.498 70.5962 108.376 70.1716 108.662C59.4832 115.856 49.9046 126.662 38.5101 131.82C36.3986 132.776 34.0757 133.411 31.8306 133.276C31.2526 133.241 32.882 132.627 33.4247 132.358C34.9444 131.607 36.4437 130.802 37.9285 129.935C49.186 123.355 59.4568 114.584 71.1812 109.355C75.1139 107.601 79.1154 105.974 82.8799 103.621C83.0768 103.498 86.2065 101.454 85.3778 101.105C81.3524 99.4096 75.6766 102.052 72.512 97.257C69.4342 92.593 69.7187 84.4208 69.7187 78.6539C69.7187 69.8675 70.4711 61.4025 71.0618 52.6782C71.1632 51.1799 72.257 43.8578 70.0897 44.0576C67.2417 44.3201 64.7008 51.9752 63.5113 54.6711C59.9823 62.6688 56.9106 71.0159 54.3022 79.6202C52.4139 85.8491 49.8034 92.5193 48.686 99.1049C47.8572 103.989 52.1421 90.214 53.7183 85.6705C57.5617 74.5917 61.5852 63.0488 67.4557 53.5869C69.2599 50.679 72.3815 47.0243 71.879 53.2718C71.1678 62.1128 68.3621 71.0605 66.6293 79.6104C66.3566 80.9562 63.0216 95.7381 65.0837 95.9743C66.3631 96.1208 67.4721 93.86 68.1569 92.7098C70.2066 89.2672 72.0494 85.5986 73.9316 81.9921C75.7714 78.4668 79.2497 68.4893 83.2603 68.9894C85.9415 69.3238 84.5562 81.6802 84.4049 83.6838C83.9125 90.2073 82.5727 97.9388 83.3947 104.493C83.7777 107.546 86.6554 107.096 88.3545 106.747C90.8504 106.233 93.2514 105.85 95.7819 105.85C97.9241 105.85 100.267 106.424 102.389 105.972C102.686 105.908 104.301 105.568 103.586 104.898C101.652 103.086 100.07 100.354 98.5144 98.0203C94.6832 92.2704 91.3288 86.0592 87.9022 79.8789C84.8264 74.3312 81.7412 70.055 76.4341 69.0623C66.6096 67.2247 58.1838 75.139 50.8067 82.6932C44.0718 89.5898 36.5872 98.1043 32.8209 108.537C32.3947 109.718 31.4516 113.105 33.2981 112.609C36.0168 111.879 39.2569 107.013 41.2898 104.747C46.5557 98.8767 51.2539 92.1764 56.5174 86.3139C59.7534 82.7097 64.8143 77.3412 69.4466 78.7923C75.7314 80.7611 73.9784 95.7668 73.198 101.501C72.669 105.387 72.1257 109.537 70.9957 113.211C70.089 116.159 72.0908 107.005 72.6679 103.912C74.3958 94.6523 75.9161 85.2887 77.2508 75.9142C77.8642 71.6053 78.489 67.282 78.8872 62.926C79.0941 60.6617 79.5346 57.898 79.1606 55.6177C78.0708 48.9728 66.8009 53.1478 64.1862 54.7601C59.6784 57.5395 54.9111 61.6112 51.593 66.6324C46.9129 73.7144 60.8855 50.9515 67.6137 48.0619C76.3451 44.3118 71.9839 65.0706 70.6957 69.6197C68.5733 77.1145 66.2834 84.5996 63.7894 91.8872C62.2914 96.2642 60.5746 101.149 58.0302 104.653C56.0524 107.377 53.4502 110.021 50.7545 111.251C47.4318 112.766 44.8851 114.472 41.9621 117.08C41.7581 117.262 39.6659 119.112 40.471 117.856C42.5318 114.642 45.4573 112.277 48.2241 110.327C53.6653 106.493 59.5447 104.01 64.9165 99.9279C69.5619 96.3973 73.8439 92.0922 78.4737 88.5523C80.124 87.2906 83.6109 84.4235 85.5344 86.3906C86.7584 87.6423 87.0804 90.0684 87.2636 91.9898C87.5124 94.5979 87.4863 101.129 90.1348 101.333C91.5338 101.44 92.7311 100.543 94.1085 100.442C95.7766 100.32 97.3541 100.686 99.0043 100.815C102.836 101.114 98.9094 97.6378 97.5594 96.815C92.3485 93.6393 86.8521 89.9612 81.0351 89.7526" stroke="black" stroke-opacity="0.21" stroke-linecap="round" stroke-linejoin="round"/>
</svg>
