<svg width="11" height="9" viewBox="0 0 11 9" fill="none" xmlns="http://www.w3.org/2000/svg">
<path d="M3.92188 7.20129C3.96058 7.20129 3.97359 7.16666 3.99261 7.13571C4.1295 6.91289 4.30537 6.72528 4.47491 6.52783C5.05642 5.85061 5.66542 5.21652 6.27513 4.56476C6.57164 4.2478 6.90335 3.96654 7.19767 3.64821C7.57249 3.24281 7.94982 2.83521 8.33466 2.43955C8.7118 2.05181 9.1145 1.68678 9.49807 1.30473C9.55262 1.25039 9.86843 0.986343 9.65395 1.00055" stroke="black" stroke-opacity="0.21" stroke-width="0.2" stroke-linecap="round" stroke-linejoin="round"/>
<path d="M3.72266 5.60793C3.72266 5.56127 3.76395 5.53655 3.79682 5.50575C4.03898 5.27889 4.28305 5.05489 4.53009 4.83333C5.16512 4.26379 5.83986 3.7524 6.53517 3.25806C7.17911 2.80024 7.85549 2.38663 8.52538 1.96796C8.97645 1.68606 9.41436 1.35875 9.87671 1.09766" stroke="black" stroke-opacity="0.21" stroke-width="0.2" stroke-linecap="round" stroke-linejoin="round"/>
<path d="M3.83565 7.07594C3.8587 7.07594 3.87469 7.08696 3.88764 7.1063C3.89754 7.12108 3.72254 6.92863 3.69079 6.89221C3.15053 6.27252 1.67891 4.2925 2.15037 4.96602" stroke="black" stroke-opacity="0.21" stroke-width="0.2" stroke-linecap="round" stroke-linejoin="round"/>
<path d="M2.23128 4.67038C2.05946 4.62839 2.19354 4.68952 2.28719 4.7298C2.80951 4.95444 3.28986 5.26688 3.8103 5.49259" stroke="black" stroke-opacity="0.21" stroke-width="0.2" stroke-linecap="round" stroke-linejoin="round"/>
<path d="M6.96157 2.8596C7.05127 2.8596 6.88324 2.6147 6.87381 2.60004C6.6381 2.23376 6.1721 2.06396 5.80196 1.88585C5.18068 1.5869 4.47802 1.58839 3.81984 1.75582C3.44552 1.85104 3.15334 1.99889 2.84991 2.2352C2.49983 2.50784 2.13623 2.82798 1.84884 3.16583C1.54507 3.52293 1.35631 3.99744 1.21508 4.4396C1.0502 4.95579 0.941662 5.52702 1.03364 6.06862C1.2258 7.20002 2.39512 7.99668 3.45449 8.17719C4.13972 8.29394 4.77223 8.2298 5.42611 8.00043C6.03322 7.78747 6.66324 7.49679 7.10599 7.01614C7.90834 6.14511 7.9423 4.78358 7.20406 3.86245" stroke="#1016AA" stroke-opacity="0.44" stroke-width="0.6" stroke-linecap="round" stroke-linejoin="round"/>
<path d="M4.04247 7.20129C4.08118 7.20129 4.09418 7.16666 4.1132 7.13571C4.25009 6.91289 4.42596 6.72528 4.5955 6.52783C5.17701 5.85061 5.78601 5.21652 6.39572 4.56476C6.69223 4.2478 7.02395 3.96654 7.31826 3.64821C7.69308 3.24281 8.07041 2.83521 8.45526 2.43955C8.83239 2.05181 9.2351 1.68678 9.61866 1.30473C9.67322 1.25039 9.98902 0.986343 9.77455 1.00055M3.84458 5.60646C3.84458 5.5598 3.88587 5.53508 3.91875 5.50428C4.1609 5.27742 4.40497 5.05342 4.65201 4.83186C5.28704 4.26232 5.96178 3.75094 6.65709 3.25659C7.30103 2.79877 7.97741 2.38516 8.6473 1.96649C9.09837 1.68459 9.53628 1.35728 9.99864 1.09619M3.95885 7.07518C3.97015 7.07518 3.97974 7.07782 3.98812 7.08279M3.98812 7.08279C3.99684 7.08797 4.00424 7.09567 4.01084 7.10554C4.01335 7.10928 4.004 7.09973 3.98812 7.08279ZM3.98812 7.08279C3.94129 7.03285 3.83771 6.91865 3.814 6.89145C3.27374 6.27176 1.80211 4.29174 2.27358 4.96526M2.35339 4.67239C2.18157 4.6304 2.31565 4.69153 2.4093 4.73181C2.93163 4.95645 3.41197 5.26889 3.93242 5.4946M7.08267 2.85796C7.17236 2.85796 7.00434 2.61306 6.9949 2.59839C6.7592 2.23212 6.2932 2.06231 5.92306 1.88421C5.30177 1.58526 4.59911 1.58675 3.94094 1.75417C3.56661 1.84939 3.27443 1.99725 2.971 2.23356C2.62093 2.50619 2.25732 2.82633 1.96993 3.16419C1.66616 3.52129 1.47741 3.9958 1.33617 4.43795C1.17129 4.95414 1.06276 5.52537 1.15474 6.06697C1.34689 7.19837 2.51621 7.99504 3.57558 8.17554C4.26082 8.2923 4.89332 8.22816 5.5472 7.99879C6.15431 7.78582 6.78433 7.49514 7.22708 7.01449C8.02944 6.14346 8.06339 4.78194 7.32516 3.8608" stroke="black" stroke-width="0.2" stroke-linecap="round" stroke-linejoin="round"/>
</svg>
