<svg width="32" height="32" viewBox="0 0 32 32" fill="none" xmlns="http://www.w3.org/2000/svg">
<path d="M9.85713 9.04045C9.85711 9.04032 9.85708 9.0402 9.85705 9.04007M9.85705 9.04007C9.8487 9.00411 9.61569 8.81163 9.78102 8.96762C9.80647 8.99163 9.83182 9.01579 9.85705 9.04007ZM9.85705 9.04007C10.569 9.72511 11.1928 10.5124 11.8002 11.2848C11.8253 11.3166 11.8503 11.3486 11.8751 11.3806M11.8751 11.3806C12.1267 11.7049 12.3679 12.0374 12.6016 12.3756M11.8751 11.3806C12.6983 12.7927 13.7722 14.5663 14.4371 15.4954M11.8751 11.3806C10.9545 9.80138 10.3476 8.67415 10.977 9.68531C11.5308 10.575 12.0688 11.4738 12.6016 12.3756M12.6016 12.3756C13.5339 13.725 14.348 15.1659 15.2408 16.5453M12.6016 12.3756C13.2153 13.4146 13.8218 14.4576 14.4371 15.4954M15.2408 16.5453C15.8368 17.4659 16.4678 18.3591 17.1924 19.1793C17.5513 19.5856 17.3901 19.1894 17.2109 18.9605C16.5701 18.1419 15.8902 17.3562 15.2408 16.5453ZM15.2408 16.5453C14.9932 16.236 14.7501 15.9231 14.5153 15.6033C14.4899 15.5688 14.4638 15.5328 14.4371 15.4954M14.4371 15.4954C15.4074 17.1321 16.3992 18.7559 17.4746 20.3306C17.8922 20.9421 18.3459 21.5898 18.8487 22.1371C18.9296 22.2251 19.1671 22.4245 19.1671 22.3337M18.5045 21.6311C18.4934 21.6311 18.4824 21.6311 18.4718 21.6311M18.4718 21.6311C18.2902 21.6309 18.1926 21.6292 18.4718 21.6311ZM18.4718 21.6311C18.4727 21.6311 18.4735 21.6311 18.4744 21.6311C19.1163 21.6355 19.7596 21.6607 20.4014 21.6263C20.498 21.6211 20.6494 21.6001 20.8213 21.5714M20.8213 21.5714C21.5634 21.4476 22.6873 21.1816 21.4365 21.4355C21.0196 21.5201 20.5322 21.4979 20.1183 21.4167C19.9989 21.3933 19.8983 21.3723 19.8287 21.3573M20.8213 21.5714C20.4822 21.5126 20.1892 21.4412 20.0648 21.412C19.9608 21.3877 19.8832 21.3698 19.8287 21.3573M20.8213 21.5714C21.5706 21.7013 22.5447 21.7695 22.419 21.1831M19.8287 21.3573C19.7028 21.3303 19.6785 21.3231 19.8287 21.3573ZM22.1054 21.3504C22.1895 21.3741 22.2662 21.4312 22.3348 21.4978M22.3348 21.4978C22.3929 21.5543 22.4453 21.6177 22.4913 21.6734L22.4987 21.6824C22.6078 21.8143 22.4982 21.6914 22.3348 21.4978ZM22.3348 21.4978C22.1644 21.296 21.9354 21.0174 21.8344 20.8705C20.066 18.2998 18.1187 15.7456 16.4933 13.063M16.4933 13.063C16.3227 12.7813 16.1555 12.4982 15.9926 12.2135M16.4933 13.063C16.3317 12.7765 16.1655 12.4929 15.9926 12.2135M16.4933 13.063C17.3265 14.5402 18.0366 16.0949 18.9174 17.5504M15.9926 12.2135C15.9677 12.1702 15.943 12.1268 15.9184 12.0834C15.8958 12.0436 15.8165 11.9262 15.72 11.786M15.9926 12.2135C15.9036 12.0698 15.8129 11.9273 15.72 11.786M15.72 11.786C15.4876 11.4484 15.1554 10.9789 15.2761 11.1442C15.4297 11.3547 15.5773 11.5688 15.72 11.786ZM18.9174 17.5504C19.1855 17.9934 19.4695 18.4273 19.7775 18.8469C20.075 19.2521 20.3677 19.6598 20.6499 20.0752C20.9154 20.466 20.1684 19.36 20.0942 19.2545C19.6953 18.6877 19.3035 18.1199 18.9174 17.5504ZM18.9174 17.5504C17.6663 15.7046 16.4755 13.841 15.3002 11.9367C14.7614 11.0637 14.147 9.89518 13.4277 9.15629C13.2478 8.97149 13.3555 9.32257 13.3921 9.42399M10.3689 8.67607C10.2126 8.2442 10.0442 8.92909 10.7432 9.23202C10.8727 9.28813 11.0077 9.33314 11.1466 9.36945M11.1466 9.36945C11.5316 9.47008 11.9471 9.50394 12.3604 9.52227M11.1466 9.36945C11.3967 9.3622 11.6145 9.35088 11.6781 9.35473C12.1959 9.38606 12.766 9.36202 13.2999 9.4093M11.1466 9.36945C11.0168 9.37322 10.8784 9.37589 10.7482 9.37478M12.3604 9.52227C12.735 9.53888 13.1079 9.54273 13.4547 9.57197C13.713 9.59376 14.2965 9.57173 13.7151 9.46427C13.5804 9.43937 13.4414 9.42183 13.2999 9.4093M12.3604 9.52227C11.9343 9.53204 11.5084 9.50117 11.1348 9.48113C11.0358 9.47581 10.8933 9.42889 10.7482 9.37478M12.3604 9.52227C12.6809 9.51492 13.0015 9.48456 13.2999 9.4093M13.2999 9.4093C13.6014 9.33329 13.8802 9.21146 14.1137 9.02126M10.7482 9.37478C10.4687 9.37241 10.2273 9.35262 10.1921 9.28887C10.0861 9.09689 10.4237 9.2538 10.7482 9.37478ZM10.2533 22.0722C10.2533 22.287 10.2548 22.0196 10.3448 21.8777C11.1438 20.6167 12.3414 19.5797 13.4135 18.555C13.9926 18.0016 15.158 17.1651 15.4769 16.3988C15.8221 15.5695 14.1082 17.5804 13.4509 18.1998C13.1334 18.4989 12.8049 18.7912 12.4797 19.0874M12.4797 19.0874C12.413 19.1482 12.3464 19.2091 12.2801 19.2703M12.4797 19.0874C11.9098 19.755 11.3735 20.4542 10.7296 21.0537C10.1348 21.6073 10.3692 21.417 10.7332 20.925C11.1823 20.3182 11.7221 19.7851 12.2801 19.2703M12.4797 19.0874C12.55 19.0051 12.6209 18.9232 12.6925 18.842M12.2801 19.2703C12.3744 19.1707 12.5283 19.0114 12.6925 18.842M12.2801 19.2703C12.2491 19.303 12.2246 19.3292 12.2082 19.3473M12.6925 18.842C12.8738 18.6365 13.0601 18.4357 13.2557 18.2436C13.667 17.8397 13.1416 18.3785 12.6925 18.842ZM17.8301 13.0293C17.7295 13.0998 17.6208 13.1711 17.5099 13.2449M17.5099 13.2449C17.1704 13.4707 16.8106 13.7199 16.6031 14.0432C16.3871 14.3796 17.2263 13.5339 17.5071 13.2477C17.5081 13.2468 17.509 13.2458 17.5099 13.2449ZM17.5099 13.2449C18.3418 12.3969 19.1077 11.495 19.8599 10.5781C20.0161 10.3878 20.187 10.1207 20.3782 9.87066M20.3782 9.87066C20.4163 9.82084 20.4552 9.77169 20.495 9.72397M20.3782 9.87066C20.5436 9.7439 20.7102 9.6176 20.8484 9.50974M20.3782 9.87066C20.301 9.92984 20.224 9.98913 20.1503 10.0467M20.495 9.72397C20.6672 9.51721 20.8554 9.33715 21.0631 9.24422C21.3079 9.13467 21.1421 9.28061 20.8484 9.50974M20.495 9.72397C20.374 9.82067 20.2592 9.93368 20.1503 10.0467M20.495 9.72397C20.6073 9.63413 20.725 9.55837 20.8484 9.50974M20.8484 9.50974C20.8664 9.50264 20.8845 9.49613 20.9027 9.49023M20.1503 10.0467C19.9813 10.1787 19.8294 10.3016 19.7309 10.3933C18.9248 11.144 18.204 11.9768 17.474 12.7996M20.1503 10.0467C20.0307 10.1707 19.9182 10.2947 19.8121 10.3972C19.0969 11.0881 18.4075 11.8001 17.7279 12.5251C17.6829 12.5731 17.5904 12.6731 17.474 12.7996M17.474 12.7996C17.2289 13.0758 16.9828 13.3509 16.7321 13.6214C15.7933 14.6342 16.9127 13.4093 17.474 12.7996ZM7.97773 3.18967C7.97773 3.39323 6.36376 4.34975 6.15462 4.54815C4.43917 6.17544 3.39795 7.95952 2.72142 10.202C2.13502 12.1458 1.70369 14.3746 1.46086 16.3865C1.34594 17.3386 1.38855 18.352 1.41946 19.3095C1.43213 19.7019 1.74242 20.0595 1.72157 20.4334C1.68799 21.0354 1.34634 19.282 1.2392 18.6885C1.02059 17.4775 1.067 16.2234 1.08696 14.9985C1.12075 12.9253 1.37877 10.6751 2.31923 8.80034C3.32377 6.79781 4.7581 5.70595 6.40484 4.24732C8.06816 2.77401 10.4762 1.76483 12.72 1.59797M1 17.9334C1 18.3362 1.16862 18.7103 1.31363 19.0815L1.31606 19.0877C1.7887 20.2977 2.30222 21.6122 3.18446 22.5981M3.18446 22.5981C3.23809 22.6581 3.29308 22.7168 3.3495 22.7742C3.92583 23.3605 4.61923 23.8455 5.16016 24.4641C5.3939 24.7314 5.68531 25.6522 5.79673 25.3168C5.93592 24.8979 4.49239 23.2685 4.25869 22.9458C4.14218 22.7849 2.80162 21.1876 2.80162 21.5546C2.80162 21.8897 2.98054 22.2584 3.18446 22.5981ZM3.18446 22.5981C3.32201 22.8273 3.47092 23.0433 3.584 23.2271C4.4206 24.5865 5.63333 25.8045 6.96427 26.7018C8.14651 27.4989 9.66531 28.5076 11.1353 28.5314M10.1684 29.2148C9.93892 29.3742 9.66477 29.2461 9.9211 29.0461C10.2851 28.762 11.3701 29.5068 11.6949 29.6321C12.292 29.8624 12.8871 30.1964 13.4981 30.4726M13.4981 30.4726C13.7118 30.5691 13.9274 30.6586 14.1457 30.7341M13.4981 30.4726C14.761 30.1453 18.4622 29.5166 21.5454 28.6335M13.4981 30.4726C12.8574 30.6386 12.8443 30.727 13.8582 30.7315C13.9536 30.732 14.0495 30.7329 14.1457 30.7341M14.1457 30.7341C14.4962 30.8553 14.8538 30.9404 15.2214 30.9609C16.1098 31.0103 17.1579 31.0422 18.03 30.8691C19.2448 30.6279 20.3009 29.8931 21.4637 29.493C22.2183 29.2333 22.6766 28.6487 23.1917 28.1112M14.1457 30.7341C15.3977 30.7496 16.7071 30.8077 17.8872 30.3528C18.8918 29.9656 20.0214 29.5138 20.9656 28.9967C21.1655 28.8872 21.3576 28.7642 21.5454 28.6335M23.1917 28.1112C23.4187 27.8742 23.6568 27.6464 23.9361 27.4596C24.5459 27.0518 25.2641 26.9628 25.8629 26.5224C26.5164 26.0419 25.5848 26.9448 25.4009 27.0723C24.8645 27.4439 24.0922 27.7907 23.1917 28.1112ZM23.1917 28.1112C22.6779 28.294 22.1225 28.4682 21.5454 28.6335M21.5454 28.6335C22.1517 28.2113 22.7126 27.708 23.3418 27.317C23.9808 26.9201 24.663 26.5042 25.24 26.0222C26.1467 25.2647 26.9181 24.2925 27.739 23.4472C28.4775 22.6868 29.1082 21.7721 29.6286 20.8443M29.6286 20.8443C29.6884 20.7377 29.7468 20.6309 29.8037 20.5242C30.5926 19.0439 30.5546 17.025 30.5546 15.4004C30.5546 14.5316 29.5269 11.712 30.3943 11.093C30.6614 10.9023 30.9678 13.4072 30.9793 13.6249C31.0648 15.2349 30.8686 16.8922 30.694 18.4942C30.5576 19.7456 29.86 20.448 29.3559 21.5178C29.2134 21.8201 29.4474 21.2833 29.6286 20.8443ZM29.6286 20.8443C29.715 20.6351 29.7894 20.448 29.8054 20.3846C30.2187 18.7417 30.4603 17.0059 30.4603 15.3116C30.4603 14.2124 29.9437 13.363 29.7911 12.3234C29.6404 11.2965 29.4147 10.3372 29.034 9.36588C28.7575 8.66042 28.3545 7.99824 28.3545 7.22385M29.958 11.3435C30.6464 11.9089 30.122 10.943 29.344 9.77217M29.344 9.77217C29.1507 9.48128 28.9418 9.17774 28.7319 8.88188M29.344 9.77217C29.5411 10.5359 28.8629 9.94619 28.8002 9.24501C28.7888 9.11751 28.7653 8.99687 28.7319 8.88188M29.344 9.77217C29.3345 9.7354 29.323 9.69548 29.3093 9.65228C28.8918 8.33805 27.8993 7.11962 26.8217 6.08313M28.7319 8.88188C28.2763 8.23974 27.8162 7.6338 27.502 7.27199C27.0161 6.71249 26.4214 6.2703 25.8948 5.75061C25.3334 5.19657 24.9105 4.53574 24.2685 4.06205C23.6736 3.6231 22.9236 3.13285 22.1505 2.7271M28.7319 8.88188C28.4978 8.07728 27.7748 7.5496 27.2703 6.88603C27.0786 6.63396 26.9482 6.35905 26.8217 6.08313M22.1505 2.7271C21.5442 2.40888 20.9237 2.14264 20.3528 1.99392C19.7701 1.84216 19.2028 1.65531 18.634 1.48472M22.1505 2.7271C23.2665 3.25032 24.3081 3.95744 25.2385 4.70439C25.7484 5.11385 26.2952 5.57678 26.8217 6.08313M22.1505 2.7271C21.2054 2.28401 20.207 1.97281 19.1776 1.88099C18.2832 1.8012 17.3228 1.63694 16.3583 1.52732M18.634 1.48472C17.7619 1.22325 16.8861 1 15.9457 1C14.8072 1 13.6171 1.30629 12.5156 1.70547M18.634 1.48472C17.8842 1.51524 17.1229 1.52041 16.3583 1.52732M18.634 1.48472C18.6584 1.48373 18.6829 1.48271 18.7073 1.48166C21.4153 1.36526 24.3833 3.0948 26.1748 4.99756C26.4818 5.32367 26.648 5.70435 26.8217 6.08313M12.5156 1.70547C12.2153 1.8143 11.9215 1.93004 11.6372 2.04835C11.5572 2.08164 10.3783 2.49085 10.3783 2.36487C10.3783 2.02116 10.9938 1.96021 11.243 1.90888C11.6627 1.82243 12.0874 1.75629 12.5156 1.70547ZM12.5156 1.70547C12.5774 1.69813 12.6394 1.69111 12.7014 1.68439M12.7014 1.68439C13.9061 1.55386 15.1363 1.53837 16.3583 1.52732M12.7014 1.68439C12.7644 1.66598 12.8277 1.64821 12.8915 1.6311C13.9759 1.34016 15.1702 1.39228 16.3583 1.52732M12.7014 1.68439C11.6706 1.9857 10.7392 2.45807 9.79574 2.96943C8.50672 3.66809 6.6456 4.11765 5.91201 5.47351M6.96375 4.43444C7.00901 4.38993 7.05401 4.35113 7.09898 4.31677M7.09898 4.31677C7.25948 4.19415 7.41957 4.12815 7.58946 4.06108M7.09898 4.31677C7.26664 4.22532 7.43783 4.13687 7.58946 4.06108M7.09898 4.31677C6.81161 4.47351 6.53462 4.63906 6.3843 4.76481C5.41336 5.57701 4.35114 6.58495 3.56261 7.69358M7.58946 4.06108C7.71265 4.01244 7.84099 3.96324 7.9784 3.89148C8.23972 3.755 7.97925 3.86622 7.58946 4.06108ZM3.56261 7.69358C3.24238 8.14381 2.96729 8.61064 2.76179 9.08771C2.70432 9.22112 1.76744 11.272 1.77818 10.7288C1.78801 10.2317 2.2374 9.62748 2.45196 9.19347C2.98952 8.10613 3.62537 7.02972 4.44236 6.12213C4.80765 5.71634 5.23874 5.38429 5.68942 5.07719M3.56261 7.69358C4.16569 6.73776 4.88074 5.85126 5.68942 5.07719M3.56261 7.69358C2.78352 8.92836 2.19127 10.2788 1.82535 11.652M5.68942 5.07719C6.55363 4.48831 7.48989 3.99115 8.17243 3.24168C8.23605 3.17181 6.94494 4.01812 6.67291 4.22872C6.33167 4.4929 6.00349 4.77657 5.68942 5.07719Z" stroke="black" stroke-linecap="round" stroke-linejoin="round"/>
</svg>
